<?xml version="1.0" encoding="utf-8" standalone="no"?>
<!DOCTYPE svg PUBLIC "-//W3C//DTD SVG 1.1//EN"
  "http://www.w3.org/Graphics/SVG/1.1/DTD/svg11.dtd">
<svg xmlns:xlink="http://www.w3.org/1999/xlink" width="853.2855pt" height="711.918603pt" viewBox="0 0 853.2855 711.918603" xmlns="http://www.w3.org/2000/svg" version="1.1">
 <metadata>
  <rdf:RDF xmlns:dc="http://purl.org/dc/elements/1.1/" xmlns:cc="http://creativecommons.org/ns#" xmlns:rdf="http://www.w3.org/1999/02/22-rdf-syntax-ns#">
   <cc:Work>
    <dc:type rdf:resource="http://purl.org/dc/dcmitype/StillImage"/>
    <dc:date>2026-04-14T10:58:31.003486</dc:date>
    <dc:format>image/svg+xml</dc:format>
    <dc:creator>
     <cc:Agent>
      <dc:title>Matplotlib v3.10.8, https://matplotlib.org/</dc:title>
     </cc:Agent>
    </dc:creator>
   </cc:Work>
  </rdf:RDF>
 </metadata>
 <defs>
  <style type="text/css">*{stroke-linejoin: round; stroke-linecap: butt}</style>
 </defs>
 <g id="figure_1">
  <g id="patch_1">
   <path d="M -0 711.918603 
L 853.2855 711.918603 
L 853.2855 0 
L -0 0 
z
" style="fill: #ffffff"/>
  </g>
  <g id="axes_1">
   <g id="patch_2">
    <path d="M 47.7875 209.035663 
L 846.0855 209.035663 
L 846.0855 7.2 
L 47.7875 7.2 
z
" style="fill: #ffffff"/>
   </g>
   <g id="matplotlib.axis_1">
    <g id="xtick_1">
     <g id="line2d_1">
      <path d="M 84.073773 209.035663 
L 84.073773 7.2 
" clip-path="url(#p94c1455461)" style="fill: none; stroke-dasharray: 2.96,1.28; stroke-dashoffset: 0; stroke: #b0b0b0; stroke-opacity: 0.6; stroke-width: 0.8"/>
     </g>
     <g id="line2d_2">
      <defs>
       <path id="m2ae3bda926" d="M 0 0 
L 0 3.5 
" style="stroke: #000000; stroke-width: 0.8"/>
      </defs>
      <g>
       <use xlink:href="#m2ae3bda926" x="84.073773" y="209.035663" style="stroke: #000000; stroke-width: 0.8"/>
      </g>
     </g>
     <g id="text_1">
      <!-- 0 -->
      <g transform="translate(80.892523 223.6341) scale(0.1 -0.1)">
       <defs>
        <path id="DejaVuSans-30" d="M 2034 4250 
Q 1547 4250 1301 3770 
Q 1056 3291 1056 2328 
Q 1056 1369 1301 889 
Q 1547 409 2034 409 
Q 2525 409 2770 889 
Q 3016 1369 3016 2328 
Q 3016 3291 2770 3770 
Q 2525 4250 2034 4250 
z
M 2034 4750 
Q 2819 4750 3233 4129 
Q 3647 3509 3647 2328 
Q 3647 1150 3233 529 
Q 2819 -91 2034 -91 
Q 1250 -91 836 529 
Q 422 1150 422 2328 
Q 422 3509 836 4129 
Q 1250 4750 2034 4750 
z
" transform="scale(0.015625)"/>
       </defs>
       <use xlink:href="#DejaVuSans-30"/>
      </g>
     </g>
    </g>
    <g id="xtick_2">
     <g id="line2d_3">
      <path d="M 241.840176 209.035663 
L 241.840176 7.2 
" clip-path="url(#p94c1455461)" style="fill: none; stroke-dasharray: 2.96,1.28; stroke-dashoffset: 0; stroke: #b0b0b0; stroke-opacity: 0.6; stroke-width: 0.8"/>
     </g>
     <g id="line2d_4">
      <g>
       <use xlink:href="#m2ae3bda926" x="241.840176" y="209.035663" style="stroke: #000000; stroke-width: 0.8"/>
      </g>
     </g>
     <g id="text_2">
      <!-- 50 -->
      <g transform="translate(235.477676 223.6341) scale(0.1 -0.1)">
       <defs>
        <path id="DejaVuSans-35" d="M 691 4666 
L 3169 4666 
L 3169 4134 
L 1269 4134 
L 1269 2991 
Q 1406 3038 1543 3061 
Q 1681 3084 1819 3084 
Q 2600 3084 3056 2656 
Q 3513 2228 3513 1497 
Q 3513 744 3044 326 
Q 2575 -91 1722 -91 
Q 1428 -91 1123 -41 
Q 819 9 494 109 
L 494 744 
Q 775 591 1075 516 
Q 1375 441 1709 441 
Q 2250 441 2565 725 
Q 2881 1009 2881 1497 
Q 2881 1984 2565 2268 
Q 2250 2553 1709 2553 
Q 1456 2553 1204 2497 
Q 953 2441 691 2322 
L 691 4666 
z
" transform="scale(0.015625)"/>
       </defs>
       <use xlink:href="#DejaVuSans-35"/>
       <use xlink:href="#DejaVuSans-30" transform="translate(63.623047 0)"/>
      </g>
     </g>
    </g>
    <g id="xtick_3">
     <g id="line2d_5">
      <path d="M 399.606579 209.035663 
L 399.606579 7.2 
" clip-path="url(#p94c1455461)" style="fill: none; stroke-dasharray: 2.96,1.28; stroke-dashoffset: 0; stroke: #b0b0b0; stroke-opacity: 0.6; stroke-width: 0.8"/>
     </g>
     <g id="line2d_6">
      <g>
       <use xlink:href="#m2ae3bda926" x="399.606579" y="209.035663" style="stroke: #000000; stroke-width: 0.8"/>
      </g>
     </g>
     <g id="text_3">
      <!-- 100 -->
      <g transform="translate(390.062829 223.6341) scale(0.1 -0.1)">
       <defs>
        <path id="DejaVuSans-31" d="M 794 531 
L 1825 531 
L 1825 4091 
L 703 3866 
L 703 4441 
L 1819 4666 
L 2450 4666 
L 2450 531 
L 3481 531 
L 3481 0 
L 794 0 
L 794 531 
z
" transform="scale(0.015625)"/>
       </defs>
       <use xlink:href="#DejaVuSans-31"/>
       <use xlink:href="#DejaVuSans-30" transform="translate(63.623047 0)"/>
       <use xlink:href="#DejaVuSans-30" transform="translate(127.246094 0)"/>
      </g>
     </g>
    </g>
    <g id="xtick_4">
     <g id="line2d_7">
      <path d="M 557.372982 209.035663 
L 557.372982 7.2 
" clip-path="url(#p94c1455461)" style="fill: none; stroke-dasharray: 2.96,1.28; stroke-dashoffset: 0; stroke: #b0b0b0; stroke-opacity: 0.6; stroke-width: 0.8"/>
     </g>
     <g id="line2d_8">
      <g>
       <use xlink:href="#m2ae3bda926" x="557.372982" y="209.035663" style="stroke: #000000; stroke-width: 0.8"/>
      </g>
     </g>
     <g id="text_4">
      <!-- 150 -->
      <g transform="translate(547.829232 223.6341) scale(0.1 -0.1)">
       <use xlink:href="#DejaVuSans-31"/>
       <use xlink:href="#DejaVuSans-35" transform="translate(63.623047 0)"/>
       <use xlink:href="#DejaVuSans-30" transform="translate(127.246094 0)"/>
      </g>
     </g>
    </g>
    <g id="xtick_5">
     <g id="line2d_9">
      <path d="M 715.139385 209.035663 
L 715.139385 7.2 
" clip-path="url(#p94c1455461)" style="fill: none; stroke-dasharray: 2.96,1.28; stroke-dashoffset: 0; stroke: #b0b0b0; stroke-opacity: 0.6; stroke-width: 0.8"/>
     </g>
     <g id="line2d_10">
      <g>
       <use xlink:href="#m2ae3bda926" x="715.139385" y="209.035663" style="stroke: #000000; stroke-width: 0.8"/>
      </g>
     </g>
     <g id="text_5">
      <!-- 200 -->
      <g transform="translate(705.595635 223.6341) scale(0.1 -0.1)">
       <defs>
        <path id="DejaVuSans-32" d="M 1228 531 
L 3431 531 
L 3431 0 
L 469 0 
L 469 531 
Q 828 903 1448 1529 
Q 2069 2156 2228 2338 
Q 2531 2678 2651 2914 
Q 2772 3150 2772 3378 
Q 2772 3750 2511 3984 
Q 2250 4219 1831 4219 
Q 1534 4219 1204 4116 
Q 875 4013 500 3803 
L 500 4441 
Q 881 4594 1212 4672 
Q 1544 4750 1819 4750 
Q 2544 4750 2975 4387 
Q 3406 4025 3406 3419 
Q 3406 3131 3298 2873 
Q 3191 2616 2906 2266 
Q 2828 2175 2409 1742 
Q 1991 1309 1228 531 
z
" transform="scale(0.015625)"/>
       </defs>
       <use xlink:href="#DejaVuSans-32"/>
       <use xlink:href="#DejaVuSans-30" transform="translate(63.623047 0)"/>
       <use xlink:href="#DejaVuSans-30" transform="translate(127.246094 0)"/>
      </g>
     </g>
    </g>
   </g>
   <g id="matplotlib.axis_2">
    <g id="ytick_1">
     <g id="line2d_11">
      <path d="M 47.7875 186.755103 
L 846.0855 186.755103 
" clip-path="url(#p94c1455461)" style="fill: none; stroke-dasharray: 2.96,1.28; stroke-dashoffset: 0; stroke: #b0b0b0; stroke-opacity: 0.6; stroke-width: 0.8"/>
     </g>
     <g id="line2d_12">
      <defs>
       <path id="mff38e0dae2" d="M 0 0 
L -3.5 0 
" style="stroke: #000000; stroke-width: 0.8"/>
      </defs>
      <g>
       <use xlink:href="#mff38e0dae2" x="47.7875" y="186.755103" style="stroke: #000000; stroke-width: 0.8"/>
      </g>
     </g>
     <g id="text_6">
      <!-- 20 -->
      <g transform="translate(28.0625 190.554322) scale(0.1 -0.1)">
       <use xlink:href="#DejaVuSans-32"/>
       <use xlink:href="#DejaVuSans-30" transform="translate(63.623047 0)"/>
      </g>
     </g>
    </g>
    <g id="ytick_2">
     <g id="line2d_13">
      <path d="M 47.7875 143.06773 
L 846.0855 143.06773 
" clip-path="url(#p94c1455461)" style="fill: none; stroke-dasharray: 2.96,1.28; stroke-dashoffset: 0; stroke: #b0b0b0; stroke-opacity: 0.6; stroke-width: 0.8"/>
     </g>
     <g id="line2d_14">
      <g>
       <use xlink:href="#mff38e0dae2" x="47.7875" y="143.06773" style="stroke: #000000; stroke-width: 0.8"/>
      </g>
     </g>
     <g id="text_7">
      <!-- 40 -->
      <g transform="translate(28.0625 146.866949) scale(0.1 -0.1)">
       <defs>
        <path id="DejaVuSans-34" d="M 2419 4116 
L 825 1625 
L 2419 1625 
L 2419 4116 
z
M 2253 4666 
L 3047 4666 
L 3047 1625 
L 3713 1625 
L 3713 1100 
L 3047 1100 
L 3047 0 
L 2419 0 
L 2419 1100 
L 313 1100 
L 313 1709 
L 2253 4666 
z
" transform="scale(0.015625)"/>
       </defs>
       <use xlink:href="#DejaVuSans-34"/>
       <use xlink:href="#DejaVuSans-30" transform="translate(63.623047 0)"/>
      </g>
     </g>
    </g>
    <g id="ytick_3">
     <g id="line2d_15">
      <path d="M 47.7875 99.380357 
L 846.0855 99.380357 
" clip-path="url(#p94c1455461)" style="fill: none; stroke-dasharray: 2.96,1.28; stroke-dashoffset: 0; stroke: #b0b0b0; stroke-opacity: 0.6; stroke-width: 0.8"/>
     </g>
     <g id="line2d_16">
      <g>
       <use xlink:href="#mff38e0dae2" x="47.7875" y="99.380357" style="stroke: #000000; stroke-width: 0.8"/>
      </g>
     </g>
     <g id="text_8">
      <!-- 60 -->
      <g transform="translate(28.0625 103.179576) scale(0.1 -0.1)">
       <defs>
        <path id="DejaVuSans-36" d="M 2113 2584 
Q 1688 2584 1439 2293 
Q 1191 2003 1191 1497 
Q 1191 994 1439 701 
Q 1688 409 2113 409 
Q 2538 409 2786 701 
Q 3034 994 3034 1497 
Q 3034 2003 2786 2293 
Q 2538 2584 2113 2584 
z
M 3366 4563 
L 3366 3988 
Q 3128 4100 2886 4159 
Q 2644 4219 2406 4219 
Q 1781 4219 1451 3797 
Q 1122 3375 1075 2522 
Q 1259 2794 1537 2939 
Q 1816 3084 2150 3084 
Q 2853 3084 3261 2657 
Q 3669 2231 3669 1497 
Q 3669 778 3244 343 
Q 2819 -91 2113 -91 
Q 1303 -91 875 529 
Q 447 1150 447 2328 
Q 447 3434 972 4092 
Q 1497 4750 2381 4750 
Q 2619 4750 2861 4703 
Q 3103 4656 3366 4563 
z
" transform="scale(0.015625)"/>
       </defs>
       <use xlink:href="#DejaVuSans-36"/>
       <use xlink:href="#DejaVuSans-30" transform="translate(63.623047 0)"/>
      </g>
     </g>
    </g>
    <g id="ytick_4">
     <g id="line2d_17">
      <path d="M 47.7875 55.692984 
L 846.0855 55.692984 
" clip-path="url(#p94c1455461)" style="fill: none; stroke-dasharray: 2.96,1.28; stroke-dashoffset: 0; stroke: #b0b0b0; stroke-opacity: 0.6; stroke-width: 0.8"/>
     </g>
     <g id="line2d_18">
      <g>
       <use xlink:href="#mff38e0dae2" x="47.7875" y="55.692984" style="stroke: #000000; stroke-width: 0.8"/>
      </g>
     </g>
     <g id="text_9">
      <!-- 80 -->
      <g transform="translate(28.0625 59.492203) scale(0.1 -0.1)">
       <defs>
        <path id="DejaVuSans-38" d="M 2034 2216 
Q 1584 2216 1326 1975 
Q 1069 1734 1069 1313 
Q 1069 891 1326 650 
Q 1584 409 2034 409 
Q 2484 409 2743 651 
Q 3003 894 3003 1313 
Q 3003 1734 2745 1975 
Q 2488 2216 2034 2216 
z
M 1403 2484 
Q 997 2584 770 2862 
Q 544 3141 544 3541 
Q 544 4100 942 4425 
Q 1341 4750 2034 4750 
Q 2731 4750 3128 4425 
Q 3525 4100 3525 3541 
Q 3525 3141 3298 2862 
Q 3072 2584 2669 2484 
Q 3125 2378 3379 2068 
Q 3634 1759 3634 1313 
Q 3634 634 3220 271 
Q 2806 -91 2034 -91 
Q 1263 -91 848 271 
Q 434 634 434 1313 
Q 434 1759 690 2068 
Q 947 2378 1403 2484 
z
M 1172 3481 
Q 1172 3119 1398 2916 
Q 1625 2713 2034 2713 
Q 2441 2713 2670 2916 
Q 2900 3119 2900 3481 
Q 2900 3844 2670 4047 
Q 2441 4250 2034 4250 
Q 1625 4250 1398 4047 
Q 1172 3844 1172 3481 
z
" transform="scale(0.015625)"/>
       </defs>
       <use xlink:href="#DejaVuSans-38"/>
       <use xlink:href="#DejaVuSans-30" transform="translate(63.623047 0)"/>
      </g>
     </g>
    </g>
    <g id="ytick_5">
     <g id="line2d_19">
      <path d="M 47.7875 12.005611 
L 846.0855 12.005611 
" clip-path="url(#p94c1455461)" style="fill: none; stroke-dasharray: 2.96,1.28; stroke-dashoffset: 0; stroke: #b0b0b0; stroke-opacity: 0.6; stroke-width: 0.8"/>
     </g>
     <g id="line2d_20">
      <g>
       <use xlink:href="#mff38e0dae2" x="47.7875" y="12.005611" style="stroke: #000000; stroke-width: 0.8"/>
      </g>
     </g>
     <g id="text_10">
      <!-- 100 -->
      <g transform="translate(21.7 15.80483) scale(0.1 -0.1)">
       <use xlink:href="#DejaVuSans-31"/>
       <use xlink:href="#DejaVuSans-30" transform="translate(63.623047 0)"/>
       <use xlink:href="#DejaVuSans-30" transform="translate(127.246094 0)"/>
      </g>
     </g>
    </g>
    <g id="text_11">
     <!-- Power (W) -->
     <g transform="translate(15.620312 133.666269) rotate(-90) scale(0.1 -0.1)">
      <defs>
       <path id="DejaVuSans-50" d="M 1259 4147 
L 1259 2394 
L 2053 2394 
Q 2494 2394 2734 2622 
Q 2975 2850 2975 3272 
Q 2975 3691 2734 3919 
Q 2494 4147 2053 4147 
L 1259 4147 
z
M 628 4666 
L 2053 4666 
Q 2838 4666 3239 4311 
Q 3641 3956 3641 3272 
Q 3641 2581 3239 2228 
Q 2838 1875 2053 1875 
L 1259 1875 
L 1259 0 
L 628 0 
L 628 4666 
z
" transform="scale(0.015625)"/>
       <path id="DejaVuSans-6f" d="M 1959 3097 
Q 1497 3097 1228 2736 
Q 959 2375 959 1747 
Q 959 1119 1226 758 
Q 1494 397 1959 397 
Q 2419 397 2687 759 
Q 2956 1122 2956 1747 
Q 2956 2369 2687 2733 
Q 2419 3097 1959 3097 
z
M 1959 3584 
Q 2709 3584 3137 3096 
Q 3566 2609 3566 1747 
Q 3566 888 3137 398 
Q 2709 -91 1959 -91 
Q 1206 -91 779 398 
Q 353 888 353 1747 
Q 353 2609 779 3096 
Q 1206 3584 1959 3584 
z
" transform="scale(0.015625)"/>
       <path id="DejaVuSans-77" d="M 269 3500 
L 844 3500 
L 1563 769 
L 2278 3500 
L 2956 3500 
L 3675 769 
L 4391 3500 
L 4966 3500 
L 4050 0 
L 3372 0 
L 2619 2869 
L 1863 0 
L 1184 0 
L 269 3500 
z
" transform="scale(0.015625)"/>
       <path id="DejaVuSans-65" d="M 3597 1894 
L 3597 1613 
L 953 1613 
Q 991 1019 1311 708 
Q 1631 397 2203 397 
Q 2534 397 2845 478 
Q 3156 559 3463 722 
L 3463 178 
Q 3153 47 2828 -22 
Q 2503 -91 2169 -91 
Q 1331 -91 842 396 
Q 353 884 353 1716 
Q 353 2575 817 3079 
Q 1281 3584 2069 3584 
Q 2775 3584 3186 3129 
Q 3597 2675 3597 1894 
z
M 3022 2063 
Q 3016 2534 2758 2815 
Q 2500 3097 2075 3097 
Q 1594 3097 1305 2825 
Q 1016 2553 972 2059 
L 3022 2063 
z
" transform="scale(0.015625)"/>
       <path id="DejaVuSans-72" d="M 2631 2963 
Q 2534 3019 2420 3045 
Q 2306 3072 2169 3072 
Q 1681 3072 1420 2755 
Q 1159 2438 1159 1844 
L 1159 0 
L 581 0 
L 581 3500 
L 1159 3500 
L 1159 2956 
Q 1341 3275 1631 3429 
Q 1922 3584 2338 3584 
Q 2397 3584 2469 3576 
Q 2541 3569 2628 3553 
L 2631 2963 
z
" transform="scale(0.015625)"/>
       <path id="DejaVuSans-20" transform="scale(0.015625)"/>
       <path id="DejaVuSans-28" d="M 1984 4856 
Q 1566 4138 1362 3434 
Q 1159 2731 1159 2009 
Q 1159 1288 1364 580 
Q 1569 -128 1984 -844 
L 1484 -844 
Q 1016 -109 783 600 
Q 550 1309 550 2009 
Q 550 2706 781 3412 
Q 1013 4119 1484 4856 
L 1984 4856 
z
" transform="scale(0.015625)"/>
       <path id="DejaVuSans-57" d="M 213 4666 
L 850 4666 
L 1831 722 
L 2809 4666 
L 3519 4666 
L 4500 722 
L 5478 4666 
L 6119 4666 
L 4947 0 
L 4153 0 
L 3169 4050 
L 2175 0 
L 1381 0 
L 213 4666 
z
" transform="scale(0.015625)"/>
       <path id="DejaVuSans-29" d="M 513 4856 
L 1013 4856 
Q 1481 4119 1714 3412 
Q 1947 2706 1947 2009 
Q 1947 1309 1714 600 
Q 1481 -109 1013 -844 
L 513 -844 
Q 928 -128 1133 580 
Q 1338 1288 1338 2009 
Q 1338 2731 1133 3434 
Q 928 4138 513 4856 
z
" transform="scale(0.015625)"/>
      </defs>
      <use xlink:href="#DejaVuSans-50"/>
      <use xlink:href="#DejaVuSans-6f" transform="translate(56.677734 0)"/>
      <use xlink:href="#DejaVuSans-77" transform="translate(117.859375 0)"/>
      <use xlink:href="#DejaVuSans-65" transform="translate(199.646484 0)"/>
      <use xlink:href="#DejaVuSans-72" transform="translate(261.169922 0)"/>
      <use xlink:href="#DejaVuSans-20" transform="translate(302.283203 0)"/>
      <use xlink:href="#DejaVuSans-28" transform="translate(334.070312 0)"/>
      <use xlink:href="#DejaVuSans-57" transform="translate(373.083984 0)"/>
      <use xlink:href="#DejaVuSans-29" transform="translate(471.960938 0)"/>
     </g>
    </g>
   </g>
   <g id="line2d_21">
    <path d="M 84.073773 108.117831 
L 87.229101 112.486569 
L 90.384429 110.3022 
L 93.539757 112.486569 
L 99.850413 112.486569 
L 103.005741 114.670937 
L 106.161069 112.486569 
L 112.471725 116.855306 
L 115.627053 121.224043 
L 118.782381 121.224043 
L 121.937709 125.592781 
L 125.093038 193.308209 
L 128.248366 171.464522 
L 131.403694 173.648891 
L 134.559022 127.777149 
L 137.71435 114.670937 
L 140.869678 103.749094 
L 150.335662 84.089776 
L 156.646318 75.352302 
L 159.801646 75.352302 
L 162.956974 70.983564 
L 166.112302 73.167933 
L 172.422958 68.799196 
L 175.578287 70.983564 
L 181.888943 66.614827 
L 185.044271 66.614827 
L 188.199599 79.721039 
L 191.354927 73.167933 
L 194.510255 70.983564 
L 197.665583 75.352302 
L 200.820911 153.989573 
L 203.976239 149.620836 
L 207.131567 121.224043 
L 210.286895 95.01162 
L 213.442223 86.274145 
L 216.597551 84.089776 
L 219.752879 79.721039 
L 229.218864 73.167933 
L 232.374192 73.167933 
L 235.52952 70.983564 
L 241.840176 70.983564 
L 244.995504 68.799196 
L 248.150832 70.983564 
L 251.30616 68.799196 
L 254.461488 70.983564 
L 257.616816 66.614827 
L 276.548785 66.614827 
L 279.704113 73.167933 
L 282.859441 73.167933 
L 289.170097 68.799196 
L 292.325425 64.430459 
L 295.480753 62.24609 
L 304.946737 49.139878 
L 308.102065 49.139878 
L 317.568049 42.586772 
L 320.723377 42.586772 
L 323.878706 40.402403 
L 330.189362 40.402403 
L 336.500018 44.771141 
L 339.655346 51.324247 
L 342.810674 95.01162 
L 345.966002 175.83326 
L 349.12133 182.386365 
L 352.276658 134.330255 
L 355.431986 160.542679 
L 358.587314 138.698993 
L 361.742642 84.089776 
L 364.89797 64.430459 
L 368.053298 55.692984 
L 371.208626 44.771141 
L 374.363955 38.218035 
L 377.519283 33.849297 
L 380.674611 27.296192 
L 383.829939 27.296192 
L 386.985267 25.111823 
L 390.140595 25.111823 
L 393.295923 27.296192 
L 396.451251 27.296192 
L 402.761907 31.664929 
L 405.917235 31.664929 
L 412.227891 36.033666 
L 415.383219 49.139878 
L 418.538547 136.514624 
L 421.693875 101.564726 
L 424.849204 70.983564 
L 428.004532 60.061721 
L 437.470516 46.955509 
L 443.781172 42.586772 
L 450.091828 42.586772 
L 465.868468 53.508615 
L 469.023796 57.877353 
L 472.179125 60.061721 
L 478.489781 68.799196 
L 487.955765 75.352302 
L 491.111093 81.905408 
L 494.266421 86.274145 
L 500.577077 90.642882 
L 503.732405 97.195988 
L 506.887733 105.933463 
L 510.043061 110.3022 
L 513.198389 90.642882 
L 516.353717 84.089776 
L 519.509045 79.721039 
L 522.664374 73.167933 
L 528.97503 68.799196 
L 532.130358 68.799196 
L 535.285686 66.614827 
L 538.441014 62.24609 
L 544.75167 57.877353 
L 547.906998 53.508615 
L 551.062326 53.508615 
L 554.217654 51.324247 
L 560.52831 42.586772 
L 563.683638 49.139878 
L 566.838966 88.458514 
L 569.994294 129.961518 
L 573.149623 188.939471 
L 576.304951 112.486569 
L 579.460279 73.167933 
L 582.615607 97.195988 
L 585.770935 79.721039 
L 588.926263 57.877353 
L 592.081591 46.955509 
L 601.547575 27.296192 
L 604.702903 25.111823 
L 607.858231 20.743086 
L 611.013559 20.743086 
L 614.168887 16.374348 
L 617.324215 18.558717 
L 626.7902 18.558717 
L 629.945528 20.743086 
L 633.100856 20.743086 
L 636.256184 22.927454 
L 639.411512 22.927454 
L 645.722168 27.296192 
L 648.877496 77.53667 
L 652.032824 199.861315 
L 655.188152 162.727048 
L 658.34348 151.805204 
L 661.498808 95.01162 
L 664.654136 70.983564 
L 667.809464 57.877353 
L 670.964792 49.139878 
L 674.120121 42.586772 
L 683.586105 29.48056 
L 689.896761 25.111823 
L 693.052089 25.111823 
L 696.207417 22.927454 
L 699.362745 22.927454 
L 702.518073 20.743086 
L 705.673401 22.927454 
L 708.828729 20.743086 
L 715.139385 25.111823 
L 718.294713 31.664929 
L 721.450042 62.24609 
L 724.60537 121.224043 
L 727.760698 55.692984 
L 730.916026 68.799196 
L 734.071354 51.324247 
L 737.226682 75.352302 
L 740.38201 42.586772 
L 743.537338 36.033666 
L 749.847994 27.296192 
L 753.003322 25.111823 
L 756.15865 25.111823 
L 759.313978 22.927454 
L 762.469306 22.927454 
L 765.624634 20.743086 
L 771.935291 20.743086 
L 775.090619 16.374348 
L 778.245947 18.558717 
L 781.401275 16.374348 
L 784.556603 18.558717 
L 787.711931 18.558717 
L 790.867259 25.111823 
L 794.022587 33.849297 
L 797.177915 64.430459 
L 800.333243 103.749094 
L 803.488571 92.827251 
L 806.643899 184.570734 
L 809.799227 103.749094 
L 809.799227 103.749094 
" clip-path="url(#p94c1455461)" style="fill: none; stroke: #1f77b4; stroke-width: 1.5; stroke-linecap: square"/>
   </g>
   <g id="patch_3">
    <path d="M 47.7875 209.035663 
L 47.7875 7.2 
" style="fill: none; stroke: #000000; stroke-width: 0.8; stroke-linejoin: miter; stroke-linecap: square"/>
   </g>
   <g id="patch_4">
    <path d="M 846.0855 209.035663 
L 846.0855 7.2 
" style="fill: none; stroke: #000000; stroke-width: 0.8; stroke-linejoin: miter; stroke-linecap: square"/>
   </g>
   <g id="patch_5">
    <path d="M 47.7875 209.035663 
L 846.0855 209.035663 
" style="fill: none; stroke: #000000; stroke-width: 0.8; stroke-linejoin: miter; stroke-linecap: square"/>
   </g>
   <g id="patch_6">
    <path d="M 47.7875 7.2 
L 846.0855 7.2 
" style="fill: none; stroke: #000000; stroke-width: 0.8; stroke-linejoin: miter; stroke-linecap: square"/>
   </g>
   <g id="legend_1">
    <g id="patch_7">
     <path d="M 54.7875 29.878125 
L 99.154687 29.878125 
Q 101.154687 29.878125 101.154687 27.878125 
L 101.154687 14.2 
Q 101.154687 12.2 99.154687 12.2 
L 54.7875 12.2 
Q 52.7875 12.2 52.7875 14.2 
L 52.7875 27.878125 
Q 52.7875 29.878125 54.7875 29.878125 
z
" style="fill: #ffffff; opacity: 0.8; stroke: #cccccc; stroke-linejoin: miter"/>
    </g>
    <g id="line2d_22">
     <path d="M 56.7875 20.298437 
L 66.7875 20.298437 
L 76.7875 20.298437 
" style="fill: none; stroke: #1f77b4; stroke-width: 1.5; stroke-linecap: square"/>
    </g>
    <g id="text_12">
     <!-- Ph -->
     <g transform="translate(84.7875 23.798437) scale(0.1 -0.1)">
      <defs>
       <path id="DejaVuSans-68" d="M 3513 2113 
L 3513 0 
L 2938 0 
L 2938 2094 
Q 2938 2591 2744 2837 
Q 2550 3084 2163 3084 
Q 1697 3084 1428 2787 
Q 1159 2491 1159 1978 
L 1159 0 
L 581 0 
L 581 4863 
L 1159 4863 
L 1159 2956 
Q 1366 3272 1645 3428 
Q 1925 3584 2291 3584 
Q 2894 3584 3203 3211 
Q 3513 2838 3513 2113 
z
" transform="scale(0.015625)"/>
      </defs>
      <use xlink:href="#DejaVuSans-50"/>
      <use xlink:href="#DejaVuSans-68" transform="translate(60.302734 0)"/>
     </g>
    </g>
   </g>
  </g>
  <g id="axes_2">
   <g id="patch_8">
    <path d="M 47.7875 441.699008 
L 846.0855 441.699008 
L 846.0855 239.863345 
L 47.7875 239.863345 
z
" style="fill: #ffffff"/>
   </g>
   <g id="matplotlib.axis_3">
    <g id="xtick_6">
     <g id="line2d_23">
      <path d="M 84.073773 441.699008 
L 84.073773 239.863345 
" clip-path="url(#p4885aa25a6)" style="fill: none; stroke-dasharray: 2.96,1.28; stroke-dashoffset: 0; stroke: #b0b0b0; stroke-opacity: 0.6; stroke-width: 0.8"/>
     </g>
     <g id="line2d_24">
      <g>
       <use xlink:href="#m2ae3bda926" x="84.073773" y="441.699008" style="stroke: #000000; stroke-width: 0.8"/>
      </g>
     </g>
     <g id="text_13">
      <!-- 0 -->
      <g transform="translate(80.892523 456.297445) scale(0.1 -0.1)">
       <use xlink:href="#DejaVuSans-30"/>
      </g>
     </g>
    </g>
    <g id="xtick_7">
     <g id="line2d_25">
      <path d="M 241.840176 441.699008 
L 241.840176 239.863345 
" clip-path="url(#p4885aa25a6)" style="fill: none; stroke-dasharray: 2.96,1.28; stroke-dashoffset: 0; stroke: #b0b0b0; stroke-opacity: 0.6; stroke-width: 0.8"/>
     </g>
     <g id="line2d_26">
      <g>
       <use xlink:href="#m2ae3bda926" x="241.840176" y="441.699008" style="stroke: #000000; stroke-width: 0.8"/>
      </g>
     </g>
     <g id="text_14">
      <!-- 50 -->
      <g transform="translate(235.477676 456.297445) scale(0.1 -0.1)">
       <use xlink:href="#DejaVuSans-35"/>
       <use xlink:href="#DejaVuSans-30" transform="translate(63.623047 0)"/>
      </g>
     </g>
    </g>
    <g id="xtick_8">
     <g id="line2d_27">
      <path d="M 399.606579 441.699008 
L 399.606579 239.863345 
" clip-path="url(#p4885aa25a6)" style="fill: none; stroke-dasharray: 2.96,1.28; stroke-dashoffset: 0; stroke: #b0b0b0; stroke-opacity: 0.6; stroke-width: 0.8"/>
     </g>
     <g id="line2d_28">
      <g>
       <use xlink:href="#m2ae3bda926" x="399.606579" y="441.699008" style="stroke: #000000; stroke-width: 0.8"/>
      </g>
     </g>
     <g id="text_15">
      <!-- 100 -->
      <g transform="translate(390.062829 456.297445) scale(0.1 -0.1)">
       <use xlink:href="#DejaVuSans-31"/>
       <use xlink:href="#DejaVuSans-30" transform="translate(63.623047 0)"/>
       <use xlink:href="#DejaVuSans-30" transform="translate(127.246094 0)"/>
      </g>
     </g>
    </g>
    <g id="xtick_9">
     <g id="line2d_29">
      <path d="M 557.372982 441.699008 
L 557.372982 239.863345 
" clip-path="url(#p4885aa25a6)" style="fill: none; stroke-dasharray: 2.96,1.28; stroke-dashoffset: 0; stroke: #b0b0b0; stroke-opacity: 0.6; stroke-width: 0.8"/>
     </g>
     <g id="line2d_30">
      <g>
       <use xlink:href="#m2ae3bda926" x="557.372982" y="441.699008" style="stroke: #000000; stroke-width: 0.8"/>
      </g>
     </g>
     <g id="text_16">
      <!-- 150 -->
      <g transform="translate(547.829232 456.297445) scale(0.1 -0.1)">
       <use xlink:href="#DejaVuSans-31"/>
       <use xlink:href="#DejaVuSans-35" transform="translate(63.623047 0)"/>
       <use xlink:href="#DejaVuSans-30" transform="translate(127.246094 0)"/>
      </g>
     </g>
    </g>
    <g id="xtick_10">
     <g id="line2d_31">
      <path d="M 715.139385 441.699008 
L 715.139385 239.863345 
" clip-path="url(#p4885aa25a6)" style="fill: none; stroke-dasharray: 2.96,1.28; stroke-dashoffset: 0; stroke: #b0b0b0; stroke-opacity: 0.6; stroke-width: 0.8"/>
     </g>
     <g id="line2d_32">
      <g>
       <use xlink:href="#m2ae3bda926" x="715.139385" y="441.699008" style="stroke: #000000; stroke-width: 0.8"/>
      </g>
     </g>
     <g id="text_17">
      <!-- 200 -->
      <g transform="translate(705.595635 456.297445) scale(0.1 -0.1)">
       <use xlink:href="#DejaVuSans-32"/>
       <use xlink:href="#DejaVuSans-30" transform="translate(63.623047 0)"/>
       <use xlink:href="#DejaVuSans-30" transform="translate(127.246094 0)"/>
      </g>
     </g>
    </g>
   </g>
   <g id="matplotlib.axis_4">
    <g id="ytick_6">
     <g id="line2d_33">
      <path d="M 47.7875 440.693047 
L 846.0855 440.693047 
" clip-path="url(#p4885aa25a6)" style="fill: none; stroke-dasharray: 2.96,1.28; stroke-dashoffset: 0; stroke: #b0b0b0; stroke-opacity: 0.6; stroke-width: 0.8"/>
     </g>
     <g id="line2d_34">
      <g>
       <use xlink:href="#mff38e0dae2" x="47.7875" y="440.693047" style="stroke: #000000; stroke-width: 0.8"/>
      </g>
     </g>
     <g id="text_18">
      <!-- 12 -->
      <g transform="translate(28.0625 444.492265) scale(0.1 -0.1)">
       <use xlink:href="#DejaVuSans-31"/>
       <use xlink:href="#DejaVuSans-32" transform="translate(63.623047 0)"/>
      </g>
     </g>
    </g>
    <g id="ytick_7">
     <g id="line2d_35">
      <path d="M 47.7875 412.182097 
L 846.0855 412.182097 
" clip-path="url(#p4885aa25a6)" style="fill: none; stroke-dasharray: 2.96,1.28; stroke-dashoffset: 0; stroke: #b0b0b0; stroke-opacity: 0.6; stroke-width: 0.8"/>
     </g>
     <g id="line2d_36">
      <g>
       <use xlink:href="#mff38e0dae2" x="47.7875" y="412.182097" style="stroke: #000000; stroke-width: 0.8"/>
      </g>
     </g>
     <g id="text_19">
      <!-- 14 -->
      <g transform="translate(28.0625 415.981316) scale(0.1 -0.1)">
       <use xlink:href="#DejaVuSans-31"/>
       <use xlink:href="#DejaVuSans-34" transform="translate(63.623047 0)"/>
      </g>
     </g>
    </g>
    <g id="ytick_8">
     <g id="line2d_37">
      <path d="M 47.7875 383.671148 
L 846.0855 383.671148 
" clip-path="url(#p4885aa25a6)" style="fill: none; stroke-dasharray: 2.96,1.28; stroke-dashoffset: 0; stroke: #b0b0b0; stroke-opacity: 0.6; stroke-width: 0.8"/>
     </g>
     <g id="line2d_38">
      <g>
       <use xlink:href="#mff38e0dae2" x="47.7875" y="383.671148" style="stroke: #000000; stroke-width: 0.8"/>
      </g>
     </g>
     <g id="text_20">
      <!-- 16 -->
      <g transform="translate(28.0625 387.470367) scale(0.1 -0.1)">
       <use xlink:href="#DejaVuSans-31"/>
       <use xlink:href="#DejaVuSans-36" transform="translate(63.623047 0)"/>
      </g>
     </g>
    </g>
    <g id="ytick_9">
     <g id="line2d_39">
      <path d="M 47.7875 355.160199 
L 846.0855 355.160199 
" clip-path="url(#p4885aa25a6)" style="fill: none; stroke-dasharray: 2.96,1.28; stroke-dashoffset: 0; stroke: #b0b0b0; stroke-opacity: 0.6; stroke-width: 0.8"/>
     </g>
     <g id="line2d_40">
      <g>
       <use xlink:href="#mff38e0dae2" x="47.7875" y="355.160199" style="stroke: #000000; stroke-width: 0.8"/>
      </g>
     </g>
     <g id="text_21">
      <!-- 18 -->
      <g transform="translate(28.0625 358.959417) scale(0.1 -0.1)">
       <use xlink:href="#DejaVuSans-31"/>
       <use xlink:href="#DejaVuSans-38" transform="translate(63.623047 0)"/>
      </g>
     </g>
    </g>
    <g id="ytick_10">
     <g id="line2d_41">
      <path d="M 47.7875 326.649249 
L 846.0855 326.649249 
" clip-path="url(#p4885aa25a6)" style="fill: none; stroke-dasharray: 2.96,1.28; stroke-dashoffset: 0; stroke: #b0b0b0; stroke-opacity: 0.6; stroke-width: 0.8"/>
     </g>
     <g id="line2d_42">
      <g>
       <use xlink:href="#mff38e0dae2" x="47.7875" y="326.649249" style="stroke: #000000; stroke-width: 0.8"/>
      </g>
     </g>
     <g id="text_22">
      <!-- 20 -->
      <g transform="translate(28.0625 330.448468) scale(0.1 -0.1)">
       <use xlink:href="#DejaVuSans-32"/>
       <use xlink:href="#DejaVuSans-30" transform="translate(63.623047 0)"/>
      </g>
     </g>
    </g>
    <g id="ytick_11">
     <g id="line2d_43">
      <path d="M 47.7875 298.1383 
L 846.0855 298.1383 
" clip-path="url(#p4885aa25a6)" style="fill: none; stroke-dasharray: 2.96,1.28; stroke-dashoffset: 0; stroke: #b0b0b0; stroke-opacity: 0.6; stroke-width: 0.8"/>
     </g>
     <g id="line2d_44">
      <g>
       <use xlink:href="#mff38e0dae2" x="47.7875" y="298.1383" style="stroke: #000000; stroke-width: 0.8"/>
      </g>
     </g>
     <g id="text_23">
      <!-- 22 -->
      <g transform="translate(28.0625 301.937519) scale(0.1 -0.1)">
       <use xlink:href="#DejaVuSans-32"/>
       <use xlink:href="#DejaVuSans-32" transform="translate(63.623047 0)"/>
      </g>
     </g>
    </g>
    <g id="ytick_12">
     <g id="line2d_45">
      <path d="M 47.7875 269.627351 
L 846.0855 269.627351 
" clip-path="url(#p4885aa25a6)" style="fill: none; stroke-dasharray: 2.96,1.28; stroke-dashoffset: 0; stroke: #b0b0b0; stroke-opacity: 0.6; stroke-width: 0.8"/>
     </g>
     <g id="line2d_46">
      <g>
       <use xlink:href="#mff38e0dae2" x="47.7875" y="269.627351" style="stroke: #000000; stroke-width: 0.8"/>
      </g>
     </g>
     <g id="text_24">
      <!-- 24 -->
      <g transform="translate(28.0625 273.426569) scale(0.1 -0.1)">
       <use xlink:href="#DejaVuSans-32"/>
       <use xlink:href="#DejaVuSans-34" transform="translate(63.623047 0)"/>
      </g>
     </g>
    </g>
    <g id="ytick_13">
     <g id="line2d_47">
      <path d="M 47.7875 241.116401 
L 846.0855 241.116401 
" clip-path="url(#p4885aa25a6)" style="fill: none; stroke-dasharray: 2.96,1.28; stroke-dashoffset: 0; stroke: #b0b0b0; stroke-opacity: 0.6; stroke-width: 0.8"/>
     </g>
     <g id="line2d_48">
      <g>
       <use xlink:href="#mff38e0dae2" x="47.7875" y="241.116401" style="stroke: #000000; stroke-width: 0.8"/>
      </g>
     </g>
     <g id="text_25">
      <!-- 26 -->
      <g transform="translate(28.0625 244.91562) scale(0.1 -0.1)">
       <use xlink:href="#DejaVuSans-32"/>
       <use xlink:href="#DejaVuSans-36" transform="translate(63.623047 0)"/>
      </g>
     </g>
    </g>
    <g id="text_26">
     <!-- Temp ($^\circ$C) -->
     <g transform="translate(21.9625 367.681176) rotate(-90) scale(0.1 -0.1)">
      <defs>
       <path id="DejaVuSans-54" d="M -19 4666 
L 3928 4666 
L 3928 4134 
L 2272 4134 
L 2272 0 
L 1638 0 
L 1638 4134 
L -19 4134 
L -19 4666 
z
" transform="scale(0.015625)"/>
       <path id="DejaVuSans-6d" d="M 3328 2828 
Q 3544 3216 3844 3400 
Q 4144 3584 4550 3584 
Q 5097 3584 5394 3201 
Q 5691 2819 5691 2113 
L 5691 0 
L 5113 0 
L 5113 2094 
Q 5113 2597 4934 2840 
Q 4756 3084 4391 3084 
Q 3944 3084 3684 2787 
Q 3425 2491 3425 1978 
L 3425 0 
L 2847 0 
L 2847 2094 
Q 2847 2600 2669 2842 
Q 2491 3084 2119 3084 
Q 1678 3084 1418 2786 
Q 1159 2488 1159 1978 
L 1159 0 
L 581 0 
L 581 3500 
L 1159 3500 
L 1159 2956 
Q 1356 3278 1631 3431 
Q 1906 3584 2284 3584 
Q 2666 3584 2933 3390 
Q 3200 3197 3328 2828 
z
" transform="scale(0.015625)"/>
       <path id="DejaVuSans-70" d="M 1159 525 
L 1159 -1331 
L 581 -1331 
L 581 3500 
L 1159 3500 
L 1159 2969 
Q 1341 3281 1617 3432 
Q 1894 3584 2278 3584 
Q 2916 3584 3314 3078 
Q 3713 2572 3713 1747 
Q 3713 922 3314 415 
Q 2916 -91 2278 -91 
Q 1894 -91 1617 61 
Q 1341 213 1159 525 
z
M 3116 1747 
Q 3116 2381 2855 2742 
Q 2594 3103 2138 3103 
Q 1681 3103 1420 2742 
Q 1159 2381 1159 1747 
Q 1159 1113 1420 752 
Q 1681 391 2138 391 
Q 2594 391 2855 752 
Q 3116 1113 3116 1747 
z
" transform="scale(0.015625)"/>
       <path id="DejaVuSans-2218" d="M 2000 2619 
Q 1750 2619 1578 2445 
Q 1406 2272 1406 2022 
Q 1406 1775 1578 1605 
Q 1750 1435 2000 1435 
Q 2250 1435 2422 1605 
Q 2594 1775 2594 2022 
Q 2594 2269 2420 2444 
Q 2247 2619 2000 2619 
z
M 2000 3022 
Q 2200 3022 2384 2945 
Q 2569 2869 2703 2725 
Q 2847 2585 2919 2406 
Q 2991 2228 2991 2022 
Q 2991 1610 2702 1324 
Q 2413 1038 1994 1038 
Q 1572 1038 1290 1319 
Q 1009 1600 1009 2022 
Q 1009 2441 1296 2731 
Q 1584 3022 2000 3022 
z
" transform="scale(0.015625)"/>
       <path id="DejaVuSans-43" d="M 4122 4306 
L 4122 3641 
Q 3803 3938 3442 4084 
Q 3081 4231 2675 4231 
Q 1875 4231 1450 3742 
Q 1025 3253 1025 2328 
Q 1025 1406 1450 917 
Q 1875 428 2675 428 
Q 3081 428 3442 575 
Q 3803 722 4122 1019 
L 4122 359 
Q 3791 134 3420 21 
Q 3050 -91 2638 -91 
Q 1578 -91 968 557 
Q 359 1206 359 2328 
Q 359 3453 968 4101 
Q 1578 4750 2638 4750 
Q 3056 4750 3426 4639 
Q 3797 4528 4122 4306 
z
" transform="scale(0.015625)"/>
      </defs>
      <use xlink:href="#DejaVuSans-54" transform="translate(0 0.125)"/>
      <use xlink:href="#DejaVuSans-65" transform="translate(61.083984 0.125)"/>
      <use xlink:href="#DejaVuSans-6d" transform="translate(122.607422 0.125)"/>
      <use xlink:href="#DejaVuSans-70" transform="translate(220.019531 0.125)"/>
      <use xlink:href="#DejaVuSans-20" transform="translate(283.496094 0.125)"/>
      <use xlink:href="#DejaVuSans-28" transform="translate(315.283203 0.125)"/>
      <use xlink:href="#DejaVuSans-2218" transform="translate(368.891602 38.40625) scale(0.7)"/>
      <use xlink:href="#DejaVuSans-43" transform="translate(429.082031 0.125)"/>
      <use xlink:href="#DejaVuSans-29" transform="translate(498.90625 0.125)"/>
     </g>
    </g>
   </g>
   <g id="line2d_49">
    <path d="M 84.073773 422.822621 
L 87.229101 423.850797 
L 90.384429 426.882462 
L 93.539757 431.173953 
L 96.695085 432.064921 
L 99.850413 430.420789 
L 103.005741 429.999659 
L 106.161069 426.580721 
L 109.316397 428.830116 
L 112.471725 432.52466 
L 115.627053 432.256776 
L 118.782381 411.637419 
L 121.937709 412.347817 
L 125.093038 417.889633 
L 128.248366 417.678177 
L 131.403694 411.905303 
L 134.559022 392.140088 
L 137.71435 380.085896 
L 140.869678 374.179972 
L 144.025006 369.688903 
L 147.180334 365.953375 
L 150.335662 364.525451 
L 153.49099 362.145381 
L 156.646318 359.41724 
L 159.801646 358.814352 
L 162.956974 353.99125 
L 166.112302 358.593986 
L 169.26763 354.569784 
L 172.422958 344.784589 
L 175.578287 340.470526 
L 178.733615 341.038963 
L 181.888943 337.069407 
L 185.044271 342.520344 
L 188.199599 348.43993 
L 191.354927 346.17034 
L 194.510255 343.565152 
L 197.665583 360.81784 
L 200.820911 383.190026 
L 203.976239 388.402778 
L 207.131567 385.112733 
L 210.286895 373.372161 
L 213.442223 368.944055 
L 216.597551 363.106438 
L 219.752879 359.546727 
L 222.908208 358.137217 
L 226.063536 358.06 
L 229.218864 357.146461 
L 232.374192 356.812052 
L 235.52952 351.880845 
L 238.684848 350.514102 
L 241.840176 349.803704 
L 244.995504 351.425858 
L 248.150832 351.687209 
L 251.30616 351.349235 
L 254.461488 340.046426 
L 257.616816 330.166788 
L 260.772144 324.828112 
L 263.927472 325.389422 
L 267.0828 329.481337 
L 270.238128 333.215083 
L 273.393457 344.405037 
L 276.548785 348.989954 
L 279.704113 355.812981 
L 282.859441 359.664335 
L 286.014769 347.600639 
L 289.170097 320.254481 
L 292.325425 311.293133 
L 295.480753 301.9457 
L 298.636081 305.021318 
L 301.791409 305.228023 
L 304.946737 301.399834 
L 308.102065 296.431801 
L 311.257393 292.512139 
L 314.412721 298.579032 
L 323.878706 300.170299 
L 327.034034 302.734503 
L 330.189362 307.035498 
L 333.34469 308.740809 
L 336.500018 303.68368 
L 339.655346 305.500659 
L 342.810674 314.839182 
L 345.966002 317.111743 
L 349.12133 323.504729 
L 352.276658 289.689555 
L 355.431986 305.577282 
L 358.587314 310.103989 
L 361.742642 293.191056 
L 364.89797 287.137825 
L 368.053298 284.416218 
L 371.208626 280.776914 
L 374.363955 272.054345 
L 377.519283 263.678066 
L 380.674611 268.908637 
L 383.829939 272.931057 
L 386.985267 278.030953 
L 390.140595 280.100967 
L 393.295923 283.725421 
L 396.451251 284.36276 
L 399.606579 286.726792 
L 402.761907 289.665796 
L 405.917235 286.787378 
L 409.072563 287.921876 
L 412.227891 290.258586 
L 415.383219 292.407599 
L 418.538547 306.55497 
L 421.693875 306.539526 
L 424.849204 307.067573 
L 428.004532 306.667826 
L 431.15986 307.346149 
L 434.315188 300.884855 
L 437.470516 296.911735 
L 440.625844 299.680861 
L 443.781172 304.82293 
L 446.9365 311.019903 
L 450.091828 314.045034 
L 453.247156 321.024871 
L 456.402484 325.514751 
L 459.557812 328.554137 
L 465.868468 335.176993 
L 469.023796 343.852637 
L 472.179125 359.685718 
L 475.334453 365.502545 
L 478.489781 366.283033 
L 481.645109 369.030181 
L 484.800437 363.251962 
L 487.955765 362.709066 
L 491.111093 370.997437 
L 494.266421 380.567018 
L 497.421749 383.150823 
L 500.577077 381.848823 
L 503.732405 371.728624 
L 506.887733 370.543638 
L 510.043061 365.59283 
L 513.198389 352.173677 
L 516.353717 345.340552 
L 519.509045 339.902089 
L 522.664374 346.991218 
L 525.819702 348.121558 
L 528.97503 344.350391 
L 532.130358 340.373114 
L 535.285686 335.399141 
L 538.441014 327.161852 
L 541.596342 322.462298 
L 544.75167 319.933733 
L 547.906998 322.635739 
L 551.062326 323.54512 
L 554.217654 297.965452 
L 557.372982 273.98121 
L 560.52831 290.546072 
L 563.683638 301.708108 
L 566.838966 315.292388 
L 569.994294 318.353751 
L 573.149623 326.641528 
L 576.304951 316.276016 
L 579.460279 303.667642 
L 582.615607 302.712525 
L 585.770935 285.326192 
L 588.926263 279.371561 
L 592.081591 276.407611 
L 595.236919 270.859261 
L 598.392247 269.442623 
L 601.547575 269.403421 
L 604.702903 270.820059 
L 607.858231 269.0405 
L 611.013559 262.545944 
L 614.168887 263.215357 
L 617.324215 265.984483 
L 620.479543 270.022346 
L 623.634872 263.356724 
L 626.7902 262.475854 
L 629.945528 269.852468 
L 633.100856 274.373236 
L 636.256184 275.745919 
L 639.411512 269.411736 
L 642.56684 261.543902 
L 645.722168 265.183206 
L 648.877496 273.585621 
L 652.032824 293.542691 
L 655.188152 307.732828 
L 658.34348 317.9445 
L 661.498808 307.220819 
L 664.654136 298.831472 
L 667.809464 281.864488 
L 670.964792 271.256039 
L 674.120121 281.217051 
L 677.275449 278.341009 
L 680.430777 274.331657 
L 683.586105 266.469763 
L 686.741433 266.327208 
L 689.896761 267.728403 
L 693.052089 267.95946 
L 696.207417 266.501244 
L 699.362745 267.139176 
L 702.518073 264.664663 
L 705.673401 263.409588 
L 708.828729 263.748155 
L 711.984057 265.427331 
L 715.139385 266.883172 
L 718.294713 271.349293 
L 721.450042 277.862263 
L 724.60537 299.740259 
L 727.760698 280.194221 
L 730.916026 265.280619 
L 734.071354 269.47351 
L 737.226682 282.059906 
L 740.38201 266.138323 
L 743.537338 258.676176 
L 746.692666 261.283146 
L 749.847994 258.444525 
L 753.003322 258.895354 
L 756.15865 257.510791 
L 762.469306 256.383421 
L 765.624634 257.961026 
L 771.935291 251.440335 
L 775.090619 249.037693 
L 778.245947 255.105774 
L 781.401275 256.287196 
L 784.556603 256.430345 
L 787.711931 256.277099 
L 790.867259 257.666413 
L 794.022587 262.062445 
L 797.177915 274.127923 
L 800.333243 278.336258 
L 803.488571 280.581495 
L 806.643899 290.057822 
L 809.799227 289.718066 
L 809.799227 289.718066 
" clip-path="url(#p4885aa25a6)" style="fill: none; stroke: #1f77b4; stroke-width: 1.5; stroke-linecap: square"/>
   </g>
   <g id="patch_9">
    <path d="M 47.7875 441.699008 
L 47.7875 239.863345 
" style="fill: none; stroke: #000000; stroke-width: 0.8; stroke-linejoin: miter; stroke-linecap: square"/>
   </g>
   <g id="patch_10">
    <path d="M 846.0855 441.699008 
L 846.0855 239.863345 
" style="fill: none; stroke: #000000; stroke-width: 0.8; stroke-linejoin: miter; stroke-linecap: square"/>
   </g>
   <g id="patch_11">
    <path d="M 47.7875 441.699008 
L 846.0855 441.699008 
" style="fill: none; stroke: #000000; stroke-width: 0.8; stroke-linejoin: miter; stroke-linecap: square"/>
   </g>
   <g id="patch_12">
    <path d="M 47.7875 239.863345 
L 846.0855 239.863345 
" style="fill: none; stroke: #000000; stroke-width: 0.8; stroke-linejoin: miter; stroke-linecap: square"/>
   </g>
   <g id="legend_2">
    <g id="patch_13">
     <path d="M 54.7875 262.54147 
L 118.223437 262.54147 
Q 120.223437 262.54147 120.223437 260.54147 
L 120.223437 246.863345 
Q 120.223437 244.863345 118.223437 244.863345 
L 54.7875 244.863345 
Q 52.7875 244.863345 52.7875 246.863345 
L 52.7875 260.54147 
Q 52.7875 262.54147 54.7875 262.54147 
z
" style="fill: #ffffff; opacity: 0.8; stroke: #cccccc; stroke-linejoin: miter"/>
    </g>
    <g id="line2d_50">
     <path d="M 56.7875 252.961782 
L 66.7875 252.961782 
L 76.7875 252.961782 
" style="fill: none; stroke: #1f77b4; stroke-width: 1.5; stroke-linecap: square"/>
    </g>
    <g id="text_27">
     <!-- Tdelta -->
     <g transform="translate(84.7875 256.461782) scale(0.1 -0.1)">
      <defs>
       <path id="DejaVuSans-64" d="M 2906 2969 
L 2906 4863 
L 3481 4863 
L 3481 0 
L 2906 0 
L 2906 525 
Q 2725 213 2448 61 
Q 2172 -91 1784 -91 
Q 1150 -91 751 415 
Q 353 922 353 1747 
Q 353 2572 751 3078 
Q 1150 3584 1784 3584 
Q 2172 3584 2448 3432 
Q 2725 3281 2906 2969 
z
M 947 1747 
Q 947 1113 1208 752 
Q 1469 391 1925 391 
Q 2381 391 2643 752 
Q 2906 1113 2906 1747 
Q 2906 2381 2643 2742 
Q 2381 3103 1925 3103 
Q 1469 3103 1208 2742 
Q 947 2381 947 1747 
z
" transform="scale(0.015625)"/>
       <path id="DejaVuSans-6c" d="M 603 4863 
L 1178 4863 
L 1178 0 
L 603 0 
L 603 4863 
z
" transform="scale(0.015625)"/>
       <path id="DejaVuSans-74" d="M 1172 4494 
L 1172 3500 
L 2356 3500 
L 2356 3053 
L 1172 3053 
L 1172 1153 
Q 1172 725 1289 603 
Q 1406 481 1766 481 
L 2356 481 
L 2356 0 
L 1766 0 
Q 1100 0 847 248 
Q 594 497 594 1153 
L 594 3053 
L 172 3053 
L 172 3500 
L 594 3500 
L 594 4494 
L 1172 4494 
z
" transform="scale(0.015625)"/>
       <path id="DejaVuSans-61" d="M 2194 1759 
Q 1497 1759 1228 1600 
Q 959 1441 959 1056 
Q 959 750 1161 570 
Q 1363 391 1709 391 
Q 2188 391 2477 730 
Q 2766 1069 2766 1631 
L 2766 1759 
L 2194 1759 
z
M 3341 1997 
L 3341 0 
L 2766 0 
L 2766 531 
Q 2569 213 2275 61 
Q 1981 -91 1556 -91 
Q 1019 -91 701 211 
Q 384 513 384 1019 
Q 384 1609 779 1909 
Q 1175 2209 1959 2209 
L 2766 2209 
L 2766 2266 
Q 2766 2663 2505 2880 
Q 2244 3097 1772 3097 
Q 1472 3097 1187 3025 
Q 903 2953 641 2809 
L 641 3341 
Q 956 3463 1253 3523 
Q 1550 3584 1831 3584 
Q 2591 3584 2966 3190 
Q 3341 2797 3341 1997 
z
" transform="scale(0.015625)"/>
      </defs>
      <use xlink:href="#DejaVuSans-54"/>
      <use xlink:href="#DejaVuSans-64" transform="translate(61.083984 0)"/>
      <use xlink:href="#DejaVuSans-65" transform="translate(124.560547 0)"/>
      <use xlink:href="#DejaVuSans-6c" transform="translate(186.083984 0)"/>
      <use xlink:href="#DejaVuSans-74" transform="translate(213.867188 0)"/>
      <use xlink:href="#DejaVuSans-61" transform="translate(253.076172 0)"/>
     </g>
    </g>
   </g>
  </g>
  <g id="axes_3">
   <g id="patch_14">
    <path d="M 47.7875 674.362353 
L 846.0855 674.362353 
L 846.0855 472.52669 
L 47.7875 472.52669 
z
" style="fill: #ffffff"/>
   </g>
   <g id="matplotlib.axis_5">
    <g id="xtick_11">
     <g id="line2d_51">
      <path d="M 84.073773 674.362353 
L 84.073773 472.52669 
" clip-path="url(#pe03f78b106)" style="fill: none; stroke-dasharray: 2.96,1.28; stroke-dashoffset: 0; stroke: #b0b0b0; stroke-opacity: 0.6; stroke-width: 0.8"/>
     </g>
     <g id="line2d_52">
      <g>
       <use xlink:href="#m2ae3bda926" x="84.073773" y="674.362353" style="stroke: #000000; stroke-width: 0.8"/>
      </g>
     </g>
     <g id="text_28">
      <!-- 0 -->
      <g transform="translate(80.892523 688.96079) scale(0.1 -0.1)">
       <use xlink:href="#DejaVuSans-30"/>
      </g>
     </g>
    </g>
    <g id="xtick_12">
     <g id="line2d_53">
      <path d="M 241.840176 674.362353 
L 241.840176 472.52669 
" clip-path="url(#pe03f78b106)" style="fill: none; stroke-dasharray: 2.96,1.28; stroke-dashoffset: 0; stroke: #b0b0b0; stroke-opacity: 0.6; stroke-width: 0.8"/>
     </g>
     <g id="line2d_54">
      <g>
       <use xlink:href="#m2ae3bda926" x="241.840176" y="674.362353" style="stroke: #000000; stroke-width: 0.8"/>
      </g>
     </g>
     <g id="text_29">
      <!-- 50 -->
      <g transform="translate(235.477676 688.96079) scale(0.1 -0.1)">
       <use xlink:href="#DejaVuSans-35"/>
       <use xlink:href="#DejaVuSans-30" transform="translate(63.623047 0)"/>
      </g>
     </g>
    </g>
    <g id="xtick_13">
     <g id="line2d_55">
      <path d="M 399.606579 674.362353 
L 399.606579 472.52669 
" clip-path="url(#pe03f78b106)" style="fill: none; stroke-dasharray: 2.96,1.28; stroke-dashoffset: 0; stroke: #b0b0b0; stroke-opacity: 0.6; stroke-width: 0.8"/>
     </g>
     <g id="line2d_56">
      <g>
       <use xlink:href="#m2ae3bda926" x="399.606579" y="674.362353" style="stroke: #000000; stroke-width: 0.8"/>
      </g>
     </g>
     <g id="text_30">
      <!-- 100 -->
      <g transform="translate(390.062829 688.96079) scale(0.1 -0.1)">
       <use xlink:href="#DejaVuSans-31"/>
       <use xlink:href="#DejaVuSans-30" transform="translate(63.623047 0)"/>
       <use xlink:href="#DejaVuSans-30" transform="translate(127.246094 0)"/>
      </g>
     </g>
    </g>
    <g id="xtick_14">
     <g id="line2d_57">
      <path d="M 557.372982 674.362353 
L 557.372982 472.52669 
" clip-path="url(#pe03f78b106)" style="fill: none; stroke-dasharray: 2.96,1.28; stroke-dashoffset: 0; stroke: #b0b0b0; stroke-opacity: 0.6; stroke-width: 0.8"/>
     </g>
     <g id="line2d_58">
      <g>
       <use xlink:href="#m2ae3bda926" x="557.372982" y="674.362353" style="stroke: #000000; stroke-width: 0.8"/>
      </g>
     </g>
     <g id="text_31">
      <!-- 150 -->
      <g transform="translate(547.829232 688.96079) scale(0.1 -0.1)">
       <use xlink:href="#DejaVuSans-31"/>
       <use xlink:href="#DejaVuSans-35" transform="translate(63.623047 0)"/>
       <use xlink:href="#DejaVuSans-30" transform="translate(127.246094 0)"/>
      </g>
     </g>
    </g>
    <g id="xtick_15">
     <g id="line2d_59">
      <path d="M 715.139385 674.362353 
L 715.139385 472.52669 
" clip-path="url(#pe03f78b106)" style="fill: none; stroke-dasharray: 2.96,1.28; stroke-dashoffset: 0; stroke: #b0b0b0; stroke-opacity: 0.6; stroke-width: 0.8"/>
     </g>
     <g id="line2d_60">
      <g>
       <use xlink:href="#m2ae3bda926" x="715.139385" y="674.362353" style="stroke: #000000; stroke-width: 0.8"/>
      </g>
     </g>
     <g id="text_32">
      <!-- 200 -->
      <g transform="translate(705.595635 688.96079) scale(0.1 -0.1)">
       <use xlink:href="#DejaVuSans-32"/>
       <use xlink:href="#DejaVuSans-30" transform="translate(63.623047 0)"/>
       <use xlink:href="#DejaVuSans-30" transform="translate(127.246094 0)"/>
      </g>
     </g>
    </g>
    <g id="text_33">
     <!-- Time (Hours) -->
     <g transform="translate(414.563844 702.638915) scale(0.1 -0.1)">
      <defs>
       <path id="DejaVuSans-69" d="M 603 3500 
L 1178 3500 
L 1178 0 
L 603 0 
L 603 3500 
z
M 603 4863 
L 1178 4863 
L 1178 4134 
L 603 4134 
L 603 4863 
z
" transform="scale(0.015625)"/>
       <path id="DejaVuSans-48" d="M 628 4666 
L 1259 4666 
L 1259 2753 
L 3553 2753 
L 3553 4666 
L 4184 4666 
L 4184 0 
L 3553 0 
L 3553 2222 
L 1259 2222 
L 1259 0 
L 628 0 
L 628 4666 
z
" transform="scale(0.015625)"/>
       <path id="DejaVuSans-75" d="M 544 1381 
L 544 3500 
L 1119 3500 
L 1119 1403 
Q 1119 906 1312 657 
Q 1506 409 1894 409 
Q 2359 409 2629 706 
Q 2900 1003 2900 1516 
L 2900 3500 
L 3475 3500 
L 3475 0 
L 2900 0 
L 2900 538 
Q 2691 219 2414 64 
Q 2138 -91 1772 -91 
Q 1169 -91 856 284 
Q 544 659 544 1381 
z
M 1991 3584 
L 1991 3584 
z
" transform="scale(0.015625)"/>
       <path id="DejaVuSans-73" d="M 2834 3397 
L 2834 2853 
Q 2591 2978 2328 3040 
Q 2066 3103 1784 3103 
Q 1356 3103 1142 2972 
Q 928 2841 928 2578 
Q 928 2378 1081 2264 
Q 1234 2150 1697 2047 
L 1894 2003 
Q 2506 1872 2764 1633 
Q 3022 1394 3022 966 
Q 3022 478 2636 193 
Q 2250 -91 1575 -91 
Q 1294 -91 989 -36 
Q 684 19 347 128 
L 347 722 
Q 666 556 975 473 
Q 1284 391 1588 391 
Q 1994 391 2212 530 
Q 2431 669 2431 922 
Q 2431 1156 2273 1281 
Q 2116 1406 1581 1522 
L 1381 1569 
Q 847 1681 609 1914 
Q 372 2147 372 2553 
Q 372 3047 722 3315 
Q 1072 3584 1716 3584 
Q 2034 3584 2315 3537 
Q 2597 3491 2834 3397 
z
" transform="scale(0.015625)"/>
      </defs>
      <use xlink:href="#DejaVuSans-54"/>
      <use xlink:href="#DejaVuSans-69" transform="translate(57.958984 0)"/>
      <use xlink:href="#DejaVuSans-6d" transform="translate(85.742188 0)"/>
      <use xlink:href="#DejaVuSans-65" transform="translate(183.154297 0)"/>
      <use xlink:href="#DejaVuSans-20" transform="translate(244.677734 0)"/>
      <use xlink:href="#DejaVuSans-28" transform="translate(276.464844 0)"/>
      <use xlink:href="#DejaVuSans-48" transform="translate(315.478516 0)"/>
      <use xlink:href="#DejaVuSans-6f" transform="translate(390.673828 0)"/>
      <use xlink:href="#DejaVuSans-75" transform="translate(451.855469 0)"/>
      <use xlink:href="#DejaVuSans-72" transform="translate(515.234375 0)"/>
      <use xlink:href="#DejaVuSans-73" transform="translate(556.347656 0)"/>
      <use xlink:href="#DejaVuSans-29" transform="translate(608.447266 0)"/>
     </g>
    </g>
   </g>
   <g id="matplotlib.axis_6">
    <g id="ytick_14">
     <g id="line2d_61">
      <path d="M 47.7875 664.722832 
L 846.0855 664.722832 
" clip-path="url(#pe03f78b106)" style="fill: none; stroke-dasharray: 2.96,1.28; stroke-dashoffset: 0; stroke: #b0b0b0; stroke-opacity: 0.6; stroke-width: 0.8"/>
     </g>
     <g id="line2d_62">
      <g>
       <use xlink:href="#mff38e0dae2" x="47.7875" y="664.722832" style="stroke: #000000; stroke-width: 0.8"/>
      </g>
     </g>
     <g id="text_34">
      <!-- 0 -->
      <g transform="translate(34.425 668.52205) scale(0.1 -0.1)">
       <use xlink:href="#DejaVuSans-30"/>
      </g>
     </g>
    </g>
    <g id="ytick_15">
     <g id="line2d_63">
      <path d="M 47.7875 622.937441 
L 846.0855 622.937441 
" clip-path="url(#pe03f78b106)" style="fill: none; stroke-dasharray: 2.96,1.28; stroke-dashoffset: 0; stroke: #b0b0b0; stroke-opacity: 0.6; stroke-width: 0.8"/>
     </g>
     <g id="line2d_64">
      <g>
       <use xlink:href="#mff38e0dae2" x="47.7875" y="622.937441" style="stroke: #000000; stroke-width: 0.8"/>
      </g>
     </g>
     <g id="text_35">
      <!-- 200 -->
      <g transform="translate(21.7 626.73666) scale(0.1 -0.1)">
       <use xlink:href="#DejaVuSans-32"/>
       <use xlink:href="#DejaVuSans-30" transform="translate(63.623047 0)"/>
       <use xlink:href="#DejaVuSans-30" transform="translate(127.246094 0)"/>
      </g>
     </g>
    </g>
    <g id="ytick_16">
     <g id="line2d_65">
      <path d="M 47.7875 581.15205 
L 846.0855 581.15205 
" clip-path="url(#pe03f78b106)" style="fill: none; stroke-dasharray: 2.96,1.28; stroke-dashoffset: 0; stroke: #b0b0b0; stroke-opacity: 0.6; stroke-width: 0.8"/>
     </g>
     <g id="line2d_66">
      <g>
       <use xlink:href="#mff38e0dae2" x="47.7875" y="581.15205" style="stroke: #000000; stroke-width: 0.8"/>
      </g>
     </g>
     <g id="text_36">
      <!-- 400 -->
      <g transform="translate(21.7 584.951269) scale(0.1 -0.1)">
       <use xlink:href="#DejaVuSans-34"/>
       <use xlink:href="#DejaVuSans-30" transform="translate(63.623047 0)"/>
       <use xlink:href="#DejaVuSans-30" transform="translate(127.246094 0)"/>
      </g>
     </g>
    </g>
    <g id="ytick_17">
     <g id="line2d_67">
      <path d="M 47.7875 539.366659 
L 846.0855 539.366659 
" clip-path="url(#pe03f78b106)" style="fill: none; stroke-dasharray: 2.96,1.28; stroke-dashoffset: 0; stroke: #b0b0b0; stroke-opacity: 0.6; stroke-width: 0.8"/>
     </g>
     <g id="line2d_68">
      <g>
       <use xlink:href="#mff38e0dae2" x="47.7875" y="539.366659" style="stroke: #000000; stroke-width: 0.8"/>
      </g>
     </g>
     <g id="text_37">
      <!-- 600 -->
      <g transform="translate(21.7 543.165878) scale(0.1 -0.1)">
       <use xlink:href="#DejaVuSans-36"/>
       <use xlink:href="#DejaVuSans-30" transform="translate(63.623047 0)"/>
       <use xlink:href="#DejaVuSans-30" transform="translate(127.246094 0)"/>
      </g>
     </g>
    </g>
    <g id="ytick_18">
     <g id="line2d_69">
      <path d="M 47.7875 497.581268 
L 846.0855 497.581268 
" clip-path="url(#pe03f78b106)" style="fill: none; stroke-dasharray: 2.96,1.28; stroke-dashoffset: 0; stroke: #b0b0b0; stroke-opacity: 0.6; stroke-width: 0.8"/>
     </g>
     <g id="line2d_70">
      <g>
       <use xlink:href="#mff38e0dae2" x="47.7875" y="497.581268" style="stroke: #000000; stroke-width: 0.8"/>
      </g>
     </g>
     <g id="text_38">
      <!-- 800 -->
      <g transform="translate(21.7 501.380487) scale(0.1 -0.1)">
       <use xlink:href="#DejaVuSans-38"/>
       <use xlink:href="#DejaVuSans-30" transform="translate(63.623047 0)"/>
       <use xlink:href="#DejaVuSans-30" transform="translate(127.246094 0)"/>
      </g>
     </g>
    </g>
    <g id="text_39">
     <!-- Radiation ($W/m^2$) -->
     <g transform="translate(15.620312 616.794521) rotate(-90) scale(0.1 -0.1)">
      <defs>
       <path id="DejaVuSans-52" d="M 2841 2188 
Q 3044 2119 3236 1894 
Q 3428 1669 3622 1275 
L 4263 0 
L 3584 0 
L 2988 1197 
Q 2756 1666 2539 1819 
Q 2322 1972 1947 1972 
L 1259 1972 
L 1259 0 
L 628 0 
L 628 4666 
L 2053 4666 
Q 2853 4666 3247 4331 
Q 3641 3997 3641 3322 
Q 3641 2881 3436 2590 
Q 3231 2300 2841 2188 
z
M 1259 4147 
L 1259 2491 
L 2053 2491 
Q 2509 2491 2742 2702 
Q 2975 2913 2975 3322 
Q 2975 3731 2742 3939 
Q 2509 4147 2053 4147 
L 1259 4147 
z
" transform="scale(0.015625)"/>
       <path id="DejaVuSans-6e" d="M 3513 2113 
L 3513 0 
L 2938 0 
L 2938 2094 
Q 2938 2591 2744 2837 
Q 2550 3084 2163 3084 
Q 1697 3084 1428 2787 
Q 1159 2491 1159 1978 
L 1159 0 
L 581 0 
L 581 3500 
L 1159 3500 
L 1159 2956 
Q 1366 3272 1645 3428 
Q 1925 3584 2291 3584 
Q 2894 3584 3203 3211 
Q 3513 2838 3513 2113 
z
" transform="scale(0.015625)"/>
       <path id="DejaVuSans-Oblique-57" d="M 616 4666 
L 1228 4666 
L 1453 697 
L 3213 4666 
L 3916 4666 
L 4147 697 
L 5888 4666 
L 6528 4666 
L 4453 0 
L 3659 0 
L 3444 3891 
L 1697 0 
L 903 0 
L 616 4666 
z
" transform="scale(0.015625)"/>
       <path id="DejaVuSans-2f" d="M 1625 4666 
L 2156 4666 
L 531 -594 
L 0 -594 
L 1625 4666 
z
" transform="scale(0.015625)"/>
       <path id="DejaVuSans-Oblique-6d" d="M 5747 2113 
L 5338 0 
L 4763 0 
L 5166 2094 
Q 5191 2228 5203 2325 
Q 5216 2422 5216 2491 
Q 5216 2772 5059 2928 
Q 4903 3084 4622 3084 
Q 4203 3084 3875 2770 
Q 3547 2456 3450 1953 
L 3066 0 
L 2491 0 
L 2900 2094 
Q 2925 2209 2937 2307 
Q 2950 2406 2950 2484 
Q 2950 2769 2794 2926 
Q 2638 3084 2363 3084 
Q 1938 3084 1609 2770 
Q 1281 2456 1184 1953 
L 800 0 
L 225 0 
L 909 3500 
L 1484 3500 
L 1375 2956 
Q 1609 3263 1923 3423 
Q 2238 3584 2597 3584 
Q 2978 3584 3223 3384 
Q 3469 3184 3519 2828 
Q 3781 3197 4126 3390 
Q 4472 3584 4856 3584 
Q 5306 3584 5551 3325 
Q 5797 3066 5797 2591 
Q 5797 2488 5784 2364 
Q 5772 2241 5747 2113 
z
" transform="scale(0.015625)"/>
      </defs>
      <use xlink:href="#DejaVuSans-52" transform="translate(0 0.765625)"/>
      <use xlink:href="#DejaVuSans-61" transform="translate(69.482422 0.765625)"/>
      <use xlink:href="#DejaVuSans-64" transform="translate(130.761719 0.765625)"/>
      <use xlink:href="#DejaVuSans-69" transform="translate(194.238281 0.765625)"/>
      <use xlink:href="#DejaVuSans-61" transform="translate(222.021484 0.765625)"/>
      <use xlink:href="#DejaVuSans-74" transform="translate(283.300781 0.765625)"/>
      <use xlink:href="#DejaVuSans-69" transform="translate(322.509766 0.765625)"/>
      <use xlink:href="#DejaVuSans-6f" transform="translate(350.292969 0.765625)"/>
      <use xlink:href="#DejaVuSans-6e" transform="translate(411.474609 0.765625)"/>
      <use xlink:href="#DejaVuSans-20" transform="translate(474.853516 0.765625)"/>
      <use xlink:href="#DejaVuSans-28" transform="translate(506.640625 0.765625)"/>
      <use xlink:href="#DejaVuSans-Oblique-57" transform="translate(545.654297 0.765625)"/>
      <use xlink:href="#DejaVuSans-2f" transform="translate(644.53125 0.765625)"/>
      <use xlink:href="#DejaVuSans-Oblique-6d" transform="translate(678.222656 0.765625)"/>
      <use xlink:href="#DejaVuSans-32" transform="translate(780.284661 39.046875) scale(0.7)"/>
      <use xlink:href="#DejaVuSans-29" transform="translate(827.555169 0.765625)"/>
     </g>
    </g>
   </g>
   <g id="line2d_71">
    <path d="M 84.073773 664.827012 
L 87.229101 664.9583 
L 93.539757 664.818104 
L 96.695085 665.043338 
L 99.850413 664.937798 
L 103.005741 665.015114 
L 106.161069 664.669416 
L 109.316397 663.260451 
L 112.471725 660.427993 
L 115.627053 658.28773 
L 118.782381 657.24348 
L 121.937709 648.609857 
L 125.093038 588.72798 
L 128.248366 613.263387 
L 131.403694 626.409451 
L 134.559022 663.325906 
L 137.71435 665.026312 
L 159.801646 664.929157 
L 162.956974 664.95778 
L 166.112302 664.83709 
L 178.733615 664.869934 
L 181.888943 664.371627 
L 185.044271 661.206543 
L 188.199599 650.169504 
L 191.354927 658.343288 
L 194.510255 661.495322 
L 197.665583 645.219504 
L 200.820911 593.524612 
L 203.976239 621.199119 
L 207.131567 640.612506 
L 210.286895 663.690381 
L 213.442223 664.960182 
L 229.218864 664.89357 
L 251.30616 664.894134 
L 254.461488 665.003037 
L 257.616816 664.722757 
L 260.772144 663.764636 
L 263.927472 659.950595 
L 267.0828 660.509495 
L 270.238128 660.683631 
L 273.393457 658.639083 
L 276.548785 660.863213 
L 279.704113 658.080119 
L 282.859441 661.952518 
L 286.014769 664.687255 
L 295.480753 664.752349 
L 304.946737 664.827933 
L 311.257393 664.892278 
L 317.568049 664.797782 
L 323.878706 664.842155 
L 330.189362 664.748354 
L 333.34469 664.415252 
L 336.500018 661.79499 
L 339.655346 655.124126 
L 342.810674 608.829901 
L 345.966002 566.958581 
L 349.12133 571.78692 
L 352.276658 614.084073 
L 355.431986 565.337633 
L 358.587314 622.383066 
L 361.742642 660.513885 
L 364.89797 664.978099 
L 374.363955 665.031218 
L 377.519283 664.991066 
L 380.674611 664.750307 
L 383.829939 664.850719 
L 390.140595 664.78467 
L 405.917235 664.790325 
L 409.072563 664.147868 
L 412.227891 660.554746 
L 415.383219 637.666191 
L 418.538547 577.799687 
L 421.693875 623.370209 
L 424.849204 648.655327 
L 428.004532 659.446593 
L 431.15986 661.06961 
L 434.315188 662.997011 
L 437.470516 664.696341 
L 440.625844 664.791877 
L 469.023796 664.739493 
L 481.645109 664.848954 
L 484.800437 664.357149 
L 487.955765 662.378453 
L 491.111093 659.540576 
L 494.266421 659.18811 
L 497.421749 657.572789 
L 500.577077 656.214066 
L 506.887733 647.43137 
L 510.043061 631.027692 
L 513.198389 663.60766 
L 516.353717 664.909057 
L 522.664374 664.808936 
L 538.441014 664.97655 
L 554.217654 664.79875 
L 557.372982 664.746248 
L 560.52831 663.263289 
L 563.683638 643.410234 
L 566.838966 613.861623 
L 569.994294 607.014498 
L 573.149623 556.959092 
L 576.304951 638.086143 
L 579.460279 657.590888 
L 582.615607 611.324298 
L 585.770935 653.1556 
L 588.926263 663.056565 
L 592.081591 665.057567 
L 611.013559 664.853681 
L 614.168887 664.916558 
L 623.634872 664.818843 
L 629.945528 664.929407 
L 636.256184 664.605688 
L 639.411512 663.056086 
L 642.56684 660.169358 
L 645.722168 659.056522 
L 648.877496 606.203863 
L 652.032824 481.701038 
L 655.188152 572.546051 
L 658.34348 573.365543 
L 661.498808 648.075328 
L 664.654136 662.003238 
L 667.809464 665.188005 
L 670.964792 664.942634 
L 689.896761 664.846808 
L 702.518073 664.882935 
L 705.673401 664.766831 
L 708.828729 664.780314 
L 711.984057 662.686705 
L 715.139385 658.906247 
L 718.294713 654.776424 
L 721.450042 621.56706 
L 724.60537 592.607749 
L 727.760698 660.728852 
L 730.916026 642.407328 
L 734.071354 654.823824 
L 737.226682 635.094061 
L 740.38201 664.132495 
L 743.537338 664.777689 
L 765.624634 664.75135 
L 775.090619 664.866499 
L 781.401275 664.73646 
L 784.556603 664.683307 
L 787.711931 662.547839 
L 790.867259 656.508301 
L 794.022587 651.493575 
L 797.177915 609.436677 
L 800.333243 619.298532 
L 803.488571 612.703391 
L 806.643899 531.369126 
L 809.799227 639.148566 
L 809.799227 639.148566 
" clip-path="url(#pe03f78b106)" style="fill: none; stroke: #1f77b4; stroke-width: 1.5; stroke-linecap: square"/>
   </g>
   <g id="patch_15">
    <path d="M 47.7875 674.362353 
L 47.7875 472.52669 
" style="fill: none; stroke: #000000; stroke-width: 0.8; stroke-linejoin: miter; stroke-linecap: square"/>
   </g>
   <g id="patch_16">
    <path d="M 846.0855 674.362353 
L 846.0855 472.52669 
" style="fill: none; stroke: #000000; stroke-width: 0.8; stroke-linejoin: miter; stroke-linecap: square"/>
   </g>
   <g id="patch_17">
    <path d="M 47.7875 674.362353 
L 846.0855 674.362353 
" style="fill: none; stroke: #000000; stroke-width: 0.8; stroke-linejoin: miter; stroke-linecap: square"/>
   </g>
   <g id="patch_18">
    <path d="M 47.7875 472.52669 
L 846.0855 472.52669 
" style="fill: none; stroke: #000000; stroke-width: 0.8; stroke-linejoin: miter; stroke-linecap: square"/>
   </g>
   <g id="legend_3">
    <g id="patch_19">
     <path d="M 54.7875 495.204815 
L 100.454688 495.204815 
Q 102.454688 495.204815 102.454688 493.204815 
L 102.454688 479.52669 
Q 102.454688 477.52669 100.454688 477.52669 
L 54.7875 477.52669 
Q 52.7875 477.52669 52.7875 479.52669 
L 52.7875 493.204815 
Q 52.7875 495.204815 54.7875 495.204815 
z
" style="fill: #ffffff; opacity: 0.8; stroke: #cccccc; stroke-linejoin: miter"/>
    </g>
    <g id="line2d_72">
     <path d="M 56.7875 485.625127 
L 66.7875 485.625127 
L 76.7875 485.625127 
" style="fill: none; stroke: #1f77b4; stroke-width: 1.5; stroke-linecap: square"/>
    </g>
    <g id="text_40">
     <!-- Gv -->
     <g transform="translate(84.7875 489.125127) scale(0.1 -0.1)">
      <defs>
       <path id="DejaVuSans-47" d="M 3809 666 
L 3809 1919 
L 2778 1919 
L 2778 2438 
L 4434 2438 
L 4434 434 
Q 4069 175 3628 42 
Q 3188 -91 2688 -91 
Q 1594 -91 976 548 
Q 359 1188 359 2328 
Q 359 3472 976 4111 
Q 1594 4750 2688 4750 
Q 3144 4750 3555 4637 
Q 3966 4525 4313 4306 
L 4313 3634 
Q 3963 3931 3569 4081 
Q 3175 4231 2741 4231 
Q 1884 4231 1454 3753 
Q 1025 3275 1025 2328 
Q 1025 1384 1454 906 
Q 1884 428 2741 428 
Q 3075 428 3337 486 
Q 3600 544 3809 666 
z
" transform="scale(0.015625)"/>
       <path id="DejaVuSans-76" d="M 191 3500 
L 800 3500 
L 1894 563 
L 2988 3500 
L 3597 3500 
L 2284 0 
L 1503 0 
L 191 3500 
z
" transform="scale(0.015625)"/>
      </defs>
      <use xlink:href="#DejaVuSans-47"/>
      <use xlink:href="#DejaVuSans-76" transform="translate(77.490234 0)"/>
     </g>
    </g>
   </g>
  </g>
 </g>
 <defs>
  <clipPath id="p94c1455461">
   <rect x="47.7875" y="7.2" width="798.298" height="201.835663"/>
  </clipPath>
  <clipPath id="p4885aa25a6">
   <rect x="47.7875" y="239.863345" width="798.298" height="201.835663"/>
  </clipPath>
  <clipPath id="pe03f78b106">
   <rect x="47.7875" y="472.52669" width="798.298" height="201.835663"/>
  </clipPath>
 </defs>
</svg>
