<?xml version="1.0" encoding="utf-8" standalone="no"?>
<!DOCTYPE svg PUBLIC "-//W3C//DTD SVG 1.1//EN"
  "http://www.w3.org/Graphics/SVG/1.1/DTD/svg11.dtd">
<svg xmlns:xlink="http://www.w3.org/1999/xlink" width="997.114813pt" height="346.738125pt" viewBox="0 0 997.114813 346.738125" xmlns="http://www.w3.org/2000/svg" version="1.1">
 <metadata>
  <rdf:RDF xmlns:dc="http://purl.org/dc/elements/1.1/" xmlns:cc="http://creativecommons.org/ns#" xmlns:rdf="http://www.w3.org/1999/02/22-rdf-syntax-ns#">
   <cc:Work>
    <dc:type rdf:resource="http://purl.org/dc/dcmitype/StillImage"/>
    <dc:date>2026-04-14T10:58:31.743120</dc:date>
    <dc:format>image/svg+xml</dc:format>
    <dc:creator>
     <cc:Agent>
      <dc:title>Matplotlib v3.10.8, https://matplotlib.org/</dc:title>
     </cc:Agent>
    </dc:creator>
   </cc:Work>
  </rdf:RDF>
 </metadata>
 <defs>
  <style type="text/css">*{stroke-linejoin: round; stroke-linecap: butt}</style>
 </defs>
 <g id="figure_1">
  <g id="patch_1">
   <path d="M 0 346.738125 
L 997.114813 346.738125 
L 997.114813 0 
L 0 0 
z
" style="fill: #ffffff"/>
  </g>
  <g id="axes_1">
   <g id="patch_2">
    <path d="M 55.382812 309.16 
L 488.164813 309.16 
L 488.164813 22.32 
L 55.382812 22.32 
z
" style="fill: #ffffff"/>
   </g>
   <g id="matplotlib.axis_1">
    <g id="xtick_1">
     <g id="line2d_1">
      <path d="M 75.054722 309.16 
L 75.054722 22.32 
" clip-path="url(#p7b66c43489)" style="fill: none; stroke: #b0b0b0; stroke-opacity: 0.3; stroke-width: 0.8; stroke-linecap: square"/>
     </g>
     <g id="line2d_2">
      <defs>
       <path id="m2187462cc1" d="M 0 0 
L 0 3.5 
" style="stroke: #000000; stroke-width: 0.8"/>
      </defs>
      <g>
       <use xlink:href="#m2187462cc1" x="75.054722" y="309.16" style="stroke: #000000; stroke-width: 0.8"/>
      </g>
     </g>
     <g id="text_1">
      <!-- 0 -->
      <g transform="translate(71.873472 323.758437) scale(0.1 -0.1)">
       <defs>
        <path id="DejaVuSans-30" d="M 2034 4250 
Q 1547 4250 1301 3770 
Q 1056 3291 1056 2328 
Q 1056 1369 1301 889 
Q 1547 409 2034 409 
Q 2525 409 2770 889 
Q 3016 1369 3016 2328 
Q 3016 3291 2770 3770 
Q 2525 4250 2034 4250 
z
M 2034 4750 
Q 2819 4750 3233 4129 
Q 3647 3509 3647 2328 
Q 3647 1150 3233 529 
Q 2819 -91 2034 -91 
Q 1250 -91 836 529 
Q 422 1150 422 2328 
Q 422 3509 836 4129 
Q 1250 4750 2034 4750 
z
" transform="scale(0.015625)"/>
       </defs>
       <use xlink:href="#DejaVuSans-30"/>
      </g>
     </g>
    </g>
    <g id="xtick_2">
     <g id="line2d_3">
      <path d="M 153.742358 309.16 
L 153.742358 22.32 
" clip-path="url(#p7b66c43489)" style="fill: none; stroke: #b0b0b0; stroke-opacity: 0.3; stroke-width: 0.8; stroke-linecap: square"/>
     </g>
     <g id="line2d_4">
      <g>
       <use xlink:href="#m2187462cc1" x="153.742358" y="309.16" style="stroke: #000000; stroke-width: 0.8"/>
      </g>
     </g>
     <g id="text_2">
      <!-- 2 -->
      <g transform="translate(150.561108 323.758437) scale(0.1 -0.1)">
       <defs>
        <path id="DejaVuSans-32" d="M 1228 531 
L 3431 531 
L 3431 0 
L 469 0 
L 469 531 
Q 828 903 1448 1529 
Q 2069 2156 2228 2338 
Q 2531 2678 2651 2914 
Q 2772 3150 2772 3378 
Q 2772 3750 2511 3984 
Q 2250 4219 1831 4219 
Q 1534 4219 1204 4116 
Q 875 4013 500 3803 
L 500 4441 
Q 881 4594 1212 4672 
Q 1544 4750 1819 4750 
Q 2544 4750 2975 4387 
Q 3406 4025 3406 3419 
Q 3406 3131 3298 2873 
Q 3191 2616 2906 2266 
Q 2828 2175 2409 1742 
Q 1991 1309 1228 531 
z
" transform="scale(0.015625)"/>
       </defs>
       <use xlink:href="#DejaVuSans-32"/>
      </g>
     </g>
    </g>
    <g id="xtick_3">
     <g id="line2d_5">
      <path d="M 232.429994 309.16 
L 232.429994 22.32 
" clip-path="url(#p7b66c43489)" style="fill: none; stroke: #b0b0b0; stroke-opacity: 0.3; stroke-width: 0.8; stroke-linecap: square"/>
     </g>
     <g id="line2d_6">
      <g>
       <use xlink:href="#m2187462cc1" x="232.429994" y="309.16" style="stroke: #000000; stroke-width: 0.8"/>
      </g>
     </g>
     <g id="text_3">
      <!-- 4 -->
      <g transform="translate(229.248744 323.758437) scale(0.1 -0.1)">
       <defs>
        <path id="DejaVuSans-34" d="M 2419 4116 
L 825 1625 
L 2419 1625 
L 2419 4116 
z
M 2253 4666 
L 3047 4666 
L 3047 1625 
L 3713 1625 
L 3713 1100 
L 3047 1100 
L 3047 0 
L 2419 0 
L 2419 1100 
L 313 1100 
L 313 1709 
L 2253 4666 
z
" transform="scale(0.015625)"/>
       </defs>
       <use xlink:href="#DejaVuSans-34"/>
      </g>
     </g>
    </g>
    <g id="xtick_4">
     <g id="line2d_7">
      <path d="M 311.117631 309.16 
L 311.117631 22.32 
" clip-path="url(#p7b66c43489)" style="fill: none; stroke: #b0b0b0; stroke-opacity: 0.3; stroke-width: 0.8; stroke-linecap: square"/>
     </g>
     <g id="line2d_8">
      <g>
       <use xlink:href="#m2187462cc1" x="311.117631" y="309.16" style="stroke: #000000; stroke-width: 0.8"/>
      </g>
     </g>
     <g id="text_4">
      <!-- 6 -->
      <g transform="translate(307.936381 323.758437) scale(0.1 -0.1)">
       <defs>
        <path id="DejaVuSans-36" d="M 2113 2584 
Q 1688 2584 1439 2293 
Q 1191 2003 1191 1497 
Q 1191 994 1439 701 
Q 1688 409 2113 409 
Q 2538 409 2786 701 
Q 3034 994 3034 1497 
Q 3034 2003 2786 2293 
Q 2538 2584 2113 2584 
z
M 3366 4563 
L 3366 3988 
Q 3128 4100 2886 4159 
Q 2644 4219 2406 4219 
Q 1781 4219 1451 3797 
Q 1122 3375 1075 2522 
Q 1259 2794 1537 2939 
Q 1816 3084 2150 3084 
Q 2853 3084 3261 2657 
Q 3669 2231 3669 1497 
Q 3669 778 3244 343 
Q 2819 -91 2113 -91 
Q 1303 -91 875 529 
Q 447 1150 447 2328 
Q 447 3434 972 4092 
Q 1497 4750 2381 4750 
Q 2619 4750 2861 4703 
Q 3103 4656 3366 4563 
z
" transform="scale(0.015625)"/>
       </defs>
       <use xlink:href="#DejaVuSans-36"/>
      </g>
     </g>
    </g>
    <g id="xtick_5">
     <g id="line2d_9">
      <path d="M 389.805267 309.16 
L 389.805267 22.32 
" clip-path="url(#p7b66c43489)" style="fill: none; stroke: #b0b0b0; stroke-opacity: 0.3; stroke-width: 0.8; stroke-linecap: square"/>
     </g>
     <g id="line2d_10">
      <g>
       <use xlink:href="#m2187462cc1" x="389.805267" y="309.16" style="stroke: #000000; stroke-width: 0.8"/>
      </g>
     </g>
     <g id="text_5">
      <!-- 8 -->
      <g transform="translate(386.624017 323.758437) scale(0.1 -0.1)">
       <defs>
        <path id="DejaVuSans-38" d="M 2034 2216 
Q 1584 2216 1326 1975 
Q 1069 1734 1069 1313 
Q 1069 891 1326 650 
Q 1584 409 2034 409 
Q 2484 409 2743 651 
Q 3003 894 3003 1313 
Q 3003 1734 2745 1975 
Q 2488 2216 2034 2216 
z
M 1403 2484 
Q 997 2584 770 2862 
Q 544 3141 544 3541 
Q 544 4100 942 4425 
Q 1341 4750 2034 4750 
Q 2731 4750 3128 4425 
Q 3525 4100 3525 3541 
Q 3525 3141 3298 2862 
Q 3072 2584 2669 2484 
Q 3125 2378 3379 2068 
Q 3634 1759 3634 1313 
Q 3634 634 3220 271 
Q 2806 -91 2034 -91 
Q 1263 -91 848 271 
Q 434 634 434 1313 
Q 434 1759 690 2068 
Q 947 2378 1403 2484 
z
M 1172 3481 
Q 1172 3119 1398 2916 
Q 1625 2713 2034 2713 
Q 2441 2713 2670 2916 
Q 2900 3119 2900 3481 
Q 2900 3844 2670 4047 
Q 2441 4250 2034 4250 
Q 1625 4250 1398 4047 
Q 1172 3844 1172 3481 
z
" transform="scale(0.015625)"/>
       </defs>
       <use xlink:href="#DejaVuSans-38"/>
      </g>
     </g>
    </g>
    <g id="xtick_6">
     <g id="line2d_11">
      <path d="M 468.492903 309.16 
L 468.492903 22.32 
" clip-path="url(#p7b66c43489)" style="fill: none; stroke: #b0b0b0; stroke-opacity: 0.3; stroke-width: 0.8; stroke-linecap: square"/>
     </g>
     <g id="line2d_12">
      <g>
       <use xlink:href="#m2187462cc1" x="468.492903" y="309.16" style="stroke: #000000; stroke-width: 0.8"/>
      </g>
     </g>
     <g id="text_6">
      <!-- 10 -->
      <g transform="translate(462.130403 323.758437) scale(0.1 -0.1)">
       <defs>
        <path id="DejaVuSans-31" d="M 794 531 
L 1825 531 
L 1825 4091 
L 703 3866 
L 703 4441 
L 1819 4666 
L 2450 4666 
L 2450 531 
L 3481 531 
L 3481 0 
L 794 0 
L 794 531 
z
" transform="scale(0.015625)"/>
       </defs>
       <use xlink:href="#DejaVuSans-31"/>
       <use xlink:href="#DejaVuSans-30" transform="translate(63.623047 0)"/>
      </g>
     </g>
    </g>
    <g id="text_7">
     <!-- Lag $k$ (Hours) -->
     <g transform="translate(238.123813 337.438125) scale(0.1 -0.1)">
      <defs>
       <path id="DejaVuSans-4c" d="M 628 4666 
L 1259 4666 
L 1259 531 
L 3531 531 
L 3531 0 
L 628 0 
L 628 4666 
z
" transform="scale(0.015625)"/>
       <path id="DejaVuSans-61" d="M 2194 1759 
Q 1497 1759 1228 1600 
Q 959 1441 959 1056 
Q 959 750 1161 570 
Q 1363 391 1709 391 
Q 2188 391 2477 730 
Q 2766 1069 2766 1631 
L 2766 1759 
L 2194 1759 
z
M 3341 1997 
L 3341 0 
L 2766 0 
L 2766 531 
Q 2569 213 2275 61 
Q 1981 -91 1556 -91 
Q 1019 -91 701 211 
Q 384 513 384 1019 
Q 384 1609 779 1909 
Q 1175 2209 1959 2209 
L 2766 2209 
L 2766 2266 
Q 2766 2663 2505 2880 
Q 2244 3097 1772 3097 
Q 1472 3097 1187 3025 
Q 903 2953 641 2809 
L 641 3341 
Q 956 3463 1253 3523 
Q 1550 3584 1831 3584 
Q 2591 3584 2966 3190 
Q 3341 2797 3341 1997 
z
" transform="scale(0.015625)"/>
       <path id="DejaVuSans-67" d="M 2906 1791 
Q 2906 2416 2648 2759 
Q 2391 3103 1925 3103 
Q 1463 3103 1205 2759 
Q 947 2416 947 1791 
Q 947 1169 1205 825 
Q 1463 481 1925 481 
Q 2391 481 2648 825 
Q 2906 1169 2906 1791 
z
M 3481 434 
Q 3481 -459 3084 -895 
Q 2688 -1331 1869 -1331 
Q 1566 -1331 1297 -1286 
Q 1028 -1241 775 -1147 
L 775 -588 
Q 1028 -725 1275 -790 
Q 1522 -856 1778 -856 
Q 2344 -856 2625 -561 
Q 2906 -266 2906 331 
L 2906 616 
Q 2728 306 2450 153 
Q 2172 0 1784 0 
Q 1141 0 747 490 
Q 353 981 353 1791 
Q 353 2603 747 3093 
Q 1141 3584 1784 3584 
Q 2172 3584 2450 3431 
Q 2728 3278 2906 2969 
L 2906 3500 
L 3481 3500 
L 3481 434 
z
" transform="scale(0.015625)"/>
       <path id="DejaVuSans-20" transform="scale(0.015625)"/>
       <path id="DejaVuSans-Oblique-6b" d="M 1172 4863 
L 1747 4863 
L 1197 2028 
L 3169 3500 
L 3916 3500 
L 1716 1825 
L 3322 0 
L 2625 0 
L 1131 1709 
L 800 0 
L 225 0 
L 1172 4863 
z
" transform="scale(0.015625)"/>
       <path id="DejaVuSans-28" d="M 1984 4856 
Q 1566 4138 1362 3434 
Q 1159 2731 1159 2009 
Q 1159 1288 1364 580 
Q 1569 -128 1984 -844 
L 1484 -844 
Q 1016 -109 783 600 
Q 550 1309 550 2009 
Q 550 2706 781 3412 
Q 1013 4119 1484 4856 
L 1984 4856 
z
" transform="scale(0.015625)"/>
       <path id="DejaVuSans-48" d="M 628 4666 
L 1259 4666 
L 1259 2753 
L 3553 2753 
L 3553 4666 
L 4184 4666 
L 4184 0 
L 3553 0 
L 3553 2222 
L 1259 2222 
L 1259 0 
L 628 0 
L 628 4666 
z
" transform="scale(0.015625)"/>
       <path id="DejaVuSans-6f" d="M 1959 3097 
Q 1497 3097 1228 2736 
Q 959 2375 959 1747 
Q 959 1119 1226 758 
Q 1494 397 1959 397 
Q 2419 397 2687 759 
Q 2956 1122 2956 1747 
Q 2956 2369 2687 2733 
Q 2419 3097 1959 3097 
z
M 1959 3584 
Q 2709 3584 3137 3096 
Q 3566 2609 3566 1747 
Q 3566 888 3137 398 
Q 2709 -91 1959 -91 
Q 1206 -91 779 398 
Q 353 888 353 1747 
Q 353 2609 779 3096 
Q 1206 3584 1959 3584 
z
" transform="scale(0.015625)"/>
       <path id="DejaVuSans-75" d="M 544 1381 
L 544 3500 
L 1119 3500 
L 1119 1403 
Q 1119 906 1312 657 
Q 1506 409 1894 409 
Q 2359 409 2629 706 
Q 2900 1003 2900 1516 
L 2900 3500 
L 3475 3500 
L 3475 0 
L 2900 0 
L 2900 538 
Q 2691 219 2414 64 
Q 2138 -91 1772 -91 
Q 1169 -91 856 284 
Q 544 659 544 1381 
z
M 1991 3584 
L 1991 3584 
z
" transform="scale(0.015625)"/>
       <path id="DejaVuSans-72" d="M 2631 2963 
Q 2534 3019 2420 3045 
Q 2306 3072 2169 3072 
Q 1681 3072 1420 2755 
Q 1159 2438 1159 1844 
L 1159 0 
L 581 0 
L 581 3500 
L 1159 3500 
L 1159 2956 
Q 1341 3275 1631 3429 
Q 1922 3584 2338 3584 
Q 2397 3584 2469 3576 
Q 2541 3569 2628 3553 
L 2631 2963 
z
" transform="scale(0.015625)"/>
       <path id="DejaVuSans-73" d="M 2834 3397 
L 2834 2853 
Q 2591 2978 2328 3040 
Q 2066 3103 1784 3103 
Q 1356 3103 1142 2972 
Q 928 2841 928 2578 
Q 928 2378 1081 2264 
Q 1234 2150 1697 2047 
L 1894 2003 
Q 2506 1872 2764 1633 
Q 3022 1394 3022 966 
Q 3022 478 2636 193 
Q 2250 -91 1575 -91 
Q 1294 -91 989 -36 
Q 684 19 347 128 
L 347 722 
Q 666 556 975 473 
Q 1284 391 1588 391 
Q 1994 391 2212 530 
Q 2431 669 2431 922 
Q 2431 1156 2273 1281 
Q 2116 1406 1581 1522 
L 1381 1569 
Q 847 1681 609 1914 
Q 372 2147 372 2553 
Q 372 3047 722 3315 
Q 1072 3584 1716 3584 
Q 2034 3584 2315 3537 
Q 2597 3491 2834 3397 
z
" transform="scale(0.015625)"/>
       <path id="DejaVuSans-29" d="M 513 4856 
L 1013 4856 
Q 1481 4119 1714 3412 
Q 1947 2706 1947 2009 
Q 1947 1309 1714 600 
Q 1481 -109 1013 -844 
L 513 -844 
Q 928 -128 1133 580 
Q 1338 1288 1338 2009 
Q 1338 2731 1133 3434 
Q 928 4138 513 4856 
z
" transform="scale(0.015625)"/>
      </defs>
      <use xlink:href="#DejaVuSans-4c" transform="translate(0 0.015625)"/>
      <use xlink:href="#DejaVuSans-61" transform="translate(55.712891 0.015625)"/>
      <use xlink:href="#DejaVuSans-67" transform="translate(116.992188 0.015625)"/>
      <use xlink:href="#DejaVuSans-20" transform="translate(180.46875 0.015625)"/>
      <use xlink:href="#DejaVuSans-Oblique-6b" transform="translate(212.255859 0.015625)"/>
      <use xlink:href="#DejaVuSans-20" transform="translate(270.166016 0.015625)"/>
      <use xlink:href="#DejaVuSans-28" transform="translate(301.953125 0.015625)"/>
      <use xlink:href="#DejaVuSans-48" transform="translate(340.966797 0.015625)"/>
      <use xlink:href="#DejaVuSans-6f" transform="translate(416.162109 0.015625)"/>
      <use xlink:href="#DejaVuSans-75" transform="translate(477.34375 0.015625)"/>
      <use xlink:href="#DejaVuSans-72" transform="translate(540.722656 0.015625)"/>
      <use xlink:href="#DejaVuSans-73" transform="translate(581.835938 0.015625)"/>
      <use xlink:href="#DejaVuSans-29" transform="translate(633.935547 0.015625)"/>
     </g>
    </g>
   </g>
   <g id="matplotlib.axis_2">
    <g id="ytick_1">
     <g id="line2d_13">
      <path d="M 55.382812 291.136935 
L 488.164813 291.136935 
" clip-path="url(#p7b66c43489)" style="fill: none; stroke: #b0b0b0; stroke-opacity: 0.3; stroke-width: 0.8; stroke-linecap: square"/>
     </g>
     <g id="line2d_14">
      <defs>
       <path id="mf5aa642a9b" d="M 0 0 
L -3.5 0 
" style="stroke: #000000; stroke-width: 0.8"/>
      </defs>
      <g>
       <use xlink:href="#mf5aa642a9b" x="55.382812" y="291.136935" style="stroke: #000000; stroke-width: 0.8"/>
      </g>
     </g>
     <g id="text_8">
      <!-- −1.0 -->
      <g transform="translate(24.1 294.936154) scale(0.1 -0.1)">
       <defs>
        <path id="DejaVuSans-2212" d="M 678 2272 
L 4684 2272 
L 4684 1741 
L 678 1741 
L 678 2272 
z
" transform="scale(0.015625)"/>
        <path id="DejaVuSans-2e" d="M 684 794 
L 1344 794 
L 1344 0 
L 684 0 
L 684 794 
z
" transform="scale(0.015625)"/>
       </defs>
       <use xlink:href="#DejaVuSans-2212"/>
       <use xlink:href="#DejaVuSans-31" transform="translate(83.789062 0)"/>
       <use xlink:href="#DejaVuSans-2e" transform="translate(147.412109 0)"/>
       <use xlink:href="#DejaVuSans-30" transform="translate(179.199219 0)"/>
      </g>
     </g>
    </g>
    <g id="ytick_2">
     <g id="line2d_15">
      <path d="M 55.382812 249.878669 
L 488.164813 249.878669 
" clip-path="url(#p7b66c43489)" style="fill: none; stroke: #b0b0b0; stroke-opacity: 0.3; stroke-width: 0.8; stroke-linecap: square"/>
     </g>
     <g id="line2d_16">
      <g>
       <use xlink:href="#mf5aa642a9b" x="55.382812" y="249.878669" style="stroke: #000000; stroke-width: 0.8"/>
      </g>
     </g>
     <g id="text_9">
      <!-- −0.5 -->
      <g transform="translate(24.1 253.677887) scale(0.1 -0.1)">
       <defs>
        <path id="DejaVuSans-35" d="M 691 4666 
L 3169 4666 
L 3169 4134 
L 1269 4134 
L 1269 2991 
Q 1406 3038 1543 3061 
Q 1681 3084 1819 3084 
Q 2600 3084 3056 2656 
Q 3513 2228 3513 1497 
Q 3513 744 3044 326 
Q 2575 -91 1722 -91 
Q 1428 -91 1123 -41 
Q 819 9 494 109 
L 494 744 
Q 775 591 1075 516 
Q 1375 441 1709 441 
Q 2250 441 2565 725 
Q 2881 1009 2881 1497 
Q 2881 1984 2565 2268 
Q 2250 2553 1709 2553 
Q 1456 2553 1204 2497 
Q 953 2441 691 2322 
L 691 4666 
z
" transform="scale(0.015625)"/>
       </defs>
       <use xlink:href="#DejaVuSans-2212"/>
       <use xlink:href="#DejaVuSans-30" transform="translate(83.789062 0)"/>
       <use xlink:href="#DejaVuSans-2e" transform="translate(147.412109 0)"/>
       <use xlink:href="#DejaVuSans-35" transform="translate(179.199219 0)"/>
      </g>
     </g>
    </g>
    <g id="ytick_3">
     <g id="line2d_17">
      <path d="M 55.382812 208.620402 
L 488.164813 208.620402 
" clip-path="url(#p7b66c43489)" style="fill: none; stroke: #b0b0b0; stroke-opacity: 0.3; stroke-width: 0.8; stroke-linecap: square"/>
     </g>
     <g id="line2d_18">
      <g>
       <use xlink:href="#mf5aa642a9b" x="55.382812" y="208.620402" style="stroke: #000000; stroke-width: 0.8"/>
      </g>
     </g>
     <g id="text_10">
      <!-- 0.0 -->
      <g transform="translate(32.479687 212.419621) scale(0.1 -0.1)">
       <use xlink:href="#DejaVuSans-30"/>
       <use xlink:href="#DejaVuSans-2e" transform="translate(63.623047 0)"/>
       <use xlink:href="#DejaVuSans-30" transform="translate(95.410156 0)"/>
      </g>
     </g>
    </g>
    <g id="ytick_4">
     <g id="line2d_19">
      <path d="M 55.382812 167.362135 
L 488.164813 167.362135 
" clip-path="url(#p7b66c43489)" style="fill: none; stroke: #b0b0b0; stroke-opacity: 0.3; stroke-width: 0.8; stroke-linecap: square"/>
     </g>
     <g id="line2d_20">
      <g>
       <use xlink:href="#mf5aa642a9b" x="55.382812" y="167.362135" style="stroke: #000000; stroke-width: 0.8"/>
      </g>
     </g>
     <g id="text_11">
      <!-- 0.5 -->
      <g transform="translate(32.479687 171.161354) scale(0.1 -0.1)">
       <use xlink:href="#DejaVuSans-30"/>
       <use xlink:href="#DejaVuSans-2e" transform="translate(63.623047 0)"/>
       <use xlink:href="#DejaVuSans-35" transform="translate(95.410156 0)"/>
      </g>
     </g>
    </g>
    <g id="ytick_5">
     <g id="line2d_21">
      <path d="M 55.382812 126.103868 
L 488.164813 126.103868 
" clip-path="url(#p7b66c43489)" style="fill: none; stroke: #b0b0b0; stroke-opacity: 0.3; stroke-width: 0.8; stroke-linecap: square"/>
     </g>
     <g id="line2d_22">
      <g>
       <use xlink:href="#mf5aa642a9b" x="55.382812" y="126.103868" style="stroke: #000000; stroke-width: 0.8"/>
      </g>
     </g>
     <g id="text_12">
      <!-- 1.0 -->
      <g transform="translate(32.479687 129.903087) scale(0.1 -0.1)">
       <use xlink:href="#DejaVuSans-31"/>
       <use xlink:href="#DejaVuSans-2e" transform="translate(63.623047 0)"/>
       <use xlink:href="#DejaVuSans-30" transform="translate(95.410156 0)"/>
      </g>
     </g>
    </g>
    <g id="ytick_6">
     <g id="line2d_23">
      <path d="M 55.382812 84.845601 
L 488.164813 84.845601 
" clip-path="url(#p7b66c43489)" style="fill: none; stroke: #b0b0b0; stroke-opacity: 0.3; stroke-width: 0.8; stroke-linecap: square"/>
     </g>
     <g id="line2d_24">
      <g>
       <use xlink:href="#mf5aa642a9b" x="55.382812" y="84.845601" style="stroke: #000000; stroke-width: 0.8"/>
      </g>
     </g>
     <g id="text_13">
      <!-- 1.5 -->
      <g transform="translate(32.479687 88.64482) scale(0.1 -0.1)">
       <use xlink:href="#DejaVuSans-31"/>
       <use xlink:href="#DejaVuSans-2e" transform="translate(63.623047 0)"/>
       <use xlink:href="#DejaVuSans-35" transform="translate(95.410156 0)"/>
      </g>
     </g>
    </g>
    <g id="ytick_7">
     <g id="line2d_25">
      <path d="M 55.382812 43.587335 
L 488.164813 43.587335 
" clip-path="url(#p7b66c43489)" style="fill: none; stroke: #b0b0b0; stroke-opacity: 0.3; stroke-width: 0.8; stroke-linecap: square"/>
     </g>
     <g id="line2d_26">
      <g>
       <use xlink:href="#mf5aa642a9b" x="55.382812" y="43.587335" style="stroke: #000000; stroke-width: 0.8"/>
      </g>
     </g>
     <g id="text_14">
      <!-- 2.0 -->
      <g transform="translate(32.479687 47.386553) scale(0.1 -0.1)">
       <use xlink:href="#DejaVuSans-32"/>
       <use xlink:href="#DejaVuSans-2e" transform="translate(63.623047 0)"/>
       <use xlink:href="#DejaVuSans-30" transform="translate(95.410156 0)"/>
      </g>
     </g>
    </g>
    <g id="text_15">
     <!-- $h_k^{(T)}$ -->
     <g transform="translate(17.3 174.29) rotate(-90) scale(0.1 -0.1)">
      <defs>
       <path id="DejaVuSans-Oblique-68" d="M 3566 2113 
L 3156 0 
L 2578 0 
L 2988 2091 
Q 3016 2238 3031 2350 
Q 3047 2463 3047 2528 
Q 3047 2791 2881 2937 
Q 2716 3084 2419 3084 
Q 1956 3084 1617 2771 
Q 1278 2459 1178 1941 
L 800 0 
L 225 0 
L 1172 4863 
L 1747 4863 
L 1375 2950 
Q 1594 3244 1934 3414 
Q 2275 3584 2650 3584 
Q 3113 3584 3367 3334 
Q 3622 3084 3622 2631 
Q 3622 2519 3608 2391 
Q 3594 2263 3566 2113 
z
" transform="scale(0.015625)"/>
       <path id="DejaVuSans-Oblique-54" d="M 378 4666 
L 4325 4666 
L 4225 4134 
L 2559 4134 
L 1759 0 
L 1125 0 
L 1925 4134 
L 275 4134 
L 378 4666 
z
" transform="scale(0.015625)"/>
      </defs>
      <use xlink:href="#DejaVuSans-Oblique-68" transform="translate(0 0.310938)"/>
      <use xlink:href="#DejaVuSans-28" transform="translate(70.826615 47.8875) scale(0.7)"/>
      <use xlink:href="#DejaVuSans-Oblique-54" transform="translate(98.136185 47.8875) scale(0.7)"/>
      <use xlink:href="#DejaVuSans-29" transform="translate(140.894974 47.8875) scale(0.7)"/>
      <use xlink:href="#DejaVuSans-Oblique-6b" transform="translate(63.378906 -27.032812) scale(0.7)"/>
     </g>
    </g>
   </g>
   <g id="LineCollection_1">
    <path d="M 75.054722 208.620402 
L 75.054722 181.688545 
" clip-path="url(#p7b66c43489)" style="fill: none; stroke: #4169e1; stroke-width: 1.5"/>
    <path d="M 114.39854 208.620402 
L 114.39854 35.358182 
" clip-path="url(#p7b66c43489)" style="fill: none; stroke: #4169e1; stroke-width: 1.5"/>
    <path d="M 153.742358 208.620402 
L 153.742358 253.930682 
" clip-path="url(#p7b66c43489)" style="fill: none; stroke: #4169e1; stroke-width: 1.5"/>
    <path d="M 193.086176 208.620402 
L 193.086176 93.794698 
" clip-path="url(#p7b66c43489)" style="fill: none; stroke: #4169e1; stroke-width: 1.5"/>
    <path d="M 232.429994 208.620402 
L 232.429994 296.121818 
" clip-path="url(#p7b66c43489)" style="fill: none; stroke: #4169e1; stroke-width: 1.5"/>
    <path d="M 271.773813 208.620402 
L 271.773813 105.743182 
" clip-path="url(#p7b66c43489)" style="fill: none; stroke: #4169e1; stroke-width: 1.5"/>
    <path d="M 311.117631 208.620402 
L 311.117631 196.144099 
" clip-path="url(#p7b66c43489)" style="fill: none; stroke: #4169e1; stroke-width: 1.5"/>
    <path d="M 350.461449 208.620402 
L 350.461449 202.386335 
" clip-path="url(#p7b66c43489)" style="fill: none; stroke: #4169e1; stroke-width: 1.5"/>
    <path d="M 389.805267 208.620402 
L 389.805267 191.891515 
" clip-path="url(#p7b66c43489)" style="fill: none; stroke: #4169e1; stroke-width: 1.5"/>
    <path d="M 429.149085 208.620402 
L 429.149085 240.582343 
" clip-path="url(#p7b66c43489)" style="fill: none; stroke: #4169e1; stroke-width: 1.5"/>
    <path d="M 468.492903 208.620402 
L 468.492903 164.678541 
" clip-path="url(#p7b66c43489)" style="fill: none; stroke: #4169e1; stroke-width: 1.5"/>
   </g>
   <g id="line2d_27">
    <defs>
     <path id="m4096228aa6" d="M 0 3 
C 0.795609 3 1.55874 2.683901 2.12132 2.12132 
C 2.683901 1.55874 3 0.795609 3 0 
C 3 -0.795609 2.683901 -1.55874 2.12132 -2.12132 
C 1.55874 -2.683901 0.795609 -3 0 -3 
C -0.795609 -3 -1.55874 -2.683901 -2.12132 -2.12132 
C -2.683901 -1.55874 -3 -0.795609 -3 0 
C -3 0.795609 -2.683901 1.55874 -2.12132 2.12132 
C -1.55874 2.683901 -0.795609 3 0 3 
z
" style="stroke: #0000ff"/>
    </defs>
    <g clip-path="url(#p7b66c43489)">
     <use xlink:href="#m4096228aa6" x="75.054722" y="181.688545" style="fill: #0000ff; stroke: #0000ff"/>
     <use xlink:href="#m4096228aa6" x="114.39854" y="35.358182" style="fill: #0000ff; stroke: #0000ff"/>
     <use xlink:href="#m4096228aa6" x="153.742358" y="253.930682" style="fill: #0000ff; stroke: #0000ff"/>
     <use xlink:href="#m4096228aa6" x="193.086176" y="93.794698" style="fill: #0000ff; stroke: #0000ff"/>
     <use xlink:href="#m4096228aa6" x="232.429994" y="296.121818" style="fill: #0000ff; stroke: #0000ff"/>
     <use xlink:href="#m4096228aa6" x="271.773813" y="105.743182" style="fill: #0000ff; stroke: #0000ff"/>
     <use xlink:href="#m4096228aa6" x="311.117631" y="196.144099" style="fill: #0000ff; stroke: #0000ff"/>
     <use xlink:href="#m4096228aa6" x="350.461449" y="202.386335" style="fill: #0000ff; stroke: #0000ff"/>
     <use xlink:href="#m4096228aa6" x="389.805267" y="191.891515" style="fill: #0000ff; stroke: #0000ff"/>
     <use xlink:href="#m4096228aa6" x="429.149085" y="240.582343" style="fill: #0000ff; stroke: #0000ff"/>
     <use xlink:href="#m4096228aa6" x="468.492903" y="164.678541" style="fill: #0000ff; stroke: #0000ff"/>
    </g>
   </g>
   <g id="line2d_28"/>
   <g id="patch_3">
    <path d="M 55.382812 309.16 
L 55.382812 22.32 
" style="fill: none; stroke: #000000; stroke-width: 0.8; stroke-linejoin: miter; stroke-linecap: square"/>
   </g>
   <g id="patch_4">
    <path d="M 488.164813 309.16 
L 488.164813 22.32 
" style="fill: none; stroke: #000000; stroke-width: 0.8; stroke-linejoin: miter; stroke-linecap: square"/>
   </g>
   <g id="patch_5">
    <path d="M 55.382812 309.16 
L 488.164813 309.16 
" style="fill: none; stroke: #000000; stroke-width: 0.8; stroke-linejoin: miter; stroke-linecap: square"/>
   </g>
   <g id="patch_6">
    <path d="M 55.382812 22.32 
L 488.164813 22.32 
" style="fill: none; stroke: #000000; stroke-width: 0.8; stroke-linejoin: miter; stroke-linecap: square"/>
   </g>
   <g id="text_16">
    <!-- OLS Impulse Response: Temp Delta ($T_{delta}$) -->
    <g transform="translate(143.553813 16.32) scale(0.12 -0.12)">
     <defs>
      <path id="DejaVuSans-4f" d="M 2522 4238 
Q 1834 4238 1429 3725 
Q 1025 3213 1025 2328 
Q 1025 1447 1429 934 
Q 1834 422 2522 422 
Q 3209 422 3611 934 
Q 4013 1447 4013 2328 
Q 4013 3213 3611 3725 
Q 3209 4238 2522 4238 
z
M 2522 4750 
Q 3503 4750 4090 4092 
Q 4678 3434 4678 2328 
Q 4678 1225 4090 567 
Q 3503 -91 2522 -91 
Q 1538 -91 948 565 
Q 359 1222 359 2328 
Q 359 3434 948 4092 
Q 1538 4750 2522 4750 
z
" transform="scale(0.015625)"/>
      <path id="DejaVuSans-53" d="M 3425 4513 
L 3425 3897 
Q 3066 4069 2747 4153 
Q 2428 4238 2131 4238 
Q 1616 4238 1336 4038 
Q 1056 3838 1056 3469 
Q 1056 3159 1242 3001 
Q 1428 2844 1947 2747 
L 2328 2669 
Q 3034 2534 3370 2195 
Q 3706 1856 3706 1288 
Q 3706 609 3251 259 
Q 2797 -91 1919 -91 
Q 1588 -91 1214 -16 
Q 841 59 441 206 
L 441 856 
Q 825 641 1194 531 
Q 1563 422 1919 422 
Q 2459 422 2753 634 
Q 3047 847 3047 1241 
Q 3047 1584 2836 1778 
Q 2625 1972 2144 2069 
L 1759 2144 
Q 1053 2284 737 2584 
Q 422 2884 422 3419 
Q 422 4038 858 4394 
Q 1294 4750 2059 4750 
Q 2388 4750 2728 4690 
Q 3069 4631 3425 4513 
z
" transform="scale(0.015625)"/>
      <path id="DejaVuSans-49" d="M 628 4666 
L 1259 4666 
L 1259 0 
L 628 0 
L 628 4666 
z
" transform="scale(0.015625)"/>
      <path id="DejaVuSans-6d" d="M 3328 2828 
Q 3544 3216 3844 3400 
Q 4144 3584 4550 3584 
Q 5097 3584 5394 3201 
Q 5691 2819 5691 2113 
L 5691 0 
L 5113 0 
L 5113 2094 
Q 5113 2597 4934 2840 
Q 4756 3084 4391 3084 
Q 3944 3084 3684 2787 
Q 3425 2491 3425 1978 
L 3425 0 
L 2847 0 
L 2847 2094 
Q 2847 2600 2669 2842 
Q 2491 3084 2119 3084 
Q 1678 3084 1418 2786 
Q 1159 2488 1159 1978 
L 1159 0 
L 581 0 
L 581 3500 
L 1159 3500 
L 1159 2956 
Q 1356 3278 1631 3431 
Q 1906 3584 2284 3584 
Q 2666 3584 2933 3390 
Q 3200 3197 3328 2828 
z
" transform="scale(0.015625)"/>
      <path id="DejaVuSans-70" d="M 1159 525 
L 1159 -1331 
L 581 -1331 
L 581 3500 
L 1159 3500 
L 1159 2969 
Q 1341 3281 1617 3432 
Q 1894 3584 2278 3584 
Q 2916 3584 3314 3078 
Q 3713 2572 3713 1747 
Q 3713 922 3314 415 
Q 2916 -91 2278 -91 
Q 1894 -91 1617 61 
Q 1341 213 1159 525 
z
M 3116 1747 
Q 3116 2381 2855 2742 
Q 2594 3103 2138 3103 
Q 1681 3103 1420 2742 
Q 1159 2381 1159 1747 
Q 1159 1113 1420 752 
Q 1681 391 2138 391 
Q 2594 391 2855 752 
Q 3116 1113 3116 1747 
z
" transform="scale(0.015625)"/>
      <path id="DejaVuSans-6c" d="M 603 4863 
L 1178 4863 
L 1178 0 
L 603 0 
L 603 4863 
z
" transform="scale(0.015625)"/>
      <path id="DejaVuSans-65" d="M 3597 1894 
L 3597 1613 
L 953 1613 
Q 991 1019 1311 708 
Q 1631 397 2203 397 
Q 2534 397 2845 478 
Q 3156 559 3463 722 
L 3463 178 
Q 3153 47 2828 -22 
Q 2503 -91 2169 -91 
Q 1331 -91 842 396 
Q 353 884 353 1716 
Q 353 2575 817 3079 
Q 1281 3584 2069 3584 
Q 2775 3584 3186 3129 
Q 3597 2675 3597 1894 
z
M 3022 2063 
Q 3016 2534 2758 2815 
Q 2500 3097 2075 3097 
Q 1594 3097 1305 2825 
Q 1016 2553 972 2059 
L 3022 2063 
z
" transform="scale(0.015625)"/>
      <path id="DejaVuSans-52" d="M 2841 2188 
Q 3044 2119 3236 1894 
Q 3428 1669 3622 1275 
L 4263 0 
L 3584 0 
L 2988 1197 
Q 2756 1666 2539 1819 
Q 2322 1972 1947 1972 
L 1259 1972 
L 1259 0 
L 628 0 
L 628 4666 
L 2053 4666 
Q 2853 4666 3247 4331 
Q 3641 3997 3641 3322 
Q 3641 2881 3436 2590 
Q 3231 2300 2841 2188 
z
M 1259 4147 
L 1259 2491 
L 2053 2491 
Q 2509 2491 2742 2702 
Q 2975 2913 2975 3322 
Q 2975 3731 2742 3939 
Q 2509 4147 2053 4147 
L 1259 4147 
z
" transform="scale(0.015625)"/>
      <path id="DejaVuSans-6e" d="M 3513 2113 
L 3513 0 
L 2938 0 
L 2938 2094 
Q 2938 2591 2744 2837 
Q 2550 3084 2163 3084 
Q 1697 3084 1428 2787 
Q 1159 2491 1159 1978 
L 1159 0 
L 581 0 
L 581 3500 
L 1159 3500 
L 1159 2956 
Q 1366 3272 1645 3428 
Q 1925 3584 2291 3584 
Q 2894 3584 3203 3211 
Q 3513 2838 3513 2113 
z
" transform="scale(0.015625)"/>
      <path id="DejaVuSans-3a" d="M 750 794 
L 1409 794 
L 1409 0 
L 750 0 
L 750 794 
z
M 750 3309 
L 1409 3309 
L 1409 2516 
L 750 2516 
L 750 3309 
z
" transform="scale(0.015625)"/>
      <path id="DejaVuSans-54" d="M -19 4666 
L 3928 4666 
L 3928 4134 
L 2272 4134 
L 2272 0 
L 1638 0 
L 1638 4134 
L -19 4134 
L -19 4666 
z
" transform="scale(0.015625)"/>
      <path id="DejaVuSans-44" d="M 1259 4147 
L 1259 519 
L 2022 519 
Q 2988 519 3436 956 
Q 3884 1394 3884 2338 
Q 3884 3275 3436 3711 
Q 2988 4147 2022 4147 
L 1259 4147 
z
M 628 4666 
L 1925 4666 
Q 3281 4666 3915 4102 
Q 4550 3538 4550 2338 
Q 4550 1131 3912 565 
Q 3275 0 1925 0 
L 628 0 
L 628 4666 
z
" transform="scale(0.015625)"/>
      <path id="DejaVuSans-74" d="M 1172 4494 
L 1172 3500 
L 2356 3500 
L 2356 3053 
L 1172 3053 
L 1172 1153 
Q 1172 725 1289 603 
Q 1406 481 1766 481 
L 2356 481 
L 2356 0 
L 1766 0 
Q 1100 0 847 248 
Q 594 497 594 1153 
L 594 3053 
L 172 3053 
L 172 3500 
L 594 3500 
L 594 4494 
L 1172 4494 
z
" transform="scale(0.015625)"/>
      <path id="DejaVuSans-Oblique-64" d="M 2675 525 
Q 2444 222 2128 65 
Q 1813 -91 1428 -91 
Q 903 -91 598 267 
Q 294 625 294 1247 
Q 294 1766 478 2236 
Q 663 2706 1013 3078 
Q 1244 3325 1534 3454 
Q 1825 3584 2144 3584 
Q 2481 3584 2739 3421 
Q 2997 3259 3138 2956 
L 3513 4863 
L 4091 4863 
L 3144 0 
L 2566 0 
L 2675 525 
z
M 891 1350 
Q 891 897 1095 644 
Q 1300 391 1663 391 
Q 1931 391 2161 520 
Q 2391 650 2566 903 
Q 2750 1166 2856 1509 
Q 2963 1853 2963 2188 
Q 2963 2622 2758 2865 
Q 2553 3109 2194 3109 
Q 1922 3109 1687 2981 
Q 1453 2853 1288 2613 
Q 1106 2353 998 2009 
Q 891 1666 891 1350 
z
" transform="scale(0.015625)"/>
      <path id="DejaVuSans-Oblique-65" d="M 3078 2063 
Q 3088 2113 3092 2166 
Q 3097 2219 3097 2272 
Q 3097 2653 2873 2875 
Q 2650 3097 2266 3097 
Q 1838 3097 1509 2826 
Q 1181 2556 1013 2059 
L 3078 2063 
z
M 3578 1613 
L 903 1613 
Q 884 1494 878 1425 
Q 872 1356 872 1306 
Q 872 872 1139 634 
Q 1406 397 1894 397 
Q 2269 397 2603 481 
Q 2938 566 3225 728 
L 3116 159 
Q 2806 34 2476 -28 
Q 2147 -91 1806 -91 
Q 1078 -91 686 257 
Q 294 606 294 1247 
Q 294 1794 489 2264 
Q 684 2734 1063 3103 
Q 1306 3334 1642 3459 
Q 1978 3584 2356 3584 
Q 2950 3584 3301 3228 
Q 3653 2872 3653 2272 
Q 3653 2128 3634 1964 
Q 3616 1800 3578 1613 
z
" transform="scale(0.015625)"/>
      <path id="DejaVuSans-Oblique-6c" d="M 1172 4863 
L 1747 4863 
L 800 0 
L 225 0 
L 1172 4863 
z
" transform="scale(0.015625)"/>
      <path id="DejaVuSans-Oblique-74" d="M 2706 3500 
L 2619 3053 
L 1472 3053 
L 1100 1153 
Q 1081 1047 1072 975 
Q 1063 903 1063 863 
Q 1063 663 1183 572 
Q 1303 481 1569 481 
L 2150 481 
L 2053 0 
L 1503 0 
Q 991 0 739 200 
Q 488 400 488 806 
Q 488 878 497 964 
Q 506 1050 525 1153 
L 897 3053 
L 409 3053 
L 500 3500 
L 978 3500 
L 1172 4494 
L 1747 4494 
L 1556 3500 
L 2706 3500 
z
" transform="scale(0.015625)"/>
      <path id="DejaVuSans-Oblique-61" d="M 3438 1997 
L 3047 0 
L 2472 0 
L 2578 531 
Q 2325 219 2001 64 
Q 1678 -91 1281 -91 
Q 834 -91 548 182 
Q 263 456 263 884 
Q 263 1497 752 1853 
Q 1241 2209 2100 2209 
L 2900 2209 
L 2931 2363 
Q 2938 2388 2941 2417 
Q 2944 2447 2944 2509 
Q 2944 2788 2717 2942 
Q 2491 3097 2081 3097 
Q 1800 3097 1504 3025 
Q 1209 2953 897 2809 
L 997 3341 
Q 1322 3463 1633 3523 
Q 1944 3584 2234 3584 
Q 2853 3584 3176 3315 
Q 3500 3047 3500 2534 
Q 3500 2431 3484 2292 
Q 3469 2153 3438 1997 
z
M 2816 1759 
L 2241 1759 
Q 1534 1759 1195 1570 
Q 856 1381 856 984 
Q 856 709 1029 553 
Q 1203 397 1509 397 
Q 1978 397 2328 733 
Q 2678 1069 2791 1631 
L 2816 1759 
z
" transform="scale(0.015625)"/>
     </defs>
     <use xlink:href="#DejaVuSans-4f" transform="translate(0 0.015625)"/>
     <use xlink:href="#DejaVuSans-4c" transform="translate(78.710938 0.015625)"/>
     <use xlink:href="#DejaVuSans-53" transform="translate(134.423828 0.015625)"/>
     <use xlink:href="#DejaVuSans-20" transform="translate(197.900391 0.015625)"/>
     <use xlink:href="#DejaVuSans-49" transform="translate(229.6875 0.015625)"/>
     <use xlink:href="#DejaVuSans-6d" transform="translate(255.554688 0.015625)"/>
     <use xlink:href="#DejaVuSans-70" transform="translate(352.966797 0.015625)"/>
     <use xlink:href="#DejaVuSans-75" transform="translate(416.443359 0.015625)"/>
     <use xlink:href="#DejaVuSans-6c" transform="translate(479.822266 0.015625)"/>
     <use xlink:href="#DejaVuSans-73" transform="translate(507.605469 0.015625)"/>
     <use xlink:href="#DejaVuSans-65" transform="translate(559.705078 0.015625)"/>
     <use xlink:href="#DejaVuSans-20" transform="translate(621.228516 0.015625)"/>
     <use xlink:href="#DejaVuSans-52" transform="translate(653.015625 0.015625)"/>
     <use xlink:href="#DejaVuSans-65" transform="translate(722.498047 0.015625)"/>
     <use xlink:href="#DejaVuSans-73" transform="translate(784.021484 0.015625)"/>
     <use xlink:href="#DejaVuSans-70" transform="translate(836.121094 0.015625)"/>
     <use xlink:href="#DejaVuSans-6f" transform="translate(899.597656 0.015625)"/>
     <use xlink:href="#DejaVuSans-6e" transform="translate(960.779297 0.015625)"/>
     <use xlink:href="#DejaVuSans-73" transform="translate(1024.158203 0.015625)"/>
     <use xlink:href="#DejaVuSans-65" transform="translate(1076.257812 0.015625)"/>
     <use xlink:href="#DejaVuSans-3a" transform="translate(1137.78125 0.015625)"/>
     <use xlink:href="#DejaVuSans-20" transform="translate(1171.472656 0.015625)"/>
     <use xlink:href="#DejaVuSans-54" transform="translate(1203.259766 0.015625)"/>
     <use xlink:href="#DejaVuSans-65" transform="translate(1264.34375 0.015625)"/>
     <use xlink:href="#DejaVuSans-6d" transform="translate(1325.867188 0.015625)"/>
     <use xlink:href="#DejaVuSans-70" transform="translate(1423.279297 0.015625)"/>
     <use xlink:href="#DejaVuSans-20" transform="translate(1486.755859 0.015625)"/>
     <use xlink:href="#DejaVuSans-44" transform="translate(1518.542969 0.015625)"/>
     <use xlink:href="#DejaVuSans-65" transform="translate(1595.544922 0.015625)"/>
     <use xlink:href="#DejaVuSans-6c" transform="translate(1657.068359 0.015625)"/>
     <use xlink:href="#DejaVuSans-74" transform="translate(1684.851562 0.015625)"/>
     <use xlink:href="#DejaVuSans-61" transform="translate(1724.060547 0.015625)"/>
     <use xlink:href="#DejaVuSans-20" transform="translate(1785.339844 0.015625)"/>
     <use xlink:href="#DejaVuSans-28" transform="translate(1817.126953 0.015625)"/>
     <use xlink:href="#DejaVuSans-Oblique-54" transform="translate(1856.140625 0.015625)"/>
     <use xlink:href="#DejaVuSans-Oblique-64" transform="translate(1917.224609 -16.390625) scale(0.7)"/>
     <use xlink:href="#DejaVuSans-Oblique-65" transform="translate(1961.658203 -16.390625) scale(0.7)"/>
     <use xlink:href="#DejaVuSans-Oblique-6c" transform="translate(2004.724609 -16.390625) scale(0.7)"/>
     <use xlink:href="#DejaVuSans-Oblique-74" transform="translate(2024.172852 -16.390625) scale(0.7)"/>
     <use xlink:href="#DejaVuSans-Oblique-61" transform="translate(2051.619141 -16.390625) scale(0.7)"/>
     <use xlink:href="#DejaVuSans-29" transform="translate(2097.249023 0.015625)"/>
    </g>
   </g>
  </g>
  <g id="axes_2">
   <g id="patch_7">
    <path d="M 557.132812 309.16 
L 989.914813 309.16 
L 989.914813 22.32 
L 557.132812 22.32 
z
" style="fill: #ffffff"/>
   </g>
   <g id="matplotlib.axis_3">
    <g id="xtick_7">
     <g id="line2d_29">
      <path d="M 576.804722 309.16 
L 576.804722 22.32 
" clip-path="url(#p3e6686cfc3)" style="fill: none; stroke: #b0b0b0; stroke-opacity: 0.3; stroke-width: 0.8; stroke-linecap: square"/>
     </g>
     <g id="line2d_30">
      <g>
       <use xlink:href="#m2187462cc1" x="576.804722" y="309.16" style="stroke: #000000; stroke-width: 0.8"/>
      </g>
     </g>
     <g id="text_17">
      <!-- 0 -->
      <g transform="translate(573.623472 323.758437) scale(0.1 -0.1)">
       <use xlink:href="#DejaVuSans-30"/>
      </g>
     </g>
    </g>
    <g id="xtick_8">
     <g id="line2d_31">
      <path d="M 655.492358 309.16 
L 655.492358 22.32 
" clip-path="url(#p3e6686cfc3)" style="fill: none; stroke: #b0b0b0; stroke-opacity: 0.3; stroke-width: 0.8; stroke-linecap: square"/>
     </g>
     <g id="line2d_32">
      <g>
       <use xlink:href="#m2187462cc1" x="655.492358" y="309.16" style="stroke: #000000; stroke-width: 0.8"/>
      </g>
     </g>
     <g id="text_18">
      <!-- 2 -->
      <g transform="translate(652.311108 323.758437) scale(0.1 -0.1)">
       <use xlink:href="#DejaVuSans-32"/>
      </g>
     </g>
    </g>
    <g id="xtick_9">
     <g id="line2d_33">
      <path d="M 734.179994 309.16 
L 734.179994 22.32 
" clip-path="url(#p3e6686cfc3)" style="fill: none; stroke: #b0b0b0; stroke-opacity: 0.3; stroke-width: 0.8; stroke-linecap: square"/>
     </g>
     <g id="line2d_34">
      <g>
       <use xlink:href="#m2187462cc1" x="734.179994" y="309.16" style="stroke: #000000; stroke-width: 0.8"/>
      </g>
     </g>
     <g id="text_19">
      <!-- 4 -->
      <g transform="translate(730.998744 323.758437) scale(0.1 -0.1)">
       <use xlink:href="#DejaVuSans-34"/>
      </g>
     </g>
    </g>
    <g id="xtick_10">
     <g id="line2d_35">
      <path d="M 812.867631 309.16 
L 812.867631 22.32 
" clip-path="url(#p3e6686cfc3)" style="fill: none; stroke: #b0b0b0; stroke-opacity: 0.3; stroke-width: 0.8; stroke-linecap: square"/>
     </g>
     <g id="line2d_36">
      <g>
       <use xlink:href="#m2187462cc1" x="812.867631" y="309.16" style="stroke: #000000; stroke-width: 0.8"/>
      </g>
     </g>
     <g id="text_20">
      <!-- 6 -->
      <g transform="translate(809.686381 323.758437) scale(0.1 -0.1)">
       <use xlink:href="#DejaVuSans-36"/>
      </g>
     </g>
    </g>
    <g id="xtick_11">
     <g id="line2d_37">
      <path d="M 891.555267 309.16 
L 891.555267 22.32 
" clip-path="url(#p3e6686cfc3)" style="fill: none; stroke: #b0b0b0; stroke-opacity: 0.3; stroke-width: 0.8; stroke-linecap: square"/>
     </g>
     <g id="line2d_38">
      <g>
       <use xlink:href="#m2187462cc1" x="891.555267" y="309.16" style="stroke: #000000; stroke-width: 0.8"/>
      </g>
     </g>
     <g id="text_21">
      <!-- 8 -->
      <g transform="translate(888.374017 323.758437) scale(0.1 -0.1)">
       <use xlink:href="#DejaVuSans-38"/>
      </g>
     </g>
    </g>
    <g id="xtick_12">
     <g id="line2d_39">
      <path d="M 970.242903 309.16 
L 970.242903 22.32 
" clip-path="url(#p3e6686cfc3)" style="fill: none; stroke: #b0b0b0; stroke-opacity: 0.3; stroke-width: 0.8; stroke-linecap: square"/>
     </g>
     <g id="line2d_40">
      <g>
       <use xlink:href="#m2187462cc1" x="970.242903" y="309.16" style="stroke: #000000; stroke-width: 0.8"/>
      </g>
     </g>
     <g id="text_22">
      <!-- 10 -->
      <g transform="translate(963.880403 323.758437) scale(0.1 -0.1)">
       <use xlink:href="#DejaVuSans-31"/>
       <use xlink:href="#DejaVuSans-30" transform="translate(63.623047 0)"/>
      </g>
     </g>
    </g>
    <g id="text_23">
     <!-- Lag $k$ (Hours) -->
     <g transform="translate(739.873813 337.438125) scale(0.1 -0.1)">
      <use xlink:href="#DejaVuSans-4c" transform="translate(0 0.015625)"/>
      <use xlink:href="#DejaVuSans-61" transform="translate(55.712891 0.015625)"/>
      <use xlink:href="#DejaVuSans-67" transform="translate(116.992188 0.015625)"/>
      <use xlink:href="#DejaVuSans-20" transform="translate(180.46875 0.015625)"/>
      <use xlink:href="#DejaVuSans-Oblique-6b" transform="translate(212.255859 0.015625)"/>
      <use xlink:href="#DejaVuSans-20" transform="translate(270.166016 0.015625)"/>
      <use xlink:href="#DejaVuSans-28" transform="translate(301.953125 0.015625)"/>
      <use xlink:href="#DejaVuSans-48" transform="translate(340.966797 0.015625)"/>
      <use xlink:href="#DejaVuSans-6f" transform="translate(416.162109 0.015625)"/>
      <use xlink:href="#DejaVuSans-75" transform="translate(477.34375 0.015625)"/>
      <use xlink:href="#DejaVuSans-72" transform="translate(540.722656 0.015625)"/>
      <use xlink:href="#DejaVuSans-73" transform="translate(581.835938 0.015625)"/>
      <use xlink:href="#DejaVuSans-29" transform="translate(633.935547 0.015625)"/>
     </g>
    </g>
   </g>
   <g id="matplotlib.axis_4">
    <g id="ytick_8">
     <g id="line2d_41">
      <path d="M 557.132812 303.175422 
L 989.914813 303.175422 
" clip-path="url(#p3e6686cfc3)" style="fill: none; stroke: #b0b0b0; stroke-opacity: 0.3; stroke-width: 0.8; stroke-linecap: square"/>
     </g>
     <g id="line2d_42">
      <g>
       <use xlink:href="#mf5aa642a9b" x="557.132812" y="303.175422" style="stroke: #000000; stroke-width: 0.8"/>
      </g>
     </g>
     <g id="text_24">
      <!-- −0.10 -->
      <g transform="translate(519.4875 306.974641) scale(0.1 -0.1)">
       <use xlink:href="#DejaVuSans-2212"/>
       <use xlink:href="#DejaVuSans-30" transform="translate(83.789062 0)"/>
       <use xlink:href="#DejaVuSans-2e" transform="translate(147.412109 0)"/>
       <use xlink:href="#DejaVuSans-31" transform="translate(179.199219 0)"/>
       <use xlink:href="#DejaVuSans-30" transform="translate(242.822266 0)"/>
      </g>
     </g>
    </g>
    <g id="ytick_9">
     <g id="line2d_43">
      <path d="M 557.132812 250.568276 
L 989.914813 250.568276 
" clip-path="url(#p3e6686cfc3)" style="fill: none; stroke: #b0b0b0; stroke-opacity: 0.3; stroke-width: 0.8; stroke-linecap: square"/>
     </g>
     <g id="line2d_44">
      <g>
       <use xlink:href="#mf5aa642a9b" x="557.132812" y="250.568276" style="stroke: #000000; stroke-width: 0.8"/>
      </g>
     </g>
     <g id="text_25">
      <!-- −0.08 -->
      <g transform="translate(519.4875 254.367495) scale(0.1 -0.1)">
       <use xlink:href="#DejaVuSans-2212"/>
       <use xlink:href="#DejaVuSans-30" transform="translate(83.789062 0)"/>
       <use xlink:href="#DejaVuSans-2e" transform="translate(147.412109 0)"/>
       <use xlink:href="#DejaVuSans-30" transform="translate(179.199219 0)"/>
       <use xlink:href="#DejaVuSans-38" transform="translate(242.822266 0)"/>
      </g>
     </g>
    </g>
    <g id="ytick_10">
     <g id="line2d_45">
      <path d="M 557.132812 197.96113 
L 989.914813 197.96113 
" clip-path="url(#p3e6686cfc3)" style="fill: none; stroke: #b0b0b0; stroke-opacity: 0.3; stroke-width: 0.8; stroke-linecap: square"/>
     </g>
     <g id="line2d_46">
      <g>
       <use xlink:href="#mf5aa642a9b" x="557.132812" y="197.96113" style="stroke: #000000; stroke-width: 0.8"/>
      </g>
     </g>
     <g id="text_26">
      <!-- −0.06 -->
      <g transform="translate(519.4875 201.760349) scale(0.1 -0.1)">
       <use xlink:href="#DejaVuSans-2212"/>
       <use xlink:href="#DejaVuSans-30" transform="translate(83.789062 0)"/>
       <use xlink:href="#DejaVuSans-2e" transform="translate(147.412109 0)"/>
       <use xlink:href="#DejaVuSans-30" transform="translate(179.199219 0)"/>
       <use xlink:href="#DejaVuSans-36" transform="translate(242.822266 0)"/>
      </g>
     </g>
    </g>
    <g id="ytick_11">
     <g id="line2d_47">
      <path d="M 557.132812 145.353984 
L 989.914813 145.353984 
" clip-path="url(#p3e6686cfc3)" style="fill: none; stroke: #b0b0b0; stroke-opacity: 0.3; stroke-width: 0.8; stroke-linecap: square"/>
     </g>
     <g id="line2d_48">
      <g>
       <use xlink:href="#mf5aa642a9b" x="557.132812" y="145.353984" style="stroke: #000000; stroke-width: 0.8"/>
      </g>
     </g>
     <g id="text_27">
      <!-- −0.04 -->
      <g transform="translate(519.4875 149.153203) scale(0.1 -0.1)">
       <use xlink:href="#DejaVuSans-2212"/>
       <use xlink:href="#DejaVuSans-30" transform="translate(83.789062 0)"/>
       <use xlink:href="#DejaVuSans-2e" transform="translate(147.412109 0)"/>
       <use xlink:href="#DejaVuSans-30" transform="translate(179.199219 0)"/>
       <use xlink:href="#DejaVuSans-34" transform="translate(242.822266 0)"/>
      </g>
     </g>
    </g>
    <g id="ytick_12">
     <g id="line2d_49">
      <path d="M 557.132812 92.746838 
L 989.914813 92.746838 
" clip-path="url(#p3e6686cfc3)" style="fill: none; stroke: #b0b0b0; stroke-opacity: 0.3; stroke-width: 0.8; stroke-linecap: square"/>
     </g>
     <g id="line2d_50">
      <g>
       <use xlink:href="#mf5aa642a9b" x="557.132812" y="92.746838" style="stroke: #000000; stroke-width: 0.8"/>
      </g>
     </g>
     <g id="text_28">
      <!-- −0.02 -->
      <g transform="translate(519.4875 96.546057) scale(0.1 -0.1)">
       <use xlink:href="#DejaVuSans-2212"/>
       <use xlink:href="#DejaVuSans-30" transform="translate(83.789062 0)"/>
       <use xlink:href="#DejaVuSans-2e" transform="translate(147.412109 0)"/>
       <use xlink:href="#DejaVuSans-30" transform="translate(179.199219 0)"/>
       <use xlink:href="#DejaVuSans-32" transform="translate(242.822266 0)"/>
      </g>
     </g>
    </g>
    <g id="ytick_13">
     <g id="line2d_51">
      <path d="M 557.132812 40.139692 
L 989.914813 40.139692 
" clip-path="url(#p3e6686cfc3)" style="fill: none; stroke: #b0b0b0; stroke-opacity: 0.3; stroke-width: 0.8; stroke-linecap: square"/>
     </g>
     <g id="line2d_52">
      <g>
       <use xlink:href="#mf5aa642a9b" x="557.132812" y="40.139692" style="stroke: #000000; stroke-width: 0.8"/>
      </g>
     </g>
     <g id="text_29">
      <!-- 0.00 -->
      <g transform="translate(527.867188 43.938911) scale(0.1 -0.1)">
       <use xlink:href="#DejaVuSans-30"/>
       <use xlink:href="#DejaVuSans-2e" transform="translate(63.623047 0)"/>
       <use xlink:href="#DejaVuSans-30" transform="translate(95.410156 0)"/>
       <use xlink:href="#DejaVuSans-30" transform="translate(159.033203 0)"/>
      </g>
     </g>
    </g>
    <g id="text_30">
     <!-- $h_k^{(G)}$ -->
     <g transform="translate(512.6875 174.89) rotate(-90) scale(0.1 -0.1)">
      <defs>
       <path id="DejaVuSans-Oblique-47" d="M 3494 697 
L 3738 1919 
L 2700 1919 
L 2797 2438 
L 4453 2438 
L 4050 384 
Q 3634 156 3143 32 
Q 2653 -91 2156 -91 
Q 1278 -91 783 396 
Q 288 884 288 1753 
Q 288 2475 589 3126 
Q 891 3778 1422 4213 
Q 1756 4484 2153 4617 
Q 2550 4750 3034 4750 
Q 3472 4750 3873 4639 
Q 4275 4528 4641 4306 
L 4513 3634 
Q 4231 3928 3853 4083 
Q 3475 4238 3047 4238 
Q 2550 4238 2172 4048 
Q 1794 3859 1497 3463 
Q 1244 3125 1098 2667 
Q 953 2209 953 1734 
Q 953 1081 1287 751 
Q 1622 422 2284 422 
Q 2616 422 2925 492 
Q 3234 563 3494 697 
z
" transform="scale(0.015625)"/>
      </defs>
      <use xlink:href="#DejaVuSans-Oblique-68" transform="translate(0 0.310938)"/>
      <use xlink:href="#DejaVuSans-28" transform="translate(70.826615 47.8875) scale(0.7)"/>
      <use xlink:href="#DejaVuSans-Oblique-47" transform="translate(98.136185 47.8875) scale(0.7)"/>
      <use xlink:href="#DejaVuSans-29" transform="translate(152.379349 47.8875) scale(0.7)"/>
      <use xlink:href="#DejaVuSans-Oblique-6b" transform="translate(63.378906 -27.032812) scale(0.7)"/>
     </g>
    </g>
   </g>
   <g id="LineCollection_2">
    <path d="M 576.804722 40.139692 
L 576.804722 296.121818 
" clip-path="url(#p3e6686cfc3)" style="fill: none; stroke: #ffa500; stroke-width: 1.5"/>
    <path d="M 616.14854 40.139692 
L 616.14854 111.28328 
" clip-path="url(#p3e6686cfc3)" style="fill: none; stroke: #ffa500; stroke-width: 1.5"/>
    <path d="M 655.492358 40.139692 
L 655.492358 59.1691 
" clip-path="url(#p3e6686cfc3)" style="fill: none; stroke: #ffa500; stroke-width: 1.5"/>
    <path d="M 694.836176 40.139692 
L 694.836176 41.61515 
" clip-path="url(#p3e6686cfc3)" style="fill: none; stroke: #ffa500; stroke-width: 1.5"/>
    <path d="M 734.179994 40.139692 
L 734.179994 73.272031 
" clip-path="url(#p3e6686cfc3)" style="fill: none; stroke: #ffa500; stroke-width: 1.5"/>
    <path d="M 773.523813 40.139692 
L 773.523813 46.092303 
" clip-path="url(#p3e6686cfc3)" style="fill: none; stroke: #ffa500; stroke-width: 1.5"/>
    <path d="M 812.867631 40.139692 
L 812.867631 45.192087 
" clip-path="url(#p3e6686cfc3)" style="fill: none; stroke: #ffa500; stroke-width: 1.5"/>
    <path d="M 852.211449 40.139692 
L 852.211449 47.252765 
" clip-path="url(#p3e6686cfc3)" style="fill: none; stroke: #ffa500; stroke-width: 1.5"/>
    <path d="M 891.555267 40.139692 
L 891.555267 38.355346 
" clip-path="url(#p3e6686cfc3)" style="fill: none; stroke: #ffa500; stroke-width: 1.5"/>
    <path d="M 930.899085 40.139692 
L 930.899085 45.396783 
" clip-path="url(#p3e6686cfc3)" style="fill: none; stroke: #ffa500; stroke-width: 1.5"/>
    <path d="M 970.242903 40.139692 
L 970.242903 35.358182 
" clip-path="url(#p3e6686cfc3)" style="fill: none; stroke: #ffa500; stroke-width: 1.5"/>
   </g>
   <g id="line2d_53">
    <defs>
     <path id="mbfe3852b0a" d="M 0 3 
C 0.795609 3 1.55874 2.683901 2.12132 2.12132 
C 2.683901 1.55874 3 0.795609 3 0 
C 3 -0.795609 2.683901 -1.55874 2.12132 -2.12132 
C 1.55874 -2.683901 0.795609 -3 0 -3 
C -0.795609 -3 -1.55874 -2.683901 -2.12132 -2.12132 
C -2.683901 -1.55874 -3 -0.795609 -3 0 
C -3 0.795609 -2.683901 1.55874 -2.12132 2.12132 
C -1.55874 2.683901 -0.795609 3 0 3 
z
" style="stroke: #ff0000"/>
    </defs>
    <g clip-path="url(#p3e6686cfc3)">
     <use xlink:href="#mbfe3852b0a" x="576.804722" y="296.121818" style="fill: #ff0000; stroke: #ff0000"/>
     <use xlink:href="#mbfe3852b0a" x="616.14854" y="111.28328" style="fill: #ff0000; stroke: #ff0000"/>
     <use xlink:href="#mbfe3852b0a" x="655.492358" y="59.1691" style="fill: #ff0000; stroke: #ff0000"/>
     <use xlink:href="#mbfe3852b0a" x="694.836176" y="41.61515" style="fill: #ff0000; stroke: #ff0000"/>
     <use xlink:href="#mbfe3852b0a" x="734.179994" y="73.272031" style="fill: #ff0000; stroke: #ff0000"/>
     <use xlink:href="#mbfe3852b0a" x="773.523813" y="46.092303" style="fill: #ff0000; stroke: #ff0000"/>
     <use xlink:href="#mbfe3852b0a" x="812.867631" y="45.192087" style="fill: #ff0000; stroke: #ff0000"/>
     <use xlink:href="#mbfe3852b0a" x="852.211449" y="47.252765" style="fill: #ff0000; stroke: #ff0000"/>
     <use xlink:href="#mbfe3852b0a" x="891.555267" y="38.355346" style="fill: #ff0000; stroke: #ff0000"/>
     <use xlink:href="#mbfe3852b0a" x="930.899085" y="45.396783" style="fill: #ff0000; stroke: #ff0000"/>
     <use xlink:href="#mbfe3852b0a" x="970.242903" y="35.358182" style="fill: #ff0000; stroke: #ff0000"/>
    </g>
   </g>
   <g id="line2d_54"/>
   <g id="patch_8">
    <path d="M 557.132812 309.16 
L 557.132812 22.32 
" style="fill: none; stroke: #000000; stroke-width: 0.8; stroke-linejoin: miter; stroke-linecap: square"/>
   </g>
   <g id="patch_9">
    <path d="M 989.914813 309.16 
L 989.914813 22.32 
" style="fill: none; stroke: #000000; stroke-width: 0.8; stroke-linejoin: miter; stroke-linecap: square"/>
   </g>
   <g id="patch_10">
    <path d="M 557.132812 309.16 
L 989.914813 309.16 
" style="fill: none; stroke: #000000; stroke-width: 0.8; stroke-linejoin: miter; stroke-linecap: square"/>
   </g>
   <g id="patch_11">
    <path d="M 557.132812 22.32 
L 989.914813 22.32 
" style="fill: none; stroke: #000000; stroke-width: 0.8; stroke-linejoin: miter; stroke-linecap: square"/>
   </g>
   <g id="text_31">
    <!-- OLS Impulse Response: Solar Radiation ($G_v$)  -->
    <g transform="translate(639.843813 16.32) scale(0.12 -0.12)">
     <defs>
      <path id="DejaVuSans-64" d="M 2906 2969 
L 2906 4863 
L 3481 4863 
L 3481 0 
L 2906 0 
L 2906 525 
Q 2725 213 2448 61 
Q 2172 -91 1784 -91 
Q 1150 -91 751 415 
Q 353 922 353 1747 
Q 353 2572 751 3078 
Q 1150 3584 1784 3584 
Q 2172 3584 2448 3432 
Q 2725 3281 2906 2969 
z
M 947 1747 
Q 947 1113 1208 752 
Q 1469 391 1925 391 
Q 2381 391 2643 752 
Q 2906 1113 2906 1747 
Q 2906 2381 2643 2742 
Q 2381 3103 1925 3103 
Q 1469 3103 1208 2742 
Q 947 2381 947 1747 
z
" transform="scale(0.015625)"/>
      <path id="DejaVuSans-69" d="M 603 3500 
L 1178 3500 
L 1178 0 
L 603 0 
L 603 3500 
z
M 603 4863 
L 1178 4863 
L 1178 4134 
L 603 4134 
L 603 4863 
z
" transform="scale(0.015625)"/>
      <path id="DejaVuSans-Oblique-76" d="M 459 3500 
L 1069 3500 
L 1581 525 
L 3256 3500 
L 3866 3500 
L 1875 0 
L 1100 0 
L 459 3500 
z
" transform="scale(0.015625)"/>
     </defs>
     <use xlink:href="#DejaVuSans-4f" transform="translate(0 0.015625)"/>
     <use xlink:href="#DejaVuSans-4c" transform="translate(78.710938 0.015625)"/>
     <use xlink:href="#DejaVuSans-53" transform="translate(134.423828 0.015625)"/>
     <use xlink:href="#DejaVuSans-20" transform="translate(197.900391 0.015625)"/>
     <use xlink:href="#DejaVuSans-49" transform="translate(229.6875 0.015625)"/>
     <use xlink:href="#DejaVuSans-6d" transform="translate(255.554688 0.015625)"/>
     <use xlink:href="#DejaVuSans-70" transform="translate(352.966797 0.015625)"/>
     <use xlink:href="#DejaVuSans-75" transform="translate(416.443359 0.015625)"/>
     <use xlink:href="#DejaVuSans-6c" transform="translate(479.822266 0.015625)"/>
     <use xlink:href="#DejaVuSans-73" transform="translate(507.605469 0.015625)"/>
     <use xlink:href="#DejaVuSans-65" transform="translate(559.705078 0.015625)"/>
     <use xlink:href="#DejaVuSans-20" transform="translate(621.228516 0.015625)"/>
     <use xlink:href="#DejaVuSans-52" transform="translate(653.015625 0.015625)"/>
     <use xlink:href="#DejaVuSans-65" transform="translate(722.498047 0.015625)"/>
     <use xlink:href="#DejaVuSans-73" transform="translate(784.021484 0.015625)"/>
     <use xlink:href="#DejaVuSans-70" transform="translate(836.121094 0.015625)"/>
     <use xlink:href="#DejaVuSans-6f" transform="translate(899.597656 0.015625)"/>
     <use xlink:href="#DejaVuSans-6e" transform="translate(960.779297 0.015625)"/>
     <use xlink:href="#DejaVuSans-73" transform="translate(1024.158203 0.015625)"/>
     <use xlink:href="#DejaVuSans-65" transform="translate(1076.257812 0.015625)"/>
     <use xlink:href="#DejaVuSans-3a" transform="translate(1137.78125 0.015625)"/>
     <use xlink:href="#DejaVuSans-20" transform="translate(1171.472656 0.015625)"/>
     <use xlink:href="#DejaVuSans-53" transform="translate(1203.259766 0.015625)"/>
     <use xlink:href="#DejaVuSans-6f" transform="translate(1266.736328 0.015625)"/>
     <use xlink:href="#DejaVuSans-6c" transform="translate(1327.917969 0.015625)"/>
     <use xlink:href="#DejaVuSans-61" transform="translate(1355.701172 0.015625)"/>
     <use xlink:href="#DejaVuSans-72" transform="translate(1416.980469 0.015625)"/>
     <use xlink:href="#DejaVuSans-20" transform="translate(1458.09375 0.015625)"/>
     <use xlink:href="#DejaVuSans-52" transform="translate(1489.880859 0.015625)"/>
     <use xlink:href="#DejaVuSans-61" transform="translate(1559.363281 0.015625)"/>
     <use xlink:href="#DejaVuSans-64" transform="translate(1620.642578 0.015625)"/>
     <use xlink:href="#DejaVuSans-69" transform="translate(1684.119141 0.015625)"/>
     <use xlink:href="#DejaVuSans-61" transform="translate(1711.902344 0.015625)"/>
     <use xlink:href="#DejaVuSans-74" transform="translate(1773.181641 0.015625)"/>
     <use xlink:href="#DejaVuSans-69" transform="translate(1812.390625 0.015625)"/>
     <use xlink:href="#DejaVuSans-6f" transform="translate(1840.173828 0.015625)"/>
     <use xlink:href="#DejaVuSans-6e" transform="translate(1901.355469 0.015625)"/>
     <use xlink:href="#DejaVuSans-20" transform="translate(1964.734375 0.015625)"/>
     <use xlink:href="#DejaVuSans-28" transform="translate(1996.521484 0.015625)"/>
     <use xlink:href="#DejaVuSans-Oblique-47" transform="translate(2035.535156 0.015625)"/>
     <use xlink:href="#DejaVuSans-Oblique-76" transform="translate(2113.025391 -16.390625) scale(0.7)"/>
     <use xlink:href="#DejaVuSans-29" transform="translate(2157.185547 0.015625)"/>
     <use xlink:href="#DejaVuSans-20" transform="translate(2196.199219 0.015625)"/>
    </g>
   </g>
  </g>
 </g>
 <defs>
  <clipPath id="p7b66c43489">
   <rect x="55.382812" y="22.32" width="432.782" height="286.84"/>
  </clipPath>
  <clipPath id="p3e6686cfc3">
   <rect x="557.132812" y="22.32" width="432.782" height="286.84"/>
  </clipPath>
 </defs>
</svg>
