<?xml version="1.0" encoding="utf-8" standalone="no"?>
<!DOCTYPE svg PUBLIC "-//W3C//DTD SVG 1.1//EN"
  "http://www.w3.org/Graphics/SVG/1.1/DTD/svg11.dtd">
<svg xmlns:xlink="http://www.w3.org/1999/xlink" width="891.165625pt" height="392.514375pt" viewBox="0 0 891.165625 392.514375" xmlns="http://www.w3.org/2000/svg" version="1.1">
 <metadata>
  <rdf:RDF xmlns:dc="http://purl.org/dc/elements/1.1/" xmlns:cc="http://creativecommons.org/ns#" xmlns:rdf="http://www.w3.org/1999/02/22-rdf-syntax-ns#">
   <cc:Work>
    <dc:type rdf:resource="http://purl.org/dc/dcmitype/StillImage"/>
    <dc:date>2026-04-14T11:13:11.623869</dc:date>
    <dc:format>image/svg+xml</dc:format>
    <dc:creator>
     <cc:Agent>
      <dc:title>Matplotlib v3.10.8, https://matplotlib.org/</dc:title>
     </cc:Agent>
    </dc:creator>
   </cc:Work>
  </rdf:RDF>
 </metadata>
 <defs>
  <style type="text/css">*{stroke-linejoin: round; stroke-linecap: butt}</style>
 </defs>
 <g id="figure_1">
  <g id="patch_1">
   <path d="M 0 392.514375 
L 891.165625 392.514375 
L 891.165625 0 
L 0 0 
z
" style="fill: #ffffff"/>
  </g>
  <g id="axes_1">
   <g id="patch_2">
    <path d="M 46.965625 354.958125 
L 883.965625 354.958125 
L 883.965625 22.318125 
L 46.965625 22.318125 
z
" style="fill: #ffffff"/>
   </g>
   <g id="FillBetweenPolyCollection_1">
    <defs>
     <path id="m5114f4d972" d="M 85.01108 -221.997729 
L 85.01108 -200.512262 
L 88.31938 -205.0636 
L 91.62768 -201.220655 
L 94.935981 -196.650699 
L 98.244281 -195.122526 
L 101.552582 -195.490489 
L 104.860882 -195.73632 
L 108.169182 -195.321226 
L 111.477483 -194.016553 
L 114.785783 -187.429528 
L 118.094083 -183.292553 
L 121.402384 -180.785553 
L 124.710684 -176.908633 
L 128.018985 -92.497301 
L 131.327285 -106.090397 
L 134.635585 -122.326488 
L 137.943886 -182.244974 
L 141.252186 -200.281051 
L 144.560487 -207.835347 
L 147.868787 -217.167847 
L 151.177087 -225.825105 
L 154.485388 -233.684086 
L 157.793688 -239.441929 
L 161.101989 -243.352963 
L 164.410289 -245.647374 
L 167.718589 -247.663047 
L 171.02689 -250.383166 
L 174.33519 -248.537355 
L 177.643491 -253.069758 
L 180.951791 -254.928936 
L 184.260091 -259.148142 
L 187.568392 -259.841324 
L 190.876692 -256.238065 
L 194.184993 -239.169461 
L 197.493293 -247.627873 
L 200.801593 -253.105704 
L 204.109894 -233.161179 
L 207.418194 -150.586491 
L 210.726495 -159.21125 
L 214.034795 -184.956658 
L 217.343095 -222.356445 
L 220.651396 -229.212227 
L 223.959696 -228.764156 
L 227.267997 -234.404781 
L 230.576297 -238.9851 
L 233.884597 -244.630799 
L 237.192898 -247.012015 
L 240.501198 -248.810538 
L 243.809499 -250.299347 
L 247.117799 -253.363981 
L 250.426099 -253.619789 
L 253.7344 -255.29759 
L 257.0427 -254.13396 
L 260.351 -255.177603 
L 263.659301 -256.173472 
L 266.967601 -261.277679 
L 270.275902 -263.176576 
L 273.584202 -262.164157 
L 276.892502 -261.298634 
L 280.200803 -261.401478 
L 283.509103 -259.340455 
L 286.817404 -257.962721 
L 290.125704 -253.877714 
L 293.434004 -252.382673 
L 296.742305 -255.866308 
L 300.050605 -259.57186 
L 303.358906 -267.774985 
L 306.667206 -272.526849 
L 309.975506 -279.979323 
L 313.283807 -276.86798 
L 316.592107 -285.233901 
L 319.900408 -289.788056 
L 323.208708 -295.448117 
L 326.517008 -298.271858 
L 329.825309 -295.668993 
L 333.133609 -296.774274 
L 336.44191 -295.498761 
L 339.75021 -297.792655 
L 343.05851 -295.910882 
L 346.366811 -292.830792 
L 349.675111 -288.187422 
L 352.983412 -279.558552 
L 356.291712 -213.805643 
L 359.600012 -138.369882 
L 362.908313 -123.065986 
L 366.216613 -173.427128 
L 369.524914 -131.045662 
L 372.833214 -171.495881 
L 376.141514 -245.411362 
L 379.449815 -269.890083 
L 382.758115 -279.005717 
L 386.066416 -293.513743 
L 389.374716 -299.870082 
L 392.683016 -308.814516 
L 395.991317 -315.501829 
L 399.299617 -315.916791 
L 402.607917 -316.151693 
L 405.916218 -313.211682 
L 409.224518 -315.455242 
L 412.532819 -313.707728 
L 415.841119 -312.493962 
L 419.149419 -309.266307 
L 422.45772 -307.819703 
L 425.76602 -306.731697 
L 429.074321 -299.976905 
L 432.382621 -268.186639 
L 435.690921 -177.212323 
L 438.999222 -209.441259 
L 442.307522 -254.392654 
L 445.615823 -272.844814 
L 448.924123 -272.313101 
L 452.232423 -276.146355 
L 455.540724 -287.214658 
L 458.849024 -292.132144 
L 462.157325 -293.765836 
L 465.465625 -291.806488 
L 468.773925 -289.502901 
L 472.082226 -289.436319 
L 475.390526 -285.986682 
L 478.698827 -283.625371 
L 482.007127 -279.232817 
L 485.315427 -276.720369 
L 488.623728 -273.550208 
L 491.932028 -267.624296 
L 495.240329 -260.208599 
L 498.548629 -256.094621 
L 501.856929 -252.221679 
L 505.16523 -250.203204 
L 508.47353 -246.562811 
L 511.781831 -237.535775 
L 515.090131 -233.582825 
L 518.398431 -225.903657 
L 521.706732 -221.04068 
L 525.015032 -214.928731 
L 528.323333 -210.955459 
L 531.631633 -184.680747 
L 534.939933 -224.885201 
L 538.248234 -239.030277 
L 541.556534 -246.471026 
L 544.864834 -249.689681 
L 548.173135 -250.786773 
L 551.481435 -256.847529 
L 554.789736 -258.739366 
L 558.098036 -263.565519 
L 561.406336 -266.313824 
L 564.714637 -268.528665 
L 568.022937 -271.119199 
L 571.331238 -274.246631 
L 574.639538 -274.223525 
L 577.947838 -276.756528 
L 581.256139 -288.516687 
L 584.564439 -295.309259 
L 587.87274 -267.20898 
L 591.18104 -218.107834 
L 594.48934 -187.244594 
L 597.797641 -123.789516 
L 601.105941 -206.508276 
L 604.414242 -252.982318 
L 607.722542 -199.963308 
L 611.030842 -235.260895 
L 614.339143 -275.089552 
L 617.647443 -292.766111 
L 620.955744 -298.078402 
L 624.264044 -303.752459 
L 627.572344 -311.369638 
L 630.880645 -316.802758 
L 634.188945 -317.045875 
L 637.497246 -319.296247 
L 640.805546 -322.487835 
L 644.113846 -322.647238 
L 647.422147 -322.585016 
L 650.730447 -319.927449 
L 654.038748 -323.875713 
L 657.347048 -323.843389 
L 660.655348 -322.60762 
L 663.963649 -318.662414 
L 667.271949 -314.89434 
L 670.58025 -314.804028 
L 673.88855 -313.99532 
L 677.19685 -240.847025 
L 680.505151 -52.67625 
L 683.813451 -116.237967 
L 687.121751 -134.282705 
L 690.430052 -226.715863 
L 693.738352 -251.154012 
L 697.046653 -270.436034 
L 700.354953 -284.748261 
L 703.663253 -295.575029 
L 706.971554 -301.7678 
L 710.279854 -307.925026 
L 713.588155 -309.108333 
L 716.896455 -319.544181 
L 720.204755 -319.02253 
L 723.513056 -319.076615 
L 726.821356 -318.651684 
L 730.129657 -320.939433 
L 733.437957 -322.085583 
L 736.746257 -323.24849 
L 740.054558 -322.790205 
L 743.362858 -320.848958 
L 746.671159 -314.314453 
L 749.979459 -306.74966 
L 753.287759 -259.050906 
L 756.59606 -205.412921 
L 759.90436 -273.557776 
L 763.212661 -277.794745 
L 766.520961 -286.400694 
L 769.829261 -261.556417 
L 773.137562 -293.869204 
L 776.445862 -308.600875 
L 779.754163 -316.708599 
L 783.062463 -321.69416 
L 786.370763 -321.876782 
L 789.679064 -322.597004 
L 792.987364 -328.419562 
L 796.295665 -328.385927 
L 799.603965 -329.202349 
L 802.912265 -328.901304 
L 806.220566 -330.883504 
L 809.528866 -331.684626 
L 812.837167 -333.590784 
L 816.145467 -330.878759 
L 819.453767 -331.21033 
L 822.762068 -327.170368 
L 826.070368 -320.307095 
L 829.378668 -309.990306 
L 832.686969 -248.65054 
L 835.995269 -241.201378 
L 839.30357 -229.374892 
L 842.61187 -114.591185 
L 845.92017 -219.23172 
L 845.92017 -240.717187 
L 845.92017 -240.717187 
L 842.61187 -136.076651 
L 839.30357 -250.860358 
L 835.995269 -262.686844 
L 832.686969 -270.136006 
L 829.378668 -331.475772 
L 826.070368 -341.792562 
L 822.762068 -348.655834 
L 819.453767 -352.695797 
L 816.145467 -352.364226 
L 812.837167 -355.07625 
L 809.528866 -353.170093 
L 806.220566 -352.368971 
L 802.912265 -350.38677 
L 799.603965 -350.687816 
L 796.295665 -349.871393 
L 792.987364 -349.905028 
L 789.679064 -344.08247 
L 786.370763 -343.362248 
L 783.062463 -343.179626 
L 779.754163 -338.194065 
L 776.445862 -330.086341 
L 773.137562 -315.35467 
L 769.829261 -283.041884 
L 766.520961 -307.88616 
L 763.212661 -299.280211 
L 759.90436 -295.043243 
L 756.59606 -226.898387 
L 753.287759 -280.536372 
L 749.979459 -328.235126 
L 746.671159 -335.799919 
L 743.362858 -342.334424 
L 740.054558 -344.275671 
L 736.746257 -344.733957 
L 733.437957 -343.571049 
L 730.129657 -342.424899 
L 726.821356 -340.137151 
L 723.513056 -340.562081 
L 720.204755 -340.507996 
L 716.896455 -341.029647 
L 713.588155 -330.593799 
L 710.279854 -329.410492 
L 706.971554 -323.253267 
L 703.663253 -317.060496 
L 700.354953 -306.233727 
L 697.046653 -291.9215 
L 693.738352 -272.639478 
L 690.430052 -248.201329 
L 687.121751 -155.768171 
L 683.813451 -137.723433 
L 680.505151 -74.161716 
L 677.19685 -262.332492 
L 673.88855 -335.480786 
L 670.58025 -336.289494 
L 667.271949 -336.379806 
L 663.963649 -340.14788 
L 660.655348 -344.093086 
L 657.347048 -345.328855 
L 654.038748 -345.361179 
L 650.730447 -341.412915 
L 647.422147 -344.070482 
L 644.113846 -344.132705 
L 640.805546 -343.973301 
L 637.497246 -340.781714 
L 634.188945 -338.531341 
L 630.880645 -338.288225 
L 627.572344 -332.855104 
L 624.264044 -325.237926 
L 620.955744 -319.563868 
L 617.647443 -314.251578 
L 614.339143 -296.575019 
L 611.030842 -256.746361 
L 607.722542 -221.448774 
L 604.414242 -274.467784 
L 601.105941 -227.993742 
L 597.797641 -145.274982 
L 594.48934 -208.730061 
L 591.18104 -239.593301 
L 587.87274 -288.694446 
L 584.564439 -316.794725 
L 581.256139 -310.002154 
L 577.947838 -298.241994 
L 574.639538 -295.708991 
L 571.331238 -295.732097 
L 568.022937 -292.604666 
L 564.714637 -290.014132 
L 561.406336 -287.79929 
L 558.098036 -285.050985 
L 554.789736 -280.224833 
L 551.481435 -278.332996 
L 548.173135 -272.27224 
L 544.864834 -271.175148 
L 541.556534 -267.956492 
L 538.248234 -260.515743 
L 534.939933 -246.370667 
L 531.631633 -206.166214 
L 528.323333 -232.440925 
L 525.015032 -236.414197 
L 521.706732 -242.526146 
L 518.398431 -247.389124 
L 515.090131 -255.068291 
L 511.781831 -259.021241 
L 508.47353 -268.048278 
L 505.16523 -271.688671 
L 501.856929 -273.707146 
L 498.548629 -277.580087 
L 495.240329 -281.694065 
L 491.932028 -289.109762 
L 488.623728 -295.035674 
L 485.315427 -298.205835 
L 482.007127 -300.718283 
L 478.698827 -305.110837 
L 475.390526 -307.472148 
L 472.082226 -310.921785 
L 468.773925 -310.988368 
L 465.465625 -313.291954 
L 462.157325 -315.251302 
L 458.849024 -313.61761 
L 455.540724 -308.700124 
L 452.232423 -297.631821 
L 448.924123 -293.798567 
L 445.615823 -294.33028 
L 442.307522 -275.878121 
L 438.999222 -230.926726 
L 435.690921 -198.697789 
L 432.382621 -289.672106 
L 429.074321 -321.462372 
L 425.76602 -328.217163 
L 422.45772 -329.305169 
L 419.149419 -330.751773 
L 415.841119 -333.979428 
L 412.532819 -335.193194 
L 409.224518 -336.940708 
L 405.916218 -334.697148 
L 402.607917 -337.637159 
L 399.299617 -337.402258 
L 395.991317 -336.987296 
L 392.683016 -330.299983 
L 389.374716 -321.355548 
L 386.066416 -314.999209 
L 382.758115 -300.491183 
L 379.449815 -291.37555 
L 376.141514 -266.896829 
L 372.833214 -192.981347 
L 369.524914 -152.531129 
L 366.216613 -194.912594 
L 362.908313 -144.551452 
L 359.600012 -159.855348 
L 356.291712 -235.291109 
L 352.983412 -301.044018 
L 349.675111 -309.672889 
L 346.366811 -314.316258 
L 343.05851 -317.396349 
L 339.75021 -319.278121 
L 336.44191 -316.984228 
L 333.133609 -318.25974 
L 329.825309 -317.154459 
L 326.517008 -319.757324 
L 323.208708 -316.933584 
L 319.900408 -311.273523 
L 316.592107 -306.719367 
L 313.283807 -298.353446 
L 309.975506 -301.46479 
L 306.667206 -294.012316 
L 303.358906 -289.260452 
L 300.050605 -281.057326 
L 296.742305 -277.351774 
L 293.434004 -273.86814 
L 290.125704 -275.36318 
L 286.817404 -279.448188 
L 283.509103 -280.825921 
L 280.200803 -282.886945 
L 276.892502 -282.7841 
L 273.584202 -283.649623 
L 270.275902 -284.662042 
L 266.967601 -282.763146 
L 263.659301 -277.658938 
L 260.351 -276.66307 
L 257.0427 -275.619426 
L 253.7344 -276.783056 
L 250.426099 -275.105256 
L 247.117799 -274.849448 
L 243.809499 -271.784814 
L 240.501198 -270.296005 
L 237.192898 -268.497481 
L 233.884597 -266.116266 
L 230.576297 -260.470567 
L 227.267997 -255.890247 
L 223.959696 -250.249622 
L 220.651396 -250.697693 
L 217.343095 -243.841911 
L 214.034795 -206.442125 
L 210.726495 -180.696716 
L 207.418194 -172.071957 
L 204.109894 -254.646645 
L 200.801593 -274.591171 
L 197.493293 -269.11334 
L 194.184993 -260.654928 
L 190.876692 -277.723531 
L 187.568392 -281.32679 
L 184.260091 -280.633609 
L 180.951791 -276.414402 
L 177.643491 -274.555224 
L 174.33519 -270.022821 
L 171.02689 -271.868633 
L 167.718589 -269.148513 
L 164.410289 -267.132841 
L 161.101989 -264.83843 
L 157.793688 -260.927395 
L 154.485388 -255.169553 
L 151.177087 -247.310572 
L 147.868787 -238.653313 
L 144.560487 -229.320813 
L 141.252186 -221.766517 
L 137.943886 -203.73044 
L 134.635585 -143.811955 
L 131.327285 -127.575864 
L 128.018985 -113.982768 
L 124.710684 -198.394099 
L 121.402384 -202.271019 
L 118.094083 -204.778018 
L 114.785783 -208.914989 
L 111.477483 -215.501994 
L 108.169182 -216.806567 
L 104.860882 -217.221149 
L 101.552582 -216.972728 
L 98.244281 -216.591647 
L 94.935981 -218.053266 
L 91.62768 -222.282989 
L 88.31938 -224.310983 
L 85.01108 -221.997729 
z
" style="stroke: #dc143c; stroke-opacity: 0.1"/>
    </defs>
    <g clip-path="url(#p6043f6f41d)">
     <use xlink:href="#m5114f4d972" x="0" y="392.514375" style="fill: #dc143c; fill-opacity: 0.1; stroke: #dc143c; stroke-opacity: 0.1"/>
    </g>
   </g>
   <g id="matplotlib.axis_1">
    <g id="xtick_1">
     <g id="line2d_1">
      <path d="M 85.01108 354.958125 
L 85.01108 22.318125 
" clip-path="url(#p6043f6f41d)" style="fill: none; stroke: #b0b0b0; stroke-opacity: 0.3; stroke-width: 0.8; stroke-linecap: square"/>
     </g>
     <g id="line2d_2">
      <defs>
       <path id="mdc1832f51a" d="M 0 0 
L 0 3.5 
" style="stroke: #000000; stroke-width: 0.8"/>
      </defs>
      <g>
       <use xlink:href="#mdc1832f51a" x="85.01108" y="354.958125" style="stroke: #000000; stroke-width: 0.8"/>
      </g>
     </g>
     <g id="text_1">
      <!-- 0 -->
      <g transform="translate(81.82983 369.556562) scale(0.1 -0.1)">
       <defs>
        <path id="DejaVuSans-30" d="M 2034 4250 
Q 1547 4250 1301 3770 
Q 1056 3291 1056 2328 
Q 1056 1369 1301 889 
Q 1547 409 2034 409 
Q 2525 409 2770 889 
Q 3016 1369 3016 2328 
Q 3016 3291 2770 3770 
Q 2525 4250 2034 4250 
z
M 2034 4750 
Q 2819 4750 3233 4129 
Q 3647 3509 3647 2328 
Q 3647 1150 3233 529 
Q 2819 -91 2034 -91 
Q 1250 -91 836 529 
Q 422 1150 422 2328 
Q 422 3509 836 4129 
Q 1250 4750 2034 4750 
z
" transform="scale(0.015625)"/>
       </defs>
       <use xlink:href="#DejaVuSans-30"/>
      </g>
     </g>
    </g>
    <g id="xtick_2">
     <g id="line2d_3">
      <path d="M 250.426099 354.958125 
L 250.426099 22.318125 
" clip-path="url(#p6043f6f41d)" style="fill: none; stroke: #b0b0b0; stroke-opacity: 0.3; stroke-width: 0.8; stroke-linecap: square"/>
     </g>
     <g id="line2d_4">
      <g>
       <use xlink:href="#mdc1832f51a" x="250.426099" y="354.958125" style="stroke: #000000; stroke-width: 0.8"/>
      </g>
     </g>
     <g id="text_2">
      <!-- 50 -->
      <g transform="translate(244.063599 369.556562) scale(0.1 -0.1)">
       <defs>
        <path id="DejaVuSans-35" d="M 691 4666 
L 3169 4666 
L 3169 4134 
L 1269 4134 
L 1269 2991 
Q 1406 3038 1543 3061 
Q 1681 3084 1819 3084 
Q 2600 3084 3056 2656 
Q 3513 2228 3513 1497 
Q 3513 744 3044 326 
Q 2575 -91 1722 -91 
Q 1428 -91 1123 -41 
Q 819 9 494 109 
L 494 744 
Q 775 591 1075 516 
Q 1375 441 1709 441 
Q 2250 441 2565 725 
Q 2881 1009 2881 1497 
Q 2881 1984 2565 2268 
Q 2250 2553 1709 2553 
Q 1456 2553 1204 2497 
Q 953 2441 691 2322 
L 691 4666 
z
" transform="scale(0.015625)"/>
       </defs>
       <use xlink:href="#DejaVuSans-35"/>
       <use xlink:href="#DejaVuSans-30" transform="translate(63.623047 0)"/>
      </g>
     </g>
    </g>
    <g id="xtick_3">
     <g id="line2d_5">
      <path d="M 415.841119 354.958125 
L 415.841119 22.318125 
" clip-path="url(#p6043f6f41d)" style="fill: none; stroke: #b0b0b0; stroke-opacity: 0.3; stroke-width: 0.8; stroke-linecap: square"/>
     </g>
     <g id="line2d_6">
      <g>
       <use xlink:href="#mdc1832f51a" x="415.841119" y="354.958125" style="stroke: #000000; stroke-width: 0.8"/>
      </g>
     </g>
     <g id="text_3">
      <!-- 100 -->
      <g transform="translate(406.297369 369.556562) scale(0.1 -0.1)">
       <defs>
        <path id="DejaVuSans-31" d="M 794 531 
L 1825 531 
L 1825 4091 
L 703 3866 
L 703 4441 
L 1819 4666 
L 2450 4666 
L 2450 531 
L 3481 531 
L 3481 0 
L 794 0 
L 794 531 
z
" transform="scale(0.015625)"/>
       </defs>
       <use xlink:href="#DejaVuSans-31"/>
       <use xlink:href="#DejaVuSans-30" transform="translate(63.623047 0)"/>
       <use xlink:href="#DejaVuSans-30" transform="translate(127.246094 0)"/>
      </g>
     </g>
    </g>
    <g id="xtick_4">
     <g id="line2d_7">
      <path d="M 581.256139 354.958125 
L 581.256139 22.318125 
" clip-path="url(#p6043f6f41d)" style="fill: none; stroke: #b0b0b0; stroke-opacity: 0.3; stroke-width: 0.8; stroke-linecap: square"/>
     </g>
     <g id="line2d_8">
      <g>
       <use xlink:href="#mdc1832f51a" x="581.256139" y="354.958125" style="stroke: #000000; stroke-width: 0.8"/>
      </g>
     </g>
     <g id="text_4">
      <!-- 150 -->
      <g transform="translate(571.712389 369.556562) scale(0.1 -0.1)">
       <use xlink:href="#DejaVuSans-31"/>
       <use xlink:href="#DejaVuSans-35" transform="translate(63.623047 0)"/>
       <use xlink:href="#DejaVuSans-30" transform="translate(127.246094 0)"/>
      </g>
     </g>
    </g>
    <g id="xtick_5">
     <g id="line2d_9">
      <path d="M 746.671159 354.958125 
L 746.671159 22.318125 
" clip-path="url(#p6043f6f41d)" style="fill: none; stroke: #b0b0b0; stroke-opacity: 0.3; stroke-width: 0.8; stroke-linecap: square"/>
     </g>
     <g id="line2d_10">
      <g>
       <use xlink:href="#mdc1832f51a" x="746.671159" y="354.958125" style="stroke: #000000; stroke-width: 0.8"/>
      </g>
     </g>
     <g id="text_5">
      <!-- 200 -->
      <g transform="translate(737.127409 369.556562) scale(0.1 -0.1)">
       <defs>
        <path id="DejaVuSans-32" d="M 1228 531 
L 3431 531 
L 3431 0 
L 469 0 
L 469 531 
Q 828 903 1448 1529 
Q 2069 2156 2228 2338 
Q 2531 2678 2651 2914 
Q 2772 3150 2772 3378 
Q 2772 3750 2511 3984 
Q 2250 4219 1831 4219 
Q 1534 4219 1204 4116 
Q 875 4013 500 3803 
L 500 4441 
Q 881 4594 1212 4672 
Q 1544 4750 1819 4750 
Q 2544 4750 2975 4387 
Q 3406 4025 3406 3419 
Q 3406 3131 3298 2873 
Q 3191 2616 2906 2266 
Q 2828 2175 2409 1742 
Q 1991 1309 1228 531 
z
" transform="scale(0.015625)"/>
       </defs>
       <use xlink:href="#DejaVuSans-32"/>
       <use xlink:href="#DejaVuSans-30" transform="translate(63.623047 0)"/>
       <use xlink:href="#DejaVuSans-30" transform="translate(127.246094 0)"/>
      </g>
     </g>
    </g>
    <g id="text_6">
     <!-- Time (Hours) -->
     <g transform="translate(433.092969 383.234687) scale(0.1 -0.1)">
      <defs>
       <path id="DejaVuSans-54" d="M -19 4666 
L 3928 4666 
L 3928 4134 
L 2272 4134 
L 2272 0 
L 1638 0 
L 1638 4134 
L -19 4134 
L -19 4666 
z
" transform="scale(0.015625)"/>
       <path id="DejaVuSans-69" d="M 603 3500 
L 1178 3500 
L 1178 0 
L 603 0 
L 603 3500 
z
M 603 4863 
L 1178 4863 
L 1178 4134 
L 603 4134 
L 603 4863 
z
" transform="scale(0.015625)"/>
       <path id="DejaVuSans-6d" d="M 3328 2828 
Q 3544 3216 3844 3400 
Q 4144 3584 4550 3584 
Q 5097 3584 5394 3201 
Q 5691 2819 5691 2113 
L 5691 0 
L 5113 0 
L 5113 2094 
Q 5113 2597 4934 2840 
Q 4756 3084 4391 3084 
Q 3944 3084 3684 2787 
Q 3425 2491 3425 1978 
L 3425 0 
L 2847 0 
L 2847 2094 
Q 2847 2600 2669 2842 
Q 2491 3084 2119 3084 
Q 1678 3084 1418 2786 
Q 1159 2488 1159 1978 
L 1159 0 
L 581 0 
L 581 3500 
L 1159 3500 
L 1159 2956 
Q 1356 3278 1631 3431 
Q 1906 3584 2284 3584 
Q 2666 3584 2933 3390 
Q 3200 3197 3328 2828 
z
" transform="scale(0.015625)"/>
       <path id="DejaVuSans-65" d="M 3597 1894 
L 3597 1613 
L 953 1613 
Q 991 1019 1311 708 
Q 1631 397 2203 397 
Q 2534 397 2845 478 
Q 3156 559 3463 722 
L 3463 178 
Q 3153 47 2828 -22 
Q 2503 -91 2169 -91 
Q 1331 -91 842 396 
Q 353 884 353 1716 
Q 353 2575 817 3079 
Q 1281 3584 2069 3584 
Q 2775 3584 3186 3129 
Q 3597 2675 3597 1894 
z
M 3022 2063 
Q 3016 2534 2758 2815 
Q 2500 3097 2075 3097 
Q 1594 3097 1305 2825 
Q 1016 2553 972 2059 
L 3022 2063 
z
" transform="scale(0.015625)"/>
       <path id="DejaVuSans-20" transform="scale(0.015625)"/>
       <path id="DejaVuSans-28" d="M 1984 4856 
Q 1566 4138 1362 3434 
Q 1159 2731 1159 2009 
Q 1159 1288 1364 580 
Q 1569 -128 1984 -844 
L 1484 -844 
Q 1016 -109 783 600 
Q 550 1309 550 2009 
Q 550 2706 781 3412 
Q 1013 4119 1484 4856 
L 1984 4856 
z
" transform="scale(0.015625)"/>
       <path id="DejaVuSans-48" d="M 628 4666 
L 1259 4666 
L 1259 2753 
L 3553 2753 
L 3553 4666 
L 4184 4666 
L 4184 0 
L 3553 0 
L 3553 2222 
L 1259 2222 
L 1259 0 
L 628 0 
L 628 4666 
z
" transform="scale(0.015625)"/>
       <path id="DejaVuSans-6f" d="M 1959 3097 
Q 1497 3097 1228 2736 
Q 959 2375 959 1747 
Q 959 1119 1226 758 
Q 1494 397 1959 397 
Q 2419 397 2687 759 
Q 2956 1122 2956 1747 
Q 2956 2369 2687 2733 
Q 2419 3097 1959 3097 
z
M 1959 3584 
Q 2709 3584 3137 3096 
Q 3566 2609 3566 1747 
Q 3566 888 3137 398 
Q 2709 -91 1959 -91 
Q 1206 -91 779 398 
Q 353 888 353 1747 
Q 353 2609 779 3096 
Q 1206 3584 1959 3584 
z
" transform="scale(0.015625)"/>
       <path id="DejaVuSans-75" d="M 544 1381 
L 544 3500 
L 1119 3500 
L 1119 1403 
Q 1119 906 1312 657 
Q 1506 409 1894 409 
Q 2359 409 2629 706 
Q 2900 1003 2900 1516 
L 2900 3500 
L 3475 3500 
L 3475 0 
L 2900 0 
L 2900 538 
Q 2691 219 2414 64 
Q 2138 -91 1772 -91 
Q 1169 -91 856 284 
Q 544 659 544 1381 
z
M 1991 3584 
L 1991 3584 
z
" transform="scale(0.015625)"/>
       <path id="DejaVuSans-72" d="M 2631 2963 
Q 2534 3019 2420 3045 
Q 2306 3072 2169 3072 
Q 1681 3072 1420 2755 
Q 1159 2438 1159 1844 
L 1159 0 
L 581 0 
L 581 3500 
L 1159 3500 
L 1159 2956 
Q 1341 3275 1631 3429 
Q 1922 3584 2338 3584 
Q 2397 3584 2469 3576 
Q 2541 3569 2628 3553 
L 2631 2963 
z
" transform="scale(0.015625)"/>
       <path id="DejaVuSans-73" d="M 2834 3397 
L 2834 2853 
Q 2591 2978 2328 3040 
Q 2066 3103 1784 3103 
Q 1356 3103 1142 2972 
Q 928 2841 928 2578 
Q 928 2378 1081 2264 
Q 1234 2150 1697 2047 
L 1894 2003 
Q 2506 1872 2764 1633 
Q 3022 1394 3022 966 
Q 3022 478 2636 193 
Q 2250 -91 1575 -91 
Q 1294 -91 989 -36 
Q 684 19 347 128 
L 347 722 
Q 666 556 975 473 
Q 1284 391 1588 391 
Q 1994 391 2212 530 
Q 2431 669 2431 922 
Q 2431 1156 2273 1281 
Q 2116 1406 1581 1522 
L 1381 1569 
Q 847 1681 609 1914 
Q 372 2147 372 2553 
Q 372 3047 722 3315 
Q 1072 3584 1716 3584 
Q 2034 3584 2315 3537 
Q 2597 3491 2834 3397 
z
" transform="scale(0.015625)"/>
       <path id="DejaVuSans-29" d="M 513 4856 
L 1013 4856 
Q 1481 4119 1714 3412 
Q 1947 2706 1947 2009 
Q 1947 1309 1714 600 
Q 1481 -109 1013 -844 
L 513 -844 
Q 928 -128 1133 580 
Q 1338 1288 1338 2009 
Q 1338 2731 1133 3434 
Q 928 4138 513 4856 
z
" transform="scale(0.015625)"/>
      </defs>
      <use xlink:href="#DejaVuSans-54"/>
      <use xlink:href="#DejaVuSans-69" transform="translate(57.958984 0)"/>
      <use xlink:href="#DejaVuSans-6d" transform="translate(85.742188 0)"/>
      <use xlink:href="#DejaVuSans-65" transform="translate(183.154297 0)"/>
      <use xlink:href="#DejaVuSans-20" transform="translate(244.677734 0)"/>
      <use xlink:href="#DejaVuSans-28" transform="translate(276.464844 0)"/>
      <use xlink:href="#DejaVuSans-48" transform="translate(315.478516 0)"/>
      <use xlink:href="#DejaVuSans-6f" transform="translate(390.673828 0)"/>
      <use xlink:href="#DejaVuSans-75" transform="translate(451.855469 0)"/>
      <use xlink:href="#DejaVuSans-72" transform="translate(515.234375 0)"/>
      <use xlink:href="#DejaVuSans-73" transform="translate(556.347656 0)"/>
      <use xlink:href="#DejaVuSans-29" transform="translate(608.447266 0)"/>
     </g>
    </g>
   </g>
   <g id="matplotlib.axis_2">
    <g id="ytick_1">
     <g id="line2d_11">
      <path d="M 46.965625 330.316025 
L 883.965625 330.316025 
" clip-path="url(#p6043f6f41d)" style="fill: none; stroke: #b0b0b0; stroke-opacity: 0.3; stroke-width: 0.8; stroke-linecap: square"/>
     </g>
     <g id="line2d_12">
      <defs>
       <path id="m95d2f414c3" d="M 0 0 
L -3.5 0 
" style="stroke: #000000; stroke-width: 0.8"/>
      </defs>
      <g>
       <use xlink:href="#m95d2f414c3" x="46.965625" y="330.316025" style="stroke: #000000; stroke-width: 0.8"/>
      </g>
     </g>
     <g id="text_7">
      <!-- 0 -->
      <g transform="translate(33.603125 334.115244) scale(0.1 -0.1)">
       <use xlink:href="#DejaVuSans-30"/>
      </g>
     </g>
    </g>
    <g id="ytick_2">
     <g id="line2d_13">
      <path d="M 46.965625 274.77411 
L 883.965625 274.77411 
" clip-path="url(#p6043f6f41d)" style="fill: none; stroke: #b0b0b0; stroke-opacity: 0.3; stroke-width: 0.8; stroke-linecap: square"/>
     </g>
     <g id="line2d_14">
      <g>
       <use xlink:href="#m95d2f414c3" x="46.965625" y="274.77411" style="stroke: #000000; stroke-width: 0.8"/>
      </g>
     </g>
     <g id="text_8">
      <!-- 20 -->
      <g transform="translate(27.240625 278.573329) scale(0.1 -0.1)">
       <use xlink:href="#DejaVuSans-32"/>
       <use xlink:href="#DejaVuSans-30" transform="translate(63.623047 0)"/>
      </g>
     </g>
    </g>
    <g id="ytick_3">
     <g id="line2d_15">
      <path d="M 46.965625 219.232195 
L 883.965625 219.232195 
" clip-path="url(#p6043f6f41d)" style="fill: none; stroke: #b0b0b0; stroke-opacity: 0.3; stroke-width: 0.8; stroke-linecap: square"/>
     </g>
     <g id="line2d_16">
      <g>
       <use xlink:href="#m95d2f414c3" x="46.965625" y="219.232195" style="stroke: #000000; stroke-width: 0.8"/>
      </g>
     </g>
     <g id="text_9">
      <!-- 40 -->
      <g transform="translate(27.240625 223.031413) scale(0.1 -0.1)">
       <defs>
        <path id="DejaVuSans-34" d="M 2419 4116 
L 825 1625 
L 2419 1625 
L 2419 4116 
z
M 2253 4666 
L 3047 4666 
L 3047 1625 
L 3713 1625 
L 3713 1100 
L 3047 1100 
L 3047 0 
L 2419 0 
L 2419 1100 
L 313 1100 
L 313 1709 
L 2253 4666 
z
" transform="scale(0.015625)"/>
       </defs>
       <use xlink:href="#DejaVuSans-34"/>
       <use xlink:href="#DejaVuSans-30" transform="translate(63.623047 0)"/>
      </g>
     </g>
    </g>
    <g id="ytick_4">
     <g id="line2d_17">
      <path d="M 46.965625 163.69028 
L 883.965625 163.69028 
" clip-path="url(#p6043f6f41d)" style="fill: none; stroke: #b0b0b0; stroke-opacity: 0.3; stroke-width: 0.8; stroke-linecap: square"/>
     </g>
     <g id="line2d_18">
      <g>
       <use xlink:href="#m95d2f414c3" x="46.965625" y="163.69028" style="stroke: #000000; stroke-width: 0.8"/>
      </g>
     </g>
     <g id="text_10">
      <!-- 60 -->
      <g transform="translate(27.240625 167.489498) scale(0.1 -0.1)">
       <defs>
        <path id="DejaVuSans-36" d="M 2113 2584 
Q 1688 2584 1439 2293 
Q 1191 2003 1191 1497 
Q 1191 994 1439 701 
Q 1688 409 2113 409 
Q 2538 409 2786 701 
Q 3034 994 3034 1497 
Q 3034 2003 2786 2293 
Q 2538 2584 2113 2584 
z
M 3366 4563 
L 3366 3988 
Q 3128 4100 2886 4159 
Q 2644 4219 2406 4219 
Q 1781 4219 1451 3797 
Q 1122 3375 1075 2522 
Q 1259 2794 1537 2939 
Q 1816 3084 2150 3084 
Q 2853 3084 3261 2657 
Q 3669 2231 3669 1497 
Q 3669 778 3244 343 
Q 2819 -91 2113 -91 
Q 1303 -91 875 529 
Q 447 1150 447 2328 
Q 447 3434 972 4092 
Q 1497 4750 2381 4750 
Q 2619 4750 2861 4703 
Q 3103 4656 3366 4563 
z
" transform="scale(0.015625)"/>
       </defs>
       <use xlink:href="#DejaVuSans-36"/>
       <use xlink:href="#DejaVuSans-30" transform="translate(63.623047 0)"/>
      </g>
     </g>
    </g>
    <g id="ytick_5">
     <g id="line2d_19">
      <path d="M 46.965625 108.148364 
L 883.965625 108.148364 
" clip-path="url(#p6043f6f41d)" style="fill: none; stroke: #b0b0b0; stroke-opacity: 0.3; stroke-width: 0.8; stroke-linecap: square"/>
     </g>
     <g id="line2d_20">
      <g>
       <use xlink:href="#m95d2f414c3" x="46.965625" y="108.148364" style="stroke: #000000; stroke-width: 0.8"/>
      </g>
     </g>
     <g id="text_11">
      <!-- 80 -->
      <g transform="translate(27.240625 111.947583) scale(0.1 -0.1)">
       <defs>
        <path id="DejaVuSans-38" d="M 2034 2216 
Q 1584 2216 1326 1975 
Q 1069 1734 1069 1313 
Q 1069 891 1326 650 
Q 1584 409 2034 409 
Q 2484 409 2743 651 
Q 3003 894 3003 1313 
Q 3003 1734 2745 1975 
Q 2488 2216 2034 2216 
z
M 1403 2484 
Q 997 2584 770 2862 
Q 544 3141 544 3541 
Q 544 4100 942 4425 
Q 1341 4750 2034 4750 
Q 2731 4750 3128 4425 
Q 3525 4100 3525 3541 
Q 3525 3141 3298 2862 
Q 3072 2584 2669 2484 
Q 3125 2378 3379 2068 
Q 3634 1759 3634 1313 
Q 3634 634 3220 271 
Q 2806 -91 2034 -91 
Q 1263 -91 848 271 
Q 434 634 434 1313 
Q 434 1759 690 2068 
Q 947 2378 1403 2484 
z
M 1172 3481 
Q 1172 3119 1398 2916 
Q 1625 2713 2034 2713 
Q 2441 2713 2670 2916 
Q 2900 3119 2900 3481 
Q 2900 3844 2670 4047 
Q 2441 4250 2034 4250 
Q 1625 4250 1398 4047 
Q 1172 3844 1172 3481 
z
" transform="scale(0.015625)"/>
       </defs>
       <use xlink:href="#DejaVuSans-38"/>
       <use xlink:href="#DejaVuSans-30" transform="translate(63.623047 0)"/>
      </g>
     </g>
    </g>
    <g id="ytick_6">
     <g id="line2d_21">
      <path d="M 46.965625 52.606449 
L 883.965625 52.606449 
" clip-path="url(#p6043f6f41d)" style="fill: none; stroke: #b0b0b0; stroke-opacity: 0.3; stroke-width: 0.8; stroke-linecap: square"/>
     </g>
     <g id="line2d_22">
      <g>
       <use xlink:href="#m95d2f414c3" x="46.965625" y="52.606449" style="stroke: #000000; stroke-width: 0.8"/>
      </g>
     </g>
     <g id="text_12">
      <!-- 100 -->
      <g transform="translate(20.878125 56.405668) scale(0.1 -0.1)">
       <use xlink:href="#DejaVuSans-31"/>
       <use xlink:href="#DejaVuSans-30" transform="translate(63.623047 0)"/>
       <use xlink:href="#DejaVuSans-30" transform="translate(127.246094 0)"/>
      </g>
     </g>
    </g>
    <g id="text_13">
     <!-- Heating Power [W] -->
     <g transform="translate(14.798438 235.368594) rotate(-90) scale(0.1 -0.1)">
      <defs>
       <path id="DejaVuSans-61" d="M 2194 1759 
Q 1497 1759 1228 1600 
Q 959 1441 959 1056 
Q 959 750 1161 570 
Q 1363 391 1709 391 
Q 2188 391 2477 730 
Q 2766 1069 2766 1631 
L 2766 1759 
L 2194 1759 
z
M 3341 1997 
L 3341 0 
L 2766 0 
L 2766 531 
Q 2569 213 2275 61 
Q 1981 -91 1556 -91 
Q 1019 -91 701 211 
Q 384 513 384 1019 
Q 384 1609 779 1909 
Q 1175 2209 1959 2209 
L 2766 2209 
L 2766 2266 
Q 2766 2663 2505 2880 
Q 2244 3097 1772 3097 
Q 1472 3097 1187 3025 
Q 903 2953 641 2809 
L 641 3341 
Q 956 3463 1253 3523 
Q 1550 3584 1831 3584 
Q 2591 3584 2966 3190 
Q 3341 2797 3341 1997 
z
" transform="scale(0.015625)"/>
       <path id="DejaVuSans-74" d="M 1172 4494 
L 1172 3500 
L 2356 3500 
L 2356 3053 
L 1172 3053 
L 1172 1153 
Q 1172 725 1289 603 
Q 1406 481 1766 481 
L 2356 481 
L 2356 0 
L 1766 0 
Q 1100 0 847 248 
Q 594 497 594 1153 
L 594 3053 
L 172 3053 
L 172 3500 
L 594 3500 
L 594 4494 
L 1172 4494 
z
" transform="scale(0.015625)"/>
       <path id="DejaVuSans-6e" d="M 3513 2113 
L 3513 0 
L 2938 0 
L 2938 2094 
Q 2938 2591 2744 2837 
Q 2550 3084 2163 3084 
Q 1697 3084 1428 2787 
Q 1159 2491 1159 1978 
L 1159 0 
L 581 0 
L 581 3500 
L 1159 3500 
L 1159 2956 
Q 1366 3272 1645 3428 
Q 1925 3584 2291 3584 
Q 2894 3584 3203 3211 
Q 3513 2838 3513 2113 
z
" transform="scale(0.015625)"/>
       <path id="DejaVuSans-67" d="M 2906 1791 
Q 2906 2416 2648 2759 
Q 2391 3103 1925 3103 
Q 1463 3103 1205 2759 
Q 947 2416 947 1791 
Q 947 1169 1205 825 
Q 1463 481 1925 481 
Q 2391 481 2648 825 
Q 2906 1169 2906 1791 
z
M 3481 434 
Q 3481 -459 3084 -895 
Q 2688 -1331 1869 -1331 
Q 1566 -1331 1297 -1286 
Q 1028 -1241 775 -1147 
L 775 -588 
Q 1028 -725 1275 -790 
Q 1522 -856 1778 -856 
Q 2344 -856 2625 -561 
Q 2906 -266 2906 331 
L 2906 616 
Q 2728 306 2450 153 
Q 2172 0 1784 0 
Q 1141 0 747 490 
Q 353 981 353 1791 
Q 353 2603 747 3093 
Q 1141 3584 1784 3584 
Q 2172 3584 2450 3431 
Q 2728 3278 2906 2969 
L 2906 3500 
L 3481 3500 
L 3481 434 
z
" transform="scale(0.015625)"/>
       <path id="DejaVuSans-50" d="M 1259 4147 
L 1259 2394 
L 2053 2394 
Q 2494 2394 2734 2622 
Q 2975 2850 2975 3272 
Q 2975 3691 2734 3919 
Q 2494 4147 2053 4147 
L 1259 4147 
z
M 628 4666 
L 2053 4666 
Q 2838 4666 3239 4311 
Q 3641 3956 3641 3272 
Q 3641 2581 3239 2228 
Q 2838 1875 2053 1875 
L 1259 1875 
L 1259 0 
L 628 0 
L 628 4666 
z
" transform="scale(0.015625)"/>
       <path id="DejaVuSans-77" d="M 269 3500 
L 844 3500 
L 1563 769 
L 2278 3500 
L 2956 3500 
L 3675 769 
L 4391 3500 
L 4966 3500 
L 4050 0 
L 3372 0 
L 2619 2869 
L 1863 0 
L 1184 0 
L 269 3500 
z
" transform="scale(0.015625)"/>
       <path id="DejaVuSans-5b" d="M 550 4863 
L 1875 4863 
L 1875 4416 
L 1125 4416 
L 1125 -397 
L 1875 -397 
L 1875 -844 
L 550 -844 
L 550 4863 
z
" transform="scale(0.015625)"/>
       <path id="DejaVuSans-57" d="M 213 4666 
L 850 4666 
L 1831 722 
L 2809 4666 
L 3519 4666 
L 4500 722 
L 5478 4666 
L 6119 4666 
L 4947 0 
L 4153 0 
L 3169 4050 
L 2175 0 
L 1381 0 
L 213 4666 
z
" transform="scale(0.015625)"/>
       <path id="DejaVuSans-5d" d="M 1947 4863 
L 1947 -844 
L 622 -844 
L 622 -397 
L 1369 -397 
L 1369 4416 
L 622 4416 
L 622 4863 
L 1947 4863 
z
" transform="scale(0.015625)"/>
      </defs>
      <use xlink:href="#DejaVuSans-48"/>
      <use xlink:href="#DejaVuSans-65" transform="translate(75.195312 0)"/>
      <use xlink:href="#DejaVuSans-61" transform="translate(136.71875 0)"/>
      <use xlink:href="#DejaVuSans-74" transform="translate(197.998047 0)"/>
      <use xlink:href="#DejaVuSans-69" transform="translate(237.207031 0)"/>
      <use xlink:href="#DejaVuSans-6e" transform="translate(264.990234 0)"/>
      <use xlink:href="#DejaVuSans-67" transform="translate(328.369141 0)"/>
      <use xlink:href="#DejaVuSans-20" transform="translate(391.845703 0)"/>
      <use xlink:href="#DejaVuSans-50" transform="translate(423.632812 0)"/>
      <use xlink:href="#DejaVuSans-6f" transform="translate(480.310547 0)"/>
      <use xlink:href="#DejaVuSans-77" transform="translate(541.492188 0)"/>
      <use xlink:href="#DejaVuSans-65" transform="translate(623.279297 0)"/>
      <use xlink:href="#DejaVuSans-72" transform="translate(684.802734 0)"/>
      <use xlink:href="#DejaVuSans-20" transform="translate(725.916016 0)"/>
      <use xlink:href="#DejaVuSans-5b" transform="translate(757.703125 0)"/>
      <use xlink:href="#DejaVuSans-57" transform="translate(796.716797 0)"/>
      <use xlink:href="#DejaVuSans-5d" transform="translate(895.59375 0)"/>
     </g>
    </g>
   </g>
   <g id="line2d_23">
    <path d="M 85.01108 174.798663 
L 88.31938 180.352854 
L 91.62768 177.575758 
L 94.935981 180.352854 
L 101.552582 180.352854 
L 104.860882 183.12995 
L 108.169182 180.352854 
L 114.785783 185.907046 
L 118.094083 191.461237 
L 121.402384 191.461237 
L 124.710684 197.015429 
L 128.018985 283.105397 
L 131.327285 255.334439 
L 134.635585 258.111535 
L 137.943886 199.792524 
L 141.252186 183.12995 
L 144.560487 169.244471 
L 154.485388 144.250609 
L 161.101989 133.142226 
L 164.410289 133.142226 
L 167.718589 127.588035 
L 171.02689 130.365131 
L 177.643491 124.810939 
L 180.951791 127.588035 
L 187.568392 122.033843 
L 190.876692 122.033843 
L 194.184993 138.696418 
L 197.493293 130.365131 
L 200.801593 127.588035 
L 204.109894 133.142226 
L 207.418194 233.117673 
L 210.726495 227.563482 
L 214.034795 191.461237 
L 217.343095 158.136088 
L 220.651396 147.027705 
L 223.959696 144.250609 
L 227.267997 138.696418 
L 237.192898 130.365131 
L 240.501198 130.365131 
L 243.809499 127.588035 
L 250.426099 127.588035 
L 253.7344 124.810939 
L 257.0427 127.588035 
L 260.351 124.810939 
L 263.659301 127.588035 
L 266.967601 122.033843 
L 286.817404 122.033843 
L 290.125704 130.365131 
L 293.434004 130.365131 
L 300.050605 124.810939 
L 303.358906 119.256747 
L 306.667206 116.479652 
L 316.592107 99.817077 
L 319.900408 99.817077 
L 329.825309 91.48579 
L 333.133609 91.48579 
L 336.44191 88.708694 
L 343.05851 88.708694 
L 349.675111 94.262886 
L 352.983412 102.594173 
L 356.291712 158.136088 
L 359.600012 260.888631 
L 362.908313 269.219918 
L 366.216613 208.123812 
L 369.524914 241.448961 
L 372.833214 213.678003 
L 376.141514 144.250609 
L 379.449815 119.256747 
L 382.758115 108.148364 
L 386.066416 94.262886 
L 389.374716 85.931598 
L 392.683016 80.377407 
L 395.991317 72.04612 
L 399.299617 72.04612 
L 402.607917 69.269024 
L 405.916218 69.269024 
L 409.224518 72.04612 
L 412.532819 72.04612 
L 419.149419 77.600311 
L 422.45772 77.600311 
L 429.074321 83.154503 
L 432.382621 99.817077 
L 435.690921 210.900907 
L 438.999222 166.467375 
L 442.307522 127.588035 
L 445.615823 113.702556 
L 455.540724 97.039981 
L 462.157325 91.48579 
L 468.773925 91.48579 
L 485.315427 105.371269 
L 488.623728 110.92546 
L 491.932028 113.702556 
L 498.548629 124.810939 
L 508.47353 133.142226 
L 511.781831 141.473514 
L 515.090131 147.027705 
L 521.706732 152.581897 
L 525.015032 160.913184 
L 528.323333 172.021567 
L 531.631633 177.575758 
L 534.939933 152.581897 
L 538.248234 144.250609 
L 541.556534 138.696418 
L 544.864834 130.365131 
L 551.481435 124.810939 
L 554.789736 124.810939 
L 558.098036 122.033843 
L 561.406336 116.479652 
L 568.022937 110.92546 
L 571.331238 105.371269 
L 574.639538 105.371269 
L 577.947838 102.594173 
L 584.564439 91.48579 
L 587.87274 99.817077 
L 591.18104 149.804801 
L 594.48934 202.56962 
L 597.797641 277.551206 
L 601.105941 180.352854 
L 604.414242 130.365131 
L 607.722542 160.913184 
L 611.030842 138.696418 
L 614.339143 110.92546 
L 617.647443 97.039981 
L 627.572344 72.04612 
L 630.880645 69.269024 
L 634.188945 63.714832 
L 637.497246 63.714832 
L 640.805546 58.160641 
L 644.113846 60.937737 
L 654.038748 60.937737 
L 657.347048 63.714832 
L 660.655348 63.714832 
L 663.963649 66.491928 
L 667.271949 66.491928 
L 673.88855 72.04612 
L 677.19685 135.919322 
L 680.505151 291.436684 
L 683.813451 244.226056 
L 687.121751 230.340578 
L 690.430052 158.136088 
L 693.738352 127.588035 
L 697.046653 110.92546 
L 700.354953 99.817077 
L 703.663253 91.48579 
L 713.588155 74.823215 
L 720.204755 69.269024 
L 723.513056 69.269024 
L 726.821356 66.491928 
L 730.129657 66.491928 
L 733.437957 63.714832 
L 736.746257 66.491928 
L 740.054558 63.714832 
L 746.671159 69.269024 
L 749.979459 77.600311 
L 753.287759 116.479652 
L 756.59606 191.461237 
L 759.90436 108.148364 
L 763.212661 124.810939 
L 766.520961 102.594173 
L 769.829261 133.142226 
L 773.137562 91.48579 
L 776.445862 83.154503 
L 783.062463 72.04612 
L 786.370763 69.269024 
L 789.679064 69.269024 
L 792.987364 66.491928 
L 796.295665 66.491928 
L 799.603965 63.714832 
L 806.220566 63.714832 
L 809.528866 58.160641 
L 812.837167 60.937737 
L 816.145467 58.160641 
L 819.453767 60.937737 
L 822.762068 60.937737 
L 826.070368 69.269024 
L 829.378668 80.377407 
L 832.686969 119.256747 
L 835.995269 169.244471 
L 839.30357 155.358992 
L 842.61187 271.997014 
L 845.92017 169.244471 
L 845.92017 169.244471 
" clip-path="url(#p6043f6f41d)" style="fill: none; stroke: #808080; stroke-opacity: 0.4; stroke-width: 1.5; stroke-linecap: square"/>
   </g>
   <g id="line2d_24">
    <path d="M 85.01108 181.25938 
L 88.31938 177.827084 
L 91.62768 180.762553 
L 94.935981 185.162393 
L 98.244281 186.657289 
L 101.552582 186.282767 
L 104.860882 186.03564 
L 108.169182 186.450479 
L 111.477483 187.755102 
L 114.785783 194.342117 
L 118.094083 198.479089 
L 121.402384 200.986089 
L 124.710684 204.863009 
L 128.018985 289.274341 
L 131.327285 275.681245 
L 134.635585 259.445153 
L 137.943886 199.526668 
L 141.252186 181.490591 
L 144.560487 173.936295 
L 147.868787 164.603795 
L 151.177087 155.946537 
L 154.485388 148.087556 
L 157.793688 142.329713 
L 161.101989 138.418679 
L 164.410289 136.124267 
L 167.718589 134.108595 
L 171.02689 131.388476 
L 174.33519 133.234287 
L 177.643491 128.701884 
L 180.951791 126.842706 
L 184.260091 122.623499 
L 187.568392 121.930318 
L 190.876692 125.533577 
L 194.184993 142.602181 
L 197.493293 134.143768 
L 200.801593 128.665938 
L 204.109894 148.610463 
L 207.418194 231.185151 
L 210.726495 222.560392 
L 214.034795 196.814983 
L 217.343095 159.415197 
L 220.651396 152.559415 
L 223.959696 153.007486 
L 227.267997 147.366861 
L 230.576297 142.786542 
L 233.884597 137.140842 
L 237.192898 134.759627 
L 240.501198 132.961104 
L 243.809499 131.472294 
L 247.117799 128.407661 
L 250.426099 128.151852 
L 253.7344 126.474052 
L 257.0427 127.637682 
L 263.659301 125.59817 
L 266.967601 120.493962 
L 270.275902 118.595066 
L 273.584202 119.607485 
L 276.892502 120.473008 
L 280.200803 120.370163 
L 283.509103 122.431187 
L 286.817404 123.80892 
L 290.125704 127.893928 
L 293.434004 129.388969 
L 296.742305 125.905334 
L 300.050605 122.199782 
L 303.358906 113.996656 
L 306.667206 109.244792 
L 309.975506 101.792319 
L 313.283807 104.903662 
L 316.592107 96.537741 
L 319.900408 91.983585 
L 323.208708 86.323524 
L 326.517008 83.499784 
L 329.825309 86.102649 
L 333.133609 84.997368 
L 336.44191 86.272881 
L 339.75021 83.978987 
L 343.05851 85.860759 
L 346.366811 88.94085 
L 349.675111 93.58422 
L 352.983412 102.21309 
L 356.291712 167.965999 
L 359.600012 243.40176 
L 362.908313 258.705656 
L 366.216613 208.344514 
L 369.524914 250.725979 
L 372.833214 210.275761 
L 376.141514 136.36028 
L 379.449815 111.881558 
L 382.758115 102.765925 
L 386.066416 88.257899 
L 389.374716 81.90156 
L 392.683016 72.957126 
L 395.991317 66.269812 
L 399.299617 65.854851 
L 402.607917 65.619949 
L 405.916218 68.55996 
L 409.224518 66.3164 
L 412.532819 68.063914 
L 415.841119 69.27768 
L 419.149419 72.505335 
L 422.45772 73.951939 
L 425.76602 75.039945 
L 429.074321 81.794736 
L 432.382621 113.585002 
L 435.690921 204.559319 
L 438.999222 172.330383 
L 442.307522 127.378988 
L 445.615823 108.926828 
L 448.924123 109.458541 
L 452.232423 105.625287 
L 455.540724 94.556984 
L 458.849024 89.639498 
L 462.157325 88.005806 
L 465.465625 89.965154 
L 468.773925 92.26874 
L 472.082226 92.335323 
L 475.390526 95.78496 
L 478.698827 98.146271 
L 482.007127 102.538825 
L 485.315427 105.051273 
L 488.623728 108.221434 
L 491.932028 114.147346 
L 495.240329 121.563043 
L 498.548629 125.677021 
L 501.856929 129.549962 
L 505.16523 131.568438 
L 508.47353 135.208831 
L 511.781831 144.235867 
L 515.090131 148.188817 
L 518.398431 155.867984 
L 521.706732 160.730962 
L 525.015032 166.842911 
L 528.323333 170.816183 
L 531.631633 197.090895 
L 534.939933 156.886441 
L 538.248234 142.741365 
L 541.556534 135.300616 
L 544.864834 132.081961 
L 548.173135 130.984869 
L 551.481435 124.924112 
L 554.789736 123.032275 
L 558.098036 118.206123 
L 561.406336 115.457818 
L 564.714637 113.242976 
L 568.022937 110.652442 
L 571.331238 107.525011 
L 574.639538 107.548117 
L 577.947838 105.015114 
L 581.256139 93.254954 
L 584.564439 86.462383 
L 587.87274 114.562662 
L 591.18104 163.663807 
L 594.48934 194.527047 
L 597.797641 257.982126 
L 601.105941 175.263366 
L 604.414242 128.789324 
L 607.722542 181.808334 
L 611.030842 146.510747 
L 614.339143 106.682089 
L 617.647443 89.00553 
L 620.955744 83.69324 
L 624.264044 78.019183 
L 627.572344 70.402004 
L 630.880645 64.968884 
L 634.188945 64.725767 
L 637.497246 62.475394 
L 640.805546 59.283807 
L 644.113846 59.124404 
L 647.422147 59.186626 
L 650.730447 61.844193 
L 654.038748 57.895929 
L 657.347048 57.928253 
L 660.655348 59.164022 
L 663.963649 63.109228 
L 667.271949 66.877302 
L 670.58025 66.967614 
L 673.88855 67.776322 
L 677.19685 140.924616 
L 680.505151 329.095392 
L 683.813451 265.533675 
L 687.121751 247.488937 
L 690.430052 155.055779 
L 693.738352 130.61763 
L 697.046653 111.335608 
L 700.354953 97.023381 
L 703.663253 86.196612 
L 710.279854 73.846616 
L 713.588155 72.663309 
L 716.896455 62.227461 
L 720.204755 62.749112 
L 723.513056 62.695027 
L 726.821356 63.119958 
L 730.129657 60.832209 
L 736.746257 58.523151 
L 740.054558 58.981437 
L 743.362858 60.922684 
L 746.671159 67.457189 
L 749.979459 75.021982 
L 753.287759 122.720736 
L 756.59606 176.358721 
L 759.90436 108.213865 
L 763.212661 103.976897 
L 766.520961 95.370948 
L 769.829261 120.215224 
L 773.137562 87.902438 
L 776.445862 73.170767 
L 779.754163 65.063043 
L 783.062463 60.077482 
L 786.370763 59.89486 
L 789.679064 59.174638 
L 792.987364 53.35208 
L 796.295665 53.385715 
L 799.603965 52.569292 
L 802.912265 52.870338 
L 806.220566 50.888137 
L 809.528866 50.087016 
L 812.837167 48.180858 
L 816.145467 50.892883 
L 819.453767 50.561312 
L 822.762068 54.601274 
L 826.070368 61.464547 
L 829.378668 71.781336 
L 832.686969 133.121102 
L 835.995269 140.570264 
L 839.30357 152.39675 
L 842.61187 267.180457 
L 845.92017 162.539922 
L 845.92017 162.539922 
" clip-path="url(#p6043f6f41d)" style="fill: none; stroke: #dc143c; stroke-width: 1.5; stroke-linecap: square"/>
   </g>
   <g id="line2d_25">
    <path d="M 577.947838 354.958125 
L 577.947838 22.318125 
" clip-path="url(#p6043f6f41d)" style="fill: none; stroke-dasharray: 5.55,2.4; stroke-dashoffset: 0; stroke: #000000; stroke-width: 1.5"/>
   </g>
   <g id="patch_3">
    <path d="M 46.965625 354.958125 
L 46.965625 22.318125 
" style="fill: none; stroke: #000000; stroke-width: 0.8; stroke-linejoin: miter; stroke-linecap: square"/>
   </g>
   <g id="patch_4">
    <path d="M 883.965625 354.958125 
L 883.965625 22.318125 
" style="fill: none; stroke: #000000; stroke-width: 0.8; stroke-linejoin: miter; stroke-linecap: square"/>
   </g>
   <g id="patch_5">
    <path d="M 46.965625 354.958125 
L 883.965625 354.958125 
" style="fill: none; stroke: #000000; stroke-width: 0.8; stroke-linejoin: miter; stroke-linecap: square"/>
   </g>
   <g id="patch_6">
    <path d="M 46.965625 22.318125 
L 883.965625 22.318125 
" style="fill: none; stroke: #000000; stroke-width: 0.8; stroke-linejoin: miter; stroke-linecap: square"/>
   </g>
   <g id="text_14">
    <!-- Exercise 3.9: Multi-step Simulation (Open-Loop) -->
    <g transform="translate(322.282188 16.318125) scale(0.12 -0.12)">
     <defs>
      <path id="DejaVuSans-45" d="M 628 4666 
L 3578 4666 
L 3578 4134 
L 1259 4134 
L 1259 2753 
L 3481 2753 
L 3481 2222 
L 1259 2222 
L 1259 531 
L 3634 531 
L 3634 0 
L 628 0 
L 628 4666 
z
" transform="scale(0.015625)"/>
      <path id="DejaVuSans-78" d="M 3513 3500 
L 2247 1797 
L 3578 0 
L 2900 0 
L 1881 1375 
L 863 0 
L 184 0 
L 1544 1831 
L 300 3500 
L 978 3500 
L 1906 2253 
L 2834 3500 
L 3513 3500 
z
" transform="scale(0.015625)"/>
      <path id="DejaVuSans-63" d="M 3122 3366 
L 3122 2828 
Q 2878 2963 2633 3030 
Q 2388 3097 2138 3097 
Q 1578 3097 1268 2742 
Q 959 2388 959 1747 
Q 959 1106 1268 751 
Q 1578 397 2138 397 
Q 2388 397 2633 464 
Q 2878 531 3122 666 
L 3122 134 
Q 2881 22 2623 -34 
Q 2366 -91 2075 -91 
Q 1284 -91 818 406 
Q 353 903 353 1747 
Q 353 2603 823 3093 
Q 1294 3584 2113 3584 
Q 2378 3584 2631 3529 
Q 2884 3475 3122 3366 
z
" transform="scale(0.015625)"/>
      <path id="DejaVuSans-33" d="M 2597 2516 
Q 3050 2419 3304 2112 
Q 3559 1806 3559 1356 
Q 3559 666 3084 287 
Q 2609 -91 1734 -91 
Q 1441 -91 1130 -33 
Q 819 25 488 141 
L 488 750 
Q 750 597 1062 519 
Q 1375 441 1716 441 
Q 2309 441 2620 675 
Q 2931 909 2931 1356 
Q 2931 1769 2642 2001 
Q 2353 2234 1838 2234 
L 1294 2234 
L 1294 2753 
L 1863 2753 
Q 2328 2753 2575 2939 
Q 2822 3125 2822 3475 
Q 2822 3834 2567 4026 
Q 2313 4219 1838 4219 
Q 1578 4219 1281 4162 
Q 984 4106 628 3988 
L 628 4550 
Q 988 4650 1302 4700 
Q 1616 4750 1894 4750 
Q 2613 4750 3031 4423 
Q 3450 4097 3450 3541 
Q 3450 3153 3228 2886 
Q 3006 2619 2597 2516 
z
" transform="scale(0.015625)"/>
      <path id="DejaVuSans-2e" d="M 684 794 
L 1344 794 
L 1344 0 
L 684 0 
L 684 794 
z
" transform="scale(0.015625)"/>
      <path id="DejaVuSans-39" d="M 703 97 
L 703 672 
Q 941 559 1184 500 
Q 1428 441 1663 441 
Q 2288 441 2617 861 
Q 2947 1281 2994 2138 
Q 2813 1869 2534 1725 
Q 2256 1581 1919 1581 
Q 1219 1581 811 2004 
Q 403 2428 403 3163 
Q 403 3881 828 4315 
Q 1253 4750 1959 4750 
Q 2769 4750 3195 4129 
Q 3622 3509 3622 2328 
Q 3622 1225 3098 567 
Q 2575 -91 1691 -91 
Q 1453 -91 1209 -44 
Q 966 3 703 97 
z
M 1959 2075 
Q 2384 2075 2632 2365 
Q 2881 2656 2881 3163 
Q 2881 3666 2632 3958 
Q 2384 4250 1959 4250 
Q 1534 4250 1286 3958 
Q 1038 3666 1038 3163 
Q 1038 2656 1286 2365 
Q 1534 2075 1959 2075 
z
" transform="scale(0.015625)"/>
      <path id="DejaVuSans-3a" d="M 750 794 
L 1409 794 
L 1409 0 
L 750 0 
L 750 794 
z
M 750 3309 
L 1409 3309 
L 1409 2516 
L 750 2516 
L 750 3309 
z
" transform="scale(0.015625)"/>
      <path id="DejaVuSans-4d" d="M 628 4666 
L 1569 4666 
L 2759 1491 
L 3956 4666 
L 4897 4666 
L 4897 0 
L 4281 0 
L 4281 4097 
L 3078 897 
L 2444 897 
L 1241 4097 
L 1241 0 
L 628 0 
L 628 4666 
z
" transform="scale(0.015625)"/>
      <path id="DejaVuSans-6c" d="M 603 4863 
L 1178 4863 
L 1178 0 
L 603 0 
L 603 4863 
z
" transform="scale(0.015625)"/>
      <path id="DejaVuSans-2d" d="M 313 2009 
L 1997 2009 
L 1997 1497 
L 313 1497 
L 313 2009 
z
" transform="scale(0.015625)"/>
      <path id="DejaVuSans-70" d="M 1159 525 
L 1159 -1331 
L 581 -1331 
L 581 3500 
L 1159 3500 
L 1159 2969 
Q 1341 3281 1617 3432 
Q 1894 3584 2278 3584 
Q 2916 3584 3314 3078 
Q 3713 2572 3713 1747 
Q 3713 922 3314 415 
Q 2916 -91 2278 -91 
Q 1894 -91 1617 61 
Q 1341 213 1159 525 
z
M 3116 1747 
Q 3116 2381 2855 2742 
Q 2594 3103 2138 3103 
Q 1681 3103 1420 2742 
Q 1159 2381 1159 1747 
Q 1159 1113 1420 752 
Q 1681 391 2138 391 
Q 2594 391 2855 752 
Q 3116 1113 3116 1747 
z
" transform="scale(0.015625)"/>
      <path id="DejaVuSans-53" d="M 3425 4513 
L 3425 3897 
Q 3066 4069 2747 4153 
Q 2428 4238 2131 4238 
Q 1616 4238 1336 4038 
Q 1056 3838 1056 3469 
Q 1056 3159 1242 3001 
Q 1428 2844 1947 2747 
L 2328 2669 
Q 3034 2534 3370 2195 
Q 3706 1856 3706 1288 
Q 3706 609 3251 259 
Q 2797 -91 1919 -91 
Q 1588 -91 1214 -16 
Q 841 59 441 206 
L 441 856 
Q 825 641 1194 531 
Q 1563 422 1919 422 
Q 2459 422 2753 634 
Q 3047 847 3047 1241 
Q 3047 1584 2836 1778 
Q 2625 1972 2144 2069 
L 1759 2144 
Q 1053 2284 737 2584 
Q 422 2884 422 3419 
Q 422 4038 858 4394 
Q 1294 4750 2059 4750 
Q 2388 4750 2728 4690 
Q 3069 4631 3425 4513 
z
" transform="scale(0.015625)"/>
      <path id="DejaVuSans-4f" d="M 2522 4238 
Q 1834 4238 1429 3725 
Q 1025 3213 1025 2328 
Q 1025 1447 1429 934 
Q 1834 422 2522 422 
Q 3209 422 3611 934 
Q 4013 1447 4013 2328 
Q 4013 3213 3611 3725 
Q 3209 4238 2522 4238 
z
M 2522 4750 
Q 3503 4750 4090 4092 
Q 4678 3434 4678 2328 
Q 4678 1225 4090 567 
Q 3503 -91 2522 -91 
Q 1538 -91 948 565 
Q 359 1222 359 2328 
Q 359 3434 948 4092 
Q 1538 4750 2522 4750 
z
" transform="scale(0.015625)"/>
      <path id="DejaVuSans-4c" d="M 628 4666 
L 1259 4666 
L 1259 531 
L 3531 531 
L 3531 0 
L 628 0 
L 628 4666 
z
" transform="scale(0.015625)"/>
     </defs>
     <use xlink:href="#DejaVuSans-45"/>
     <use xlink:href="#DejaVuSans-78" transform="translate(63.183594 0)"/>
     <use xlink:href="#DejaVuSans-65" transform="translate(119.238281 0)"/>
     <use xlink:href="#DejaVuSans-72" transform="translate(180.761719 0)"/>
     <use xlink:href="#DejaVuSans-63" transform="translate(219.625 0)"/>
     <use xlink:href="#DejaVuSans-69" transform="translate(274.605469 0)"/>
     <use xlink:href="#DejaVuSans-73" transform="translate(302.388672 0)"/>
     <use xlink:href="#DejaVuSans-65" transform="translate(354.488281 0)"/>
     <use xlink:href="#DejaVuSans-20" transform="translate(416.011719 0)"/>
     <use xlink:href="#DejaVuSans-33" transform="translate(447.798828 0)"/>
     <use xlink:href="#DejaVuSans-2e" transform="translate(511.421875 0)"/>
     <use xlink:href="#DejaVuSans-39" transform="translate(543.208984 0)"/>
     <use xlink:href="#DejaVuSans-3a" transform="translate(606.832031 0)"/>
     <use xlink:href="#DejaVuSans-20" transform="translate(640.523438 0)"/>
     <use xlink:href="#DejaVuSans-4d" transform="translate(672.310547 0)"/>
     <use xlink:href="#DejaVuSans-75" transform="translate(758.589844 0)"/>
     <use xlink:href="#DejaVuSans-6c" transform="translate(821.96875 0)"/>
     <use xlink:href="#DejaVuSans-74" transform="translate(849.751953 0)"/>
     <use xlink:href="#DejaVuSans-69" transform="translate(888.960938 0)"/>
     <use xlink:href="#DejaVuSans-2d" transform="translate(916.744141 0)"/>
     <use xlink:href="#DejaVuSans-73" transform="translate(952.828125 0)"/>
     <use xlink:href="#DejaVuSans-74" transform="translate(1004.927734 0)"/>
     <use xlink:href="#DejaVuSans-65" transform="translate(1044.136719 0)"/>
     <use xlink:href="#DejaVuSans-70" transform="translate(1105.660156 0)"/>
     <use xlink:href="#DejaVuSans-20" transform="translate(1169.136719 0)"/>
     <use xlink:href="#DejaVuSans-53" transform="translate(1200.923828 0)"/>
     <use xlink:href="#DejaVuSans-69" transform="translate(1264.400391 0)"/>
     <use xlink:href="#DejaVuSans-6d" transform="translate(1292.183594 0)"/>
     <use xlink:href="#DejaVuSans-75" transform="translate(1389.595703 0)"/>
     <use xlink:href="#DejaVuSans-6c" transform="translate(1452.974609 0)"/>
     <use xlink:href="#DejaVuSans-61" transform="translate(1480.757812 0)"/>
     <use xlink:href="#DejaVuSans-74" transform="translate(1542.037109 0)"/>
     <use xlink:href="#DejaVuSans-69" transform="translate(1581.246094 0)"/>
     <use xlink:href="#DejaVuSans-6f" transform="translate(1609.029297 0)"/>
     <use xlink:href="#DejaVuSans-6e" transform="translate(1670.210938 0)"/>
     <use xlink:href="#DejaVuSans-20" transform="translate(1733.589844 0)"/>
     <use xlink:href="#DejaVuSans-28" transform="translate(1765.376953 0)"/>
     <use xlink:href="#DejaVuSans-4f" transform="translate(1804.390625 0)"/>
     <use xlink:href="#DejaVuSans-70" transform="translate(1883.101562 0)"/>
     <use xlink:href="#DejaVuSans-65" transform="translate(1946.578125 0)"/>
     <use xlink:href="#DejaVuSans-6e" transform="translate(2008.101562 0)"/>
     <use xlink:href="#DejaVuSans-2d" transform="translate(2071.480469 0)"/>
     <use xlink:href="#DejaVuSans-4c" transform="translate(2107.564453 0)"/>
     <use xlink:href="#DejaVuSans-6f" transform="translate(2161.527344 0)"/>
     <use xlink:href="#DejaVuSans-6f" transform="translate(2222.708984 0)"/>
     <use xlink:href="#DejaVuSans-70" transform="translate(2283.890625 0)"/>
     <use xlink:href="#DejaVuSans-29" transform="translate(2347.367188 0)"/>
    </g>
   </g>
   <g id="legend_1">
    <g id="patch_7">
     <path d="M 53.965625 74.3525 
L 207.126563 74.3525 
Q 209.126563 74.3525 209.126563 72.3525 
L 209.126563 29.318125 
Q 209.126563 27.318125 207.126563 27.318125 
L 53.965625 27.318125 
Q 51.965625 27.318125 51.965625 29.318125 
L 51.965625 72.3525 
Q 51.965625 74.3525 53.965625 74.3525 
z
" style="fill: #ffffff; opacity: 0.8; stroke: #cccccc; stroke-linejoin: miter"/>
    </g>
    <g id="line2d_26">
     <path d="M 55.965625 35.416562 
L 65.965625 35.416562 
L 75.965625 35.416562 
" style="fill: none; stroke: #808080; stroke-opacity: 0.4; stroke-width: 1.5; stroke-linecap: square"/>
    </g>
    <g id="text_15">
     <!-- Observed Ph -->
     <g transform="translate(83.965625 38.916562) scale(0.1 -0.1)">
      <defs>
       <path id="DejaVuSans-62" d="M 3116 1747 
Q 3116 2381 2855 2742 
Q 2594 3103 2138 3103 
Q 1681 3103 1420 2742 
Q 1159 2381 1159 1747 
Q 1159 1113 1420 752 
Q 1681 391 2138 391 
Q 2594 391 2855 752 
Q 3116 1113 3116 1747 
z
M 1159 2969 
Q 1341 3281 1617 3432 
Q 1894 3584 2278 3584 
Q 2916 3584 3314 3078 
Q 3713 2572 3713 1747 
Q 3713 922 3314 415 
Q 2916 -91 2278 -91 
Q 1894 -91 1617 61 
Q 1341 213 1159 525 
L 1159 0 
L 581 0 
L 581 4863 
L 1159 4863 
L 1159 2969 
z
" transform="scale(0.015625)"/>
       <path id="DejaVuSans-76" d="M 191 3500 
L 800 3500 
L 1894 563 
L 2988 3500 
L 3597 3500 
L 2284 0 
L 1503 0 
L 191 3500 
z
" transform="scale(0.015625)"/>
       <path id="DejaVuSans-64" d="M 2906 2969 
L 2906 4863 
L 3481 4863 
L 3481 0 
L 2906 0 
L 2906 525 
Q 2725 213 2448 61 
Q 2172 -91 1784 -91 
Q 1150 -91 751 415 
Q 353 922 353 1747 
Q 353 2572 751 3078 
Q 1150 3584 1784 3584 
Q 2172 3584 2448 3432 
Q 2725 3281 2906 2969 
z
M 947 1747 
Q 947 1113 1208 752 
Q 1469 391 1925 391 
Q 2381 391 2643 752 
Q 2906 1113 2906 1747 
Q 2906 2381 2643 2742 
Q 2381 3103 1925 3103 
Q 1469 3103 1208 2742 
Q 947 2381 947 1747 
z
" transform="scale(0.015625)"/>
       <path id="DejaVuSans-68" d="M 3513 2113 
L 3513 0 
L 2938 0 
L 2938 2094 
Q 2938 2591 2744 2837 
Q 2550 3084 2163 3084 
Q 1697 3084 1428 2787 
Q 1159 2491 1159 1978 
L 1159 0 
L 581 0 
L 581 4863 
L 1159 4863 
L 1159 2956 
Q 1366 3272 1645 3428 
Q 1925 3584 2291 3584 
Q 2894 3584 3203 3211 
Q 3513 2838 3513 2113 
z
" transform="scale(0.015625)"/>
      </defs>
      <use xlink:href="#DejaVuSans-4f"/>
      <use xlink:href="#DejaVuSans-62" transform="translate(78.710938 0)"/>
      <use xlink:href="#DejaVuSans-73" transform="translate(142.1875 0)"/>
      <use xlink:href="#DejaVuSans-65" transform="translate(194.287109 0)"/>
      <use xlink:href="#DejaVuSans-72" transform="translate(255.810547 0)"/>
      <use xlink:href="#DejaVuSans-76" transform="translate(296.923828 0)"/>
      <use xlink:href="#DejaVuSans-65" transform="translate(356.103516 0)"/>
      <use xlink:href="#DejaVuSans-64" transform="translate(417.626953 0)"/>
      <use xlink:href="#DejaVuSans-20" transform="translate(481.103516 0)"/>
      <use xlink:href="#DejaVuSans-50" transform="translate(512.890625 0)"/>
      <use xlink:href="#DejaVuSans-68" transform="translate(573.193359 0)"/>
     </g>
    </g>
    <g id="line2d_27">
     <path d="M 55.965625 50.094687 
L 65.965625 50.094687 
L 75.965625 50.094687 
" style="fill: none; stroke: #dc143c; stroke-width: 1.5; stroke-linecap: square"/>
    </g>
    <g id="text_16">
     <!-- Simulated Ph (Dynamic) -->
     <g transform="translate(83.965625 53.594687) scale(0.1 -0.1)">
      <defs>
       <path id="DejaVuSans-44" d="M 1259 4147 
L 1259 519 
L 2022 519 
Q 2988 519 3436 956 
Q 3884 1394 3884 2338 
Q 3884 3275 3436 3711 
Q 2988 4147 2022 4147 
L 1259 4147 
z
M 628 4666 
L 1925 4666 
Q 3281 4666 3915 4102 
Q 4550 3538 4550 2338 
Q 4550 1131 3912 565 
Q 3275 0 1925 0 
L 628 0 
L 628 4666 
z
" transform="scale(0.015625)"/>
       <path id="DejaVuSans-79" d="M 2059 -325 
Q 1816 -950 1584 -1140 
Q 1353 -1331 966 -1331 
L 506 -1331 
L 506 -850 
L 844 -850 
Q 1081 -850 1212 -737 
Q 1344 -625 1503 -206 
L 1606 56 
L 191 3500 
L 800 3500 
L 1894 763 
L 2988 3500 
L 3597 3500 
L 2059 -325 
z
" transform="scale(0.015625)"/>
      </defs>
      <use xlink:href="#DejaVuSans-53"/>
      <use xlink:href="#DejaVuSans-69" transform="translate(63.476562 0)"/>
      <use xlink:href="#DejaVuSans-6d" transform="translate(91.259766 0)"/>
      <use xlink:href="#DejaVuSans-75" transform="translate(188.671875 0)"/>
      <use xlink:href="#DejaVuSans-6c" transform="translate(252.050781 0)"/>
      <use xlink:href="#DejaVuSans-61" transform="translate(279.833984 0)"/>
      <use xlink:href="#DejaVuSans-74" transform="translate(341.113281 0)"/>
      <use xlink:href="#DejaVuSans-65" transform="translate(380.322266 0)"/>
      <use xlink:href="#DejaVuSans-64" transform="translate(441.845703 0)"/>
      <use xlink:href="#DejaVuSans-20" transform="translate(505.322266 0)"/>
      <use xlink:href="#DejaVuSans-50" transform="translate(537.109375 0)"/>
      <use xlink:href="#DejaVuSans-68" transform="translate(597.412109 0)"/>
      <use xlink:href="#DejaVuSans-20" transform="translate(660.791016 0)"/>
      <use xlink:href="#DejaVuSans-28" transform="translate(692.578125 0)"/>
      <use xlink:href="#DejaVuSans-44" transform="translate(731.591797 0)"/>
      <use xlink:href="#DejaVuSans-79" transform="translate(808.59375 0)"/>
      <use xlink:href="#DejaVuSans-6e" transform="translate(867.773438 0)"/>
      <use xlink:href="#DejaVuSans-61" transform="translate(931.152344 0)"/>
      <use xlink:href="#DejaVuSans-6d" transform="translate(992.431641 0)"/>
      <use xlink:href="#DejaVuSans-69" transform="translate(1089.84375 0)"/>
      <use xlink:href="#DejaVuSans-63" transform="translate(1117.626953 0)"/>
      <use xlink:href="#DejaVuSans-29" transform="translate(1172.607422 0)"/>
     </g>
    </g>
    <g id="line2d_28">
     <path d="M 55.965625 64.772812 
L 65.965625 64.772812 
L 75.965625 64.772812 
" style="fill: none; stroke-dasharray: 5.55,2.4; stroke-dashoffset: 0; stroke: #000000; stroke-width: 1.5"/>
    </g>
    <g id="text_17">
     <!-- Train/Test Split -->
     <g transform="translate(83.965625 68.272812) scale(0.1 -0.1)">
      <defs>
       <path id="DejaVuSans-2f" d="M 1625 4666 
L 2156 4666 
L 531 -594 
L 0 -594 
L 1625 4666 
z
" transform="scale(0.015625)"/>
      </defs>
      <use xlink:href="#DejaVuSans-54"/>
      <use xlink:href="#DejaVuSans-72" transform="translate(46.333984 0)"/>
      <use xlink:href="#DejaVuSans-61" transform="translate(87.447266 0)"/>
      <use xlink:href="#DejaVuSans-69" transform="translate(148.726562 0)"/>
      <use xlink:href="#DejaVuSans-6e" transform="translate(176.509766 0)"/>
      <use xlink:href="#DejaVuSans-2f" transform="translate(239.888672 0)"/>
      <use xlink:href="#DejaVuSans-54" transform="translate(273.580078 0)"/>
      <use xlink:href="#DejaVuSans-65" transform="translate(317.664062 0)"/>
      <use xlink:href="#DejaVuSans-73" transform="translate(379.1875 0)"/>
      <use xlink:href="#DejaVuSans-74" transform="translate(431.287109 0)"/>
      <use xlink:href="#DejaVuSans-20" transform="translate(470.496094 0)"/>
      <use xlink:href="#DejaVuSans-53" transform="translate(502.283203 0)"/>
      <use xlink:href="#DejaVuSans-70" transform="translate(565.759766 0)"/>
      <use xlink:href="#DejaVuSans-6c" transform="translate(629.236328 0)"/>
      <use xlink:href="#DejaVuSans-69" transform="translate(657.019531 0)"/>
      <use xlink:href="#DejaVuSans-74" transform="translate(684.802734 0)"/>
     </g>
    </g>
   </g>
  </g>
 </g>
 <defs>
  <clipPath id="p6043f6f41d">
   <rect x="46.965625" y="22.318125" width="837" height="332.64"/>
  </clipPath>
 </defs>
</svg>
