<?xml version="1.0" encoding="utf-8" standalone="no"?>
<!DOCTYPE svg PUBLIC "-//W3C//DTD SVG 1.1//EN"
  "http://www.w3.org/Graphics/SVG/1.1/DTD/svg11.dtd">
<svg xmlns:xlink="http://www.w3.org/1999/xlink" width="891.165625pt" height="392.514375pt" viewBox="0 0 891.165625 392.514375" xmlns="http://www.w3.org/2000/svg" version="1.1">
 <metadata>
  <rdf:RDF xmlns:dc="http://purl.org/dc/elements/1.1/" xmlns:cc="http://creativecommons.org/ns#" xmlns:rdf="http://www.w3.org/1999/02/22-rdf-syntax-ns#">
   <cc:Work>
    <dc:type rdf:resource="http://purl.org/dc/dcmitype/StillImage"/>
    <dc:date>2026-04-10T11:37:25.514098</dc:date>
    <dc:format>image/svg+xml</dc:format>
    <dc:creator>
     <cc:Agent>
      <dc:title>Matplotlib v3.10.8, https://matplotlib.org/</dc:title>
     </cc:Agent>
    </dc:creator>
   </cc:Work>
  </rdf:RDF>
 </metadata>
 <defs>
  <style type="text/css">*{stroke-linejoin: round; stroke-linecap: butt}</style>
 </defs>
 <g id="figure_1">
  <g id="patch_1">
   <path d="M 0 392.514375 
L 891.165625 392.514375 
L 891.165625 0 
L 0 0 
z
" style="fill: #ffffff"/>
  </g>
  <g id="axes_1">
   <g id="patch_2">
    <path d="M 46.965625 354.958125 
L 883.965625 354.958125 
L 883.965625 22.318125 
L 46.965625 22.318125 
z
" style="fill: #ffffff"/>
   </g>
   <g id="FillBetweenPolyCollection_1">
    <defs>
     <path id="m727433cabf" d="M 85.01108 -222.360216 
L 85.01108 -195.291518 
L 88.31938 -200.776244 
L 91.62768 -198.773362 
L 94.935981 -196.411301 
L 98.244281 -194.278083 
L 101.552582 -192.89615 
L 104.860882 -192.240701 
L 108.169182 -190.677911 
L 111.477483 -189.7469 
L 114.785783 -184.237518 
L 118.094083 -178.977583 
L 121.402384 -178.89657 
L 124.710684 -175.448481 
L 128.018985 -91.416279 
L 131.327285 -100.381585 
L 134.635585 -126.799896 
L 137.943886 -179.724131 
L 141.252186 -201.075739 
L 144.560487 -212.273495 
L 147.868787 -221.004465 
L 151.177087 -231.499234 
L 154.485388 -236.431667 
L 157.793688 -238.713312 
L 161.101989 -241.17307 
L 164.410289 -243.301051 
L 167.718589 -244.297861 
L 171.02689 -246.761027 
L 174.33519 -245.288234 
L 177.643491 -248.70738 
L 180.951791 -254.070582 
L 184.260091 -254.595595 
L 187.568392 -255.351218 
L 190.876692 -255.161805 
L 194.184993 -237.492012 
L 197.493293 -241.874365 
L 200.801593 -249.943268 
L 204.109894 -227.631779 
L 207.418194 -143.818406 
L 210.726495 -152.371317 
L 214.034795 -181.353369 
L 217.343095 -212.243696 
L 220.651396 -221.05161 
L 223.959696 -227.374031 
L 227.267997 -234.83298 
L 230.576297 -241.124176 
L 233.884597 -243.127862 
L 237.192898 -244.755906 
L 240.501198 -246.109375 
L 243.809499 -246.91039 
L 247.117799 -249.363617 
L 250.426099 -249.909862 
L 253.7344 -250.427099 
L 257.0427 -250.894382 
L 260.351 -251.331734 
L 263.659301 -252.518658 
L 266.967601 -257.703481 
L 270.275902 -260.601908 
L 273.584202 -258.022702 
L 276.892502 -259.824066 
L 280.200803 -260.475933 
L 283.509103 -256.527428 
L 286.817404 -252.751601 
L 290.125704 -246.672909 
L 293.434004 -245.925013 
L 296.742305 -247.160348 
L 300.050605 -254.636693 
L 303.358906 -265.567169 
L 306.667206 -269.181706 
L 309.975506 -277.744848 
L 313.283807 -282.87179 
L 316.592107 -286.078962 
L 319.900408 -290.272677 
L 323.208708 -291.926286 
L 326.517008 -293.113696 
L 329.825309 -291.271966 
L 333.133609 -292.877499 
L 336.44191 -293.130282 
L 339.75021 -291.155723 
L 343.05851 -289.48496 
L 346.366811 -286.928492 
L 349.675111 -282.924111 
L 352.983412 -274.721102 
L 356.291712 -209.178484 
L 359.600012 -133.559757 
L 362.908313 -121.375436 
L 366.216613 -169.851544 
L 369.524914 -127.793761 
L 372.833214 -173.999459 
L 376.141514 -244.287991 
L 379.449815 -282.787111 
L 382.758115 -285.024868 
L 386.066416 -293.644289 
L 389.374716 -303.5759 
L 392.683016 -309.926821 
L 395.991317 -313.472945 
L 399.299617 -311.784282 
L 402.607917 -312.455229 
L 405.916218 -311.76504 
L 409.224518 -309.311605 
L 412.532819 -306.477696 
L 415.841119 -304.800013 
L 419.149419 -302.785017 
L 422.45772 -300.907925 
L 425.76602 -301.189619 
L 429.074321 -294.669899 
L 432.382621 -262.025599 
L 435.690921 -174.787911 
L 438.999222 -204.186985 
L 442.307522 -247.061241 
L 445.615823 -265.495624 
L 448.924123 -268.375711 
L 452.232423 -277.595148 
L 455.540724 -286.525523 
L 458.849024 -289.632476 
L 462.157325 -288.434465 
L 465.465625 -287.848255 
L 468.773925 -285.962121 
L 472.082226 -283.415182 
L 475.390526 -278.381061 
L 478.698827 -274.850518 
L 482.007127 -272.2734 
L 485.315427 -268.737218 
L 488.623728 -265.459719 
L 491.932028 -259.586065 
L 495.240329 -251.422877 
L 498.548629 -248.269751 
L 501.856929 -244.94912 
L 505.16523 -239.376974 
L 508.47353 -238.091883 
L 511.781831 -232.617326 
L 515.090131 -226.213341 
L 518.398431 -220.917557 
L 521.706732 -217.231298 
L 525.015032 -209.549676 
L 528.323333 -204.32335 
L 531.631633 -180.756312 
L 534.939933 -220.756438 
L 538.248234 -240.933783 
L 541.556534 -245.482804 
L 544.864834 -250.14476 
L 548.173135 -252.805202 
L 551.481435 -255.070107 
L 554.789736 -258.017816 
L 558.098036 -258.309726 
L 561.406336 -261.016558 
L 564.714637 -266.027321 
L 568.022937 -269.181133 
L 571.331238 -271.45906 
L 574.639538 -272.364112 
L 577.947838 -275.070766 
L 581.256139 -288.942517 
L 584.564439 -294.63671 
L 587.87274 -260.06701 
L 591.18104 -217.260466 
L 594.48934 -195.18664 
L 597.797641 -118.444449 
L 601.105941 -195.585535 
L 604.414242 -245.812961 
L 607.722542 -198.303108 
L 611.030842 -239.003354 
L 614.339143 -282.728902 
L 617.647443 -295.049518 
L 620.955744 -298.461494 
L 624.264044 -309.491759 
L 627.572344 -312.238708 
L 630.880645 -313.221741 
L 634.188945 -314.070509 
L 637.497246 -315.775377 
L 640.805546 -318.603484 
L 644.113846 -317.442547 
L 647.422147 -316.669046 
L 650.730447 -316.959252 
L 654.038748 -320.041995 
L 657.347048 -318.685938 
L 660.655348 -314.178934 
L 663.963649 -313.858996 
L 667.271949 -311.577922 
L 670.58025 -308.786903 
L 673.88855 -308.028324 
L 677.19685 -236.135067 
L 680.505151 -52.67625 
L 683.813451 -114.754054 
L 687.121751 -127.755153 
L 690.430052 -212.159986 
L 693.738352 -253.321886 
L 697.046653 -275.121769 
L 700.354953 -288.488512 
L 703.663253 -301.694851 
L 706.971554 -300.990441 
L 710.279854 -308.245391 
L 713.588155 -312.27793 
L 716.896455 -313.518623 
L 720.204755 -313.936047 
L 723.513056 -314.79433 
L 726.821356 -316.709484 
L 730.129657 -317.280492 
L 733.437957 -316.774241 
L 736.746257 -317.956647 
L 740.054558 -318.638748 
L 743.362858 -315.595544 
L 746.671159 -309.766486 
L 749.979459 -302.310803 
L 753.287759 -254.74064 
L 756.59606 -200.020981 
L 759.90436 -266.366015 
L 763.212661 -271.771295 
L 766.520961 -283.943747 
L 769.829261 -256.283104 
L 773.137562 -293.254772 
L 776.445862 -314.161051 
L 779.754163 -316.45188 
L 783.062463 -313.620771 
L 786.370763 -321.626804 
L 789.679064 -323.00741 
L 792.987364 -323.287495 
L 796.295665 -324.167143 
L 799.603965 -324.252329 
L 802.912265 -324.181872 
L 806.220566 -326.378553 
L 809.528866 -327.814552 
L 812.837167 -328.007552 
L 816.145467 -325.913729 
L 819.453767 -326.575163 
L 822.762068 -323.922596 
L 826.070368 -313.792614 
L 829.378668 -303.761785 
L 832.686969 -244.046188 
L 835.995269 -235.496112 
L 839.30357 -224.631875 
L 842.61187 -110.893553 
L 845.92017 -211.73362 
L 845.92017 -238.802318 
L 845.92017 -238.802318 
L 842.61187 -137.962251 
L 839.30357 -251.700573 
L 835.995269 -262.56481 
L 832.686969 -271.114886 
L 829.378668 -330.830482 
L 826.070368 -340.861312 
L 822.762068 -350.991294 
L 819.453767 -353.64386 
L 816.145467 -352.982427 
L 812.837167 -355.07625 
L 809.528866 -354.88325 
L 806.220566 -353.447251 
L 802.912265 -351.25057 
L 799.603965 -351.321027 
L 796.295665 -351.235841 
L 792.987364 -350.356193 
L 789.679064 -350.076108 
L 786.370763 -348.695502 
L 783.062463 -340.689468 
L 779.754163 -343.520577 
L 776.445862 -341.229749 
L 773.137562 -320.32347 
L 769.829261 -283.351802 
L 766.520961 -311.012445 
L 763.212661 -298.839993 
L 759.90436 -293.434713 
L 756.59606 -227.089679 
L 753.287759 -281.809338 
L 749.979459 -329.379501 
L 746.671159 -336.835183 
L 743.362858 -342.664242 
L 740.054558 -345.707446 
L 736.746257 -345.025345 
L 733.437957 -343.842939 
L 730.129657 -344.34919 
L 726.821356 -343.778182 
L 723.513056 -341.863027 
L 720.204755 -341.004745 
L 716.896455 -340.587321 
L 713.588155 -339.346628 
L 710.279854 -335.314088 
L 706.971554 -328.059138 
L 703.663253 -328.763549 
L 700.354953 -315.55721 
L 697.046653 -302.190467 
L 693.738352 -280.390583 
L 690.430052 -239.228683 
L 687.121751 -154.82385 
L 683.813451 -141.822752 
L 680.505151 -79.744948 
L 677.19685 -263.203764 
L 673.88855 -335.097022 
L 670.58025 -335.855601 
L 667.271949 -338.64662 
L 663.963649 -340.927694 
L 660.655348 -341.247631 
L 657.347048 -345.754636 
L 654.038748 -347.110692 
L 650.730447 -344.02795 
L 647.422147 -343.737744 
L 644.113846 -344.511244 
L 640.805546 -345.672182 
L 637.497246 -342.844075 
L 634.188945 -341.139207 
L 630.880645 -340.290439 
L 627.572344 -339.307406 
L 624.264044 -336.560457 
L 620.955744 -325.530191 
L 617.647443 -322.118216 
L 614.339143 -309.7976 
L 611.030842 -266.072052 
L 607.722542 -225.371805 
L 604.414242 -272.881658 
L 601.105941 -222.654233 
L 597.797641 -145.513146 
L 594.48934 -222.255338 
L 591.18104 -244.329164 
L 587.87274 -287.135708 
L 584.564439 -321.705407 
L 581.256139 -316.011215 
L 577.947838 -302.139464 
L 574.639538 -299.43281 
L 571.331238 -298.527758 
L 568.022937 -296.249831 
L 564.714637 -293.096018 
L 561.406336 -288.085255 
L 558.098036 -285.378424 
L 554.789736 -285.086514 
L 551.481435 -282.138805 
L 548.173135 -279.8739 
L 544.864834 -277.213458 
L 541.556534 -272.551502 
L 538.248234 -268.002481 
L 534.939933 -247.825136 
L 531.631633 -207.82501 
L 528.323333 -231.392047 
L 525.015032 -236.618373 
L 521.706732 -244.299996 
L 518.398431 -247.986255 
L 515.090131 -253.282039 
L 511.781831 -259.686024 
L 508.47353 -265.16058 
L 505.16523 -266.445671 
L 501.856929 -272.017818 
L 498.548629 -275.338449 
L 495.240329 -278.491575 
L 491.932028 -286.654762 
L 488.623728 -292.528417 
L 485.315427 -295.805916 
L 482.007127 -299.342098 
L 478.698827 -301.919216 
L 475.390526 -305.449759 
L 472.082226 -310.48388 
L 468.773925 -313.030819 
L 465.465625 -314.916953 
L 462.157325 -315.503162 
L 458.849024 -316.701174 
L 455.540724 -313.594221 
L 452.232423 -304.663846 
L 448.924123 -295.444409 
L 445.615823 -292.564321 
L 442.307522 -274.129939 
L 438.999222 -231.255683 
L 435.690921 -201.856608 
L 432.382621 -289.094297 
L 429.074321 -321.738597 
L 425.76602 -328.258317 
L 422.45772 -327.976623 
L 419.149419 -329.853715 
L 415.841119 -331.86871 
L 412.532819 -333.546394 
L 409.224518 -336.380303 
L 405.916218 -338.833737 
L 402.607917 -339.523927 
L 399.299617 -338.85298 
L 395.991317 -340.541643 
L 392.683016 -336.995519 
L 389.374716 -330.644598 
L 386.066416 -320.712987 
L 382.758115 -312.093566 
L 379.449815 -309.855808 
L 376.141514 -271.356689 
L 372.833214 -201.068157 
L 369.524914 -154.862459 
L 366.216613 -196.920241 
L 362.908313 -148.444133 
L 359.600012 -160.628455 
L 356.291712 -236.247181 
L 352.983412 -301.7898 
L 349.675111 -309.992809 
L 346.366811 -313.997189 
L 343.05851 -316.553658 
L 339.75021 -318.22442 
L 336.44191 -320.19898 
L 333.133609 -319.946197 
L 329.825309 -318.340664 
L 326.517008 -320.182394 
L 323.208708 -318.994984 
L 319.900408 -317.341375 
L 316.592107 -313.14766 
L 313.283807 -309.940488 
L 309.975506 -304.813546 
L 306.667206 -296.250404 
L 303.358906 -292.635867 
L 300.050605 -281.705391 
L 296.742305 -274.229046 
L 293.434004 -272.993711 
L 290.125704 -273.741607 
L 286.817404 -279.820299 
L 283.509103 -283.596126 
L 280.200803 -287.544631 
L 276.892502 -286.892764 
L 273.584202 -285.091399 
L 270.275902 -287.670606 
L 266.967601 -284.772179 
L 263.659301 -279.587356 
L 260.351 -278.400431 
L 257.0427 -277.96308 
L 253.7344 -277.495797 
L 250.426099 -276.97856 
L 247.117799 -276.432314 
L 243.809499 -273.979088 
L 240.501198 -273.178073 
L 237.192898 -271.824604 
L 233.884597 -270.19656 
L 230.576297 -268.192874 
L 227.267997 -261.901678 
L 223.959696 -254.442729 
L 220.651396 -248.120308 
L 217.343095 -239.312393 
L 214.034795 -208.422067 
L 210.726495 -179.440014 
L 207.418194 -170.887103 
L 204.109894 -254.700476 
L 200.801593 -277.011966 
L 197.493293 -268.943062 
L 194.184993 -264.560709 
L 190.876692 -282.230503 
L 187.568392 -282.419915 
L 184.260091 -281.664291 
L 180.951791 -281.139277 
L 177.643491 -275.776073 
L 174.33519 -272.356925 
L 171.02689 -273.829713 
L 167.718589 -271.366539 
L 164.410289 -270.369716 
L 161.101989 -268.241712 
L 157.793688 -265.781915 
L 154.485388 -263.500205 
L 151.177087 -258.567663 
L 147.868787 -248.07271 
L 144.560487 -239.34143 
L 141.252186 -228.143151 
L 137.943886 -206.790661 
L 134.635585 -153.86494 
L 131.327285 -127.444122 
L 128.018985 -118.474593 
L 124.710684 -202.499672 
L 121.402384 -205.935755 
L 118.094083 -205.996502 
L 114.785783 -211.2223 
L 111.477483 -216.673827 
L 108.169182 -217.507826 
L 104.860882 -218.903358 
L 101.552582 -219.285386 
L 98.244281 -220.158819 
L 94.935981 -221.567062 
L 91.62768 -222.039957 
L 88.31938 -222.948743 
L 85.01108 -222.360216 
z
" style="stroke: #dc143c; stroke-opacity: 0.1"/>
    </defs>
    <g clip-path="url(#pa6c2b7a7df)">
     <use xlink:href="#m727433cabf" x="0" y="392.514375" style="fill: #dc143c; fill-opacity: 0.1; stroke: #dc143c; stroke-opacity: 0.1"/>
    </g>
   </g>
   <g id="matplotlib.axis_1">
    <g id="xtick_1">
     <g id="line2d_1">
      <path d="M 85.01108 354.958125 
L 85.01108 22.318125 
" clip-path="url(#pa6c2b7a7df)" style="fill: none; stroke: #b0b0b0; stroke-opacity: 0.3; stroke-width: 0.8; stroke-linecap: square"/>
     </g>
     <g id="line2d_2">
      <defs>
       <path id="mef89a8fd57" d="M 0 0 
L 0 3.5 
" style="stroke: #000000; stroke-width: 0.8"/>
      </defs>
      <g>
       <use xlink:href="#mef89a8fd57" x="85.01108" y="354.958125" style="stroke: #000000; stroke-width: 0.8"/>
      </g>
     </g>
     <g id="text_1">
      <!-- 0 -->
      <g transform="translate(81.82983 369.556562) scale(0.1 -0.1)">
       <defs>
        <path id="DejaVuSans-30" d="M 2034 4250 
Q 1547 4250 1301 3770 
Q 1056 3291 1056 2328 
Q 1056 1369 1301 889 
Q 1547 409 2034 409 
Q 2525 409 2770 889 
Q 3016 1369 3016 2328 
Q 3016 3291 2770 3770 
Q 2525 4250 2034 4250 
z
M 2034 4750 
Q 2819 4750 3233 4129 
Q 3647 3509 3647 2328 
Q 3647 1150 3233 529 
Q 2819 -91 2034 -91 
Q 1250 -91 836 529 
Q 422 1150 422 2328 
Q 422 3509 836 4129 
Q 1250 4750 2034 4750 
z
" transform="scale(0.015625)"/>
       </defs>
       <use xlink:href="#DejaVuSans-30"/>
      </g>
     </g>
    </g>
    <g id="xtick_2">
     <g id="line2d_3">
      <path d="M 250.426099 354.958125 
L 250.426099 22.318125 
" clip-path="url(#pa6c2b7a7df)" style="fill: none; stroke: #b0b0b0; stroke-opacity: 0.3; stroke-width: 0.8; stroke-linecap: square"/>
     </g>
     <g id="line2d_4">
      <g>
       <use xlink:href="#mef89a8fd57" x="250.426099" y="354.958125" style="stroke: #000000; stroke-width: 0.8"/>
      </g>
     </g>
     <g id="text_2">
      <!-- 50 -->
      <g transform="translate(244.063599 369.556562) scale(0.1 -0.1)">
       <defs>
        <path id="DejaVuSans-35" d="M 691 4666 
L 3169 4666 
L 3169 4134 
L 1269 4134 
L 1269 2991 
Q 1406 3038 1543 3061 
Q 1681 3084 1819 3084 
Q 2600 3084 3056 2656 
Q 3513 2228 3513 1497 
Q 3513 744 3044 326 
Q 2575 -91 1722 -91 
Q 1428 -91 1123 -41 
Q 819 9 494 109 
L 494 744 
Q 775 591 1075 516 
Q 1375 441 1709 441 
Q 2250 441 2565 725 
Q 2881 1009 2881 1497 
Q 2881 1984 2565 2268 
Q 2250 2553 1709 2553 
Q 1456 2553 1204 2497 
Q 953 2441 691 2322 
L 691 4666 
z
" transform="scale(0.015625)"/>
       </defs>
       <use xlink:href="#DejaVuSans-35"/>
       <use xlink:href="#DejaVuSans-30" transform="translate(63.623047 0)"/>
      </g>
     </g>
    </g>
    <g id="xtick_3">
     <g id="line2d_5">
      <path d="M 415.841119 354.958125 
L 415.841119 22.318125 
" clip-path="url(#pa6c2b7a7df)" style="fill: none; stroke: #b0b0b0; stroke-opacity: 0.3; stroke-width: 0.8; stroke-linecap: square"/>
     </g>
     <g id="line2d_6">
      <g>
       <use xlink:href="#mef89a8fd57" x="415.841119" y="354.958125" style="stroke: #000000; stroke-width: 0.8"/>
      </g>
     </g>
     <g id="text_3">
      <!-- 100 -->
      <g transform="translate(406.297369 369.556562) scale(0.1 -0.1)">
       <defs>
        <path id="DejaVuSans-31" d="M 794 531 
L 1825 531 
L 1825 4091 
L 703 3866 
L 703 4441 
L 1819 4666 
L 2450 4666 
L 2450 531 
L 3481 531 
L 3481 0 
L 794 0 
L 794 531 
z
" transform="scale(0.015625)"/>
       </defs>
       <use xlink:href="#DejaVuSans-31"/>
       <use xlink:href="#DejaVuSans-30" transform="translate(63.623047 0)"/>
       <use xlink:href="#DejaVuSans-30" transform="translate(127.246094 0)"/>
      </g>
     </g>
    </g>
    <g id="xtick_4">
     <g id="line2d_7">
      <path d="M 581.256139 354.958125 
L 581.256139 22.318125 
" clip-path="url(#pa6c2b7a7df)" style="fill: none; stroke: #b0b0b0; stroke-opacity: 0.3; stroke-width: 0.8; stroke-linecap: square"/>
     </g>
     <g id="line2d_8">
      <g>
       <use xlink:href="#mef89a8fd57" x="581.256139" y="354.958125" style="stroke: #000000; stroke-width: 0.8"/>
      </g>
     </g>
     <g id="text_4">
      <!-- 150 -->
      <g transform="translate(571.712389 369.556562) scale(0.1 -0.1)">
       <use xlink:href="#DejaVuSans-31"/>
       <use xlink:href="#DejaVuSans-35" transform="translate(63.623047 0)"/>
       <use xlink:href="#DejaVuSans-30" transform="translate(127.246094 0)"/>
      </g>
     </g>
    </g>
    <g id="xtick_5">
     <g id="line2d_9">
      <path d="M 746.671159 354.958125 
L 746.671159 22.318125 
" clip-path="url(#pa6c2b7a7df)" style="fill: none; stroke: #b0b0b0; stroke-opacity: 0.3; stroke-width: 0.8; stroke-linecap: square"/>
     </g>
     <g id="line2d_10">
      <g>
       <use xlink:href="#mef89a8fd57" x="746.671159" y="354.958125" style="stroke: #000000; stroke-width: 0.8"/>
      </g>
     </g>
     <g id="text_5">
      <!-- 200 -->
      <g transform="translate(737.127409 369.556562) scale(0.1 -0.1)">
       <defs>
        <path id="DejaVuSans-32" d="M 1228 531 
L 3431 531 
L 3431 0 
L 469 0 
L 469 531 
Q 828 903 1448 1529 
Q 2069 2156 2228 2338 
Q 2531 2678 2651 2914 
Q 2772 3150 2772 3378 
Q 2772 3750 2511 3984 
Q 2250 4219 1831 4219 
Q 1534 4219 1204 4116 
Q 875 4013 500 3803 
L 500 4441 
Q 881 4594 1212 4672 
Q 1544 4750 1819 4750 
Q 2544 4750 2975 4387 
Q 3406 4025 3406 3419 
Q 3406 3131 3298 2873 
Q 3191 2616 2906 2266 
Q 2828 2175 2409 1742 
Q 1991 1309 1228 531 
z
" transform="scale(0.015625)"/>
       </defs>
       <use xlink:href="#DejaVuSans-32"/>
       <use xlink:href="#DejaVuSans-30" transform="translate(63.623047 0)"/>
       <use xlink:href="#DejaVuSans-30" transform="translate(127.246094 0)"/>
      </g>
     </g>
    </g>
    <g id="text_6">
     <!-- Time (Hours) -->
     <g transform="translate(433.092969 383.234687) scale(0.1 -0.1)">
      <defs>
       <path id="DejaVuSans-54" d="M -19 4666 
L 3928 4666 
L 3928 4134 
L 2272 4134 
L 2272 0 
L 1638 0 
L 1638 4134 
L -19 4134 
L -19 4666 
z
" transform="scale(0.015625)"/>
       <path id="DejaVuSans-69" d="M 603 3500 
L 1178 3500 
L 1178 0 
L 603 0 
L 603 3500 
z
M 603 4863 
L 1178 4863 
L 1178 4134 
L 603 4134 
L 603 4863 
z
" transform="scale(0.015625)"/>
       <path id="DejaVuSans-6d" d="M 3328 2828 
Q 3544 3216 3844 3400 
Q 4144 3584 4550 3584 
Q 5097 3584 5394 3201 
Q 5691 2819 5691 2113 
L 5691 0 
L 5113 0 
L 5113 2094 
Q 5113 2597 4934 2840 
Q 4756 3084 4391 3084 
Q 3944 3084 3684 2787 
Q 3425 2491 3425 1978 
L 3425 0 
L 2847 0 
L 2847 2094 
Q 2847 2600 2669 2842 
Q 2491 3084 2119 3084 
Q 1678 3084 1418 2786 
Q 1159 2488 1159 1978 
L 1159 0 
L 581 0 
L 581 3500 
L 1159 3500 
L 1159 2956 
Q 1356 3278 1631 3431 
Q 1906 3584 2284 3584 
Q 2666 3584 2933 3390 
Q 3200 3197 3328 2828 
z
" transform="scale(0.015625)"/>
       <path id="DejaVuSans-65" d="M 3597 1894 
L 3597 1613 
L 953 1613 
Q 991 1019 1311 708 
Q 1631 397 2203 397 
Q 2534 397 2845 478 
Q 3156 559 3463 722 
L 3463 178 
Q 3153 47 2828 -22 
Q 2503 -91 2169 -91 
Q 1331 -91 842 396 
Q 353 884 353 1716 
Q 353 2575 817 3079 
Q 1281 3584 2069 3584 
Q 2775 3584 3186 3129 
Q 3597 2675 3597 1894 
z
M 3022 2063 
Q 3016 2534 2758 2815 
Q 2500 3097 2075 3097 
Q 1594 3097 1305 2825 
Q 1016 2553 972 2059 
L 3022 2063 
z
" transform="scale(0.015625)"/>
       <path id="DejaVuSans-20" transform="scale(0.015625)"/>
       <path id="DejaVuSans-28" d="M 1984 4856 
Q 1566 4138 1362 3434 
Q 1159 2731 1159 2009 
Q 1159 1288 1364 580 
Q 1569 -128 1984 -844 
L 1484 -844 
Q 1016 -109 783 600 
Q 550 1309 550 2009 
Q 550 2706 781 3412 
Q 1013 4119 1484 4856 
L 1984 4856 
z
" transform="scale(0.015625)"/>
       <path id="DejaVuSans-48" d="M 628 4666 
L 1259 4666 
L 1259 2753 
L 3553 2753 
L 3553 4666 
L 4184 4666 
L 4184 0 
L 3553 0 
L 3553 2222 
L 1259 2222 
L 1259 0 
L 628 0 
L 628 4666 
z
" transform="scale(0.015625)"/>
       <path id="DejaVuSans-6f" d="M 1959 3097 
Q 1497 3097 1228 2736 
Q 959 2375 959 1747 
Q 959 1119 1226 758 
Q 1494 397 1959 397 
Q 2419 397 2687 759 
Q 2956 1122 2956 1747 
Q 2956 2369 2687 2733 
Q 2419 3097 1959 3097 
z
M 1959 3584 
Q 2709 3584 3137 3096 
Q 3566 2609 3566 1747 
Q 3566 888 3137 398 
Q 2709 -91 1959 -91 
Q 1206 -91 779 398 
Q 353 888 353 1747 
Q 353 2609 779 3096 
Q 1206 3584 1959 3584 
z
" transform="scale(0.015625)"/>
       <path id="DejaVuSans-75" d="M 544 1381 
L 544 3500 
L 1119 3500 
L 1119 1403 
Q 1119 906 1312 657 
Q 1506 409 1894 409 
Q 2359 409 2629 706 
Q 2900 1003 2900 1516 
L 2900 3500 
L 3475 3500 
L 3475 0 
L 2900 0 
L 2900 538 
Q 2691 219 2414 64 
Q 2138 -91 1772 -91 
Q 1169 -91 856 284 
Q 544 659 544 1381 
z
M 1991 3584 
L 1991 3584 
z
" transform="scale(0.015625)"/>
       <path id="DejaVuSans-72" d="M 2631 2963 
Q 2534 3019 2420 3045 
Q 2306 3072 2169 3072 
Q 1681 3072 1420 2755 
Q 1159 2438 1159 1844 
L 1159 0 
L 581 0 
L 581 3500 
L 1159 3500 
L 1159 2956 
Q 1341 3275 1631 3429 
Q 1922 3584 2338 3584 
Q 2397 3584 2469 3576 
Q 2541 3569 2628 3553 
L 2631 2963 
z
" transform="scale(0.015625)"/>
       <path id="DejaVuSans-73" d="M 2834 3397 
L 2834 2853 
Q 2591 2978 2328 3040 
Q 2066 3103 1784 3103 
Q 1356 3103 1142 2972 
Q 928 2841 928 2578 
Q 928 2378 1081 2264 
Q 1234 2150 1697 2047 
L 1894 2003 
Q 2506 1872 2764 1633 
Q 3022 1394 3022 966 
Q 3022 478 2636 193 
Q 2250 -91 1575 -91 
Q 1294 -91 989 -36 
Q 684 19 347 128 
L 347 722 
Q 666 556 975 473 
Q 1284 391 1588 391 
Q 1994 391 2212 530 
Q 2431 669 2431 922 
Q 2431 1156 2273 1281 
Q 2116 1406 1581 1522 
L 1381 1569 
Q 847 1681 609 1914 
Q 372 2147 372 2553 
Q 372 3047 722 3315 
Q 1072 3584 1716 3584 
Q 2034 3584 2315 3537 
Q 2597 3491 2834 3397 
z
" transform="scale(0.015625)"/>
       <path id="DejaVuSans-29" d="M 513 4856 
L 1013 4856 
Q 1481 4119 1714 3412 
Q 1947 2706 1947 2009 
Q 1947 1309 1714 600 
Q 1481 -109 1013 -844 
L 513 -844 
Q 928 -128 1133 580 
Q 1338 1288 1338 2009 
Q 1338 2731 1133 3434 
Q 928 4138 513 4856 
z
" transform="scale(0.015625)"/>
      </defs>
      <use xlink:href="#DejaVuSans-54"/>
      <use xlink:href="#DejaVuSans-69" transform="translate(57.958984 0)"/>
      <use xlink:href="#DejaVuSans-6d" transform="translate(85.742188 0)"/>
      <use xlink:href="#DejaVuSans-65" transform="translate(183.154297 0)"/>
      <use xlink:href="#DejaVuSans-20" transform="translate(244.677734 0)"/>
      <use xlink:href="#DejaVuSans-28" transform="translate(276.464844 0)"/>
      <use xlink:href="#DejaVuSans-48" transform="translate(315.478516 0)"/>
      <use xlink:href="#DejaVuSans-6f" transform="translate(390.673828 0)"/>
      <use xlink:href="#DejaVuSans-75" transform="translate(451.855469 0)"/>
      <use xlink:href="#DejaVuSans-72" transform="translate(515.234375 0)"/>
      <use xlink:href="#DejaVuSans-73" transform="translate(556.347656 0)"/>
      <use xlink:href="#DejaVuSans-29" transform="translate(608.447266 0)"/>
     </g>
    </g>
   </g>
   <g id="matplotlib.axis_2">
    <g id="ytick_1">
     <g id="line2d_11">
      <path d="M 46.965625 331.179685 
L 883.965625 331.179685 
" clip-path="url(#pa6c2b7a7df)" style="fill: none; stroke: #b0b0b0; stroke-opacity: 0.3; stroke-width: 0.8; stroke-linecap: square"/>
     </g>
     <g id="line2d_12">
      <defs>
       <path id="ma26d907327" d="M 0 0 
L -3.5 0 
" style="stroke: #000000; stroke-width: 0.8"/>
      </defs>
      <g>
       <use xlink:href="#ma26d907327" x="46.965625" y="331.179685" style="stroke: #000000; stroke-width: 0.8"/>
      </g>
     </g>
     <g id="text_7">
      <!-- 0 -->
      <g transform="translate(33.603125 334.978904) scale(0.1 -0.1)">
       <use xlink:href="#DejaVuSans-30"/>
      </g>
     </g>
    </g>
    <g id="ytick_2">
     <g id="line2d_13">
      <path d="M 46.965625 275.57136 
L 883.965625 275.57136 
" clip-path="url(#pa6c2b7a7df)" style="fill: none; stroke: #b0b0b0; stroke-opacity: 0.3; stroke-width: 0.8; stroke-linecap: square"/>
     </g>
     <g id="line2d_14">
      <g>
       <use xlink:href="#ma26d907327" x="46.965625" y="275.57136" style="stroke: #000000; stroke-width: 0.8"/>
      </g>
     </g>
     <g id="text_8">
      <!-- 20 -->
      <g transform="translate(27.240625 279.370579) scale(0.1 -0.1)">
       <use xlink:href="#DejaVuSans-32"/>
       <use xlink:href="#DejaVuSans-30" transform="translate(63.623047 0)"/>
      </g>
     </g>
    </g>
    <g id="ytick_3">
     <g id="line2d_15">
      <path d="M 46.965625 219.963035 
L 883.965625 219.963035 
" clip-path="url(#pa6c2b7a7df)" style="fill: none; stroke: #b0b0b0; stroke-opacity: 0.3; stroke-width: 0.8; stroke-linecap: square"/>
     </g>
     <g id="line2d_16">
      <g>
       <use xlink:href="#ma26d907327" x="46.965625" y="219.963035" style="stroke: #000000; stroke-width: 0.8"/>
      </g>
     </g>
     <g id="text_9">
      <!-- 40 -->
      <g transform="translate(27.240625 223.762254) scale(0.1 -0.1)">
       <defs>
        <path id="DejaVuSans-34" d="M 2419 4116 
L 825 1625 
L 2419 1625 
L 2419 4116 
z
M 2253 4666 
L 3047 4666 
L 3047 1625 
L 3713 1625 
L 3713 1100 
L 3047 1100 
L 3047 0 
L 2419 0 
L 2419 1100 
L 313 1100 
L 313 1709 
L 2253 4666 
z
" transform="scale(0.015625)"/>
       </defs>
       <use xlink:href="#DejaVuSans-34"/>
       <use xlink:href="#DejaVuSans-30" transform="translate(63.623047 0)"/>
      </g>
     </g>
    </g>
    <g id="ytick_4">
     <g id="line2d_17">
      <path d="M 46.965625 164.35471 
L 883.965625 164.35471 
" clip-path="url(#pa6c2b7a7df)" style="fill: none; stroke: #b0b0b0; stroke-opacity: 0.3; stroke-width: 0.8; stroke-linecap: square"/>
     </g>
     <g id="line2d_18">
      <g>
       <use xlink:href="#ma26d907327" x="46.965625" y="164.35471" style="stroke: #000000; stroke-width: 0.8"/>
      </g>
     </g>
     <g id="text_10">
      <!-- 60 -->
      <g transform="translate(27.240625 168.153929) scale(0.1 -0.1)">
       <defs>
        <path id="DejaVuSans-36" d="M 2113 2584 
Q 1688 2584 1439 2293 
Q 1191 2003 1191 1497 
Q 1191 994 1439 701 
Q 1688 409 2113 409 
Q 2538 409 2786 701 
Q 3034 994 3034 1497 
Q 3034 2003 2786 2293 
Q 2538 2584 2113 2584 
z
M 3366 4563 
L 3366 3988 
Q 3128 4100 2886 4159 
Q 2644 4219 2406 4219 
Q 1781 4219 1451 3797 
Q 1122 3375 1075 2522 
Q 1259 2794 1537 2939 
Q 1816 3084 2150 3084 
Q 2853 3084 3261 2657 
Q 3669 2231 3669 1497 
Q 3669 778 3244 343 
Q 2819 -91 2113 -91 
Q 1303 -91 875 529 
Q 447 1150 447 2328 
Q 447 3434 972 4092 
Q 1497 4750 2381 4750 
Q 2619 4750 2861 4703 
Q 3103 4656 3366 4563 
z
" transform="scale(0.015625)"/>
       </defs>
       <use xlink:href="#DejaVuSans-36"/>
       <use xlink:href="#DejaVuSans-30" transform="translate(63.623047 0)"/>
      </g>
     </g>
    </g>
    <g id="ytick_5">
     <g id="line2d_19">
      <path d="M 46.965625 108.746385 
L 883.965625 108.746385 
" clip-path="url(#pa6c2b7a7df)" style="fill: none; stroke: #b0b0b0; stroke-opacity: 0.3; stroke-width: 0.8; stroke-linecap: square"/>
     </g>
     <g id="line2d_20">
      <g>
       <use xlink:href="#ma26d907327" x="46.965625" y="108.746385" style="stroke: #000000; stroke-width: 0.8"/>
      </g>
     </g>
     <g id="text_11">
      <!-- 80 -->
      <g transform="translate(27.240625 112.545604) scale(0.1 -0.1)">
       <defs>
        <path id="DejaVuSans-38" d="M 2034 2216 
Q 1584 2216 1326 1975 
Q 1069 1734 1069 1313 
Q 1069 891 1326 650 
Q 1584 409 2034 409 
Q 2484 409 2743 651 
Q 3003 894 3003 1313 
Q 3003 1734 2745 1975 
Q 2488 2216 2034 2216 
z
M 1403 2484 
Q 997 2584 770 2862 
Q 544 3141 544 3541 
Q 544 4100 942 4425 
Q 1341 4750 2034 4750 
Q 2731 4750 3128 4425 
Q 3525 4100 3525 3541 
Q 3525 3141 3298 2862 
Q 3072 2584 2669 2484 
Q 3125 2378 3379 2068 
Q 3634 1759 3634 1313 
Q 3634 634 3220 271 
Q 2806 -91 2034 -91 
Q 1263 -91 848 271 
Q 434 634 434 1313 
Q 434 1759 690 2068 
Q 947 2378 1403 2484 
z
M 1172 3481 
Q 1172 3119 1398 2916 
Q 1625 2713 2034 2713 
Q 2441 2713 2670 2916 
Q 2900 3119 2900 3481 
Q 2900 3844 2670 4047 
Q 2441 4250 2034 4250 
Q 1625 4250 1398 4047 
Q 1172 3844 1172 3481 
z
" transform="scale(0.015625)"/>
       </defs>
       <use xlink:href="#DejaVuSans-38"/>
       <use xlink:href="#DejaVuSans-30" transform="translate(63.623047 0)"/>
      </g>
     </g>
    </g>
    <g id="ytick_6">
     <g id="line2d_21">
      <path d="M 46.965625 53.13806 
L 883.965625 53.13806 
" clip-path="url(#pa6c2b7a7df)" style="fill: none; stroke: #b0b0b0; stroke-opacity: 0.3; stroke-width: 0.8; stroke-linecap: square"/>
     </g>
     <g id="line2d_22">
      <g>
       <use xlink:href="#ma26d907327" x="46.965625" y="53.13806" style="stroke: #000000; stroke-width: 0.8"/>
      </g>
     </g>
     <g id="text_12">
      <!-- 100 -->
      <g transform="translate(20.878125 56.937279) scale(0.1 -0.1)">
       <use xlink:href="#DejaVuSans-31"/>
       <use xlink:href="#DejaVuSans-30" transform="translate(63.623047 0)"/>
       <use xlink:href="#DejaVuSans-30" transform="translate(127.246094 0)"/>
      </g>
     </g>
    </g>
    <g id="text_13">
     <!-- Heating Power [W] -->
     <g transform="translate(14.798438 235.368594) rotate(-90) scale(0.1 -0.1)">
      <defs>
       <path id="DejaVuSans-61" d="M 2194 1759 
Q 1497 1759 1228 1600 
Q 959 1441 959 1056 
Q 959 750 1161 570 
Q 1363 391 1709 391 
Q 2188 391 2477 730 
Q 2766 1069 2766 1631 
L 2766 1759 
L 2194 1759 
z
M 3341 1997 
L 3341 0 
L 2766 0 
L 2766 531 
Q 2569 213 2275 61 
Q 1981 -91 1556 -91 
Q 1019 -91 701 211 
Q 384 513 384 1019 
Q 384 1609 779 1909 
Q 1175 2209 1959 2209 
L 2766 2209 
L 2766 2266 
Q 2766 2663 2505 2880 
Q 2244 3097 1772 3097 
Q 1472 3097 1187 3025 
Q 903 2953 641 2809 
L 641 3341 
Q 956 3463 1253 3523 
Q 1550 3584 1831 3584 
Q 2591 3584 2966 3190 
Q 3341 2797 3341 1997 
z
" transform="scale(0.015625)"/>
       <path id="DejaVuSans-74" d="M 1172 4494 
L 1172 3500 
L 2356 3500 
L 2356 3053 
L 1172 3053 
L 1172 1153 
Q 1172 725 1289 603 
Q 1406 481 1766 481 
L 2356 481 
L 2356 0 
L 1766 0 
Q 1100 0 847 248 
Q 594 497 594 1153 
L 594 3053 
L 172 3053 
L 172 3500 
L 594 3500 
L 594 4494 
L 1172 4494 
z
" transform="scale(0.015625)"/>
       <path id="DejaVuSans-6e" d="M 3513 2113 
L 3513 0 
L 2938 0 
L 2938 2094 
Q 2938 2591 2744 2837 
Q 2550 3084 2163 3084 
Q 1697 3084 1428 2787 
Q 1159 2491 1159 1978 
L 1159 0 
L 581 0 
L 581 3500 
L 1159 3500 
L 1159 2956 
Q 1366 3272 1645 3428 
Q 1925 3584 2291 3584 
Q 2894 3584 3203 3211 
Q 3513 2838 3513 2113 
z
" transform="scale(0.015625)"/>
       <path id="DejaVuSans-67" d="M 2906 1791 
Q 2906 2416 2648 2759 
Q 2391 3103 1925 3103 
Q 1463 3103 1205 2759 
Q 947 2416 947 1791 
Q 947 1169 1205 825 
Q 1463 481 1925 481 
Q 2391 481 2648 825 
Q 2906 1169 2906 1791 
z
M 3481 434 
Q 3481 -459 3084 -895 
Q 2688 -1331 1869 -1331 
Q 1566 -1331 1297 -1286 
Q 1028 -1241 775 -1147 
L 775 -588 
Q 1028 -725 1275 -790 
Q 1522 -856 1778 -856 
Q 2344 -856 2625 -561 
Q 2906 -266 2906 331 
L 2906 616 
Q 2728 306 2450 153 
Q 2172 0 1784 0 
Q 1141 0 747 490 
Q 353 981 353 1791 
Q 353 2603 747 3093 
Q 1141 3584 1784 3584 
Q 2172 3584 2450 3431 
Q 2728 3278 2906 2969 
L 2906 3500 
L 3481 3500 
L 3481 434 
z
" transform="scale(0.015625)"/>
       <path id="DejaVuSans-50" d="M 1259 4147 
L 1259 2394 
L 2053 2394 
Q 2494 2394 2734 2622 
Q 2975 2850 2975 3272 
Q 2975 3691 2734 3919 
Q 2494 4147 2053 4147 
L 1259 4147 
z
M 628 4666 
L 2053 4666 
Q 2838 4666 3239 4311 
Q 3641 3956 3641 3272 
Q 3641 2581 3239 2228 
Q 2838 1875 2053 1875 
L 1259 1875 
L 1259 0 
L 628 0 
L 628 4666 
z
" transform="scale(0.015625)"/>
       <path id="DejaVuSans-77" d="M 269 3500 
L 844 3500 
L 1563 769 
L 2278 3500 
L 2956 3500 
L 3675 769 
L 4391 3500 
L 4966 3500 
L 4050 0 
L 3372 0 
L 2619 2869 
L 1863 0 
L 1184 0 
L 269 3500 
z
" transform="scale(0.015625)"/>
       <path id="DejaVuSans-5b" d="M 550 4863 
L 1875 4863 
L 1875 4416 
L 1125 4416 
L 1125 -397 
L 1875 -397 
L 1875 -844 
L 550 -844 
L 550 4863 
z
" transform="scale(0.015625)"/>
       <path id="DejaVuSans-57" d="M 213 4666 
L 850 4666 
L 1831 722 
L 2809 4666 
L 3519 4666 
L 4500 722 
L 5478 4666 
L 6119 4666 
L 4947 0 
L 4153 0 
L 3169 4050 
L 2175 0 
L 1381 0 
L 213 4666 
z
" transform="scale(0.015625)"/>
       <path id="DejaVuSans-5d" d="M 1947 4863 
L 1947 -844 
L 622 -844 
L 622 -397 
L 1369 -397 
L 1369 4416 
L 622 4416 
L 622 4863 
L 1947 4863 
z
" transform="scale(0.015625)"/>
      </defs>
      <use xlink:href="#DejaVuSans-48"/>
      <use xlink:href="#DejaVuSans-65" transform="translate(75.195312 0)"/>
      <use xlink:href="#DejaVuSans-61" transform="translate(136.71875 0)"/>
      <use xlink:href="#DejaVuSans-74" transform="translate(197.998047 0)"/>
      <use xlink:href="#DejaVuSans-69" transform="translate(237.207031 0)"/>
      <use xlink:href="#DejaVuSans-6e" transform="translate(264.990234 0)"/>
      <use xlink:href="#DejaVuSans-67" transform="translate(328.369141 0)"/>
      <use xlink:href="#DejaVuSans-20" transform="translate(391.845703 0)"/>
      <use xlink:href="#DejaVuSans-50" transform="translate(423.632812 0)"/>
      <use xlink:href="#DejaVuSans-6f" transform="translate(480.310547 0)"/>
      <use xlink:href="#DejaVuSans-77" transform="translate(541.492188 0)"/>
      <use xlink:href="#DejaVuSans-65" transform="translate(623.279297 0)"/>
      <use xlink:href="#DejaVuSans-72" transform="translate(684.802734 0)"/>
      <use xlink:href="#DejaVuSans-20" transform="translate(725.916016 0)"/>
      <use xlink:href="#DejaVuSans-5b" transform="translate(757.703125 0)"/>
      <use xlink:href="#DejaVuSans-57" transform="translate(796.716797 0)"/>
      <use xlink:href="#DejaVuSans-5d" transform="translate(895.59375 0)"/>
     </g>
    </g>
   </g>
   <g id="line2d_23">
    <path d="M 85.01108 175.476375 
L 88.31938 181.037207 
L 91.62768 178.256791 
L 94.935981 181.037207 
L 101.552582 181.037207 
L 104.860882 183.817624 
L 108.169182 181.037207 
L 114.785783 186.59804 
L 118.094083 192.158872 
L 121.402384 192.158872 
L 124.710684 197.719705 
L 128.018985 283.912609 
L 131.327285 256.108446 
L 134.635585 258.888862 
L 137.943886 200.500121 
L 141.252186 183.817624 
L 144.560487 169.915542 
L 154.485388 144.891796 
L 161.101989 133.770131 
L 164.410289 133.770131 
L 167.718589 128.209299 
L 171.02689 130.989715 
L 177.643491 125.428882 
L 180.951791 128.209299 
L 187.568392 122.648466 
L 190.876692 122.648466 
L 194.184993 139.330964 
L 197.493293 130.989715 
L 200.801593 128.209299 
L 204.109894 133.770131 
L 207.418194 233.865116 
L 210.726495 228.304284 
L 214.034795 192.158872 
L 217.343095 158.793877 
L 220.651396 147.672212 
L 223.959696 144.891796 
L 227.267997 139.330964 
L 237.192898 130.989715 
L 240.501198 130.989715 
L 243.809499 128.209299 
L 250.426099 128.209299 
L 253.7344 125.428882 
L 257.0427 128.209299 
L 260.351 125.428882 
L 263.659301 128.209299 
L 266.967601 122.648466 
L 286.817404 122.648466 
L 290.125704 130.989715 
L 293.434004 130.989715 
L 300.050605 125.428882 
L 303.358906 119.86805 
L 306.667206 117.087634 
L 316.592107 100.405136 
L 319.900408 100.405136 
L 329.825309 92.063887 
L 333.133609 92.063887 
L 336.44191 89.283471 
L 343.05851 89.283471 
L 349.675111 94.844304 
L 352.983412 103.185552 
L 356.291712 158.793877 
L 359.600012 261.669279 
L 362.908313 270.010527 
L 366.216613 208.84137 
L 369.524914 242.206365 
L 372.833214 214.402202 
L 376.141514 144.891796 
L 379.449815 119.86805 
L 382.758115 108.746385 
L 386.066416 94.844304 
L 389.374716 86.503055 
L 392.683016 80.942222 
L 395.991317 72.600974 
L 399.299617 72.600974 
L 402.607917 69.820557 
L 405.916218 69.820557 
L 409.224518 72.600974 
L 412.532819 72.600974 
L 419.149419 78.161806 
L 422.45772 78.161806 
L 429.074321 83.722639 
L 432.382621 100.405136 
L 435.690921 211.621786 
L 438.999222 167.135126 
L 442.307522 128.209299 
L 445.615823 114.307217 
L 455.540724 97.62472 
L 462.157325 92.063887 
L 468.773925 92.063887 
L 485.315427 105.965969 
L 488.623728 111.526801 
L 491.932028 114.307217 
L 498.548629 125.428882 
L 508.47353 133.770131 
L 511.781831 142.11138 
L 515.090131 147.672212 
L 521.706732 153.233045 
L 525.015032 161.574294 
L 528.323333 172.695959 
L 531.631633 178.256791 
L 534.939933 153.233045 
L 538.248234 144.891796 
L 541.556534 139.330964 
L 544.864834 130.989715 
L 551.481435 125.428882 
L 554.789736 125.428882 
L 558.098036 122.648466 
L 561.406336 117.087634 
L 568.022937 111.526801 
L 571.331238 105.965969 
L 574.639538 105.965969 
L 577.947838 103.185552 
L 584.564439 92.063887 
L 587.87274 100.405136 
L 591.18104 150.452629 
L 594.48934 203.280537 
L 597.797641 278.351776 
L 601.105941 181.037207 
L 604.414242 130.989715 
L 607.722542 161.574294 
L 611.030842 139.330964 
L 614.339143 111.526801 
L 617.647443 97.62472 
L 627.572344 72.600974 
L 630.880645 69.820557 
L 634.188945 64.259725 
L 637.497246 64.259725 
L 640.805546 58.698892 
L 644.113846 61.479309 
L 654.038748 61.479309 
L 657.347048 64.259725 
L 660.655348 64.259725 
L 663.963649 67.040141 
L 667.271949 67.040141 
L 673.88855 72.600974 
L 677.19685 136.550547 
L 680.505151 292.253857 
L 683.813451 244.986781 
L 687.121751 231.0847 
L 690.430052 158.793877 
L 693.738352 128.209299 
L 697.046653 111.526801 
L 700.354953 100.405136 
L 703.663253 92.063887 
L 713.588155 75.38139 
L 720.204755 69.820557 
L 723.513056 69.820557 
L 726.821356 67.040141 
L 730.129657 67.040141 
L 733.437957 64.259725 
L 736.746257 67.040141 
L 740.054558 64.259725 
L 746.671159 69.820557 
L 749.979459 78.161806 
L 753.287759 117.087634 
L 756.59606 192.158872 
L 759.90436 108.746385 
L 763.212661 125.428882 
L 766.520961 103.185552 
L 769.829261 133.770131 
L 773.137562 92.063887 
L 776.445862 83.722639 
L 783.062463 72.600974 
L 786.370763 69.820557 
L 789.679064 69.820557 
L 792.987364 67.040141 
L 796.295665 67.040141 
L 799.603965 64.259725 
L 806.220566 64.259725 
L 809.528866 58.698892 
L 812.837167 61.479309 
L 816.145467 58.698892 
L 819.453767 61.479309 
L 822.762068 61.479309 
L 826.070368 69.820557 
L 829.378668 80.942222 
L 832.686969 119.86805 
L 835.995269 169.915542 
L 839.30357 156.013461 
L 842.61187 272.790944 
L 845.92017 169.915542 
L 845.92017 169.915542 
" clip-path="url(#pa6c2b7a7df)" style="fill: none; stroke: #808080; stroke-opacity: 0.4; stroke-width: 1.5; stroke-linecap: square"/>
   </g>
   <g id="line2d_24">
    <path d="M 85.01108 183.688508 
L 88.31938 180.651881 
L 94.935981 183.525194 
L 98.244281 185.295924 
L 101.552582 186.423607 
L 104.860882 186.942346 
L 108.169182 188.421506 
L 111.477483 189.304011 
L 114.785783 194.784466 
L 118.094083 200.027333 
L 121.402384 200.098213 
L 124.710684 203.540298 
L 128.018985 287.568939 
L 131.327285 278.601522 
L 134.635585 252.181957 
L 137.943886 199.256979 
L 141.252186 177.90493 
L 144.560487 166.706912 
L 147.868787 157.975788 
L 151.177087 147.480927 
L 154.485388 142.548439 
L 157.793688 140.266762 
L 161.101989 137.806984 
L 164.410289 135.678992 
L 167.718589 134.682175 
L 171.02689 132.219005 
L 174.33519 133.691796 
L 177.643491 130.272649 
L 180.951791 124.909446 
L 184.260091 124.384432 
L 187.568392 123.628809 
L 190.876692 123.818221 
L 194.184993 141.488014 
L 197.493293 137.105661 
L 200.801593 129.036758 
L 204.109894 151.348247 
L 207.418194 235.161621 
L 210.726495 226.608709 
L 214.034795 197.626657 
L 217.343095 166.736331 
L 220.651396 157.928416 
L 223.959696 151.605995 
L 227.267997 144.147046 
L 230.576297 137.85585 
L 233.884597 135.852164 
L 237.192898 134.22412 
L 240.501198 132.870651 
L 243.809499 132.069636 
L 247.117799 129.61641 
L 257.0427 128.085644 
L 260.351 127.648293 
L 263.659301 126.461368 
L 266.967601 121.276545 
L 270.275902 118.378118 
L 273.584202 120.957325 
L 276.892502 119.15596 
L 280.200803 118.504093 
L 286.817404 126.228425 
L 290.125704 132.307117 
L 293.434004 133.055013 
L 296.742305 131.819678 
L 300.050605 124.343333 
L 303.358906 113.412857 
L 306.667206 109.79832 
L 309.975506 101.235178 
L 313.283807 96.108236 
L 316.592107 92.901064 
L 319.900408 88.707349 
L 323.208708 87.05374 
L 326.517008 85.86633 
L 329.825309 87.70806 
L 333.133609 86.102527 
L 336.44191 85.849744 
L 339.75021 87.824303 
L 343.05851 89.495066 
L 346.366811 92.051534 
L 349.675111 96.055915 
L 352.983412 104.258924 
L 356.291712 169.801543 
L 359.600012 245.420269 
L 362.908313 257.60459 
L 366.216613 209.128482 
L 369.524914 251.186265 
L 372.833214 204.980567 
L 376.141514 134.692035 
L 379.449815 96.192916 
L 382.758115 93.955158 
L 386.066416 85.335737 
L 389.374716 75.404126 
L 392.683016 69.053205 
L 395.991317 65.507081 
L 399.299617 67.195744 
L 402.607917 66.524797 
L 405.916218 67.214987 
L 409.224518 69.668421 
L 412.532819 72.50233 
L 415.841119 74.180013 
L 419.149419 76.195009 
L 422.45772 78.072101 
L 425.76602 77.790407 
L 429.074321 84.310127 
L 432.382621 116.954427 
L 435.690921 204.192115 
L 438.999222 174.793041 
L 442.307522 131.918785 
L 445.615823 113.484402 
L 448.924123 110.604315 
L 455.540724 92.454503 
L 458.849024 89.34755 
L 462.157325 90.545561 
L 465.465625 91.131771 
L 468.773925 93.017905 
L 472.082226 95.564844 
L 475.390526 100.598965 
L 478.698827 104.129508 
L 482.007127 106.706626 
L 485.315427 110.242808 
L 488.623728 113.520307 
L 491.932028 119.393961 
L 495.240329 127.557149 
L 498.548629 130.710275 
L 501.856929 134.030906 
L 505.16523 139.603052 
L 508.47353 140.888143 
L 511.781831 146.3627 
L 515.090131 152.766685 
L 518.398431 158.062469 
L 521.706732 161.748728 
L 525.015032 169.43035 
L 528.323333 174.656676 
L 531.631633 198.223714 
L 534.939933 158.223588 
L 538.248234 138.046243 
L 544.864834 128.835266 
L 548.173135 126.174824 
L 551.481435 123.909919 
L 554.789736 120.96221 
L 558.098036 120.6703 
L 561.406336 117.963469 
L 564.714637 112.952705 
L 568.022937 109.798893 
L 571.331238 107.520966 
L 574.639538 106.615914 
L 577.947838 103.90926 
L 581.256139 90.037509 
L 584.564439 84.343316 
L 587.87274 118.913016 
L 591.18104 161.71956 
L 594.48934 183.793386 
L 597.797641 260.535578 
L 601.105941 183.394491 
L 604.414242 133.167066 
L 607.722542 180.676918 
L 611.030842 139.976672 
L 614.339143 96.251124 
L 617.647443 83.930508 
L 620.955744 80.518533 
L 624.264044 69.488267 
L 627.572344 66.741318 
L 630.880645 65.758285 
L 634.188945 64.909517 
L 637.497246 63.204649 
L 640.805546 60.376542 
L 644.113846 61.53748 
L 647.422147 62.31098 
L 650.730447 62.020774 
L 654.038748 58.938032 
L 657.347048 60.294088 
L 660.655348 64.801093 
L 663.963649 65.12103 
L 667.271949 67.402104 
L 670.58025 70.193123 
L 673.88855 70.951702 
L 677.19685 142.84496 
L 680.505151 326.303776 
L 683.813451 264.225972 
L 687.121751 251.224874 
L 690.430052 166.82004 
L 693.738352 125.658141 
L 697.046653 103.858257 
L 703.663253 77.285175 
L 706.971554 77.989586 
L 710.279854 70.734635 
L 713.588155 66.702096 
L 716.896455 65.461403 
L 720.204755 65.043979 
L 723.513056 64.185696 
L 726.821356 62.270542 
L 730.129657 61.699534 
L 733.437957 62.205785 
L 736.746257 61.023379 
L 740.054558 60.341278 
L 743.362858 63.384482 
L 746.671159 69.21354 
L 749.979459 76.669223 
L 753.287759 124.239386 
L 756.59606 178.959045 
L 759.90436 112.614011 
L 763.212661 107.208731 
L 766.520961 95.036279 
L 769.829261 122.696922 
L 773.137562 85.725254 
L 776.445862 64.818975 
L 779.754163 62.528147 
L 783.062463 65.359255 
L 786.370763 57.353222 
L 789.679064 55.972616 
L 792.987364 55.692531 
L 796.295665 54.812883 
L 799.603965 54.727697 
L 802.912265 54.798154 
L 806.220566 52.601473 
L 809.528866 51.165474 
L 812.837167 50.972474 
L 816.145467 53.066297 
L 819.453767 52.404864 
L 822.762068 55.05743 
L 829.378668 75.218242 
L 832.686969 134.933838 
L 835.995269 143.483914 
L 839.30357 154.348151 
L 842.61187 268.086473 
L 845.92017 167.246406 
L 845.92017 167.246406 
" clip-path="url(#pa6c2b7a7df)" style="fill: none; stroke: #dc143c; stroke-width: 1.5; stroke-linecap: square"/>
   </g>
   <g id="line2d_25">
    <path d="M 577.947838 354.958125 
L 577.947838 22.318125 
" clip-path="url(#pa6c2b7a7df)" style="fill: none; stroke-dasharray: 5.55,2.4; stroke-dashoffset: 0; stroke: #000000; stroke-width: 1.5"/>
   </g>
   <g id="patch_3">
    <path d="M 46.965625 354.958125 
L 46.965625 22.318125 
" style="fill: none; stroke: #000000; stroke-width: 0.8; stroke-linejoin: miter; stroke-linecap: square"/>
   </g>
   <g id="patch_4">
    <path d="M 883.965625 354.958125 
L 883.965625 22.318125 
" style="fill: none; stroke: #000000; stroke-width: 0.8; stroke-linejoin: miter; stroke-linecap: square"/>
   </g>
   <g id="patch_5">
    <path d="M 46.965625 354.958125 
L 883.965625 354.958125 
" style="fill: none; stroke: #000000; stroke-width: 0.8; stroke-linejoin: miter; stroke-linecap: square"/>
   </g>
   <g id="patch_6">
    <path d="M 46.965625 22.318125 
L 883.965625 22.318125 
" style="fill: none; stroke: #000000; stroke-width: 0.8; stroke-linejoin: miter; stroke-linecap: square"/>
   </g>
   <g id="text_14">
    <!-- Exercise 3.9: Multi-step Simulation (Open-Loop) -->
    <g transform="translate(322.282188 16.318125) scale(0.12 -0.12)">
     <defs>
      <path id="DejaVuSans-45" d="M 628 4666 
L 3578 4666 
L 3578 4134 
L 1259 4134 
L 1259 2753 
L 3481 2753 
L 3481 2222 
L 1259 2222 
L 1259 531 
L 3634 531 
L 3634 0 
L 628 0 
L 628 4666 
z
" transform="scale(0.015625)"/>
      <path id="DejaVuSans-78" d="M 3513 3500 
L 2247 1797 
L 3578 0 
L 2900 0 
L 1881 1375 
L 863 0 
L 184 0 
L 1544 1831 
L 300 3500 
L 978 3500 
L 1906 2253 
L 2834 3500 
L 3513 3500 
z
" transform="scale(0.015625)"/>
      <path id="DejaVuSans-63" d="M 3122 3366 
L 3122 2828 
Q 2878 2963 2633 3030 
Q 2388 3097 2138 3097 
Q 1578 3097 1268 2742 
Q 959 2388 959 1747 
Q 959 1106 1268 751 
Q 1578 397 2138 397 
Q 2388 397 2633 464 
Q 2878 531 3122 666 
L 3122 134 
Q 2881 22 2623 -34 
Q 2366 -91 2075 -91 
Q 1284 -91 818 406 
Q 353 903 353 1747 
Q 353 2603 823 3093 
Q 1294 3584 2113 3584 
Q 2378 3584 2631 3529 
Q 2884 3475 3122 3366 
z
" transform="scale(0.015625)"/>
      <path id="DejaVuSans-33" d="M 2597 2516 
Q 3050 2419 3304 2112 
Q 3559 1806 3559 1356 
Q 3559 666 3084 287 
Q 2609 -91 1734 -91 
Q 1441 -91 1130 -33 
Q 819 25 488 141 
L 488 750 
Q 750 597 1062 519 
Q 1375 441 1716 441 
Q 2309 441 2620 675 
Q 2931 909 2931 1356 
Q 2931 1769 2642 2001 
Q 2353 2234 1838 2234 
L 1294 2234 
L 1294 2753 
L 1863 2753 
Q 2328 2753 2575 2939 
Q 2822 3125 2822 3475 
Q 2822 3834 2567 4026 
Q 2313 4219 1838 4219 
Q 1578 4219 1281 4162 
Q 984 4106 628 3988 
L 628 4550 
Q 988 4650 1302 4700 
Q 1616 4750 1894 4750 
Q 2613 4750 3031 4423 
Q 3450 4097 3450 3541 
Q 3450 3153 3228 2886 
Q 3006 2619 2597 2516 
z
" transform="scale(0.015625)"/>
      <path id="DejaVuSans-2e" d="M 684 794 
L 1344 794 
L 1344 0 
L 684 0 
L 684 794 
z
" transform="scale(0.015625)"/>
      <path id="DejaVuSans-39" d="M 703 97 
L 703 672 
Q 941 559 1184 500 
Q 1428 441 1663 441 
Q 2288 441 2617 861 
Q 2947 1281 2994 2138 
Q 2813 1869 2534 1725 
Q 2256 1581 1919 1581 
Q 1219 1581 811 2004 
Q 403 2428 403 3163 
Q 403 3881 828 4315 
Q 1253 4750 1959 4750 
Q 2769 4750 3195 4129 
Q 3622 3509 3622 2328 
Q 3622 1225 3098 567 
Q 2575 -91 1691 -91 
Q 1453 -91 1209 -44 
Q 966 3 703 97 
z
M 1959 2075 
Q 2384 2075 2632 2365 
Q 2881 2656 2881 3163 
Q 2881 3666 2632 3958 
Q 2384 4250 1959 4250 
Q 1534 4250 1286 3958 
Q 1038 3666 1038 3163 
Q 1038 2656 1286 2365 
Q 1534 2075 1959 2075 
z
" transform="scale(0.015625)"/>
      <path id="DejaVuSans-3a" d="M 750 794 
L 1409 794 
L 1409 0 
L 750 0 
L 750 794 
z
M 750 3309 
L 1409 3309 
L 1409 2516 
L 750 2516 
L 750 3309 
z
" transform="scale(0.015625)"/>
      <path id="DejaVuSans-4d" d="M 628 4666 
L 1569 4666 
L 2759 1491 
L 3956 4666 
L 4897 4666 
L 4897 0 
L 4281 0 
L 4281 4097 
L 3078 897 
L 2444 897 
L 1241 4097 
L 1241 0 
L 628 0 
L 628 4666 
z
" transform="scale(0.015625)"/>
      <path id="DejaVuSans-6c" d="M 603 4863 
L 1178 4863 
L 1178 0 
L 603 0 
L 603 4863 
z
" transform="scale(0.015625)"/>
      <path id="DejaVuSans-2d" d="M 313 2009 
L 1997 2009 
L 1997 1497 
L 313 1497 
L 313 2009 
z
" transform="scale(0.015625)"/>
      <path id="DejaVuSans-70" d="M 1159 525 
L 1159 -1331 
L 581 -1331 
L 581 3500 
L 1159 3500 
L 1159 2969 
Q 1341 3281 1617 3432 
Q 1894 3584 2278 3584 
Q 2916 3584 3314 3078 
Q 3713 2572 3713 1747 
Q 3713 922 3314 415 
Q 2916 -91 2278 -91 
Q 1894 -91 1617 61 
Q 1341 213 1159 525 
z
M 3116 1747 
Q 3116 2381 2855 2742 
Q 2594 3103 2138 3103 
Q 1681 3103 1420 2742 
Q 1159 2381 1159 1747 
Q 1159 1113 1420 752 
Q 1681 391 2138 391 
Q 2594 391 2855 752 
Q 3116 1113 3116 1747 
z
" transform="scale(0.015625)"/>
      <path id="DejaVuSans-53" d="M 3425 4513 
L 3425 3897 
Q 3066 4069 2747 4153 
Q 2428 4238 2131 4238 
Q 1616 4238 1336 4038 
Q 1056 3838 1056 3469 
Q 1056 3159 1242 3001 
Q 1428 2844 1947 2747 
L 2328 2669 
Q 3034 2534 3370 2195 
Q 3706 1856 3706 1288 
Q 3706 609 3251 259 
Q 2797 -91 1919 -91 
Q 1588 -91 1214 -16 
Q 841 59 441 206 
L 441 856 
Q 825 641 1194 531 
Q 1563 422 1919 422 
Q 2459 422 2753 634 
Q 3047 847 3047 1241 
Q 3047 1584 2836 1778 
Q 2625 1972 2144 2069 
L 1759 2144 
Q 1053 2284 737 2584 
Q 422 2884 422 3419 
Q 422 4038 858 4394 
Q 1294 4750 2059 4750 
Q 2388 4750 2728 4690 
Q 3069 4631 3425 4513 
z
" transform="scale(0.015625)"/>
      <path id="DejaVuSans-4f" d="M 2522 4238 
Q 1834 4238 1429 3725 
Q 1025 3213 1025 2328 
Q 1025 1447 1429 934 
Q 1834 422 2522 422 
Q 3209 422 3611 934 
Q 4013 1447 4013 2328 
Q 4013 3213 3611 3725 
Q 3209 4238 2522 4238 
z
M 2522 4750 
Q 3503 4750 4090 4092 
Q 4678 3434 4678 2328 
Q 4678 1225 4090 567 
Q 3503 -91 2522 -91 
Q 1538 -91 948 565 
Q 359 1222 359 2328 
Q 359 3434 948 4092 
Q 1538 4750 2522 4750 
z
" transform="scale(0.015625)"/>
      <path id="DejaVuSans-4c" d="M 628 4666 
L 1259 4666 
L 1259 531 
L 3531 531 
L 3531 0 
L 628 0 
L 628 4666 
z
" transform="scale(0.015625)"/>
     </defs>
     <use xlink:href="#DejaVuSans-45"/>
     <use xlink:href="#DejaVuSans-78" transform="translate(63.183594 0)"/>
     <use xlink:href="#DejaVuSans-65" transform="translate(119.238281 0)"/>
     <use xlink:href="#DejaVuSans-72" transform="translate(180.761719 0)"/>
     <use xlink:href="#DejaVuSans-63" transform="translate(219.625 0)"/>
     <use xlink:href="#DejaVuSans-69" transform="translate(274.605469 0)"/>
     <use xlink:href="#DejaVuSans-73" transform="translate(302.388672 0)"/>
     <use xlink:href="#DejaVuSans-65" transform="translate(354.488281 0)"/>
     <use xlink:href="#DejaVuSans-20" transform="translate(416.011719 0)"/>
     <use xlink:href="#DejaVuSans-33" transform="translate(447.798828 0)"/>
     <use xlink:href="#DejaVuSans-2e" transform="translate(511.421875 0)"/>
     <use xlink:href="#DejaVuSans-39" transform="translate(543.208984 0)"/>
     <use xlink:href="#DejaVuSans-3a" transform="translate(606.832031 0)"/>
     <use xlink:href="#DejaVuSans-20" transform="translate(640.523438 0)"/>
     <use xlink:href="#DejaVuSans-4d" transform="translate(672.310547 0)"/>
     <use xlink:href="#DejaVuSans-75" transform="translate(758.589844 0)"/>
     <use xlink:href="#DejaVuSans-6c" transform="translate(821.96875 0)"/>
     <use xlink:href="#DejaVuSans-74" transform="translate(849.751953 0)"/>
     <use xlink:href="#DejaVuSans-69" transform="translate(888.960938 0)"/>
     <use xlink:href="#DejaVuSans-2d" transform="translate(916.744141 0)"/>
     <use xlink:href="#DejaVuSans-73" transform="translate(952.828125 0)"/>
     <use xlink:href="#DejaVuSans-74" transform="translate(1004.927734 0)"/>
     <use xlink:href="#DejaVuSans-65" transform="translate(1044.136719 0)"/>
     <use xlink:href="#DejaVuSans-70" transform="translate(1105.660156 0)"/>
     <use xlink:href="#DejaVuSans-20" transform="translate(1169.136719 0)"/>
     <use xlink:href="#DejaVuSans-53" transform="translate(1200.923828 0)"/>
     <use xlink:href="#DejaVuSans-69" transform="translate(1264.400391 0)"/>
     <use xlink:href="#DejaVuSans-6d" transform="translate(1292.183594 0)"/>
     <use xlink:href="#DejaVuSans-75" transform="translate(1389.595703 0)"/>
     <use xlink:href="#DejaVuSans-6c" transform="translate(1452.974609 0)"/>
     <use xlink:href="#DejaVuSans-61" transform="translate(1480.757812 0)"/>
     <use xlink:href="#DejaVuSans-74" transform="translate(1542.037109 0)"/>
     <use xlink:href="#DejaVuSans-69" transform="translate(1581.246094 0)"/>
     <use xlink:href="#DejaVuSans-6f" transform="translate(1609.029297 0)"/>
     <use xlink:href="#DejaVuSans-6e" transform="translate(1670.210938 0)"/>
     <use xlink:href="#DejaVuSans-20" transform="translate(1733.589844 0)"/>
     <use xlink:href="#DejaVuSans-28" transform="translate(1765.376953 0)"/>
     <use xlink:href="#DejaVuSans-4f" transform="translate(1804.390625 0)"/>
     <use xlink:href="#DejaVuSans-70" transform="translate(1883.101562 0)"/>
     <use xlink:href="#DejaVuSans-65" transform="translate(1946.578125 0)"/>
     <use xlink:href="#DejaVuSans-6e" transform="translate(2008.101562 0)"/>
     <use xlink:href="#DejaVuSans-2d" transform="translate(2071.480469 0)"/>
     <use xlink:href="#DejaVuSans-4c" transform="translate(2107.564453 0)"/>
     <use xlink:href="#DejaVuSans-6f" transform="translate(2161.527344 0)"/>
     <use xlink:href="#DejaVuSans-6f" transform="translate(2222.708984 0)"/>
     <use xlink:href="#DejaVuSans-70" transform="translate(2283.890625 0)"/>
     <use xlink:href="#DejaVuSans-29" transform="translate(2347.367188 0)"/>
    </g>
   </g>
   <g id="legend_1">
    <g id="patch_7">
     <path d="M 53.965625 74.3525 
L 207.126563 74.3525 
Q 209.126563 74.3525 209.126563 72.3525 
L 209.126563 29.318125 
Q 209.126563 27.318125 207.126563 27.318125 
L 53.965625 27.318125 
Q 51.965625 27.318125 51.965625 29.318125 
L 51.965625 72.3525 
Q 51.965625 74.3525 53.965625 74.3525 
z
" style="fill: #ffffff; opacity: 0.8; stroke: #cccccc; stroke-linejoin: miter"/>
    </g>
    <g id="line2d_26">
     <path d="M 55.965625 35.416562 
L 65.965625 35.416562 
L 75.965625 35.416562 
" style="fill: none; stroke: #808080; stroke-opacity: 0.4; stroke-width: 1.5; stroke-linecap: square"/>
    </g>
    <g id="text_15">
     <!-- Observed Ph -->
     <g transform="translate(83.965625 38.916562) scale(0.1 -0.1)">
      <defs>
       <path id="DejaVuSans-62" d="M 3116 1747 
Q 3116 2381 2855 2742 
Q 2594 3103 2138 3103 
Q 1681 3103 1420 2742 
Q 1159 2381 1159 1747 
Q 1159 1113 1420 752 
Q 1681 391 2138 391 
Q 2594 391 2855 752 
Q 3116 1113 3116 1747 
z
M 1159 2969 
Q 1341 3281 1617 3432 
Q 1894 3584 2278 3584 
Q 2916 3584 3314 3078 
Q 3713 2572 3713 1747 
Q 3713 922 3314 415 
Q 2916 -91 2278 -91 
Q 1894 -91 1617 61 
Q 1341 213 1159 525 
L 1159 0 
L 581 0 
L 581 4863 
L 1159 4863 
L 1159 2969 
z
" transform="scale(0.015625)"/>
       <path id="DejaVuSans-76" d="M 191 3500 
L 800 3500 
L 1894 563 
L 2988 3500 
L 3597 3500 
L 2284 0 
L 1503 0 
L 191 3500 
z
" transform="scale(0.015625)"/>
       <path id="DejaVuSans-64" d="M 2906 2969 
L 2906 4863 
L 3481 4863 
L 3481 0 
L 2906 0 
L 2906 525 
Q 2725 213 2448 61 
Q 2172 -91 1784 -91 
Q 1150 -91 751 415 
Q 353 922 353 1747 
Q 353 2572 751 3078 
Q 1150 3584 1784 3584 
Q 2172 3584 2448 3432 
Q 2725 3281 2906 2969 
z
M 947 1747 
Q 947 1113 1208 752 
Q 1469 391 1925 391 
Q 2381 391 2643 752 
Q 2906 1113 2906 1747 
Q 2906 2381 2643 2742 
Q 2381 3103 1925 3103 
Q 1469 3103 1208 2742 
Q 947 2381 947 1747 
z
" transform="scale(0.015625)"/>
       <path id="DejaVuSans-68" d="M 3513 2113 
L 3513 0 
L 2938 0 
L 2938 2094 
Q 2938 2591 2744 2837 
Q 2550 3084 2163 3084 
Q 1697 3084 1428 2787 
Q 1159 2491 1159 1978 
L 1159 0 
L 581 0 
L 581 4863 
L 1159 4863 
L 1159 2956 
Q 1366 3272 1645 3428 
Q 1925 3584 2291 3584 
Q 2894 3584 3203 3211 
Q 3513 2838 3513 2113 
z
" transform="scale(0.015625)"/>
      </defs>
      <use xlink:href="#DejaVuSans-4f"/>
      <use xlink:href="#DejaVuSans-62" transform="translate(78.710938 0)"/>
      <use xlink:href="#DejaVuSans-73" transform="translate(142.1875 0)"/>
      <use xlink:href="#DejaVuSans-65" transform="translate(194.287109 0)"/>
      <use xlink:href="#DejaVuSans-72" transform="translate(255.810547 0)"/>
      <use xlink:href="#DejaVuSans-76" transform="translate(296.923828 0)"/>
      <use xlink:href="#DejaVuSans-65" transform="translate(356.103516 0)"/>
      <use xlink:href="#DejaVuSans-64" transform="translate(417.626953 0)"/>
      <use xlink:href="#DejaVuSans-20" transform="translate(481.103516 0)"/>
      <use xlink:href="#DejaVuSans-50" transform="translate(512.890625 0)"/>
      <use xlink:href="#DejaVuSans-68" transform="translate(573.193359 0)"/>
     </g>
    </g>
    <g id="line2d_27">
     <path d="M 55.965625 50.094687 
L 65.965625 50.094687 
L 75.965625 50.094687 
" style="fill: none; stroke: #dc143c; stroke-width: 1.5; stroke-linecap: square"/>
    </g>
    <g id="text_16">
     <!-- Simulated Ph (Dynamic) -->
     <g transform="translate(83.965625 53.594687) scale(0.1 -0.1)">
      <defs>
       <path id="DejaVuSans-44" d="M 1259 4147 
L 1259 519 
L 2022 519 
Q 2988 519 3436 956 
Q 3884 1394 3884 2338 
Q 3884 3275 3436 3711 
Q 2988 4147 2022 4147 
L 1259 4147 
z
M 628 4666 
L 1925 4666 
Q 3281 4666 3915 4102 
Q 4550 3538 4550 2338 
Q 4550 1131 3912 565 
Q 3275 0 1925 0 
L 628 0 
L 628 4666 
z
" transform="scale(0.015625)"/>
       <path id="DejaVuSans-79" d="M 2059 -325 
Q 1816 -950 1584 -1140 
Q 1353 -1331 966 -1331 
L 506 -1331 
L 506 -850 
L 844 -850 
Q 1081 -850 1212 -737 
Q 1344 -625 1503 -206 
L 1606 56 
L 191 3500 
L 800 3500 
L 1894 763 
L 2988 3500 
L 3597 3500 
L 2059 -325 
z
" transform="scale(0.015625)"/>
      </defs>
      <use xlink:href="#DejaVuSans-53"/>
      <use xlink:href="#DejaVuSans-69" transform="translate(63.476562 0)"/>
      <use xlink:href="#DejaVuSans-6d" transform="translate(91.259766 0)"/>
      <use xlink:href="#DejaVuSans-75" transform="translate(188.671875 0)"/>
      <use xlink:href="#DejaVuSans-6c" transform="translate(252.050781 0)"/>
      <use xlink:href="#DejaVuSans-61" transform="translate(279.833984 0)"/>
      <use xlink:href="#DejaVuSans-74" transform="translate(341.113281 0)"/>
      <use xlink:href="#DejaVuSans-65" transform="translate(380.322266 0)"/>
      <use xlink:href="#DejaVuSans-64" transform="translate(441.845703 0)"/>
      <use xlink:href="#DejaVuSans-20" transform="translate(505.322266 0)"/>
      <use xlink:href="#DejaVuSans-50" transform="translate(537.109375 0)"/>
      <use xlink:href="#DejaVuSans-68" transform="translate(597.412109 0)"/>
      <use xlink:href="#DejaVuSans-20" transform="translate(660.791016 0)"/>
      <use xlink:href="#DejaVuSans-28" transform="translate(692.578125 0)"/>
      <use xlink:href="#DejaVuSans-44" transform="translate(731.591797 0)"/>
      <use xlink:href="#DejaVuSans-79" transform="translate(808.59375 0)"/>
      <use xlink:href="#DejaVuSans-6e" transform="translate(867.773438 0)"/>
      <use xlink:href="#DejaVuSans-61" transform="translate(931.152344 0)"/>
      <use xlink:href="#DejaVuSans-6d" transform="translate(992.431641 0)"/>
      <use xlink:href="#DejaVuSans-69" transform="translate(1089.84375 0)"/>
      <use xlink:href="#DejaVuSans-63" transform="translate(1117.626953 0)"/>
      <use xlink:href="#DejaVuSans-29" transform="translate(1172.607422 0)"/>
     </g>
    </g>
    <g id="line2d_28">
     <path d="M 55.965625 64.772812 
L 65.965625 64.772812 
L 75.965625 64.772812 
" style="fill: none; stroke-dasharray: 5.55,2.4; stroke-dashoffset: 0; stroke: #000000; stroke-width: 1.5"/>
    </g>
    <g id="text_17">
     <!-- Train/Test Split -->
     <g transform="translate(83.965625 68.272812) scale(0.1 -0.1)">
      <defs>
       <path id="DejaVuSans-2f" d="M 1625 4666 
L 2156 4666 
L 531 -594 
L 0 -594 
L 1625 4666 
z
" transform="scale(0.015625)"/>
      </defs>
      <use xlink:href="#DejaVuSans-54"/>
      <use xlink:href="#DejaVuSans-72" transform="translate(46.333984 0)"/>
      <use xlink:href="#DejaVuSans-61" transform="translate(87.447266 0)"/>
      <use xlink:href="#DejaVuSans-69" transform="translate(148.726562 0)"/>
      <use xlink:href="#DejaVuSans-6e" transform="translate(176.509766 0)"/>
      <use xlink:href="#DejaVuSans-2f" transform="translate(239.888672 0)"/>
      <use xlink:href="#DejaVuSans-54" transform="translate(273.580078 0)"/>
      <use xlink:href="#DejaVuSans-65" transform="translate(317.664062 0)"/>
      <use xlink:href="#DejaVuSans-73" transform="translate(379.1875 0)"/>
      <use xlink:href="#DejaVuSans-74" transform="translate(431.287109 0)"/>
      <use xlink:href="#DejaVuSans-20" transform="translate(470.496094 0)"/>
      <use xlink:href="#DejaVuSans-53" transform="translate(502.283203 0)"/>
      <use xlink:href="#DejaVuSans-70" transform="translate(565.759766 0)"/>
      <use xlink:href="#DejaVuSans-6c" transform="translate(629.236328 0)"/>
      <use xlink:href="#DejaVuSans-69" transform="translate(657.019531 0)"/>
      <use xlink:href="#DejaVuSans-74" transform="translate(684.802734 0)"/>
     </g>
    </g>
   </g>
  </g>
 </g>
 <defs>
  <clipPath id="pa6c2b7a7df">
   <rect x="46.965625" y="22.318125" width="837" height="332.64"/>
  </clipPath>
 </defs>
</svg>
