<?xml version="1.0" encoding="utf-8" standalone="no"?>
<!DOCTYPE svg PUBLIC "-//W3C//DTD SVG 1.1//EN"
  "http://www.w3.org/Graphics/SVG/1.1/DTD/svg11.dtd">
<svg xmlns:xlink="http://www.w3.org/1999/xlink" width="1144.935313pt" height="420.17625pt" viewBox="0 0 1144.935313 420.17625" xmlns="http://www.w3.org/2000/svg" version="1.1">
 <metadata>
  <rdf:RDF xmlns:dc="http://purl.org/dc/elements/1.1/" xmlns:cc="http://creativecommons.org/ns#" xmlns:rdf="http://www.w3.org/1999/02/22-rdf-syntax-ns#">
   <cc:Work>
    <dc:type rdf:resource="http://purl.org/dc/dcmitype/StillImage"/>
    <dc:date>2026-04-10T10:00:56.987480</dc:date>
    <dc:format>image/svg+xml</dc:format>
    <dc:creator>
     <cc:Agent>
      <dc:title>Matplotlib v3.10.8, https://matplotlib.org/</dc:title>
     </cc:Agent>
    </dc:creator>
   </cc:Work>
  </rdf:RDF>
 </metadata>
 <defs>
  <style type="text/css">*{stroke-linejoin: round; stroke-linecap: butt}</style>
 </defs>
 <g id="figure_1">
  <g id="patch_1">
   <path d="M 0 420.17625 
L 1144.935313 420.17625 
L 1144.935313 0 
L 0 0 
z
" style="fill: #ffffff"/>
  </g>
  <g id="axes_1">
   <g id="patch_2">
    <path d="M 44.845313 382.598125 
L 563.245313 382.598125 
L 563.245313 22.318125 
L 44.845313 22.318125 
z
" style="fill: #ffffff"/>
   </g>
   <g id="FillBetweenPolyCollection_1">
    <path d="M 78.02676 173.533675 
L 78.02676 231.382575 
L 106.880192 231.397435 
L 126.115813 231.71941 
L 145.351435 231.749667 
L 164.587056 232.5188 
L 183.822678 232.554089 
L 203.0583 232.85881 
L 222.293921 233.205177 
L 241.529543 233.256713 
L 260.765164 233.259532 
L 280.000786 233.334041 
L 299.236407 233.737539 
L 318.472029 233.79191 
L 337.70765 233.890483 
L 356.943272 233.914893 
L 376.178893 234.017793 
L 395.414515 234.046203 
L 414.650136 234.061226 
L 433.885758 234.185311 
L 453.121379 234.679766 
L 472.357001 234.69631 
L 491.592622 234.765028 
L 510.828244 234.863765 
L 539.681676 235.099707 
L 539.681676 169.816543 
L 539.681676 169.816543 
L 510.828244 170.052485 
L 491.592622 170.151222 
L 472.357001 170.21994 
L 453.121379 170.236484 
L 433.885758 170.730939 
L 414.650136 170.855024 
L 395.414515 170.870047 
L 376.178893 170.898457 
L 356.943272 171.001357 
L 337.70765 171.025767 
L 318.472029 171.12434 
L 299.236407 171.178711 
L 280.000786 171.582209 
L 260.765164 171.656718 
L 241.529543 171.659537 
L 222.293921 171.711073 
L 203.0583 172.05744 
L 183.822678 172.362161 
L 164.587056 172.39745 
L 145.351435 173.166583 
L 126.115813 173.19684 
L 106.880192 173.518815 
L 78.02676 173.533675 
z
" clip-path="url(#p95504d7e7b)" style="fill: #1f77b4; fill-opacity: 0.25"/>
   </g>
   <g id="matplotlib.axis_1">
    <g id="xtick_1">
     <g id="line2d_1">
      <path d="M 68.408949 382.598125 
L 68.408949 22.318125 
" clip-path="url(#p95504d7e7b)" style="fill: none; stroke: #b0b0b0; stroke-opacity: 0.3; stroke-width: 0.8; stroke-linecap: square"/>
     </g>
     <g id="line2d_2">
      <defs>
       <path id="m4d3817df65" d="M 0 0 
L 0 3.5 
" style="stroke: #000000; stroke-width: 0.8"/>
      </defs>
      <g>
       <use xlink:href="#m4d3817df65" x="68.408949" y="382.598125" style="stroke: #000000; stroke-width: 0.8"/>
      </g>
     </g>
     <g id="text_1">
      <!-- 0 -->
      <g transform="translate(65.227699 397.196562) scale(0.1 -0.1)">
       <defs>
        <path id="DejaVuSans-30" d="M 2034 4250 
Q 1547 4250 1301 3770 
Q 1056 3291 1056 2328 
Q 1056 1369 1301 889 
Q 1547 409 2034 409 
Q 2525 409 2770 889 
Q 3016 1369 3016 2328 
Q 3016 3291 2770 3770 
Q 2525 4250 2034 4250 
z
M 2034 4750 
Q 2819 4750 3233 4129 
Q 3647 3509 3647 2328 
Q 3647 1150 3233 529 
Q 2819 -91 2034 -91 
Q 1250 -91 836 529 
Q 422 1150 422 2328 
Q 422 3509 836 4129 
Q 1250 4750 2034 4750 
z
" transform="scale(0.015625)"/>
       </defs>
       <use xlink:href="#DejaVuSans-30"/>
      </g>
     </g>
    </g>
    <g id="xtick_2">
     <g id="line2d_3">
      <path d="M 164.587056 382.598125 
L 164.587056 22.318125 
" clip-path="url(#p95504d7e7b)" style="fill: none; stroke: #b0b0b0; stroke-opacity: 0.3; stroke-width: 0.8; stroke-linecap: square"/>
     </g>
     <g id="line2d_4">
      <g>
       <use xlink:href="#m4d3817df65" x="164.587056" y="382.598125" style="stroke: #000000; stroke-width: 0.8"/>
      </g>
     </g>
     <g id="text_2">
      <!-- 5 -->
      <g transform="translate(161.405806 397.196562) scale(0.1 -0.1)">
       <defs>
        <path id="DejaVuSans-35" d="M 691 4666 
L 3169 4666 
L 3169 4134 
L 1269 4134 
L 1269 2991 
Q 1406 3038 1543 3061 
Q 1681 3084 1819 3084 
Q 2600 3084 3056 2656 
Q 3513 2228 3513 1497 
Q 3513 744 3044 326 
Q 2575 -91 1722 -91 
Q 1428 -91 1123 -41 
Q 819 9 494 109 
L 494 744 
Q 775 591 1075 516 
Q 1375 441 1709 441 
Q 2250 441 2565 725 
Q 2881 1009 2881 1497 
Q 2881 1984 2565 2268 
Q 2250 2553 1709 2553 
Q 1456 2553 1204 2497 
Q 953 2441 691 2322 
L 691 4666 
z
" transform="scale(0.015625)"/>
       </defs>
       <use xlink:href="#DejaVuSans-35"/>
      </g>
     </g>
    </g>
    <g id="xtick_3">
     <g id="line2d_5">
      <path d="M 260.765164 382.598125 
L 260.765164 22.318125 
" clip-path="url(#p95504d7e7b)" style="fill: none; stroke: #b0b0b0; stroke-opacity: 0.3; stroke-width: 0.8; stroke-linecap: square"/>
     </g>
     <g id="line2d_6">
      <g>
       <use xlink:href="#m4d3817df65" x="260.765164" y="382.598125" style="stroke: #000000; stroke-width: 0.8"/>
      </g>
     </g>
     <g id="text_3">
      <!-- 10 -->
      <g transform="translate(254.402664 397.196562) scale(0.1 -0.1)">
       <defs>
        <path id="DejaVuSans-31" d="M 794 531 
L 1825 531 
L 1825 4091 
L 703 3866 
L 703 4441 
L 1819 4666 
L 2450 4666 
L 2450 531 
L 3481 531 
L 3481 0 
L 794 0 
L 794 531 
z
" transform="scale(0.015625)"/>
       </defs>
       <use xlink:href="#DejaVuSans-31"/>
       <use xlink:href="#DejaVuSans-30" transform="translate(63.623047 0)"/>
      </g>
     </g>
    </g>
    <g id="xtick_4">
     <g id="line2d_7">
      <path d="M 356.943272 382.598125 
L 356.943272 22.318125 
" clip-path="url(#p95504d7e7b)" style="fill: none; stroke: #b0b0b0; stroke-opacity: 0.3; stroke-width: 0.8; stroke-linecap: square"/>
     </g>
     <g id="line2d_8">
      <g>
       <use xlink:href="#m4d3817df65" x="356.943272" y="382.598125" style="stroke: #000000; stroke-width: 0.8"/>
      </g>
     </g>
     <g id="text_4">
      <!-- 15 -->
      <g transform="translate(350.580772 397.196562) scale(0.1 -0.1)">
       <use xlink:href="#DejaVuSans-31"/>
       <use xlink:href="#DejaVuSans-35" transform="translate(63.623047 0)"/>
      </g>
     </g>
    </g>
    <g id="xtick_5">
     <g id="line2d_9">
      <path d="M 453.121379 382.598125 
L 453.121379 22.318125 
" clip-path="url(#p95504d7e7b)" style="fill: none; stroke: #b0b0b0; stroke-opacity: 0.3; stroke-width: 0.8; stroke-linecap: square"/>
     </g>
     <g id="line2d_10">
      <g>
       <use xlink:href="#m4d3817df65" x="453.121379" y="382.598125" style="stroke: #000000; stroke-width: 0.8"/>
      </g>
     </g>
     <g id="text_5">
      <!-- 20 -->
      <g transform="translate(446.758879 397.196562) scale(0.1 -0.1)">
       <defs>
        <path id="DejaVuSans-32" d="M 1228 531 
L 3431 531 
L 3431 0 
L 469 0 
L 469 531 
Q 828 903 1448 1529 
Q 2069 2156 2228 2338 
Q 2531 2678 2651 2914 
Q 2772 3150 2772 3378 
Q 2772 3750 2511 3984 
Q 2250 4219 1831 4219 
Q 1534 4219 1204 4116 
Q 875 4013 500 3803 
L 500 4441 
Q 881 4594 1212 4672 
Q 1544 4750 1819 4750 
Q 2544 4750 2975 4387 
Q 3406 4025 3406 3419 
Q 3406 3131 3298 2873 
Q 3191 2616 2906 2266 
Q 2828 2175 2409 1742 
Q 1991 1309 1228 531 
z
" transform="scale(0.015625)"/>
       </defs>
       <use xlink:href="#DejaVuSans-32"/>
       <use xlink:href="#DejaVuSans-30" transform="translate(63.623047 0)"/>
      </g>
     </g>
    </g>
    <g id="xtick_6">
     <g id="line2d_11">
      <path d="M 549.299487 382.598125 
L 549.299487 22.318125 
" clip-path="url(#p95504d7e7b)" style="fill: none; stroke: #b0b0b0; stroke-opacity: 0.3; stroke-width: 0.8; stroke-linecap: square"/>
     </g>
     <g id="line2d_12">
      <g>
       <use xlink:href="#m4d3817df65" x="549.299487" y="382.598125" style="stroke: #000000; stroke-width: 0.8"/>
      </g>
     </g>
     <g id="text_6">
      <!-- 25 -->
      <g transform="translate(542.936987 397.196562) scale(0.1 -0.1)">
       <use xlink:href="#DejaVuSans-32"/>
       <use xlink:href="#DejaVuSans-35" transform="translate(63.623047 0)"/>
      </g>
     </g>
    </g>
    <g id="text_7">
     <!-- Lag (Hours) -->
     <g transform="translate(274.882031 410.874687) scale(0.1 -0.1)">
      <defs>
       <path id="DejaVuSans-4c" d="M 628 4666 
L 1259 4666 
L 1259 531 
L 3531 531 
L 3531 0 
L 628 0 
L 628 4666 
z
" transform="scale(0.015625)"/>
       <path id="DejaVuSans-61" d="M 2194 1759 
Q 1497 1759 1228 1600 
Q 959 1441 959 1056 
Q 959 750 1161 570 
Q 1363 391 1709 391 
Q 2188 391 2477 730 
Q 2766 1069 2766 1631 
L 2766 1759 
L 2194 1759 
z
M 3341 1997 
L 3341 0 
L 2766 0 
L 2766 531 
Q 2569 213 2275 61 
Q 1981 -91 1556 -91 
Q 1019 -91 701 211 
Q 384 513 384 1019 
Q 384 1609 779 1909 
Q 1175 2209 1959 2209 
L 2766 2209 
L 2766 2266 
Q 2766 2663 2505 2880 
Q 2244 3097 1772 3097 
Q 1472 3097 1187 3025 
Q 903 2953 641 2809 
L 641 3341 
Q 956 3463 1253 3523 
Q 1550 3584 1831 3584 
Q 2591 3584 2966 3190 
Q 3341 2797 3341 1997 
z
" transform="scale(0.015625)"/>
       <path id="DejaVuSans-67" d="M 2906 1791 
Q 2906 2416 2648 2759 
Q 2391 3103 1925 3103 
Q 1463 3103 1205 2759 
Q 947 2416 947 1791 
Q 947 1169 1205 825 
Q 1463 481 1925 481 
Q 2391 481 2648 825 
Q 2906 1169 2906 1791 
z
M 3481 434 
Q 3481 -459 3084 -895 
Q 2688 -1331 1869 -1331 
Q 1566 -1331 1297 -1286 
Q 1028 -1241 775 -1147 
L 775 -588 
Q 1028 -725 1275 -790 
Q 1522 -856 1778 -856 
Q 2344 -856 2625 -561 
Q 2906 -266 2906 331 
L 2906 616 
Q 2728 306 2450 153 
Q 2172 0 1784 0 
Q 1141 0 747 490 
Q 353 981 353 1791 
Q 353 2603 747 3093 
Q 1141 3584 1784 3584 
Q 2172 3584 2450 3431 
Q 2728 3278 2906 2969 
L 2906 3500 
L 3481 3500 
L 3481 434 
z
" transform="scale(0.015625)"/>
       <path id="DejaVuSans-20" transform="scale(0.015625)"/>
       <path id="DejaVuSans-28" d="M 1984 4856 
Q 1566 4138 1362 3434 
Q 1159 2731 1159 2009 
Q 1159 1288 1364 580 
Q 1569 -128 1984 -844 
L 1484 -844 
Q 1016 -109 783 600 
Q 550 1309 550 2009 
Q 550 2706 781 3412 
Q 1013 4119 1484 4856 
L 1984 4856 
z
" transform="scale(0.015625)"/>
       <path id="DejaVuSans-48" d="M 628 4666 
L 1259 4666 
L 1259 2753 
L 3553 2753 
L 3553 4666 
L 4184 4666 
L 4184 0 
L 3553 0 
L 3553 2222 
L 1259 2222 
L 1259 0 
L 628 0 
L 628 4666 
z
" transform="scale(0.015625)"/>
       <path id="DejaVuSans-6f" d="M 1959 3097 
Q 1497 3097 1228 2736 
Q 959 2375 959 1747 
Q 959 1119 1226 758 
Q 1494 397 1959 397 
Q 2419 397 2687 759 
Q 2956 1122 2956 1747 
Q 2956 2369 2687 2733 
Q 2419 3097 1959 3097 
z
M 1959 3584 
Q 2709 3584 3137 3096 
Q 3566 2609 3566 1747 
Q 3566 888 3137 398 
Q 2709 -91 1959 -91 
Q 1206 -91 779 398 
Q 353 888 353 1747 
Q 353 2609 779 3096 
Q 1206 3584 1959 3584 
z
" transform="scale(0.015625)"/>
       <path id="DejaVuSans-75" d="M 544 1381 
L 544 3500 
L 1119 3500 
L 1119 1403 
Q 1119 906 1312 657 
Q 1506 409 1894 409 
Q 2359 409 2629 706 
Q 2900 1003 2900 1516 
L 2900 3500 
L 3475 3500 
L 3475 0 
L 2900 0 
L 2900 538 
Q 2691 219 2414 64 
Q 2138 -91 1772 -91 
Q 1169 -91 856 284 
Q 544 659 544 1381 
z
M 1991 3584 
L 1991 3584 
z
" transform="scale(0.015625)"/>
       <path id="DejaVuSans-72" d="M 2631 2963 
Q 2534 3019 2420 3045 
Q 2306 3072 2169 3072 
Q 1681 3072 1420 2755 
Q 1159 2438 1159 1844 
L 1159 0 
L 581 0 
L 581 3500 
L 1159 3500 
L 1159 2956 
Q 1341 3275 1631 3429 
Q 1922 3584 2338 3584 
Q 2397 3584 2469 3576 
Q 2541 3569 2628 3553 
L 2631 2963 
z
" transform="scale(0.015625)"/>
       <path id="DejaVuSans-73" d="M 2834 3397 
L 2834 2853 
Q 2591 2978 2328 3040 
Q 2066 3103 1784 3103 
Q 1356 3103 1142 2972 
Q 928 2841 928 2578 
Q 928 2378 1081 2264 
Q 1234 2150 1697 2047 
L 1894 2003 
Q 2506 1872 2764 1633 
Q 3022 1394 3022 966 
Q 3022 478 2636 193 
Q 2250 -91 1575 -91 
Q 1294 -91 989 -36 
Q 684 19 347 128 
L 347 722 
Q 666 556 975 473 
Q 1284 391 1588 391 
Q 1994 391 2212 530 
Q 2431 669 2431 922 
Q 2431 1156 2273 1281 
Q 2116 1406 1581 1522 
L 1381 1569 
Q 847 1681 609 1914 
Q 372 2147 372 2553 
Q 372 3047 722 3315 
Q 1072 3584 1716 3584 
Q 2034 3584 2315 3537 
Q 2597 3491 2834 3397 
z
" transform="scale(0.015625)"/>
       <path id="DejaVuSans-29" d="M 513 4856 
L 1013 4856 
Q 1481 4119 1714 3412 
Q 1947 2706 1947 2009 
Q 1947 1309 1714 600 
Q 1481 -109 1013 -844 
L 513 -844 
Q 928 -128 1133 580 
Q 1338 1288 1338 2009 
Q 1338 2731 1133 3434 
Q 928 4138 513 4856 
z
" transform="scale(0.015625)"/>
      </defs>
      <use xlink:href="#DejaVuSans-4c"/>
      <use xlink:href="#DejaVuSans-61" transform="translate(55.712891 0)"/>
      <use xlink:href="#DejaVuSans-67" transform="translate(116.992188 0)"/>
      <use xlink:href="#DejaVuSans-20" transform="translate(180.46875 0)"/>
      <use xlink:href="#DejaVuSans-28" transform="translate(212.255859 0)"/>
      <use xlink:href="#DejaVuSans-48" transform="translate(251.269531 0)"/>
      <use xlink:href="#DejaVuSans-6f" transform="translate(326.464844 0)"/>
      <use xlink:href="#DejaVuSans-75" transform="translate(387.646484 0)"/>
      <use xlink:href="#DejaVuSans-72" transform="translate(451.025391 0)"/>
      <use xlink:href="#DejaVuSans-73" transform="translate(492.138672 0)"/>
      <use xlink:href="#DejaVuSans-29" transform="translate(544.238281 0)"/>
     </g>
    </g>
   </g>
   <g id="matplotlib.axis_2">
    <g id="ytick_1">
     <g id="line2d_13">
      <path d="M 44.845313 382.598125 
L 563.245313 382.598125 
" clip-path="url(#p95504d7e7b)" style="fill: none; stroke: #b0b0b0; stroke-opacity: 0.3; stroke-width: 0.8; stroke-linecap: square"/>
     </g>
     <g id="line2d_14">
      <defs>
       <path id="medac9f98b1" d="M 0 0 
L -3.5 0 
" style="stroke: #000000; stroke-width: 0.8"/>
      </defs>
      <g>
       <use xlink:href="#medac9f98b1" x="44.845313" y="382.598125" style="stroke: #000000; stroke-width: 0.8"/>
      </g>
     </g>
     <g id="text_8">
      <!-- −1.00 -->
      <g transform="translate(7.2 386.397344) scale(0.1 -0.1)">
       <defs>
        <path id="DejaVuSans-2212" d="M 678 2272 
L 4684 2272 
L 4684 1741 
L 678 1741 
L 678 2272 
z
" transform="scale(0.015625)"/>
        <path id="DejaVuSans-2e" d="M 684 794 
L 1344 794 
L 1344 0 
L 684 0 
L 684 794 
z
" transform="scale(0.015625)"/>
       </defs>
       <use xlink:href="#DejaVuSans-2212"/>
       <use xlink:href="#DejaVuSans-31" transform="translate(83.789062 0)"/>
       <use xlink:href="#DejaVuSans-2e" transform="translate(147.412109 0)"/>
       <use xlink:href="#DejaVuSans-30" transform="translate(179.199219 0)"/>
       <use xlink:href="#DejaVuSans-30" transform="translate(242.822266 0)"/>
      </g>
     </g>
    </g>
    <g id="ytick_2">
     <g id="line2d_15">
      <path d="M 44.845313 337.563125 
L 563.245313 337.563125 
" clip-path="url(#p95504d7e7b)" style="fill: none; stroke: #b0b0b0; stroke-opacity: 0.3; stroke-width: 0.8; stroke-linecap: square"/>
     </g>
     <g id="line2d_16">
      <g>
       <use xlink:href="#medac9f98b1" x="44.845313" y="337.563125" style="stroke: #000000; stroke-width: 0.8"/>
      </g>
     </g>
     <g id="text_9">
      <!-- −0.75 -->
      <g transform="translate(7.2 341.362344) scale(0.1 -0.1)">
       <defs>
        <path id="DejaVuSans-37" d="M 525 4666 
L 3525 4666 
L 3525 4397 
L 1831 0 
L 1172 0 
L 2766 4134 
L 525 4134 
L 525 4666 
z
" transform="scale(0.015625)"/>
       </defs>
       <use xlink:href="#DejaVuSans-2212"/>
       <use xlink:href="#DejaVuSans-30" transform="translate(83.789062 0)"/>
       <use xlink:href="#DejaVuSans-2e" transform="translate(147.412109 0)"/>
       <use xlink:href="#DejaVuSans-37" transform="translate(179.199219 0)"/>
       <use xlink:href="#DejaVuSans-35" transform="translate(242.822266 0)"/>
      </g>
     </g>
    </g>
    <g id="ytick_3">
     <g id="line2d_17">
      <path d="M 44.845313 292.528125 
L 563.245313 292.528125 
" clip-path="url(#p95504d7e7b)" style="fill: none; stroke: #b0b0b0; stroke-opacity: 0.3; stroke-width: 0.8; stroke-linecap: square"/>
     </g>
     <g id="line2d_18">
      <g>
       <use xlink:href="#medac9f98b1" x="44.845313" y="292.528125" style="stroke: #000000; stroke-width: 0.8"/>
      </g>
     </g>
     <g id="text_10">
      <!-- −0.50 -->
      <g transform="translate(7.2 296.327344) scale(0.1 -0.1)">
       <use xlink:href="#DejaVuSans-2212"/>
       <use xlink:href="#DejaVuSans-30" transform="translate(83.789062 0)"/>
       <use xlink:href="#DejaVuSans-2e" transform="translate(147.412109 0)"/>
       <use xlink:href="#DejaVuSans-35" transform="translate(179.199219 0)"/>
       <use xlink:href="#DejaVuSans-30" transform="translate(242.822266 0)"/>
      </g>
     </g>
    </g>
    <g id="ytick_4">
     <g id="line2d_19">
      <path d="M 44.845313 247.493125 
L 563.245313 247.493125 
" clip-path="url(#p95504d7e7b)" style="fill: none; stroke: #b0b0b0; stroke-opacity: 0.3; stroke-width: 0.8; stroke-linecap: square"/>
     </g>
     <g id="line2d_20">
      <g>
       <use xlink:href="#medac9f98b1" x="44.845313" y="247.493125" style="stroke: #000000; stroke-width: 0.8"/>
      </g>
     </g>
     <g id="text_11">
      <!-- −0.25 -->
      <g transform="translate(7.2 251.292344) scale(0.1 -0.1)">
       <use xlink:href="#DejaVuSans-2212"/>
       <use xlink:href="#DejaVuSans-30" transform="translate(83.789062 0)"/>
       <use xlink:href="#DejaVuSans-2e" transform="translate(147.412109 0)"/>
       <use xlink:href="#DejaVuSans-32" transform="translate(179.199219 0)"/>
       <use xlink:href="#DejaVuSans-35" transform="translate(242.822266 0)"/>
      </g>
     </g>
    </g>
    <g id="ytick_5">
     <g id="line2d_21">
      <path d="M 44.845313 202.458125 
L 563.245313 202.458125 
" clip-path="url(#p95504d7e7b)" style="fill: none; stroke: #b0b0b0; stroke-opacity: 0.3; stroke-width: 0.8; stroke-linecap: square"/>
     </g>
     <g id="line2d_22">
      <g>
       <use xlink:href="#medac9f98b1" x="44.845313" y="202.458125" style="stroke: #000000; stroke-width: 0.8"/>
      </g>
     </g>
     <g id="text_12">
      <!-- 0.00 -->
      <g transform="translate(15.579688 206.257344) scale(0.1 -0.1)">
       <use xlink:href="#DejaVuSans-30"/>
       <use xlink:href="#DejaVuSans-2e" transform="translate(63.623047 0)"/>
       <use xlink:href="#DejaVuSans-30" transform="translate(95.410156 0)"/>
       <use xlink:href="#DejaVuSans-30" transform="translate(159.033203 0)"/>
      </g>
     </g>
    </g>
    <g id="ytick_6">
     <g id="line2d_23">
      <path d="M 44.845313 157.423125 
L 563.245313 157.423125 
" clip-path="url(#p95504d7e7b)" style="fill: none; stroke: #b0b0b0; stroke-opacity: 0.3; stroke-width: 0.8; stroke-linecap: square"/>
     </g>
     <g id="line2d_24">
      <g>
       <use xlink:href="#medac9f98b1" x="44.845313" y="157.423125" style="stroke: #000000; stroke-width: 0.8"/>
      </g>
     </g>
     <g id="text_13">
      <!-- 0.25 -->
      <g transform="translate(15.579688 161.222344) scale(0.1 -0.1)">
       <use xlink:href="#DejaVuSans-30"/>
       <use xlink:href="#DejaVuSans-2e" transform="translate(63.623047 0)"/>
       <use xlink:href="#DejaVuSans-32" transform="translate(95.410156 0)"/>
       <use xlink:href="#DejaVuSans-35" transform="translate(159.033203 0)"/>
      </g>
     </g>
    </g>
    <g id="ytick_7">
     <g id="line2d_25">
      <path d="M 44.845313 112.388125 
L 563.245313 112.388125 
" clip-path="url(#p95504d7e7b)" style="fill: none; stroke: #b0b0b0; stroke-opacity: 0.3; stroke-width: 0.8; stroke-linecap: square"/>
     </g>
     <g id="line2d_26">
      <g>
       <use xlink:href="#medac9f98b1" x="44.845313" y="112.388125" style="stroke: #000000; stroke-width: 0.8"/>
      </g>
     </g>
     <g id="text_14">
      <!-- 0.50 -->
      <g transform="translate(15.579688 116.187344) scale(0.1 -0.1)">
       <use xlink:href="#DejaVuSans-30"/>
       <use xlink:href="#DejaVuSans-2e" transform="translate(63.623047 0)"/>
       <use xlink:href="#DejaVuSans-35" transform="translate(95.410156 0)"/>
       <use xlink:href="#DejaVuSans-30" transform="translate(159.033203 0)"/>
      </g>
     </g>
    </g>
    <g id="ytick_8">
     <g id="line2d_27">
      <path d="M 44.845313 67.353125 
L 563.245313 67.353125 
" clip-path="url(#p95504d7e7b)" style="fill: none; stroke: #b0b0b0; stroke-opacity: 0.3; stroke-width: 0.8; stroke-linecap: square"/>
     </g>
     <g id="line2d_28">
      <g>
       <use xlink:href="#medac9f98b1" x="44.845313" y="67.353125" style="stroke: #000000; stroke-width: 0.8"/>
      </g>
     </g>
     <g id="text_15">
      <!-- 0.75 -->
      <g transform="translate(15.579688 71.152344) scale(0.1 -0.1)">
       <use xlink:href="#DejaVuSans-30"/>
       <use xlink:href="#DejaVuSans-2e" transform="translate(63.623047 0)"/>
       <use xlink:href="#DejaVuSans-37" transform="translate(95.410156 0)"/>
       <use xlink:href="#DejaVuSans-35" transform="translate(159.033203 0)"/>
      </g>
     </g>
    </g>
    <g id="ytick_9">
     <g id="line2d_29">
      <path d="M 44.845313 22.318125 
L 563.245313 22.318125 
" clip-path="url(#p95504d7e7b)" style="fill: none; stroke: #b0b0b0; stroke-opacity: 0.3; stroke-width: 0.8; stroke-linecap: square"/>
     </g>
     <g id="line2d_30">
      <g>
       <use xlink:href="#medac9f98b1" x="44.845313" y="22.318125" style="stroke: #000000; stroke-width: 0.8"/>
      </g>
     </g>
     <g id="text_16">
      <!-- 1.00 -->
      <g transform="translate(15.579688 26.117344) scale(0.1 -0.1)">
       <use xlink:href="#DejaVuSans-31"/>
       <use xlink:href="#DejaVuSans-2e" transform="translate(63.623047 0)"/>
       <use xlink:href="#DejaVuSans-30" transform="translate(95.410156 0)"/>
       <use xlink:href="#DejaVuSans-30" transform="translate(159.033203 0)"/>
      </g>
     </g>
    </g>
   </g>
   <g id="LineCollection_1">
    <path d="M 68.408949 202.458125 
L 68.408949 22.318125 
" clip-path="url(#p95504d7e7b)" style="fill: none; stroke: #1f77b4; stroke-width: 1.5"/>
    <path d="M 87.64457 202.458125 
L 87.64457 206.541701 
" clip-path="url(#p95504d7e7b)" style="fill: none; stroke: #1f77b4; stroke-width: 1.5"/>
    <path d="M 106.880192 202.458125 
L 106.880192 183.394543 
" clip-path="url(#p95504d7e7b)" style="fill: none; stroke: #1f77b4; stroke-width: 1.5"/>
    <path d="M 126.115813 202.458125 
L 126.115813 208.319753 
" clip-path="url(#p95504d7e7b)" style="fill: none; stroke: #1f77b4; stroke-width: 1.5"/>
    <path d="M 145.351435 202.458125 
L 145.351435 172.70385 
" clip-path="url(#p95504d7e7b)" style="fill: none; stroke: #1f77b4; stroke-width: 1.5"/>
    <path d="M 164.587056 202.458125 
L 164.587056 208.874481 
" clip-path="url(#p95504d7e7b)" style="fill: none; stroke: #1f77b4; stroke-width: 1.5"/>
    <path d="M 183.822678 202.458125 
L 183.822678 221.366179 
" clip-path="url(#p95504d7e7b)" style="fill: none; stroke: #1f77b4; stroke-width: 1.5"/>
    <path d="M 203.0583 202.458125 
L 203.0583 222.725095 
" clip-path="url(#p95504d7e7b)" style="fill: none; stroke: #1f77b4; stroke-width: 1.5"/>
    <path d="M 222.293921 202.458125 
L 222.293921 210.301161 
" clip-path="url(#p95504d7e7b)" style="fill: none; stroke: #1f77b4; stroke-width: 1.5"/>
    <path d="M 241.529543 202.458125 
L 241.529543 204.293137 
" clip-path="url(#p95504d7e7b)" style="fill: none; stroke: #1f77b4; stroke-width: 1.5"/>
    <path d="M 260.765164 202.458125 
L 260.765164 211.898651 
" clip-path="url(#p95504d7e7b)" style="fill: none; stroke: #1f77b4; stroke-width: 1.5"/>
    <path d="M 280.000786 202.458125 
L 280.000786 224.51226 
" clip-path="url(#p95504d7e7b)" style="fill: none; stroke: #1f77b4; stroke-width: 1.5"/>
    <path d="M 299.236407 202.458125 
L 299.236407 210.583576 
" clip-path="url(#p95504d7e7b)" style="fill: none; stroke: #1f77b4; stroke-width: 1.5"/>
    <path d="M 318.472029 202.458125 
L 318.472029 213.412076 
" clip-path="url(#p95504d7e7b)" style="fill: none; stroke: #1f77b4; stroke-width: 1.5"/>
    <path d="M 337.70765 202.458125 
L 337.70765 207.914503 
" clip-path="url(#p95504d7e7b)" style="fill: none; stroke: #1f77b4; stroke-width: 1.5"/>
    <path d="M 356.943272 202.458125 
L 356.943272 213.672228 
" clip-path="url(#p95504d7e7b)" style="fill: none; stroke: #1f77b4; stroke-width: 1.5"/>
    <path d="M 376.178893 202.458125 
L 376.178893 196.559553 
" clip-path="url(#p95504d7e7b)" style="fill: none; stroke: #1f77b4; stroke-width: 1.5"/>
    <path d="M 395.414515 202.458125 
L 395.414515 206.748924 
" clip-path="url(#p95504d7e7b)" style="fill: none; stroke: #1f77b4; stroke-width: 1.5"/>
    <path d="M 414.650136 202.458125 
L 414.650136 190.113001 
" clip-path="url(#p95504d7e7b)" style="fill: none; stroke: #1f77b4; stroke-width: 1.5"/>
    <path d="M 433.885758 202.458125 
L 433.885758 177.694755 
" clip-path="url(#p95504d7e7b)" style="fill: none; stroke: #1f77b4; stroke-width: 1.5"/>
    <path d="M 453.121379 202.458125 
L 453.121379 207.005856 
" clip-path="url(#p95504d7e7b)" style="fill: none; stroke: #1f77b4; stroke-width: 1.5"/>
    <path d="M 472.357001 202.458125 
L 472.357001 211.732744 
" clip-path="url(#p95504d7e7b)" style="fill: none; stroke: #1f77b4; stroke-width: 1.5"/>
    <path d="M 491.592622 202.458125 
L 491.592622 191.326362 
" clip-path="url(#p95504d7e7b)" style="fill: none; stroke: #1f77b4; stroke-width: 1.5"/>
    <path d="M 510.828244 202.458125 
L 510.828244 185.205828 
" clip-path="url(#p95504d7e7b)" style="fill: none; stroke: #1f77b4; stroke-width: 1.5"/>
    <path d="M 530.063865 202.458125 
L 530.063865 195.631516 
" clip-path="url(#p95504d7e7b)" style="fill: none; stroke: #1f77b4; stroke-width: 1.5"/>
   </g>
   <g id="line2d_31">
    <path d="M 44.845313 202.458125 
L 563.245313 202.458125 
" clip-path="url(#p95504d7e7b)" style="fill: none; stroke: #1f77b4; stroke-width: 1.5; stroke-linecap: square"/>
   </g>
   <g id="line2d_32">
    <defs>
     <path id="m8db0f0a7b2" d="M 0 2.5 
C 0.663008 2.5 1.29895 2.236584 1.767767 1.767767 
C 2.236584 1.29895 2.5 0.663008 2.5 0 
C 2.5 -0.663008 2.236584 -1.29895 1.767767 -1.767767 
C 1.29895 -2.236584 0.663008 -2.5 0 -2.5 
C -0.663008 -2.5 -1.29895 -2.236584 -1.767767 -1.767767 
C -2.236584 -1.29895 -2.5 -0.663008 -2.5 0 
C -2.5 0.663008 -2.236584 1.29895 -1.767767 1.767767 
C -1.29895 2.236584 -0.663008 2.5 0 2.5 
z
" style="stroke: #1f77b4"/>
    </defs>
    <g clip-path="url(#p95504d7e7b)">
     <use xlink:href="#m8db0f0a7b2" x="68.408949" y="22.318125" style="fill: #1f77b4; stroke: #1f77b4"/>
     <use xlink:href="#m8db0f0a7b2" x="87.64457" y="206.541701" style="fill: #1f77b4; stroke: #1f77b4"/>
     <use xlink:href="#m8db0f0a7b2" x="106.880192" y="183.394543" style="fill: #1f77b4; stroke: #1f77b4"/>
     <use xlink:href="#m8db0f0a7b2" x="126.115813" y="208.319753" style="fill: #1f77b4; stroke: #1f77b4"/>
     <use xlink:href="#m8db0f0a7b2" x="145.351435" y="172.70385" style="fill: #1f77b4; stroke: #1f77b4"/>
     <use xlink:href="#m8db0f0a7b2" x="164.587056" y="208.874481" style="fill: #1f77b4; stroke: #1f77b4"/>
     <use xlink:href="#m8db0f0a7b2" x="183.822678" y="221.366179" style="fill: #1f77b4; stroke: #1f77b4"/>
     <use xlink:href="#m8db0f0a7b2" x="203.0583" y="222.725095" style="fill: #1f77b4; stroke: #1f77b4"/>
     <use xlink:href="#m8db0f0a7b2" x="222.293921" y="210.301161" style="fill: #1f77b4; stroke: #1f77b4"/>
     <use xlink:href="#m8db0f0a7b2" x="241.529543" y="204.293137" style="fill: #1f77b4; stroke: #1f77b4"/>
     <use xlink:href="#m8db0f0a7b2" x="260.765164" y="211.898651" style="fill: #1f77b4; stroke: #1f77b4"/>
     <use xlink:href="#m8db0f0a7b2" x="280.000786" y="224.51226" style="fill: #1f77b4; stroke: #1f77b4"/>
     <use xlink:href="#m8db0f0a7b2" x="299.236407" y="210.583576" style="fill: #1f77b4; stroke: #1f77b4"/>
     <use xlink:href="#m8db0f0a7b2" x="318.472029" y="213.412076" style="fill: #1f77b4; stroke: #1f77b4"/>
     <use xlink:href="#m8db0f0a7b2" x="337.70765" y="207.914503" style="fill: #1f77b4; stroke: #1f77b4"/>
     <use xlink:href="#m8db0f0a7b2" x="356.943272" y="213.672228" style="fill: #1f77b4; stroke: #1f77b4"/>
     <use xlink:href="#m8db0f0a7b2" x="376.178893" y="196.559553" style="fill: #1f77b4; stroke: #1f77b4"/>
     <use xlink:href="#m8db0f0a7b2" x="395.414515" y="206.748924" style="fill: #1f77b4; stroke: #1f77b4"/>
     <use xlink:href="#m8db0f0a7b2" x="414.650136" y="190.113001" style="fill: #1f77b4; stroke: #1f77b4"/>
     <use xlink:href="#m8db0f0a7b2" x="433.885758" y="177.694755" style="fill: #1f77b4; stroke: #1f77b4"/>
     <use xlink:href="#m8db0f0a7b2" x="453.121379" y="207.005856" style="fill: #1f77b4; stroke: #1f77b4"/>
     <use xlink:href="#m8db0f0a7b2" x="472.357001" y="211.732744" style="fill: #1f77b4; stroke: #1f77b4"/>
     <use xlink:href="#m8db0f0a7b2" x="491.592622" y="191.326362" style="fill: #1f77b4; stroke: #1f77b4"/>
     <use xlink:href="#m8db0f0a7b2" x="510.828244" y="185.205828" style="fill: #1f77b4; stroke: #1f77b4"/>
     <use xlink:href="#m8db0f0a7b2" x="530.063865" y="195.631516" style="fill: #1f77b4; stroke: #1f77b4"/>
    </g>
   </g>
   <g id="patch_3">
    <path d="M 44.845313 382.598125 
L 44.845313 22.318125 
" style="fill: none; stroke: #000000; stroke-width: 0.8; stroke-linejoin: miter; stroke-linecap: square"/>
   </g>
   <g id="patch_4">
    <path d="M 563.245313 382.598125 
L 563.245313 22.318125 
" style="fill: none; stroke: #000000; stroke-width: 0.8; stroke-linejoin: miter; stroke-linecap: square"/>
   </g>
   <g id="patch_5">
    <path d="M 44.845313 382.598125 
L 563.245313 382.598125 
" style="fill: none; stroke: #000000; stroke-width: 0.8; stroke-linejoin: miter; stroke-linecap: square"/>
   </g>
   <g id="patch_6">
    <path d="M 44.845313 22.318125 
L 563.245313 22.318125 
" style="fill: none; stroke: #000000; stroke-width: 0.8; stroke-linejoin: miter; stroke-linecap: square"/>
   </g>
   <g id="text_17">
    <!-- Residual Independence (ACF) -->
    <g transform="translate(215.899688 16.318125) scale(0.12 -0.12)">
     <defs>
      <path id="DejaVuSans-52" d="M 2841 2188 
Q 3044 2119 3236 1894 
Q 3428 1669 3622 1275 
L 4263 0 
L 3584 0 
L 2988 1197 
Q 2756 1666 2539 1819 
Q 2322 1972 1947 1972 
L 1259 1972 
L 1259 0 
L 628 0 
L 628 4666 
L 2053 4666 
Q 2853 4666 3247 4331 
Q 3641 3997 3641 3322 
Q 3641 2881 3436 2590 
Q 3231 2300 2841 2188 
z
M 1259 4147 
L 1259 2491 
L 2053 2491 
Q 2509 2491 2742 2702 
Q 2975 2913 2975 3322 
Q 2975 3731 2742 3939 
Q 2509 4147 2053 4147 
L 1259 4147 
z
" transform="scale(0.015625)"/>
      <path id="DejaVuSans-65" d="M 3597 1894 
L 3597 1613 
L 953 1613 
Q 991 1019 1311 708 
Q 1631 397 2203 397 
Q 2534 397 2845 478 
Q 3156 559 3463 722 
L 3463 178 
Q 3153 47 2828 -22 
Q 2503 -91 2169 -91 
Q 1331 -91 842 396 
Q 353 884 353 1716 
Q 353 2575 817 3079 
Q 1281 3584 2069 3584 
Q 2775 3584 3186 3129 
Q 3597 2675 3597 1894 
z
M 3022 2063 
Q 3016 2534 2758 2815 
Q 2500 3097 2075 3097 
Q 1594 3097 1305 2825 
Q 1016 2553 972 2059 
L 3022 2063 
z
" transform="scale(0.015625)"/>
      <path id="DejaVuSans-69" d="M 603 3500 
L 1178 3500 
L 1178 0 
L 603 0 
L 603 3500 
z
M 603 4863 
L 1178 4863 
L 1178 4134 
L 603 4134 
L 603 4863 
z
" transform="scale(0.015625)"/>
      <path id="DejaVuSans-64" d="M 2906 2969 
L 2906 4863 
L 3481 4863 
L 3481 0 
L 2906 0 
L 2906 525 
Q 2725 213 2448 61 
Q 2172 -91 1784 -91 
Q 1150 -91 751 415 
Q 353 922 353 1747 
Q 353 2572 751 3078 
Q 1150 3584 1784 3584 
Q 2172 3584 2448 3432 
Q 2725 3281 2906 2969 
z
M 947 1747 
Q 947 1113 1208 752 
Q 1469 391 1925 391 
Q 2381 391 2643 752 
Q 2906 1113 2906 1747 
Q 2906 2381 2643 2742 
Q 2381 3103 1925 3103 
Q 1469 3103 1208 2742 
Q 947 2381 947 1747 
z
" transform="scale(0.015625)"/>
      <path id="DejaVuSans-6c" d="M 603 4863 
L 1178 4863 
L 1178 0 
L 603 0 
L 603 4863 
z
" transform="scale(0.015625)"/>
      <path id="DejaVuSans-49" d="M 628 4666 
L 1259 4666 
L 1259 0 
L 628 0 
L 628 4666 
z
" transform="scale(0.015625)"/>
      <path id="DejaVuSans-6e" d="M 3513 2113 
L 3513 0 
L 2938 0 
L 2938 2094 
Q 2938 2591 2744 2837 
Q 2550 3084 2163 3084 
Q 1697 3084 1428 2787 
Q 1159 2491 1159 1978 
L 1159 0 
L 581 0 
L 581 3500 
L 1159 3500 
L 1159 2956 
Q 1366 3272 1645 3428 
Q 1925 3584 2291 3584 
Q 2894 3584 3203 3211 
Q 3513 2838 3513 2113 
z
" transform="scale(0.015625)"/>
      <path id="DejaVuSans-70" d="M 1159 525 
L 1159 -1331 
L 581 -1331 
L 581 3500 
L 1159 3500 
L 1159 2969 
Q 1341 3281 1617 3432 
Q 1894 3584 2278 3584 
Q 2916 3584 3314 3078 
Q 3713 2572 3713 1747 
Q 3713 922 3314 415 
Q 2916 -91 2278 -91 
Q 1894 -91 1617 61 
Q 1341 213 1159 525 
z
M 3116 1747 
Q 3116 2381 2855 2742 
Q 2594 3103 2138 3103 
Q 1681 3103 1420 2742 
Q 1159 2381 1159 1747 
Q 1159 1113 1420 752 
Q 1681 391 2138 391 
Q 2594 391 2855 752 
Q 3116 1113 3116 1747 
z
" transform="scale(0.015625)"/>
      <path id="DejaVuSans-63" d="M 3122 3366 
L 3122 2828 
Q 2878 2963 2633 3030 
Q 2388 3097 2138 3097 
Q 1578 3097 1268 2742 
Q 959 2388 959 1747 
Q 959 1106 1268 751 
Q 1578 397 2138 397 
Q 2388 397 2633 464 
Q 2878 531 3122 666 
L 3122 134 
Q 2881 22 2623 -34 
Q 2366 -91 2075 -91 
Q 1284 -91 818 406 
Q 353 903 353 1747 
Q 353 2603 823 3093 
Q 1294 3584 2113 3584 
Q 2378 3584 2631 3529 
Q 2884 3475 3122 3366 
z
" transform="scale(0.015625)"/>
      <path id="DejaVuSans-41" d="M 2188 4044 
L 1331 1722 
L 3047 1722 
L 2188 4044 
z
M 1831 4666 
L 2547 4666 
L 4325 0 
L 3669 0 
L 3244 1197 
L 1141 1197 
L 716 0 
L 50 0 
L 1831 4666 
z
" transform="scale(0.015625)"/>
      <path id="DejaVuSans-43" d="M 4122 4306 
L 4122 3641 
Q 3803 3938 3442 4084 
Q 3081 4231 2675 4231 
Q 1875 4231 1450 3742 
Q 1025 3253 1025 2328 
Q 1025 1406 1450 917 
Q 1875 428 2675 428 
Q 3081 428 3442 575 
Q 3803 722 4122 1019 
L 4122 359 
Q 3791 134 3420 21 
Q 3050 -91 2638 -91 
Q 1578 -91 968 557 
Q 359 1206 359 2328 
Q 359 3453 968 4101 
Q 1578 4750 2638 4750 
Q 3056 4750 3426 4639 
Q 3797 4528 4122 4306 
z
" transform="scale(0.015625)"/>
      <path id="DejaVuSans-46" d="M 628 4666 
L 3309 4666 
L 3309 4134 
L 1259 4134 
L 1259 2759 
L 3109 2759 
L 3109 2228 
L 1259 2228 
L 1259 0 
L 628 0 
L 628 4666 
z
" transform="scale(0.015625)"/>
     </defs>
     <use xlink:href="#DejaVuSans-52"/>
     <use xlink:href="#DejaVuSans-65" transform="translate(64.982422 0)"/>
     <use xlink:href="#DejaVuSans-73" transform="translate(126.505859 0)"/>
     <use xlink:href="#DejaVuSans-69" transform="translate(178.605469 0)"/>
     <use xlink:href="#DejaVuSans-64" transform="translate(206.388672 0)"/>
     <use xlink:href="#DejaVuSans-75" transform="translate(269.865234 0)"/>
     <use xlink:href="#DejaVuSans-61" transform="translate(333.244141 0)"/>
     <use xlink:href="#DejaVuSans-6c" transform="translate(394.523438 0)"/>
     <use xlink:href="#DejaVuSans-20" transform="translate(422.306641 0)"/>
     <use xlink:href="#DejaVuSans-49" transform="translate(454.09375 0)"/>
     <use xlink:href="#DejaVuSans-6e" transform="translate(483.585938 0)"/>
     <use xlink:href="#DejaVuSans-64" transform="translate(546.964844 0)"/>
     <use xlink:href="#DejaVuSans-65" transform="translate(610.441406 0)"/>
     <use xlink:href="#DejaVuSans-70" transform="translate(671.964844 0)"/>
     <use xlink:href="#DejaVuSans-65" transform="translate(735.441406 0)"/>
     <use xlink:href="#DejaVuSans-6e" transform="translate(796.964844 0)"/>
     <use xlink:href="#DejaVuSans-64" transform="translate(860.34375 0)"/>
     <use xlink:href="#DejaVuSans-65" transform="translate(923.820312 0)"/>
     <use xlink:href="#DejaVuSans-6e" transform="translate(985.34375 0)"/>
     <use xlink:href="#DejaVuSans-63" transform="translate(1048.722656 0)"/>
     <use xlink:href="#DejaVuSans-65" transform="translate(1103.703125 0)"/>
     <use xlink:href="#DejaVuSans-20" transform="translate(1165.226562 0)"/>
     <use xlink:href="#DejaVuSans-28" transform="translate(1197.013672 0)"/>
     <use xlink:href="#DejaVuSans-41" transform="translate(1236.027344 0)"/>
     <use xlink:href="#DejaVuSans-43" transform="translate(1302.685547 0)"/>
     <use xlink:href="#DejaVuSans-46" transform="translate(1372.509766 0)"/>
     <use xlink:href="#DejaVuSans-29" transform="translate(1430.029297 0)"/>
    </g>
   </g>
  </g>
  <g id="axes_2">
   <g id="patch_7">
    <path d="M 619.335313 382.598125 
L 1137.735312 382.598125 
L 1137.735312 22.318125 
L 619.335313 22.318125 
z
" style="fill: #ffffff"/>
   </g>
   <g id="matplotlib.axis_3">
    <g id="xtick_7">
     <g id="line2d_33">
      <path d="M 642.898949 382.598125 
L 642.898949 22.318125 
" clip-path="url(#pc822cfca0a)" style="fill: none; stroke: #b0b0b0; stroke-opacity: 0.3; stroke-width: 0.8; stroke-linecap: square"/>
     </g>
     <g id="line2d_34">
      <g>
       <use xlink:href="#m4d3817df65" x="642.898949" y="382.598125" style="stroke: #000000; stroke-width: 0.8"/>
      </g>
     </g>
     <g id="text_18">
      <!-- 0 -->
      <g transform="translate(639.717699 397.196562) scale(0.1 -0.1)">
       <use xlink:href="#DejaVuSans-30"/>
      </g>
     </g>
    </g>
    <g id="xtick_8">
     <g id="line2d_35">
      <path d="M 737.153494 382.598125 
L 737.153494 22.318125 
" clip-path="url(#pc822cfca0a)" style="fill: none; stroke: #b0b0b0; stroke-opacity: 0.3; stroke-width: 0.8; stroke-linecap: square"/>
     </g>
     <g id="line2d_36">
      <g>
       <use xlink:href="#m4d3817df65" x="737.153494" y="382.598125" style="stroke: #000000; stroke-width: 0.8"/>
      </g>
     </g>
     <g id="text_19">
      <!-- 2 -->
      <g transform="translate(733.972244 397.196562) scale(0.1 -0.1)">
       <use xlink:href="#DejaVuSans-32"/>
      </g>
     </g>
    </g>
    <g id="xtick_9">
     <g id="line2d_37">
      <path d="M 831.40804 382.598125 
L 831.40804 22.318125 
" clip-path="url(#pc822cfca0a)" style="fill: none; stroke: #b0b0b0; stroke-opacity: 0.3; stroke-width: 0.8; stroke-linecap: square"/>
     </g>
     <g id="line2d_38">
      <g>
       <use xlink:href="#m4d3817df65" x="831.40804" y="382.598125" style="stroke: #000000; stroke-width: 0.8"/>
      </g>
     </g>
     <g id="text_20">
      <!-- 4 -->
      <g transform="translate(828.22679 397.196562) scale(0.1 -0.1)">
       <defs>
        <path id="DejaVuSans-34" d="M 2419 4116 
L 825 1625 
L 2419 1625 
L 2419 4116 
z
M 2253 4666 
L 3047 4666 
L 3047 1625 
L 3713 1625 
L 3713 1100 
L 3047 1100 
L 3047 0 
L 2419 0 
L 2419 1100 
L 313 1100 
L 313 1709 
L 2253 4666 
z
" transform="scale(0.015625)"/>
       </defs>
       <use xlink:href="#DejaVuSans-34"/>
      </g>
     </g>
    </g>
    <g id="xtick_10">
     <g id="line2d_39">
      <path d="M 925.662585 382.598125 
L 925.662585 22.318125 
" clip-path="url(#pc822cfca0a)" style="fill: none; stroke: #b0b0b0; stroke-opacity: 0.3; stroke-width: 0.8; stroke-linecap: square"/>
     </g>
     <g id="line2d_40">
      <g>
       <use xlink:href="#m4d3817df65" x="925.662585" y="382.598125" style="stroke: #000000; stroke-width: 0.8"/>
      </g>
     </g>
     <g id="text_21">
      <!-- 6 -->
      <g transform="translate(922.481335 397.196562) scale(0.1 -0.1)">
       <defs>
        <path id="DejaVuSans-36" d="M 2113 2584 
Q 1688 2584 1439 2293 
Q 1191 2003 1191 1497 
Q 1191 994 1439 701 
Q 1688 409 2113 409 
Q 2538 409 2786 701 
Q 3034 994 3034 1497 
Q 3034 2003 2786 2293 
Q 2538 2584 2113 2584 
z
M 3366 4563 
L 3366 3988 
Q 3128 4100 2886 4159 
Q 2644 4219 2406 4219 
Q 1781 4219 1451 3797 
Q 1122 3375 1075 2522 
Q 1259 2794 1537 2939 
Q 1816 3084 2150 3084 
Q 2853 3084 3261 2657 
Q 3669 2231 3669 1497 
Q 3669 778 3244 343 
Q 2819 -91 2113 -91 
Q 1303 -91 875 529 
Q 447 1150 447 2328 
Q 447 3434 972 4092 
Q 1497 4750 2381 4750 
Q 2619 4750 2861 4703 
Q 3103 4656 3366 4563 
z
" transform="scale(0.015625)"/>
       </defs>
       <use xlink:href="#DejaVuSans-36"/>
      </g>
     </g>
    </g>
    <g id="xtick_11">
     <g id="line2d_41">
      <path d="M 1019.917131 382.598125 
L 1019.917131 22.318125 
" clip-path="url(#pc822cfca0a)" style="fill: none; stroke: #b0b0b0; stroke-opacity: 0.3; stroke-width: 0.8; stroke-linecap: square"/>
     </g>
     <g id="line2d_42">
      <g>
       <use xlink:href="#m4d3817df65" x="1019.917131" y="382.598125" style="stroke: #000000; stroke-width: 0.8"/>
      </g>
     </g>
     <g id="text_22">
      <!-- 8 -->
      <g transform="translate(1016.735881 397.196562) scale(0.1 -0.1)">
       <defs>
        <path id="DejaVuSans-38" d="M 2034 2216 
Q 1584 2216 1326 1975 
Q 1069 1734 1069 1313 
Q 1069 891 1326 650 
Q 1584 409 2034 409 
Q 2484 409 2743 651 
Q 3003 894 3003 1313 
Q 3003 1734 2745 1975 
Q 2488 2216 2034 2216 
z
M 1403 2484 
Q 997 2584 770 2862 
Q 544 3141 544 3541 
Q 544 4100 942 4425 
Q 1341 4750 2034 4750 
Q 2731 4750 3128 4425 
Q 3525 4100 3525 3541 
Q 3525 3141 3298 2862 
Q 3072 2584 2669 2484 
Q 3125 2378 3379 2068 
Q 3634 1759 3634 1313 
Q 3634 634 3220 271 
Q 2806 -91 2034 -91 
Q 1263 -91 848 271 
Q 434 634 434 1313 
Q 434 1759 690 2068 
Q 947 2378 1403 2484 
z
M 1172 3481 
Q 1172 3119 1398 2916 
Q 1625 2713 2034 2713 
Q 2441 2713 2670 2916 
Q 2900 3119 2900 3481 
Q 2900 3844 2670 4047 
Q 2441 4250 2034 4250 
Q 1625 4250 1398 4047 
Q 1172 3844 1172 3481 
z
" transform="scale(0.015625)"/>
       </defs>
       <use xlink:href="#DejaVuSans-38"/>
      </g>
     </g>
    </g>
    <g id="xtick_12">
     <g id="line2d_43">
      <path d="M 1114.171676 382.598125 
L 1114.171676 22.318125 
" clip-path="url(#pc822cfca0a)" style="fill: none; stroke: #b0b0b0; stroke-opacity: 0.3; stroke-width: 0.8; stroke-linecap: square"/>
     </g>
     <g id="line2d_44">
      <g>
       <use xlink:href="#m4d3817df65" x="1114.171676" y="382.598125" style="stroke: #000000; stroke-width: 0.8"/>
      </g>
     </g>
     <g id="text_23">
      <!-- 10 -->
      <g transform="translate(1107.809176 397.196562) scale(0.1 -0.1)">
       <use xlink:href="#DejaVuSans-31"/>
       <use xlink:href="#DejaVuSans-30" transform="translate(63.623047 0)"/>
      </g>
     </g>
    </g>
    <g id="text_24">
     <!-- Lag $k$ (Hours) -->
     <g transform="translate(844.885313 410.87625) scale(0.1 -0.1)">
      <defs>
       <path id="DejaVuSans-Oblique-6b" d="M 1172 4863 
L 1747 4863 
L 1197 2028 
L 3169 3500 
L 3916 3500 
L 1716 1825 
L 3322 0 
L 2625 0 
L 1131 1709 
L 800 0 
L 225 0 
L 1172 4863 
z
" transform="scale(0.015625)"/>
      </defs>
      <use xlink:href="#DejaVuSans-4c" transform="translate(0 0.015625)"/>
      <use xlink:href="#DejaVuSans-61" transform="translate(55.712891 0.015625)"/>
      <use xlink:href="#DejaVuSans-67" transform="translate(116.992188 0.015625)"/>
      <use xlink:href="#DejaVuSans-20" transform="translate(180.46875 0.015625)"/>
      <use xlink:href="#DejaVuSans-Oblique-6b" transform="translate(212.255859 0.015625)"/>
      <use xlink:href="#DejaVuSans-20" transform="translate(270.166016 0.015625)"/>
      <use xlink:href="#DejaVuSans-28" transform="translate(301.953125 0.015625)"/>
      <use xlink:href="#DejaVuSans-48" transform="translate(340.966797 0.015625)"/>
      <use xlink:href="#DejaVuSans-6f" transform="translate(416.162109 0.015625)"/>
      <use xlink:href="#DejaVuSans-75" transform="translate(477.34375 0.015625)"/>
      <use xlink:href="#DejaVuSans-72" transform="translate(540.722656 0.015625)"/>
      <use xlink:href="#DejaVuSans-73" transform="translate(581.835938 0.015625)"/>
      <use xlink:href="#DejaVuSans-29" transform="translate(633.935547 0.015625)"/>
     </g>
    </g>
   </g>
   <g id="matplotlib.axis_4">
    <g id="ytick_10">
     <g id="line2d_45">
      <path d="M 619.335313 337.111958 
L 1137.735312 337.111958 
" clip-path="url(#pc822cfca0a)" style="fill: none; stroke: #b0b0b0; stroke-opacity: 0.3; stroke-width: 0.8; stroke-linecap: square"/>
     </g>
     <g id="line2d_46">
      <g>
       <use xlink:href="#medac9f98b1" x="619.335313" y="337.111958" style="stroke: #000000; stroke-width: 0.8"/>
      </g>
     </g>
     <g id="text_25">
      <!-- −0.4 -->
      <g transform="translate(588.0525 340.911177) scale(0.1 -0.1)">
       <use xlink:href="#DejaVuSans-2212"/>
       <use xlink:href="#DejaVuSans-30" transform="translate(83.789062 0)"/>
       <use xlink:href="#DejaVuSans-2e" transform="translate(147.412109 0)"/>
       <use xlink:href="#DejaVuSans-34" transform="translate(179.199219 0)"/>
      </g>
     </g>
    </g>
    <g id="ytick_11">
     <g id="line2d_47">
      <path d="M 619.335313 283.877258 
L 1137.735312 283.877258 
" clip-path="url(#pc822cfca0a)" style="fill: none; stroke: #b0b0b0; stroke-opacity: 0.3; stroke-width: 0.8; stroke-linecap: square"/>
     </g>
     <g id="line2d_48">
      <g>
       <use xlink:href="#medac9f98b1" x="619.335313" y="283.877258" style="stroke: #000000; stroke-width: 0.8"/>
      </g>
     </g>
     <g id="text_26">
      <!-- −0.3 -->
      <g transform="translate(588.0525 287.676477) scale(0.1 -0.1)">
       <defs>
        <path id="DejaVuSans-33" d="M 2597 2516 
Q 3050 2419 3304 2112 
Q 3559 1806 3559 1356 
Q 3559 666 3084 287 
Q 2609 -91 1734 -91 
Q 1441 -91 1130 -33 
Q 819 25 488 141 
L 488 750 
Q 750 597 1062 519 
Q 1375 441 1716 441 
Q 2309 441 2620 675 
Q 2931 909 2931 1356 
Q 2931 1769 2642 2001 
Q 2353 2234 1838 2234 
L 1294 2234 
L 1294 2753 
L 1863 2753 
Q 2328 2753 2575 2939 
Q 2822 3125 2822 3475 
Q 2822 3834 2567 4026 
Q 2313 4219 1838 4219 
Q 1578 4219 1281 4162 
Q 984 4106 628 3988 
L 628 4550 
Q 988 4650 1302 4700 
Q 1616 4750 1894 4750 
Q 2613 4750 3031 4423 
Q 3450 4097 3450 3541 
Q 3450 3153 3228 2886 
Q 3006 2619 2597 2516 
z
" transform="scale(0.015625)"/>
       </defs>
       <use xlink:href="#DejaVuSans-2212"/>
       <use xlink:href="#DejaVuSans-30" transform="translate(83.789062 0)"/>
       <use xlink:href="#DejaVuSans-2e" transform="translate(147.412109 0)"/>
       <use xlink:href="#DejaVuSans-33" transform="translate(179.199219 0)"/>
      </g>
     </g>
    </g>
    <g id="ytick_12">
     <g id="line2d_49">
      <path d="M 619.335313 230.642558 
L 1137.735312 230.642558 
" clip-path="url(#pc822cfca0a)" style="fill: none; stroke: #b0b0b0; stroke-opacity: 0.3; stroke-width: 0.8; stroke-linecap: square"/>
     </g>
     <g id="line2d_50">
      <g>
       <use xlink:href="#medac9f98b1" x="619.335313" y="230.642558" style="stroke: #000000; stroke-width: 0.8"/>
      </g>
     </g>
     <g id="text_27">
      <!-- −0.2 -->
      <g transform="translate(588.0525 234.441777) scale(0.1 -0.1)">
       <use xlink:href="#DejaVuSans-2212"/>
       <use xlink:href="#DejaVuSans-30" transform="translate(83.789062 0)"/>
       <use xlink:href="#DejaVuSans-2e" transform="translate(147.412109 0)"/>
       <use xlink:href="#DejaVuSans-32" transform="translate(179.199219 0)"/>
      </g>
     </g>
    </g>
    <g id="ytick_13">
     <g id="line2d_51">
      <path d="M 619.335313 177.407858 
L 1137.735312 177.407858 
" clip-path="url(#pc822cfca0a)" style="fill: none; stroke: #b0b0b0; stroke-opacity: 0.3; stroke-width: 0.8; stroke-linecap: square"/>
     </g>
     <g id="line2d_52">
      <g>
       <use xlink:href="#medac9f98b1" x="619.335313" y="177.407858" style="stroke: #000000; stroke-width: 0.8"/>
      </g>
     </g>
     <g id="text_28">
      <!-- −0.1 -->
      <g transform="translate(588.0525 181.207076) scale(0.1 -0.1)">
       <use xlink:href="#DejaVuSans-2212"/>
       <use xlink:href="#DejaVuSans-30" transform="translate(83.789062 0)"/>
       <use xlink:href="#DejaVuSans-2e" transform="translate(147.412109 0)"/>
       <use xlink:href="#DejaVuSans-31" transform="translate(179.199219 0)"/>
      </g>
     </g>
    </g>
    <g id="ytick_14">
     <g id="line2d_53">
      <path d="M 619.335313 124.173157 
L 1137.735312 124.173157 
" clip-path="url(#pc822cfca0a)" style="fill: none; stroke: #b0b0b0; stroke-opacity: 0.3; stroke-width: 0.8; stroke-linecap: square"/>
     </g>
     <g id="line2d_54">
      <g>
       <use xlink:href="#medac9f98b1" x="619.335313" y="124.173157" style="stroke: #000000; stroke-width: 0.8"/>
      </g>
     </g>
     <g id="text_29">
      <!-- 0.0 -->
      <g transform="translate(596.432188 127.972376) scale(0.1 -0.1)">
       <use xlink:href="#DejaVuSans-30"/>
       <use xlink:href="#DejaVuSans-2e" transform="translate(63.623047 0)"/>
       <use xlink:href="#DejaVuSans-30" transform="translate(95.410156 0)"/>
      </g>
     </g>
    </g>
    <g id="ytick_15">
     <g id="line2d_55">
      <path d="M 619.335313 70.938457 
L 1137.735312 70.938457 
" clip-path="url(#pc822cfca0a)" style="fill: none; stroke: #b0b0b0; stroke-opacity: 0.3; stroke-width: 0.8; stroke-linecap: square"/>
     </g>
     <g id="line2d_56">
      <g>
       <use xlink:href="#medac9f98b1" x="619.335313" y="70.938457" style="stroke: #000000; stroke-width: 0.8"/>
      </g>
     </g>
     <g id="text_30">
      <!-- 0.1 -->
      <g transform="translate(596.432188 74.737676) scale(0.1 -0.1)">
       <use xlink:href="#DejaVuSans-30"/>
       <use xlink:href="#DejaVuSans-2e" transform="translate(63.623047 0)"/>
       <use xlink:href="#DejaVuSans-31" transform="translate(95.410156 0)"/>
      </g>
     </g>
    </g>
    <g id="text_31">
     <!-- Correlation -->
     <g transform="translate(581.972813 230.026875) rotate(-90) scale(0.1 -0.1)">
      <defs>
       <path id="DejaVuSans-74" d="M 1172 4494 
L 1172 3500 
L 2356 3500 
L 2356 3053 
L 1172 3053 
L 1172 1153 
Q 1172 725 1289 603 
Q 1406 481 1766 481 
L 2356 481 
L 2356 0 
L 1766 0 
Q 1100 0 847 248 
Q 594 497 594 1153 
L 594 3053 
L 172 3053 
L 172 3500 
L 594 3500 
L 594 4494 
L 1172 4494 
z
" transform="scale(0.015625)"/>
      </defs>
      <use xlink:href="#DejaVuSans-43"/>
      <use xlink:href="#DejaVuSans-6f" transform="translate(69.824219 0)"/>
      <use xlink:href="#DejaVuSans-72" transform="translate(131.005859 0)"/>
      <use xlink:href="#DejaVuSans-72" transform="translate(170.369141 0)"/>
      <use xlink:href="#DejaVuSans-65" transform="translate(209.232422 0)"/>
      <use xlink:href="#DejaVuSans-6c" transform="translate(270.755859 0)"/>
      <use xlink:href="#DejaVuSans-61" transform="translate(298.539062 0)"/>
      <use xlink:href="#DejaVuSans-74" transform="translate(359.818359 0)"/>
      <use xlink:href="#DejaVuSans-69" transform="translate(399.027344 0)"/>
      <use xlink:href="#DejaVuSans-6f" transform="translate(426.810547 0)"/>
      <use xlink:href="#DejaVuSans-6e" transform="translate(487.992188 0)"/>
     </g>
    </g>
   </g>
   <g id="LineCollection_2">
    <path d="M 642.898949 124.173157 
L 642.898949 115.115438 
" clip-path="url(#pc822cfca0a)" style="fill: none; stroke: #4169e1; stroke-width: 1.5"/>
    <path d="M 690.026222 124.173157 
L 690.026222 144.103764 
" clip-path="url(#pc822cfca0a)" style="fill: none; stroke: #4169e1; stroke-width: 1.5"/>
    <path d="M 737.153494 124.173157 
L 737.153494 168.027093 
" clip-path="url(#pc822cfca0a)" style="fill: none; stroke: #4169e1; stroke-width: 1.5"/>
    <path d="M 784.280767 124.173157 
L 784.280767 165.172001 
" clip-path="url(#pc822cfca0a)" style="fill: none; stroke: #4169e1; stroke-width: 1.5"/>
    <path d="M 831.40804 124.173157 
L 831.40804 169.162678 
" clip-path="url(#pc822cfca0a)" style="fill: none; stroke: #4169e1; stroke-width: 1.5"/>
    <path d="M 878.535313 124.173157 
L 878.535313 189.802042 
" clip-path="url(#pc822cfca0a)" style="fill: none; stroke: #4169e1; stroke-width: 1.5"/>
    <path d="M 925.662585 124.173157 
L 925.662585 196.572052 
" clip-path="url(#pc822cfca0a)" style="fill: none; stroke: #4169e1; stroke-width: 1.5"/>
    <path d="M 972.789858 124.173157 
L 972.789858 192.377672 
" clip-path="url(#pc822cfca0a)" style="fill: none; stroke: #4169e1; stroke-width: 1.5"/>
    <path d="M 1019.917131 124.173157 
L 1019.917131 195.719386 
" clip-path="url(#pc822cfca0a)" style="fill: none; stroke: #4169e1; stroke-width: 1.5"/>
    <path d="M 1067.044403 124.173157 
L 1067.044403 200.654726 
" clip-path="url(#pc822cfca0a)" style="fill: none; stroke: #4169e1; stroke-width: 1.5"/>
    <path d="M 1114.171676 124.173157 
L 1114.171676 208.867819 
" clip-path="url(#pc822cfca0a)" style="fill: none; stroke: #4169e1; stroke-width: 1.5"/>
   </g>
   <g id="line2d_57">
    <defs>
     <path id="me17603adbe" d="M 0 3 
C 0.795609 3 1.55874 2.683901 2.12132 2.12132 
C 2.683901 1.55874 3 0.795609 3 0 
C 3 -0.795609 2.683901 -1.55874 2.12132 -2.12132 
C 1.55874 -2.683901 0.795609 -3 0 -3 
C -0.795609 -3 -1.55874 -2.683901 -2.12132 -2.12132 
C -2.683901 -1.55874 -3 -0.795609 -3 0 
C -3 0.795609 -2.683901 1.55874 -2.12132 2.12132 
C -1.55874 2.683901 -0.795609 3 0 3 
z
" style="stroke: #0000ff"/>
    </defs>
    <g clip-path="url(#pc822cfca0a)">
     <use xlink:href="#me17603adbe" x="642.898949" y="115.115438" style="fill: #0000ff; stroke: #0000ff"/>
     <use xlink:href="#me17603adbe" x="690.026222" y="144.103764" style="fill: #0000ff; stroke: #0000ff"/>
     <use xlink:href="#me17603adbe" x="737.153494" y="168.027093" style="fill: #0000ff; stroke: #0000ff"/>
     <use xlink:href="#me17603adbe" x="784.280767" y="165.172001" style="fill: #0000ff; stroke: #0000ff"/>
     <use xlink:href="#me17603adbe" x="831.40804" y="169.162678" style="fill: #0000ff; stroke: #0000ff"/>
     <use xlink:href="#me17603adbe" x="878.535313" y="189.802042" style="fill: #0000ff; stroke: #0000ff"/>
     <use xlink:href="#me17603adbe" x="925.662585" y="196.572052" style="fill: #0000ff; stroke: #0000ff"/>
     <use xlink:href="#me17603adbe" x="972.789858" y="192.377672" style="fill: #0000ff; stroke: #0000ff"/>
     <use xlink:href="#me17603adbe" x="1019.917131" y="195.719386" style="fill: #0000ff; stroke: #0000ff"/>
     <use xlink:href="#me17603adbe" x="1067.044403" y="200.654726" style="fill: #0000ff; stroke: #0000ff"/>
     <use xlink:href="#me17603adbe" x="1114.171676" y="208.867819" style="fill: #0000ff; stroke: #0000ff"/>
    </g>
   </g>
   <g id="line2d_58">
    <path d="M 642.898949 124.173157 
L 1114.171676 124.173157 
" clip-path="url(#pc822cfca0a)" style="fill: none; stroke: #d62728; stroke-width: 1.5; stroke-linecap: square"/>
   </g>
   <g id="LineCollection_3">
    <path d="M 642.898949 121.511422 
L 642.898949 366.221761 
" clip-path="url(#pc822cfca0a)" style="fill: none; stroke: #ffa500; stroke-width: 1.5"/>
    <path d="M 690.026222 121.511422 
L 690.026222 248.232832 
" clip-path="url(#pc822cfca0a)" style="fill: none; stroke: #ffa500; stroke-width: 1.5"/>
    <path d="M 737.153494 121.511422 
L 737.153494 211.567663 
" clip-path="url(#pc822cfca0a)" style="fill: none; stroke: #ffa500; stroke-width: 1.5"/>
    <path d="M 784.280767 121.511422 
L 784.280767 218.598975 
" clip-path="url(#pc822cfca0a)" style="fill: none; stroke: #ffa500; stroke-width: 1.5"/>
    <path d="M 831.40804 121.511422 
L 831.40804 138.570244 
" clip-path="url(#pc822cfca0a)" style="fill: none; stroke: #ffa500; stroke-width: 1.5"/>
    <path d="M 878.535313 121.511422 
L 878.535313 75.313321 
" clip-path="url(#pc822cfca0a)" style="fill: none; stroke: #ffa500; stroke-width: 1.5"/>
    <path d="M 925.662585 121.511422 
L 925.662585 75.510246 
" clip-path="url(#pc822cfca0a)" style="fill: none; stroke: #ffa500; stroke-width: 1.5"/>
    <path d="M 972.789858 121.511422 
L 972.789858 82.595908 
" clip-path="url(#pc822cfca0a)" style="fill: none; stroke: #ffa500; stroke-width: 1.5"/>
    <path d="M 1019.917131 121.511422 
L 1019.917131 88.06208 
" clip-path="url(#pc822cfca0a)" style="fill: none; stroke: #ffa500; stroke-width: 1.5"/>
    <path d="M 1067.044403 121.511422 
L 1067.044403 75.983183 
" clip-path="url(#pc822cfca0a)" style="fill: none; stroke: #ffa500; stroke-width: 1.5"/>
    <path d="M 1114.171676 121.511422 
L 1114.171676 60.538191 
" clip-path="url(#pc822cfca0a)" style="fill: none; stroke: #ffa500; stroke-width: 1.5"/>
   </g>
   <g id="line2d_59">
    <defs>
     <path id="m2e29a3ea20" d="M 0 3 
C 0.795609 3 1.55874 2.683901 2.12132 2.12132 
C 2.683901 1.55874 3 0.795609 3 0 
C 3 -0.795609 2.683901 -1.55874 2.12132 -2.12132 
C 1.55874 -2.683901 0.795609 -3 0 -3 
C -0.795609 -3 -1.55874 -2.683901 -2.12132 -2.12132 
C -2.683901 -1.55874 -3 -0.795609 -3 0 
C -3 0.795609 -2.683901 1.55874 -2.12132 2.12132 
C -1.55874 2.683901 -0.795609 3 0 3 
z
" style="stroke: #ff0000"/>
    </defs>
    <g clip-path="url(#pc822cfca0a)">
     <use xlink:href="#m2e29a3ea20" x="642.898949" y="366.221761" style="fill: #ff0000; stroke: #ff0000"/>
     <use xlink:href="#m2e29a3ea20" x="690.026222" y="248.232832" style="fill: #ff0000; stroke: #ff0000"/>
     <use xlink:href="#m2e29a3ea20" x="737.153494" y="211.567663" style="fill: #ff0000; stroke: #ff0000"/>
     <use xlink:href="#m2e29a3ea20" x="784.280767" y="218.598975" style="fill: #ff0000; stroke: #ff0000"/>
     <use xlink:href="#m2e29a3ea20" x="831.40804" y="138.570244" style="fill: #ff0000; stroke: #ff0000"/>
     <use xlink:href="#m2e29a3ea20" x="878.535313" y="75.313321" style="fill: #ff0000; stroke: #ff0000"/>
     <use xlink:href="#m2e29a3ea20" x="925.662585" y="75.510246" style="fill: #ff0000; stroke: #ff0000"/>
     <use xlink:href="#m2e29a3ea20" x="972.789858" y="82.595908" style="fill: #ff0000; stroke: #ff0000"/>
     <use xlink:href="#m2e29a3ea20" x="1019.917131" y="88.06208" style="fill: #ff0000; stroke: #ff0000"/>
     <use xlink:href="#m2e29a3ea20" x="1067.044403" y="75.983183" style="fill: #ff0000; stroke: #ff0000"/>
     <use xlink:href="#m2e29a3ea20" x="1114.171676" y="60.538191" style="fill: #ff0000; stroke: #ff0000"/>
    </g>
   </g>
   <g id="line2d_60">
    <path d="M 642.898949 121.511422 
L 1114.171676 121.511422 
" clip-path="url(#pc822cfca0a)" style="fill: none; stroke: #d62728; stroke-width: 1.5; stroke-linecap: square"/>
   </g>
   <g id="line2d_61">
    <path d="M 619.335313 38.694489 
L 1137.735312 38.694489 
" clip-path="url(#pc822cfca0a)" style="fill: none; stroke-dasharray: 5.55,2.4; stroke-dashoffset: 0; stroke: #ff0000; stroke-width: 1.5"/>
   </g>
   <g id="line2d_62">
    <path d="M 619.335313 209.651826 
L 1137.735312 209.651826 
" clip-path="url(#pc822cfca0a)" style="fill: none; stroke-dasharray: 5.55,2.4; stroke-dashoffset: 0; stroke: #ff0000; stroke-width: 1.5"/>
   </g>
   <g id="line2d_63">
    <path d="M 619.335313 124.173157 
L 1137.735312 124.173157 
" clip-path="url(#pc822cfca0a)" style="fill: none; stroke: #000000; stroke-linecap: square"/>
   </g>
   <g id="patch_8">
    <path d="M 619.335313 382.598125 
L 619.335313 22.318125 
" style="fill: none; stroke: #000000; stroke-width: 0.8; stroke-linejoin: miter; stroke-linecap: square"/>
   </g>
   <g id="patch_9">
    <path d="M 1137.735312 382.598125 
L 1137.735312 22.318125 
" style="fill: none; stroke: #000000; stroke-width: 0.8; stroke-linejoin: miter; stroke-linecap: square"/>
   </g>
   <g id="patch_10">
    <path d="M 619.335313 382.598125 
L 1137.735312 382.598125 
" style="fill: none; stroke: #000000; stroke-width: 0.8; stroke-linejoin: miter; stroke-linecap: square"/>
   </g>
   <g id="patch_11">
    <path d="M 619.335313 22.318125 
L 1137.735312 22.318125 
" style="fill: none; stroke: #000000; stroke-width: 0.8; stroke-linejoin: miter; stroke-linecap: square"/>
   </g>
   <g id="text_32">
    <!-- Input-to-Residual Correlation (CCF) -->
    <g transform="translate(773.786563 16.318125) scale(0.12 -0.12)">
     <defs>
      <path id="DejaVuSans-2d" d="M 313 2009 
L 1997 2009 
L 1997 1497 
L 313 1497 
L 313 2009 
z
" transform="scale(0.015625)"/>
     </defs>
     <use xlink:href="#DejaVuSans-49"/>
     <use xlink:href="#DejaVuSans-6e" transform="translate(29.492188 0)"/>
     <use xlink:href="#DejaVuSans-70" transform="translate(92.871094 0)"/>
     <use xlink:href="#DejaVuSans-75" transform="translate(156.347656 0)"/>
     <use xlink:href="#DejaVuSans-74" transform="translate(219.726562 0)"/>
     <use xlink:href="#DejaVuSans-2d" transform="translate(258.935547 0)"/>
     <use xlink:href="#DejaVuSans-74" transform="translate(295.019531 0)"/>
     <use xlink:href="#DejaVuSans-6f" transform="translate(334.228516 0)"/>
     <use xlink:href="#DejaVuSans-2d" transform="translate(397.285156 0)"/>
     <use xlink:href="#DejaVuSans-52" transform="translate(433.369141 0)"/>
     <use xlink:href="#DejaVuSans-65" transform="translate(498.351562 0)"/>
     <use xlink:href="#DejaVuSans-73" transform="translate(559.875 0)"/>
     <use xlink:href="#DejaVuSans-69" transform="translate(611.974609 0)"/>
     <use xlink:href="#DejaVuSans-64" transform="translate(639.757812 0)"/>
     <use xlink:href="#DejaVuSans-75" transform="translate(703.234375 0)"/>
     <use xlink:href="#DejaVuSans-61" transform="translate(766.613281 0)"/>
     <use xlink:href="#DejaVuSans-6c" transform="translate(827.892578 0)"/>
     <use xlink:href="#DejaVuSans-20" transform="translate(855.675781 0)"/>
     <use xlink:href="#DejaVuSans-43" transform="translate(887.462891 0)"/>
     <use xlink:href="#DejaVuSans-6f" transform="translate(957.287109 0)"/>
     <use xlink:href="#DejaVuSans-72" transform="translate(1018.46875 0)"/>
     <use xlink:href="#DejaVuSans-72" transform="translate(1057.832031 0)"/>
     <use xlink:href="#DejaVuSans-65" transform="translate(1096.695312 0)"/>
     <use xlink:href="#DejaVuSans-6c" transform="translate(1158.21875 0)"/>
     <use xlink:href="#DejaVuSans-61" transform="translate(1186.001953 0)"/>
     <use xlink:href="#DejaVuSans-74" transform="translate(1247.28125 0)"/>
     <use xlink:href="#DejaVuSans-69" transform="translate(1286.490234 0)"/>
     <use xlink:href="#DejaVuSans-6f" transform="translate(1314.273438 0)"/>
     <use xlink:href="#DejaVuSans-6e" transform="translate(1375.455078 0)"/>
     <use xlink:href="#DejaVuSans-20" transform="translate(1438.833984 0)"/>
     <use xlink:href="#DejaVuSans-28" transform="translate(1470.621094 0)"/>
     <use xlink:href="#DejaVuSans-43" transform="translate(1509.634766 0)"/>
     <use xlink:href="#DejaVuSans-43" transform="translate(1579.458984 0)"/>
     <use xlink:href="#DejaVuSans-46" transform="translate(1649.283203 0)"/>
     <use xlink:href="#DejaVuSans-29" transform="translate(1706.802734 0)"/>
    </g>
   </g>
   <g id="legend_1">
    <g id="patch_12">
     <path d="M 997.338437 377.598125 
L 1130.735312 377.598125 
Q 1132.735312 377.598125 1132.735312 375.598125 
L 1132.735312 332.56375 
Q 1132.735312 330.56375 1130.735312 330.56375 
L 997.338437 330.56375 
Q 995.338437 330.56375 995.338437 332.56375 
L 995.338437 375.598125 
Q 995.338437 377.598125 997.338437 377.598125 
z
" style="fill: #ffffff; opacity: 0.8; stroke: #cccccc; stroke-linejoin: miter"/>
    </g>
    <g id="line2d_64">
     <path d="M 999.338437 338.662187 
L 1009.338437 338.662187 
L 1019.338437 338.662187 
" style="fill: none; stroke-dasharray: 5.55,2.4; stroke-dashoffset: 0; stroke: #ff0000; stroke-width: 1.5"/>
    </g>
    <g id="text_33">
     <!-- 95% CI -->
     <g transform="translate(1027.338438 342.162187) scale(0.1 -0.1)">
      <defs>
       <path id="DejaVuSans-39" d="M 703 97 
L 703 672 
Q 941 559 1184 500 
Q 1428 441 1663 441 
Q 2288 441 2617 861 
Q 2947 1281 2994 2138 
Q 2813 1869 2534 1725 
Q 2256 1581 1919 1581 
Q 1219 1581 811 2004 
Q 403 2428 403 3163 
Q 403 3881 828 4315 
Q 1253 4750 1959 4750 
Q 2769 4750 3195 4129 
Q 3622 3509 3622 2328 
Q 3622 1225 3098 567 
Q 2575 -91 1691 -91 
Q 1453 -91 1209 -44 
Q 966 3 703 97 
z
M 1959 2075 
Q 2384 2075 2632 2365 
Q 2881 2656 2881 3163 
Q 2881 3666 2632 3958 
Q 2384 4250 1959 4250 
Q 1534 4250 1286 3958 
Q 1038 3666 1038 3163 
Q 1038 2656 1286 2365 
Q 1534 2075 1959 2075 
z
" transform="scale(0.015625)"/>
       <path id="DejaVuSans-25" d="M 4653 2053 
Q 4381 2053 4226 1822 
Q 4072 1591 4072 1178 
Q 4072 772 4226 539 
Q 4381 306 4653 306 
Q 4919 306 5073 539 
Q 5228 772 5228 1178 
Q 5228 1588 5073 1820 
Q 4919 2053 4653 2053 
z
M 4653 2450 
Q 5147 2450 5437 2106 
Q 5728 1763 5728 1178 
Q 5728 594 5436 251 
Q 5144 -91 4653 -91 
Q 4153 -91 3862 251 
Q 3572 594 3572 1178 
Q 3572 1766 3864 2108 
Q 4156 2450 4653 2450 
z
M 1428 4353 
Q 1159 4353 1004 4120 
Q 850 3888 850 3481 
Q 850 3069 1003 2837 
Q 1156 2606 1428 2606 
Q 1700 2606 1854 2837 
Q 2009 3069 2009 3481 
Q 2009 3884 1853 4118 
Q 1697 4353 1428 4353 
z
M 4250 4750 
L 4750 4750 
L 1831 -91 
L 1331 -91 
L 4250 4750 
z
M 1428 4750 
Q 1922 4750 2215 4408 
Q 2509 4066 2509 3481 
Q 2509 2891 2217 2550 
Q 1925 2209 1428 2209 
Q 931 2209 642 2551 
Q 353 2894 353 3481 
Q 353 4063 643 4406 
Q 934 4750 1428 4750 
z
" transform="scale(0.015625)"/>
      </defs>
      <use xlink:href="#DejaVuSans-39"/>
      <use xlink:href="#DejaVuSans-35" transform="translate(63.623047 0)"/>
      <use xlink:href="#DejaVuSans-25" transform="translate(127.246094 0)"/>
      <use xlink:href="#DejaVuSans-20" transform="translate(222.265625 0)"/>
      <use xlink:href="#DejaVuSans-43" transform="translate(254.052734 0)"/>
      <use xlink:href="#DejaVuSans-49" transform="translate(323.876953 0)"/>
     </g>
    </g>
    <g id="line2d_65">
     <path d="M 1009.338437 356.840312 
L 1009.338437 352.027812 
" style="fill: none; stroke: #4169e1; stroke-width: 1.5"/>
    </g>
    <g id="line2d_66">
     <path d="M 999.338437 356.840312 
L 1019.338437 356.840312 
" style="fill: none; stroke: #d62728; stroke-width: 1.5; stroke-linecap: square"/>
    </g>
    <g id="line2d_67">
     <g>
      <use xlink:href="#me17603adbe" x="1009.338437" y="352.027812" style="fill: #0000ff; stroke: #0000ff"/>
     </g>
    </g>
    <g id="text_34">
     <!-- CCF: Tdelta vs Resid -->
     <g transform="translate(1027.338438 356.840312) scale(0.1 -0.1)">
      <defs>
       <path id="DejaVuSans-3a" d="M 750 794 
L 1409 794 
L 1409 0 
L 750 0 
L 750 794 
z
M 750 3309 
L 1409 3309 
L 1409 2516 
L 750 2516 
L 750 3309 
z
" transform="scale(0.015625)"/>
       <path id="DejaVuSans-54" d="M -19 4666 
L 3928 4666 
L 3928 4134 
L 2272 4134 
L 2272 0 
L 1638 0 
L 1638 4134 
L -19 4134 
L -19 4666 
z
" transform="scale(0.015625)"/>
       <path id="DejaVuSans-76" d="M 191 3500 
L 800 3500 
L 1894 563 
L 2988 3500 
L 3597 3500 
L 2284 0 
L 1503 0 
L 191 3500 
z
" transform="scale(0.015625)"/>
      </defs>
      <use xlink:href="#DejaVuSans-43"/>
      <use xlink:href="#DejaVuSans-43" transform="translate(69.824219 0)"/>
      <use xlink:href="#DejaVuSans-46" transform="translate(139.648438 0)"/>
      <use xlink:href="#DejaVuSans-3a" transform="translate(189.417969 0)"/>
      <use xlink:href="#DejaVuSans-20" transform="translate(223.109375 0)"/>
      <use xlink:href="#DejaVuSans-54" transform="translate(254.896484 0)"/>
      <use xlink:href="#DejaVuSans-64" transform="translate(315.980469 0)"/>
      <use xlink:href="#DejaVuSans-65" transform="translate(379.457031 0)"/>
      <use xlink:href="#DejaVuSans-6c" transform="translate(440.980469 0)"/>
      <use xlink:href="#DejaVuSans-74" transform="translate(468.763672 0)"/>
      <use xlink:href="#DejaVuSans-61" transform="translate(507.972656 0)"/>
      <use xlink:href="#DejaVuSans-20" transform="translate(569.251953 0)"/>
      <use xlink:href="#DejaVuSans-76" transform="translate(601.039062 0)"/>
      <use xlink:href="#DejaVuSans-73" transform="translate(660.21875 0)"/>
      <use xlink:href="#DejaVuSans-20" transform="translate(712.318359 0)"/>
      <use xlink:href="#DejaVuSans-52" transform="translate(744.105469 0)"/>
      <use xlink:href="#DejaVuSans-65" transform="translate(809.087891 0)"/>
      <use xlink:href="#DejaVuSans-73" transform="translate(870.611328 0)"/>
      <use xlink:href="#DejaVuSans-69" transform="translate(922.710938 0)"/>
      <use xlink:href="#DejaVuSans-64" transform="translate(950.494141 0)"/>
     </g>
    </g>
    <g id="line2d_68">
     <path d="M 1009.338437 371.518438 
L 1009.338437 366.705938 
" style="fill: none; stroke: #ffa500; stroke-width: 1.5"/>
    </g>
    <g id="line2d_69">
     <path d="M 999.338437 371.518438 
L 1019.338437 371.518438 
" style="fill: none; stroke: #d62728; stroke-width: 1.5; stroke-linecap: square"/>
    </g>
    <g id="line2d_70">
     <g>
      <use xlink:href="#m2e29a3ea20" x="1009.338437" y="366.705938" style="fill: #ff0000; stroke: #ff0000"/>
     </g>
    </g>
    <g id="text_35">
     <!-- CCF: Gv vs Resid -->
     <g transform="translate(1027.338438 371.518438) scale(0.1 -0.1)">
      <defs>
       <path id="DejaVuSans-47" d="M 3809 666 
L 3809 1919 
L 2778 1919 
L 2778 2438 
L 4434 2438 
L 4434 434 
Q 4069 175 3628 42 
Q 3188 -91 2688 -91 
Q 1594 -91 976 548 
Q 359 1188 359 2328 
Q 359 3472 976 4111 
Q 1594 4750 2688 4750 
Q 3144 4750 3555 4637 
Q 3966 4525 4313 4306 
L 4313 3634 
Q 3963 3931 3569 4081 
Q 3175 4231 2741 4231 
Q 1884 4231 1454 3753 
Q 1025 3275 1025 2328 
Q 1025 1384 1454 906 
Q 1884 428 2741 428 
Q 3075 428 3337 486 
Q 3600 544 3809 666 
z
" transform="scale(0.015625)"/>
      </defs>
      <use xlink:href="#DejaVuSans-43"/>
      <use xlink:href="#DejaVuSans-43" transform="translate(69.824219 0)"/>
      <use xlink:href="#DejaVuSans-46" transform="translate(139.648438 0)"/>
      <use xlink:href="#DejaVuSans-3a" transform="translate(189.417969 0)"/>
      <use xlink:href="#DejaVuSans-20" transform="translate(223.109375 0)"/>
      <use xlink:href="#DejaVuSans-47" transform="translate(254.896484 0)"/>
      <use xlink:href="#DejaVuSans-76" transform="translate(332.386719 0)"/>
      <use xlink:href="#DejaVuSans-20" transform="translate(391.566406 0)"/>
      <use xlink:href="#DejaVuSans-76" transform="translate(423.353516 0)"/>
      <use xlink:href="#DejaVuSans-73" transform="translate(482.533203 0)"/>
      <use xlink:href="#DejaVuSans-20" transform="translate(534.632812 0)"/>
      <use xlink:href="#DejaVuSans-52" transform="translate(566.419922 0)"/>
      <use xlink:href="#DejaVuSans-65" transform="translate(631.402344 0)"/>
      <use xlink:href="#DejaVuSans-73" transform="translate(692.925781 0)"/>
      <use xlink:href="#DejaVuSans-69" transform="translate(745.025391 0)"/>
      <use xlink:href="#DejaVuSans-64" transform="translate(772.808594 0)"/>
     </g>
    </g>
   </g>
  </g>
 </g>
 <defs>
  <clipPath id="p95504d7e7b">
   <rect x="44.845313" y="22.318125" width="518.4" height="360.28"/>
  </clipPath>
  <clipPath id="pc822cfca0a">
   <rect x="619.335313" y="22.318125" width="518.4" height="360.28"/>
  </clipPath>
 </defs>
</svg>
