<?xml version="1.0" encoding="utf-8" standalone="no"?>
<!DOCTYPE svg PUBLIC "-//W3C//DTD SVG 1.1//EN"
  "http://www.w3.org/Graphics/SVG/1.1/DTD/svg11.dtd">
<svg xmlns:xlink="http://www.w3.org/1999/xlink" width="891.165625pt" height="392.514375pt" viewBox="0 0 891.165625 392.514375" xmlns="http://www.w3.org/2000/svg" version="1.1">
 <metadata>
  <rdf:RDF xmlns:dc="http://purl.org/dc/elements/1.1/" xmlns:cc="http://creativecommons.org/ns#" xmlns:rdf="http://www.w3.org/1999/02/22-rdf-syntax-ns#">
   <cc:Work>
    <dc:type rdf:resource="http://purl.org/dc/dcmitype/StillImage"/>
    <dc:date>2026-04-09T16:46:49.377013</dc:date>
    <dc:format>image/svg+xml</dc:format>
    <dc:creator>
     <cc:Agent>
      <dc:title>Matplotlib v3.10.8, https://matplotlib.org/</dc:title>
     </cc:Agent>
    </dc:creator>
   </cc:Work>
  </rdf:RDF>
 </metadata>
 <defs>
  <style type="text/css">*{stroke-linejoin: round; stroke-linecap: butt}</style>
 </defs>
 <g id="figure_1">
  <g id="patch_1">
   <path d="M 0 392.514375 
L 891.165625 392.514375 
L 891.165625 0 
L 0 0 
z
" style="fill: #ffffff"/>
  </g>
  <g id="axes_1">
   <g id="patch_2">
    <path d="M 46.965625 354.958125 
L 883.965625 354.958125 
L 883.965625 22.318125 
L 46.965625 22.318125 
z
" style="fill: #ffffff"/>
   </g>
   <g id="FillBetweenPolyCollection_1">
    <defs>
     <path id="m3e0ef2f7f0" d="M 85.01108 -232.914317 
L 85.01108 -185.920201 
L 88.31938 -209.150455 
L 91.62768 -204.449919 
L 94.935981 -199.115875 
L 98.244281 -194.381538 
L 101.552582 -192.056921 
L 104.860882 -191.61588 
L 108.169182 -190.516265 
L 111.477483 -189.495793 
L 114.785783 -183.074198 
L 118.094083 -176.747091 
L 121.402384 -176.367594 
L 124.710684 -177.470387 
L 128.018985 -101.34007 
L 131.327285 -111.239269 
L 134.635585 -133.985856 
L 137.943886 -187.155056 
L 141.252186 -211.873941 
L 144.560487 -219.886549 
L 147.868787 -223.656901 
L 151.177087 -226.522225 
L 154.485388 -228.738353 
L 157.793688 -229.654602 
L 161.101989 -231.157962 
L 164.410289 -232.741716 
L 167.718589 -233.496131 
L 171.02689 -235.741901 
L 174.33519 -233.242731 
L 177.643491 -236.627297 
L 180.951791 -242.853873 
L 184.260091 -245.318097 
L 187.568392 -244.693238 
L 190.876692 -242.568678 
L 194.184993 -224.486882 
L 197.493293 -228.019348 
L 200.801593 -235.597844 
L 204.109894 -216.674444 
L 207.418194 -137.273328 
L 210.726495 -142.875756 
L 214.034795 -170.874302 
L 217.343095 -207.036175 
L 220.651396 -222.232289 
L 223.959696 -225.792887 
L 227.267997 -229.623661 
L 230.576297 -231.817231 
L 233.884597 -232.672943 
L 237.192898 -232.784535 
L 240.501198 -233.339097 
L 243.809499 -234.016265 
L 247.117799 -237.131087 
L 250.426099 -237.945528 
L 253.7344 -238.179536 
L 257.0427 -237.190505 
L 260.351 -237.122401 
L 263.659301 -238.539874 
L 266.967601 -245.992839 
L 270.275902 -251.231966 
L 273.584202 -249.535079 
L 276.892502 -248.461109 
L 280.200803 -245.991775 
L 283.509103 -240.246663 
L 286.817404 -235.191025 
L 290.125704 -229.001916 
L 293.434004 -228.449276 
L 296.742305 -231.606541 
L 300.050605 -242.281022 
L 303.358906 -259.676879 
L 306.667206 -265.985934 
L 309.975506 -271.342587 
L 313.283807 -269.501956 
L 316.592107 -269.800482 
L 319.900408 -272.64743 
L 323.208708 -276.057877 
L 326.517008 -277.735446 
L 329.825309 -273.999491 
L 333.133609 -273.702053 
L 336.44191 -273.345906 
L 339.75021 -272.67666 
L 343.05851 -270.668817 
L 346.366811 -267.498594 
L 349.675111 -263.692509 
L 352.983412 -257.812327 
L 356.291712 -198.093813 
L 359.600012 -129.262255 
L 362.908313 -121.931308 
L 366.216613 -173.690981 
L 369.524914 -144.995132 
L 372.833214 -190.889554 
L 376.141514 -251.086389 
L 379.449815 -277.461054 
L 382.758115 -282.622171 
L 386.066416 -284.550947 
L 389.374716 -287.645399 
L 392.683016 -293.680234 
L 395.991317 -297.941997 
L 399.299617 -294.457094 
L 402.607917 -291.483897 
L 405.916218 -288.1932 
L 409.224518 -286.588865 
L 412.532819 -284.402026 
L 415.841119 -283.7167 
L 419.149419 -282.004894 
L 422.45772 -280.532922 
L 425.76602 -281.393508 
L 429.074321 -275.971888 
L 432.382621 -245.732899 
L 435.690921 -164.621041 
L 438.999222 -195.158812 
L 442.307522 -237.852377 
L 445.615823 -257.368895 
L 448.924123 -262.39054 
L 452.232423 -265.357431 
L 455.540724 -272.206874 
L 458.849024 -274.913582 
L 462.157325 -272.758152 
L 465.465625 -269.052382 
L 468.773925 -265.025711 
L 472.082226 -262.524165 
L 475.390526 -257.864671 
L 478.698827 -254.879322 
L 482.007127 -252.731615 
L 485.315427 -250.434031 
L 488.623728 -247.555635 
L 491.932028 -240.823555 
L 495.240329 -230.754838 
L 498.548629 -227.204899 
L 501.856929 -226.519805 
L 505.16523 -224.823612 
L 508.47353 -225.843039 
L 511.781831 -221.42538 
L 515.090131 -214.325263 
L 518.398431 -206.252268 
L 521.706732 -202.741276 
L 525.015032 -198.819506 
L 528.323333 -198.564455 
L 531.631633 -178.751459 
L 534.939933 -218.010736 
L 538.248234 -237.043344 
L 541.556534 -241.957064 
L 544.864834 -244.509411 
L 548.173135 -240.167414 
L 551.481435 -239.838368 
L 554.789736 -242.568729 
L 558.098036 -245.511706 
L 561.406336 -249.343431 
L 564.714637 -254.757126 
L 568.022937 -257.835501 
L 571.331238 -258.94397 
L 574.639538 -257.321373 
L 577.947838 -259.060025 
L 581.256139 -276.689772 
L 584.564439 -287.799641 
L 587.87274 -252.341718 
L 591.18104 -203.291836 
L 594.48934 -178.624907 
L 597.797641 -113.661761 
L 601.105941 -194.317398 
L 604.414242 -247.02423 
L 607.722542 -204.02458 
L 611.030842 -244.449819 
L 614.339143 -278.660737 
L 617.647443 -287.603082 
L 620.955744 -290.403456 
L 624.264044 -293.81899 
L 627.572344 -294.58685 
L 630.880645 -294.394568 
L 634.188945 -293.69351 
L 637.497246 -295.392733 
L 640.805546 -299.330275 
L 644.113846 -298.61156 
L 647.422147 -296.43674 
L 650.730447 -294.660994 
L 654.038748 -298.822005 
L 657.347048 -298.757089 
L 660.655348 -293.639916 
L 663.963649 -290.583896 
L 667.271949 -288.452634 
L 670.58025 -289.123503 
L 673.88855 -291.414795 
L 677.19685 -224.242804 
L 680.505151 -52.67625 
L 683.813451 -115.80615 
L 687.121751 -131.524393 
L 690.430052 -216.88753 
L 693.738352 -260.955428 
L 697.046653 -275.205003 
L 700.354953 -287.016812 
L 703.663253 -292.375336 
L 706.971554 -286.49548 
L 710.279854 -288.67328 
L 713.588155 -291.862996 
L 716.896455 -296.615164 
L 720.204755 -296.537462 
L 723.513056 -295.691586 
L 726.821356 -295.663577 
L 730.129657 -296.481673 
L 733.437957 -296.375445 
L 736.746257 -297.858724 
L 740.054558 -298.570063 
L 743.362858 -295.679311 
L 746.671159 -289.398213 
L 749.979459 -282.093254 
L 753.287759 -237.536234 
L 756.59606 -187.651279 
L 759.90436 -250.885581 
L 763.212661 -260.165658 
L 766.520961 -278.88897 
L 769.829261 -254.6323 
L 773.137562 -278.365751 
L 776.445862 -297.230613 
L 779.754163 -301.651419 
L 783.062463 -300.332043 
L 786.370763 -301.968934 
L 789.679064 -301.865053 
L 792.987364 -302.742508 
L 796.295665 -303.160001 
L 799.603965 -303.332136 
L 802.912265 -302.774701 
L 806.220566 -305.231649 
L 809.528866 -307.350714 
L 812.837167 -308.082134 
L 816.145467 -304.241802 
L 819.453767 -303.442428 
L 822.762068 -300.775357 
L 826.070368 -292.866051 
L 829.378668 -283.934903 
L 832.686969 -227.963307 
L 835.995269 -220.957896 
L 839.30357 -212.866084 
L 842.61187 -110.546533 
L 845.92017 -213.387884 
L 845.92017 -260.382001 
L 845.92017 -260.382001 
L 842.61187 -157.540649 
L 839.30357 -259.8602 
L 835.995269 -267.952012 
L 832.686969 -274.957423 
L 829.378668 -330.929019 
L 826.070368 -339.860167 
L 822.762068 -347.769473 
L 819.453767 -350.436544 
L 816.145467 -351.235918 
L 812.837167 -355.07625 
L 809.528866 -354.34483 
L 806.220566 -352.225765 
L 802.912265 -349.768817 
L 799.603965 -350.326252 
L 796.295665 -350.154118 
L 792.987364 -349.736624 
L 789.679064 -348.859169 
L 786.370763 -348.96305 
L 783.062463 -347.326159 
L 779.754163 -348.645535 
L 776.445862 -344.224729 
L 773.137562 -325.359867 
L 769.829261 -301.626417 
L 766.520961 -325.883086 
L 763.212661 -307.159774 
L 759.90436 -297.879697 
L 756.59606 -234.645395 
L 753.287759 -284.53035 
L 749.979459 -329.08737 
L 746.671159 -336.392329 
L 743.362858 -342.673427 
L 740.054558 -345.564179 
L 736.746257 -344.85284 
L 733.437957 -343.369561 
L 730.129657 -343.475789 
L 726.821356 -342.657693 
L 723.513056 -342.685702 
L 720.204755 -343.531578 
L 716.896455 -343.60928 
L 713.588155 -338.857112 
L 710.279854 -335.667396 
L 706.971554 -333.489596 
L 703.663253 -339.369453 
L 700.354953 -334.010929 
L 697.046653 -322.199119 
L 693.738352 -307.949545 
L 690.430052 -263.881646 
L 687.121751 -178.518509 
L 683.813451 -162.800266 
L 680.505151 -99.670366 
L 677.19685 -271.23692 
L 673.88855 -338.408911 
L 670.58025 -336.11762 
L 667.271949 -335.44675 
L 663.963649 -337.578012 
L 660.655348 -340.634032 
L 657.347048 -345.751205 
L 654.038748 -345.816122 
L 650.730447 -341.65511 
L 647.422147 -343.430857 
L 644.113846 -345.605676 
L 640.805546 -346.324391 
L 637.497246 -342.386849 
L 634.188945 -340.687626 
L 630.880645 -341.388684 
L 627.572344 -341.580967 
L 624.264044 -340.813106 
L 620.955744 -337.397572 
L 617.647443 -334.597198 
L 614.339143 -325.654853 
L 611.030842 -291.443935 
L 607.722542 -251.018696 
L 604.414242 -294.018347 
L 601.105941 -241.311514 
L 597.797641 -160.655877 
L 594.48934 -225.619023 
L 591.18104 -250.285952 
L 587.87274 -299.335834 
L 584.564439 -334.793757 
L 581.256139 -323.683888 
L 577.947838 -306.054141 
L 574.639538 -304.315489 
L 571.331238 -305.938086 
L 568.022937 -304.829617 
L 564.714637 -301.751243 
L 561.406336 -296.337548 
L 558.098036 -292.505822 
L 554.789736 -289.562845 
L 551.481435 -286.832485 
L 548.173135 -287.161531 
L 544.864834 -291.503527 
L 541.556534 -288.95118 
L 538.248234 -284.03746 
L 534.939933 -265.004852 
L 531.631633 -225.745575 
L 528.323333 -245.558571 
L 525.015032 -245.813622 
L 521.706732 -249.735393 
L 518.398431 -253.246384 
L 515.090131 -261.31938 
L 511.781831 -268.419496 
L 508.47353 -272.837156 
L 505.16523 -271.817728 
L 501.856929 -273.513921 
L 498.548629 -274.199015 
L 495.240329 -277.748954 
L 491.932028 -287.817671 
L 488.623728 -294.549751 
L 485.315427 -297.428148 
L 482.007127 -299.725731 
L 478.698827 -301.873438 
L 475.390526 -304.858787 
L 472.082226 -309.518281 
L 468.773925 -312.019828 
L 465.465625 -316.046498 
L 462.157325 -319.752268 
L 458.849024 -321.907698 
L 455.540724 -319.20099 
L 452.232423 -312.351547 
L 448.924123 -309.384656 
L 445.615823 -304.363012 
L 442.307522 -284.846493 
L 438.999222 -242.152928 
L 435.690921 -211.615157 
L 432.382621 -292.727015 
L 429.074321 -322.966005 
L 425.76602 -328.387624 
L 422.45772 -327.527039 
L 419.149419 -328.99901 
L 415.841119 -330.710816 
L 412.532819 -331.396142 
L 409.224518 -333.582981 
L 405.916218 -335.187316 
L 402.607917 -338.478013 
L 399.299617 -341.45121 
L 395.991317 -344.936113 
L 392.683016 -340.67435 
L 389.374716 -334.639515 
L 386.066416 -331.545063 
L 382.758115 -329.616287 
L 379.449815 -324.45517 
L 376.141514 -298.080505 
L 372.833214 -237.88367 
L 369.524914 -191.989248 
L 366.216613 -220.685097 
L 362.908313 -168.925424 
L 359.600012 -176.25637 
L 356.291712 -245.087928 
L 352.983412 -304.806442 
L 349.675111 -310.686624 
L 346.366811 -314.492709 
L 343.05851 -317.662932 
L 339.75021 -319.670774 
L 336.44191 -320.34002 
L 333.133609 -320.696166 
L 329.825309 -320.993604 
L 326.517008 -324.729557 
L 323.208708 -323.051988 
L 319.900408 -319.64154 
L 316.592107 -316.79459 
L 313.283807 -316.496062 
L 309.975506 -318.33669 
L 306.667206 -312.980034 
L 303.358906 -306.670976 
L 300.050605 -289.275114 
L 296.742305 -278.600628 
L 293.434004 -275.443356 
L 290.125704 -275.995987 
L 286.817404 -282.185086 
L 283.509103 -287.24071 
L 280.200803 -292.985806 
L 276.892502 -295.45512 
L 273.584202 -296.529065 
L 270.275902 -298.225922 
L 266.967601 -292.986757 
L 263.659301 -285.533746 
L 260.351 -284.116214 
L 257.0427 -284.184248 
L 253.7344 -285.173191 
L 250.426099 -284.939075 
L 247.117799 -284.124499 
L 243.809499 -281.009513 
L 240.501198 -280.33214 
L 237.192898 -279.777326 
L 233.884597 -279.665423 
L 230.576297 -278.809326 
L 227.267997 -276.615281 
L 223.959696 -272.78392 
L 220.651396 -269.222597 
L 217.343095 -254.025588 
L 214.034795 -217.862609 
L 210.726495 -189.862697 
L 207.418194 -184.258582 
L 204.109894 -263.657615 
L 200.801593 -282.578442 
L 197.493293 -274.996767 
L 194.184993 -271.460375 
L 190.876692 -289.537322 
L 187.568392 -291.655892 
L 184.260091 -292.273351 
L 180.951791 -289.799987 
L 177.643491 -283.562118 
L 174.33519 -280.163602 
L 171.02689 -282.645536 
L 167.718589 -280.378471 
L 164.410289 -279.597739 
L 161.101989 -277.981463 
L 157.793688 -276.437902 
L 154.485388 -275.471956 
L 151.177087 -273.194374 
L 147.868787 -270.253037 
L 144.560487 -266.38863 
L 141.252186 -258.259594 
L 137.943886 -233.396505 
L 134.635585 -180.048578 
L 131.327285 -157.080286 
L 128.018985 -146.905772 
L 124.710684 -222.69374 
L 121.402384 -221.164504 
L 118.094083 -221.011636 
L 114.785783 -226.672256 
L 111.477483 -232.256345 
L 108.169182 -232.21922 
L 104.860882 -231.974349 
L 101.552582 -230.690497 
L 98.244281 -230.770679 
L 94.935981 -232.535471 
L 91.62768 -233.713407 
L 88.31938 -232.911573 
L 85.01108 -232.914317 
z
" style="stroke: #dc143c; stroke-opacity: 0.1"/>
    </defs>
    <g clip-path="url(#p3afd86e2d3)">
     <use xlink:href="#m3e0ef2f7f0" x="0" y="392.514375" style="fill: #dc143c; fill-opacity: 0.1; stroke: #dc143c; stroke-opacity: 0.1"/>
    </g>
   </g>
   <g id="matplotlib.axis_1">
    <g id="xtick_1">
     <g id="line2d_1">
      <path d="M 85.01108 354.958125 
L 85.01108 22.318125 
" clip-path="url(#p3afd86e2d3)" style="fill: none; stroke: #b0b0b0; stroke-opacity: 0.3; stroke-width: 0.8; stroke-linecap: square"/>
     </g>
     <g id="line2d_2">
      <defs>
       <path id="m4bb27a6a9f" d="M 0 0 
L 0 3.5 
" style="stroke: #000000; stroke-width: 0.8"/>
      </defs>
      <g>
       <use xlink:href="#m4bb27a6a9f" x="85.01108" y="354.958125" style="stroke: #000000; stroke-width: 0.8"/>
      </g>
     </g>
     <g id="text_1">
      <!-- 0 -->
      <g transform="translate(81.82983 369.556562) scale(0.1 -0.1)">
       <defs>
        <path id="DejaVuSans-30" d="M 2034 4250 
Q 1547 4250 1301 3770 
Q 1056 3291 1056 2328 
Q 1056 1369 1301 889 
Q 1547 409 2034 409 
Q 2525 409 2770 889 
Q 3016 1369 3016 2328 
Q 3016 3291 2770 3770 
Q 2525 4250 2034 4250 
z
M 2034 4750 
Q 2819 4750 3233 4129 
Q 3647 3509 3647 2328 
Q 3647 1150 3233 529 
Q 2819 -91 2034 -91 
Q 1250 -91 836 529 
Q 422 1150 422 2328 
Q 422 3509 836 4129 
Q 1250 4750 2034 4750 
z
" transform="scale(0.015625)"/>
       </defs>
       <use xlink:href="#DejaVuSans-30"/>
      </g>
     </g>
    </g>
    <g id="xtick_2">
     <g id="line2d_3">
      <path d="M 250.426099 354.958125 
L 250.426099 22.318125 
" clip-path="url(#p3afd86e2d3)" style="fill: none; stroke: #b0b0b0; stroke-opacity: 0.3; stroke-width: 0.8; stroke-linecap: square"/>
     </g>
     <g id="line2d_4">
      <g>
       <use xlink:href="#m4bb27a6a9f" x="250.426099" y="354.958125" style="stroke: #000000; stroke-width: 0.8"/>
      </g>
     </g>
     <g id="text_2">
      <!-- 50 -->
      <g transform="translate(244.063599 369.556562) scale(0.1 -0.1)">
       <defs>
        <path id="DejaVuSans-35" d="M 691 4666 
L 3169 4666 
L 3169 4134 
L 1269 4134 
L 1269 2991 
Q 1406 3038 1543 3061 
Q 1681 3084 1819 3084 
Q 2600 3084 3056 2656 
Q 3513 2228 3513 1497 
Q 3513 744 3044 326 
Q 2575 -91 1722 -91 
Q 1428 -91 1123 -41 
Q 819 9 494 109 
L 494 744 
Q 775 591 1075 516 
Q 1375 441 1709 441 
Q 2250 441 2565 725 
Q 2881 1009 2881 1497 
Q 2881 1984 2565 2268 
Q 2250 2553 1709 2553 
Q 1456 2553 1204 2497 
Q 953 2441 691 2322 
L 691 4666 
z
" transform="scale(0.015625)"/>
       </defs>
       <use xlink:href="#DejaVuSans-35"/>
       <use xlink:href="#DejaVuSans-30" transform="translate(63.623047 0)"/>
      </g>
     </g>
    </g>
    <g id="xtick_3">
     <g id="line2d_5">
      <path d="M 415.841119 354.958125 
L 415.841119 22.318125 
" clip-path="url(#p3afd86e2d3)" style="fill: none; stroke: #b0b0b0; stroke-opacity: 0.3; stroke-width: 0.8; stroke-linecap: square"/>
     </g>
     <g id="line2d_6">
      <g>
       <use xlink:href="#m4bb27a6a9f" x="415.841119" y="354.958125" style="stroke: #000000; stroke-width: 0.8"/>
      </g>
     </g>
     <g id="text_3">
      <!-- 100 -->
      <g transform="translate(406.297369 369.556562) scale(0.1 -0.1)">
       <defs>
        <path id="DejaVuSans-31" d="M 794 531 
L 1825 531 
L 1825 4091 
L 703 3866 
L 703 4441 
L 1819 4666 
L 2450 4666 
L 2450 531 
L 3481 531 
L 3481 0 
L 794 0 
L 794 531 
z
" transform="scale(0.015625)"/>
       </defs>
       <use xlink:href="#DejaVuSans-31"/>
       <use xlink:href="#DejaVuSans-30" transform="translate(63.623047 0)"/>
       <use xlink:href="#DejaVuSans-30" transform="translate(127.246094 0)"/>
      </g>
     </g>
    </g>
    <g id="xtick_4">
     <g id="line2d_7">
      <path d="M 581.256139 354.958125 
L 581.256139 22.318125 
" clip-path="url(#p3afd86e2d3)" style="fill: none; stroke: #b0b0b0; stroke-opacity: 0.3; stroke-width: 0.8; stroke-linecap: square"/>
     </g>
     <g id="line2d_8">
      <g>
       <use xlink:href="#m4bb27a6a9f" x="581.256139" y="354.958125" style="stroke: #000000; stroke-width: 0.8"/>
      </g>
     </g>
     <g id="text_4">
      <!-- 150 -->
      <g transform="translate(571.712389 369.556562) scale(0.1 -0.1)">
       <use xlink:href="#DejaVuSans-31"/>
       <use xlink:href="#DejaVuSans-35" transform="translate(63.623047 0)"/>
       <use xlink:href="#DejaVuSans-30" transform="translate(127.246094 0)"/>
      </g>
     </g>
    </g>
    <g id="xtick_5">
     <g id="line2d_9">
      <path d="M 746.671159 354.958125 
L 746.671159 22.318125 
" clip-path="url(#p3afd86e2d3)" style="fill: none; stroke: #b0b0b0; stroke-opacity: 0.3; stroke-width: 0.8; stroke-linecap: square"/>
     </g>
     <g id="line2d_10">
      <g>
       <use xlink:href="#m4bb27a6a9f" x="746.671159" y="354.958125" style="stroke: #000000; stroke-width: 0.8"/>
      </g>
     </g>
     <g id="text_5">
      <!-- 200 -->
      <g transform="translate(737.127409 369.556562) scale(0.1 -0.1)">
       <defs>
        <path id="DejaVuSans-32" d="M 1228 531 
L 3431 531 
L 3431 0 
L 469 0 
L 469 531 
Q 828 903 1448 1529 
Q 2069 2156 2228 2338 
Q 2531 2678 2651 2914 
Q 2772 3150 2772 3378 
Q 2772 3750 2511 3984 
Q 2250 4219 1831 4219 
Q 1534 4219 1204 4116 
Q 875 4013 500 3803 
L 500 4441 
Q 881 4594 1212 4672 
Q 1544 4750 1819 4750 
Q 2544 4750 2975 4387 
Q 3406 4025 3406 3419 
Q 3406 3131 3298 2873 
Q 3191 2616 2906 2266 
Q 2828 2175 2409 1742 
Q 1991 1309 1228 531 
z
" transform="scale(0.015625)"/>
       </defs>
       <use xlink:href="#DejaVuSans-32"/>
       <use xlink:href="#DejaVuSans-30" transform="translate(63.623047 0)"/>
       <use xlink:href="#DejaVuSans-30" transform="translate(127.246094 0)"/>
      </g>
     </g>
    </g>
    <g id="text_6">
     <!-- Time (Hours) -->
     <g transform="translate(433.092969 383.234687) scale(0.1 -0.1)">
      <defs>
       <path id="DejaVuSans-54" d="M -19 4666 
L 3928 4666 
L 3928 4134 
L 2272 4134 
L 2272 0 
L 1638 0 
L 1638 4134 
L -19 4134 
L -19 4666 
z
" transform="scale(0.015625)"/>
       <path id="DejaVuSans-69" d="M 603 3500 
L 1178 3500 
L 1178 0 
L 603 0 
L 603 3500 
z
M 603 4863 
L 1178 4863 
L 1178 4134 
L 603 4134 
L 603 4863 
z
" transform="scale(0.015625)"/>
       <path id="DejaVuSans-6d" d="M 3328 2828 
Q 3544 3216 3844 3400 
Q 4144 3584 4550 3584 
Q 5097 3584 5394 3201 
Q 5691 2819 5691 2113 
L 5691 0 
L 5113 0 
L 5113 2094 
Q 5113 2597 4934 2840 
Q 4756 3084 4391 3084 
Q 3944 3084 3684 2787 
Q 3425 2491 3425 1978 
L 3425 0 
L 2847 0 
L 2847 2094 
Q 2847 2600 2669 2842 
Q 2491 3084 2119 3084 
Q 1678 3084 1418 2786 
Q 1159 2488 1159 1978 
L 1159 0 
L 581 0 
L 581 3500 
L 1159 3500 
L 1159 2956 
Q 1356 3278 1631 3431 
Q 1906 3584 2284 3584 
Q 2666 3584 2933 3390 
Q 3200 3197 3328 2828 
z
" transform="scale(0.015625)"/>
       <path id="DejaVuSans-65" d="M 3597 1894 
L 3597 1613 
L 953 1613 
Q 991 1019 1311 708 
Q 1631 397 2203 397 
Q 2534 397 2845 478 
Q 3156 559 3463 722 
L 3463 178 
Q 3153 47 2828 -22 
Q 2503 -91 2169 -91 
Q 1331 -91 842 396 
Q 353 884 353 1716 
Q 353 2575 817 3079 
Q 1281 3584 2069 3584 
Q 2775 3584 3186 3129 
Q 3597 2675 3597 1894 
z
M 3022 2063 
Q 3016 2534 2758 2815 
Q 2500 3097 2075 3097 
Q 1594 3097 1305 2825 
Q 1016 2553 972 2059 
L 3022 2063 
z
" transform="scale(0.015625)"/>
       <path id="DejaVuSans-20" transform="scale(0.015625)"/>
       <path id="DejaVuSans-28" d="M 1984 4856 
Q 1566 4138 1362 3434 
Q 1159 2731 1159 2009 
Q 1159 1288 1364 580 
Q 1569 -128 1984 -844 
L 1484 -844 
Q 1016 -109 783 600 
Q 550 1309 550 2009 
Q 550 2706 781 3412 
Q 1013 4119 1484 4856 
L 1984 4856 
z
" transform="scale(0.015625)"/>
       <path id="DejaVuSans-48" d="M 628 4666 
L 1259 4666 
L 1259 2753 
L 3553 2753 
L 3553 4666 
L 4184 4666 
L 4184 0 
L 3553 0 
L 3553 2222 
L 1259 2222 
L 1259 0 
L 628 0 
L 628 4666 
z
" transform="scale(0.015625)"/>
       <path id="DejaVuSans-6f" d="M 1959 3097 
Q 1497 3097 1228 2736 
Q 959 2375 959 1747 
Q 959 1119 1226 758 
Q 1494 397 1959 397 
Q 2419 397 2687 759 
Q 2956 1122 2956 1747 
Q 2956 2369 2687 2733 
Q 2419 3097 1959 3097 
z
M 1959 3584 
Q 2709 3584 3137 3096 
Q 3566 2609 3566 1747 
Q 3566 888 3137 398 
Q 2709 -91 1959 -91 
Q 1206 -91 779 398 
Q 353 888 353 1747 
Q 353 2609 779 3096 
Q 1206 3584 1959 3584 
z
" transform="scale(0.015625)"/>
       <path id="DejaVuSans-75" d="M 544 1381 
L 544 3500 
L 1119 3500 
L 1119 1403 
Q 1119 906 1312 657 
Q 1506 409 1894 409 
Q 2359 409 2629 706 
Q 2900 1003 2900 1516 
L 2900 3500 
L 3475 3500 
L 3475 0 
L 2900 0 
L 2900 538 
Q 2691 219 2414 64 
Q 2138 -91 1772 -91 
Q 1169 -91 856 284 
Q 544 659 544 1381 
z
M 1991 3584 
L 1991 3584 
z
" transform="scale(0.015625)"/>
       <path id="DejaVuSans-72" d="M 2631 2963 
Q 2534 3019 2420 3045 
Q 2306 3072 2169 3072 
Q 1681 3072 1420 2755 
Q 1159 2438 1159 1844 
L 1159 0 
L 581 0 
L 581 3500 
L 1159 3500 
L 1159 2956 
Q 1341 3275 1631 3429 
Q 1922 3584 2338 3584 
Q 2397 3584 2469 3576 
Q 2541 3569 2628 3553 
L 2631 2963 
z
" transform="scale(0.015625)"/>
       <path id="DejaVuSans-73" d="M 2834 3397 
L 2834 2853 
Q 2591 2978 2328 3040 
Q 2066 3103 1784 3103 
Q 1356 3103 1142 2972 
Q 928 2841 928 2578 
Q 928 2378 1081 2264 
Q 1234 2150 1697 2047 
L 1894 2003 
Q 2506 1872 2764 1633 
Q 3022 1394 3022 966 
Q 3022 478 2636 193 
Q 2250 -91 1575 -91 
Q 1294 -91 989 -36 
Q 684 19 347 128 
L 347 722 
Q 666 556 975 473 
Q 1284 391 1588 391 
Q 1994 391 2212 530 
Q 2431 669 2431 922 
Q 2431 1156 2273 1281 
Q 2116 1406 1581 1522 
L 1381 1569 
Q 847 1681 609 1914 
Q 372 2147 372 2553 
Q 372 3047 722 3315 
Q 1072 3584 1716 3584 
Q 2034 3584 2315 3537 
Q 2597 3491 2834 3397 
z
" transform="scale(0.015625)"/>
       <path id="DejaVuSans-29" d="M 513 4856 
L 1013 4856 
Q 1481 4119 1714 3412 
Q 1947 2706 1947 2009 
Q 1947 1309 1714 600 
Q 1481 -109 1013 -844 
L 513 -844 
Q 928 -128 1133 580 
Q 1338 1288 1338 2009 
Q 1338 2731 1133 3434 
Q 928 4138 513 4856 
z
" transform="scale(0.015625)"/>
      </defs>
      <use xlink:href="#DejaVuSans-54"/>
      <use xlink:href="#DejaVuSans-69" transform="translate(57.958984 0)"/>
      <use xlink:href="#DejaVuSans-6d" transform="translate(85.742188 0)"/>
      <use xlink:href="#DejaVuSans-65" transform="translate(183.154297 0)"/>
      <use xlink:href="#DejaVuSans-20" transform="translate(244.677734 0)"/>
      <use xlink:href="#DejaVuSans-28" transform="translate(276.464844 0)"/>
      <use xlink:href="#DejaVuSans-48" transform="translate(315.478516 0)"/>
      <use xlink:href="#DejaVuSans-6f" transform="translate(390.673828 0)"/>
      <use xlink:href="#DejaVuSans-75" transform="translate(451.855469 0)"/>
      <use xlink:href="#DejaVuSans-72" transform="translate(515.234375 0)"/>
      <use xlink:href="#DejaVuSans-73" transform="translate(556.347656 0)"/>
      <use xlink:href="#DejaVuSans-29" transform="translate(608.447266 0)"/>
     </g>
    </g>
   </g>
   <g id="matplotlib.axis_2">
    <g id="ytick_1">
     <g id="line2d_11">
      <path d="M 46.965625 314.022292 
L 883.965625 314.022292 
" clip-path="url(#p3afd86e2d3)" style="fill: none; stroke: #b0b0b0; stroke-opacity: 0.3; stroke-width: 0.8; stroke-linecap: square"/>
     </g>
     <g id="line2d_12">
      <defs>
       <path id="m950df01144" d="M 0 0 
L -3.5 0 
" style="stroke: #000000; stroke-width: 0.8"/>
      </defs>
      <g>
       <use xlink:href="#m950df01144" x="46.965625" y="314.022292" style="stroke: #000000; stroke-width: 0.8"/>
      </g>
     </g>
     <g id="text_7">
      <!-- 0 -->
      <g transform="translate(33.603125 317.82151) scale(0.1 -0.1)">
       <use xlink:href="#DejaVuSans-30"/>
      </g>
     </g>
    </g>
    <g id="ytick_2">
     <g id="line2d_13">
      <path d="M 46.965625 263.023741 
L 883.965625 263.023741 
" clip-path="url(#p3afd86e2d3)" style="fill: none; stroke: #b0b0b0; stroke-opacity: 0.3; stroke-width: 0.8; stroke-linecap: square"/>
     </g>
     <g id="line2d_14">
      <g>
       <use xlink:href="#m950df01144" x="46.965625" y="263.023741" style="stroke: #000000; stroke-width: 0.8"/>
      </g>
     </g>
     <g id="text_8">
      <!-- 20 -->
      <g transform="translate(27.240625 266.82296) scale(0.1 -0.1)">
       <use xlink:href="#DejaVuSans-32"/>
       <use xlink:href="#DejaVuSans-30" transform="translate(63.623047 0)"/>
      </g>
     </g>
    </g>
    <g id="ytick_3">
     <g id="line2d_15">
      <path d="M 46.965625 212.025191 
L 883.965625 212.025191 
" clip-path="url(#p3afd86e2d3)" style="fill: none; stroke: #b0b0b0; stroke-opacity: 0.3; stroke-width: 0.8; stroke-linecap: square"/>
     </g>
     <g id="line2d_16">
      <g>
       <use xlink:href="#m950df01144" x="46.965625" y="212.025191" style="stroke: #000000; stroke-width: 0.8"/>
      </g>
     </g>
     <g id="text_9">
      <!-- 40 -->
      <g transform="translate(27.240625 215.82441) scale(0.1 -0.1)">
       <defs>
        <path id="DejaVuSans-34" d="M 2419 4116 
L 825 1625 
L 2419 1625 
L 2419 4116 
z
M 2253 4666 
L 3047 4666 
L 3047 1625 
L 3713 1625 
L 3713 1100 
L 3047 1100 
L 3047 0 
L 2419 0 
L 2419 1100 
L 313 1100 
L 313 1709 
L 2253 4666 
z
" transform="scale(0.015625)"/>
       </defs>
       <use xlink:href="#DejaVuSans-34"/>
       <use xlink:href="#DejaVuSans-30" transform="translate(63.623047 0)"/>
      </g>
     </g>
    </g>
    <g id="ytick_4">
     <g id="line2d_17">
      <path d="M 46.965625 161.026641 
L 883.965625 161.026641 
" clip-path="url(#p3afd86e2d3)" style="fill: none; stroke: #b0b0b0; stroke-opacity: 0.3; stroke-width: 0.8; stroke-linecap: square"/>
     </g>
     <g id="line2d_18">
      <g>
       <use xlink:href="#m950df01144" x="46.965625" y="161.026641" style="stroke: #000000; stroke-width: 0.8"/>
      </g>
     </g>
     <g id="text_10">
      <!-- 60 -->
      <g transform="translate(27.240625 164.82586) scale(0.1 -0.1)">
       <defs>
        <path id="DejaVuSans-36" d="M 2113 2584 
Q 1688 2584 1439 2293 
Q 1191 2003 1191 1497 
Q 1191 994 1439 701 
Q 1688 409 2113 409 
Q 2538 409 2786 701 
Q 3034 994 3034 1497 
Q 3034 2003 2786 2293 
Q 2538 2584 2113 2584 
z
M 3366 4563 
L 3366 3988 
Q 3128 4100 2886 4159 
Q 2644 4219 2406 4219 
Q 1781 4219 1451 3797 
Q 1122 3375 1075 2522 
Q 1259 2794 1537 2939 
Q 1816 3084 2150 3084 
Q 2853 3084 3261 2657 
Q 3669 2231 3669 1497 
Q 3669 778 3244 343 
Q 2819 -91 2113 -91 
Q 1303 -91 875 529 
Q 447 1150 447 2328 
Q 447 3434 972 4092 
Q 1497 4750 2381 4750 
Q 2619 4750 2861 4703 
Q 3103 4656 3366 4563 
z
" transform="scale(0.015625)"/>
       </defs>
       <use xlink:href="#DejaVuSans-36"/>
       <use xlink:href="#DejaVuSans-30" transform="translate(63.623047 0)"/>
      </g>
     </g>
    </g>
    <g id="ytick_5">
     <g id="line2d_19">
      <path d="M 46.965625 110.028091 
L 883.965625 110.028091 
" clip-path="url(#p3afd86e2d3)" style="fill: none; stroke: #b0b0b0; stroke-opacity: 0.3; stroke-width: 0.8; stroke-linecap: square"/>
     </g>
     <g id="line2d_20">
      <g>
       <use xlink:href="#m950df01144" x="46.965625" y="110.028091" style="stroke: #000000; stroke-width: 0.8"/>
      </g>
     </g>
     <g id="text_11">
      <!-- 80 -->
      <g transform="translate(27.240625 113.82731) scale(0.1 -0.1)">
       <defs>
        <path id="DejaVuSans-38" d="M 2034 2216 
Q 1584 2216 1326 1975 
Q 1069 1734 1069 1313 
Q 1069 891 1326 650 
Q 1584 409 2034 409 
Q 2484 409 2743 651 
Q 3003 894 3003 1313 
Q 3003 1734 2745 1975 
Q 2488 2216 2034 2216 
z
M 1403 2484 
Q 997 2584 770 2862 
Q 544 3141 544 3541 
Q 544 4100 942 4425 
Q 1341 4750 2034 4750 
Q 2731 4750 3128 4425 
Q 3525 4100 3525 3541 
Q 3525 3141 3298 2862 
Q 3072 2584 2669 2484 
Q 3125 2378 3379 2068 
Q 3634 1759 3634 1313 
Q 3634 634 3220 271 
Q 2806 -91 2034 -91 
Q 1263 -91 848 271 
Q 434 634 434 1313 
Q 434 1759 690 2068 
Q 947 2378 1403 2484 
z
M 1172 3481 
Q 1172 3119 1398 2916 
Q 1625 2713 2034 2713 
Q 2441 2713 2670 2916 
Q 2900 3119 2900 3481 
Q 2900 3844 2670 4047 
Q 2441 4250 2034 4250 
Q 1625 4250 1398 4047 
Q 1172 3844 1172 3481 
z
" transform="scale(0.015625)"/>
       </defs>
       <use xlink:href="#DejaVuSans-38"/>
       <use xlink:href="#DejaVuSans-30" transform="translate(63.623047 0)"/>
      </g>
     </g>
    </g>
    <g id="ytick_6">
     <g id="line2d_21">
      <path d="M 46.965625 59.029541 
L 883.965625 59.029541 
" clip-path="url(#p3afd86e2d3)" style="fill: none; stroke: #b0b0b0; stroke-opacity: 0.3; stroke-width: 0.8; stroke-linecap: square"/>
     </g>
     <g id="line2d_22">
      <g>
       <use xlink:href="#m950df01144" x="46.965625" y="59.029541" style="stroke: #000000; stroke-width: 0.8"/>
      </g>
     </g>
     <g id="text_12">
      <!-- 100 -->
      <g transform="translate(20.878125 62.828759) scale(0.1 -0.1)">
       <use xlink:href="#DejaVuSans-31"/>
       <use xlink:href="#DejaVuSans-30" transform="translate(63.623047 0)"/>
       <use xlink:href="#DejaVuSans-30" transform="translate(127.246094 0)"/>
      </g>
     </g>
    </g>
    <g id="text_13">
     <!-- Heating Power [W] -->
     <g transform="translate(14.798438 235.368594) rotate(-90) scale(0.1 -0.1)">
      <defs>
       <path id="DejaVuSans-61" d="M 2194 1759 
Q 1497 1759 1228 1600 
Q 959 1441 959 1056 
Q 959 750 1161 570 
Q 1363 391 1709 391 
Q 2188 391 2477 730 
Q 2766 1069 2766 1631 
L 2766 1759 
L 2194 1759 
z
M 3341 1997 
L 3341 0 
L 2766 0 
L 2766 531 
Q 2569 213 2275 61 
Q 1981 -91 1556 -91 
Q 1019 -91 701 211 
Q 384 513 384 1019 
Q 384 1609 779 1909 
Q 1175 2209 1959 2209 
L 2766 2209 
L 2766 2266 
Q 2766 2663 2505 2880 
Q 2244 3097 1772 3097 
Q 1472 3097 1187 3025 
Q 903 2953 641 2809 
L 641 3341 
Q 956 3463 1253 3523 
Q 1550 3584 1831 3584 
Q 2591 3584 2966 3190 
Q 3341 2797 3341 1997 
z
" transform="scale(0.015625)"/>
       <path id="DejaVuSans-74" d="M 1172 4494 
L 1172 3500 
L 2356 3500 
L 2356 3053 
L 1172 3053 
L 1172 1153 
Q 1172 725 1289 603 
Q 1406 481 1766 481 
L 2356 481 
L 2356 0 
L 1766 0 
Q 1100 0 847 248 
Q 594 497 594 1153 
L 594 3053 
L 172 3053 
L 172 3500 
L 594 3500 
L 594 4494 
L 1172 4494 
z
" transform="scale(0.015625)"/>
       <path id="DejaVuSans-6e" d="M 3513 2113 
L 3513 0 
L 2938 0 
L 2938 2094 
Q 2938 2591 2744 2837 
Q 2550 3084 2163 3084 
Q 1697 3084 1428 2787 
Q 1159 2491 1159 1978 
L 1159 0 
L 581 0 
L 581 3500 
L 1159 3500 
L 1159 2956 
Q 1366 3272 1645 3428 
Q 1925 3584 2291 3584 
Q 2894 3584 3203 3211 
Q 3513 2838 3513 2113 
z
" transform="scale(0.015625)"/>
       <path id="DejaVuSans-67" d="M 2906 1791 
Q 2906 2416 2648 2759 
Q 2391 3103 1925 3103 
Q 1463 3103 1205 2759 
Q 947 2416 947 1791 
Q 947 1169 1205 825 
Q 1463 481 1925 481 
Q 2391 481 2648 825 
Q 2906 1169 2906 1791 
z
M 3481 434 
Q 3481 -459 3084 -895 
Q 2688 -1331 1869 -1331 
Q 1566 -1331 1297 -1286 
Q 1028 -1241 775 -1147 
L 775 -588 
Q 1028 -725 1275 -790 
Q 1522 -856 1778 -856 
Q 2344 -856 2625 -561 
Q 2906 -266 2906 331 
L 2906 616 
Q 2728 306 2450 153 
Q 2172 0 1784 0 
Q 1141 0 747 490 
Q 353 981 353 1791 
Q 353 2603 747 3093 
Q 1141 3584 1784 3584 
Q 2172 3584 2450 3431 
Q 2728 3278 2906 2969 
L 2906 3500 
L 3481 3500 
L 3481 434 
z
" transform="scale(0.015625)"/>
       <path id="DejaVuSans-50" d="M 1259 4147 
L 1259 2394 
L 2053 2394 
Q 2494 2394 2734 2622 
Q 2975 2850 2975 3272 
Q 2975 3691 2734 3919 
Q 2494 4147 2053 4147 
L 1259 4147 
z
M 628 4666 
L 2053 4666 
Q 2838 4666 3239 4311 
Q 3641 3956 3641 3272 
Q 3641 2581 3239 2228 
Q 2838 1875 2053 1875 
L 1259 1875 
L 1259 0 
L 628 0 
L 628 4666 
z
" transform="scale(0.015625)"/>
       <path id="DejaVuSans-77" d="M 269 3500 
L 844 3500 
L 1563 769 
L 2278 3500 
L 2956 3500 
L 3675 769 
L 4391 3500 
L 4966 3500 
L 4050 0 
L 3372 0 
L 2619 2869 
L 1863 0 
L 1184 0 
L 269 3500 
z
" transform="scale(0.015625)"/>
       <path id="DejaVuSans-5b" d="M 550 4863 
L 1875 4863 
L 1875 4416 
L 1125 4416 
L 1125 -397 
L 1875 -397 
L 1875 -844 
L 550 -844 
L 550 4863 
z
" transform="scale(0.015625)"/>
       <path id="DejaVuSans-57" d="M 213 4666 
L 850 4666 
L 1831 722 
L 2809 4666 
L 3519 4666 
L 4500 722 
L 5478 4666 
L 6119 4666 
L 4947 0 
L 4153 0 
L 3169 4050 
L 2175 0 
L 1381 0 
L 213 4666 
z
" transform="scale(0.015625)"/>
       <path id="DejaVuSans-5d" d="M 1947 4863 
L 1947 -844 
L 622 -844 
L 622 -397 
L 1369 -397 
L 1369 4416 
L 622 4416 
L 622 4863 
L 1947 4863 
z
" transform="scale(0.015625)"/>
      </defs>
      <use xlink:href="#DejaVuSans-48"/>
      <use xlink:href="#DejaVuSans-65" transform="translate(75.195312 0)"/>
      <use xlink:href="#DejaVuSans-61" transform="translate(136.71875 0)"/>
      <use xlink:href="#DejaVuSans-74" transform="translate(197.998047 0)"/>
      <use xlink:href="#DejaVuSans-69" transform="translate(237.207031 0)"/>
      <use xlink:href="#DejaVuSans-6e" transform="translate(264.990234 0)"/>
      <use xlink:href="#DejaVuSans-67" transform="translate(328.369141 0)"/>
      <use xlink:href="#DejaVuSans-20" transform="translate(391.845703 0)"/>
      <use xlink:href="#DejaVuSans-50" transform="translate(423.632812 0)"/>
      <use xlink:href="#DejaVuSans-6f" transform="translate(480.310547 0)"/>
      <use xlink:href="#DejaVuSans-77" transform="translate(541.492188 0)"/>
      <use xlink:href="#DejaVuSans-65" transform="translate(623.279297 0)"/>
      <use xlink:href="#DejaVuSans-72" transform="translate(684.802734 0)"/>
      <use xlink:href="#DejaVuSans-20" transform="translate(725.916016 0)"/>
      <use xlink:href="#DejaVuSans-5b" transform="translate(757.703125 0)"/>
      <use xlink:href="#DejaVuSans-57" transform="translate(796.716797 0)"/>
      <use xlink:href="#DejaVuSans-5d" transform="translate(895.59375 0)"/>
     </g>
    </g>
   </g>
   <g id="line2d_23">
    <path d="M 85.01108 171.226351 
L 88.31938 176.326206 
L 91.62768 173.776279 
L 94.935981 176.326206 
L 101.552582 176.326206 
L 104.860882 178.876134 
L 108.169182 176.326206 
L 114.785783 181.426061 
L 118.094083 186.525916 
L 121.402384 186.525916 
L 124.710684 191.625771 
L 128.018985 270.673524 
L 131.327285 245.174249 
L 134.635585 247.724176 
L 137.943886 194.175699 
L 141.252186 178.876134 
L 144.560487 166.126496 
L 154.485388 143.177148 
L 161.101989 132.977438 
L 164.410289 132.977438 
L 167.718589 127.877583 
L 171.02689 130.427511 
L 177.643491 125.327656 
L 180.951791 127.877583 
L 187.568392 122.777728 
L 190.876692 122.777728 
L 194.184993 138.077293 
L 197.493293 130.427511 
L 200.801593 127.877583 
L 204.109894 132.977438 
L 207.418194 224.774829 
L 210.726495 219.674974 
L 214.034795 186.525916 
L 217.343095 155.926786 
L 220.651396 145.727076 
L 223.959696 143.177148 
L 227.267997 138.077293 
L 237.192898 130.427511 
L 240.501198 130.427511 
L 243.809499 127.877583 
L 250.426099 127.877583 
L 253.7344 125.327656 
L 257.0427 127.877583 
L 260.351 125.327656 
L 263.659301 127.877583 
L 266.967601 122.777728 
L 286.817404 122.777728 
L 290.125704 130.427511 
L 293.434004 130.427511 
L 300.050605 125.327656 
L 303.358906 120.227801 
L 306.667206 117.677873 
L 316.592107 102.378308 
L 319.900408 102.378308 
L 329.825309 94.728526 
L 333.133609 94.728526 
L 336.44191 92.178598 
L 343.05851 92.178598 
L 349.675111 97.278453 
L 352.983412 104.928236 
L 356.291712 155.926786 
L 359.600012 250.274104 
L 362.908313 257.923886 
L 366.216613 201.825481 
L 369.524914 232.424611 
L 372.833214 206.925336 
L 376.141514 143.177148 
L 379.449815 120.227801 
L 382.758115 110.028091 
L 386.066416 97.278453 
L 389.374716 89.628671 
L 392.683016 84.528816 
L 395.991317 76.879033 
L 399.299617 76.879033 
L 402.607917 74.329106 
L 405.916218 74.329106 
L 409.224518 76.879033 
L 412.532819 76.879033 
L 419.149419 81.978888 
L 422.45772 81.978888 
L 429.074321 87.078743 
L 432.382621 102.378308 
L 435.690921 204.375409 
L 438.999222 163.576569 
L 442.307522 127.877583 
L 445.615823 115.127946 
L 455.540724 99.828381 
L 462.157325 94.728526 
L 468.773925 94.728526 
L 485.315427 107.478163 
L 488.623728 112.578018 
L 491.932028 115.127946 
L 498.548629 125.327656 
L 508.47353 132.977438 
L 511.781831 140.627221 
L 515.090131 145.727076 
L 521.706732 150.826931 
L 525.015032 158.476714 
L 528.323333 168.676424 
L 531.631633 173.776279 
L 534.939933 150.826931 
L 538.248234 143.177148 
L 541.556534 138.077293 
L 544.864834 130.427511 
L 551.481435 125.327656 
L 554.789736 125.327656 
L 558.098036 122.777728 
L 561.406336 117.677873 
L 568.022937 112.578018 
L 571.331238 107.478163 
L 574.639538 107.478163 
L 577.947838 104.928236 
L 584.564439 94.728526 
L 587.87274 102.378308 
L 591.18104 148.277003 
L 594.48934 196.725626 
L 597.797641 265.573669 
L 601.105941 176.326206 
L 604.414242 130.427511 
L 607.722542 158.476714 
L 611.030842 138.077293 
L 614.339143 112.578018 
L 617.647443 99.828381 
L 627.572344 76.879033 
L 630.880645 74.329106 
L 634.188945 69.229251 
L 637.497246 69.229251 
L 640.805546 64.129396 
L 644.113846 66.679323 
L 654.038748 66.679323 
L 657.347048 69.229251 
L 660.655348 69.229251 
L 663.963649 71.779178 
L 667.271949 71.779178 
L 673.88855 76.879033 
L 677.19685 135.527366 
L 680.505151 278.323306 
L 683.813451 234.974539 
L 687.121751 222.224901 
L 690.430052 155.926786 
L 693.738352 127.877583 
L 697.046653 112.578018 
L 700.354953 102.378308 
L 703.663253 94.728526 
L 713.588155 79.428961 
L 720.204755 74.329106 
L 723.513056 74.329106 
L 726.821356 71.779178 
L 730.129657 71.779178 
L 733.437957 69.229251 
L 736.746257 71.779178 
L 740.054558 69.229251 
L 746.671159 74.329106 
L 749.979459 81.978888 
L 753.287759 117.677873 
L 756.59606 186.525916 
L 759.90436 110.028091 
L 763.212661 125.327656 
L 766.520961 104.928236 
L 769.829261 132.977438 
L 773.137562 94.728526 
L 776.445862 87.078743 
L 783.062463 76.879033 
L 786.370763 74.329106 
L 789.679064 74.329106 
L 792.987364 71.779178 
L 796.295665 71.779178 
L 799.603965 69.229251 
L 806.220566 69.229251 
L 809.528866 64.129396 
L 812.837167 66.679323 
L 816.145467 64.129396 
L 819.453767 66.679323 
L 822.762068 66.679323 
L 826.070368 74.329106 
L 829.378668 84.528816 
L 832.686969 120.227801 
L 835.995269 166.126496 
L 839.30357 153.376858 
L 842.61187 260.473814 
L 845.92017 166.126496 
L 845.92017 166.126496 
" clip-path="url(#p3afd86e2d3)" style="fill: none; stroke: #808080; stroke-opacity: 0.4; stroke-width: 1.5; stroke-linecap: square"/>
   </g>
   <g id="line2d_24">
    <path d="M 85.01108 183.097116 
L 88.31938 171.483361 
L 91.62768 173.432712 
L 98.244281 179.938266 
L 101.552582 181.140666 
L 104.860882 180.71926 
L 111.477483 181.638306 
L 118.094083 193.635011 
L 121.402384 193.748326 
L 124.710684 192.432311 
L 128.018985 268.391454 
L 131.327285 258.354598 
L 134.635585 235.497158 
L 137.943886 182.238594 
L 141.252186 157.447608 
L 144.560487 149.376785 
L 147.868787 145.559406 
L 151.177087 142.656076 
L 154.485388 140.40922 
L 157.793688 139.468123 
L 164.410289 136.344648 
L 167.718589 135.577074 
L 171.02689 133.320656 
L 174.33519 135.811209 
L 177.643491 132.419668 
L 180.951791 126.187445 
L 184.260091 123.718651 
L 187.568392 124.33981 
L 190.876692 126.461375 
L 194.184993 144.540746 
L 197.493293 141.006318 
L 200.801593 133.426232 
L 204.109894 152.348346 
L 207.418194 231.74842 
L 210.726495 226.145149 
L 214.034795 198.14592 
L 217.343095 161.983493 
L 220.651396 146.786932 
L 223.959696 143.225971 
L 227.267997 139.394904 
L 230.576297 137.201096 
L 233.884597 136.345192 
L 237.192898 136.233444 
L 240.501198 135.678757 
L 243.809499 135.001486 
L 247.117799 131.886582 
L 250.426099 131.072074 
L 253.7344 130.838011 
L 257.0427 131.826998 
L 260.351 131.895068 
L 263.659301 130.477565 
L 266.967601 123.024577 
L 270.275902 117.785431 
L 273.584202 119.482303 
L 276.892502 120.55626 
L 280.200803 123.025584 
L 283.509103 128.770688 
L 286.817404 133.82632 
L 290.125704 140.015424 
L 293.434004 140.568059 
L 296.742305 137.41079 
L 300.050605 126.736307 
L 303.358906 109.340447 
L 306.667206 103.031391 
L 309.975506 97.674737 
L 313.283807 99.515366 
L 316.592107 99.216839 
L 319.900408 96.36989 
L 323.208708 92.959442 
L 326.517008 91.281873 
L 329.825309 95.017828 
L 336.44191 95.671412 
L 339.75021 96.340658 
L 343.05851 98.3485 
L 346.366811 101.518723 
L 349.675111 105.324808 
L 352.983412 111.20499 
L 356.291712 170.923504 
L 359.600012 239.755063 
L 362.908313 247.086009 
L 366.216613 195.326336 
L 369.524914 224.022185 
L 372.833214 178.127763 
L 376.141514 117.930928 
L 379.449815 91.556263 
L 382.758115 86.395146 
L 386.066416 84.46637 
L 389.374716 81.371918 
L 392.683016 75.337083 
L 395.991317 71.07532 
L 399.299617 74.560223 
L 402.607917 77.53342 
L 405.916218 80.824117 
L 409.224518 82.428452 
L 412.532819 84.615291 
L 415.841119 85.300617 
L 419.149419 87.012423 
L 422.45772 88.484394 
L 425.76602 87.623809 
L 429.074321 93.045428 
L 432.382621 123.284418 
L 435.690921 204.396276 
L 438.999222 173.858505 
L 442.307522 131.16494 
L 445.615823 111.648421 
L 448.924123 106.626777 
L 452.232423 103.659886 
L 455.540724 96.810443 
L 458.849024 94.103735 
L 462.157325 96.259165 
L 465.465625 99.964935 
L 468.773925 103.991605 
L 472.082226 106.493152 
L 475.390526 111.152646 
L 478.698827 114.137995 
L 482.007127 116.285702 
L 485.315427 118.583286 
L 488.623728 121.461682 
L 491.932028 128.193762 
L 495.240329 138.262479 
L 498.548629 141.812418 
L 501.856929 142.497512 
L 505.16523 144.193705 
L 508.47353 143.174278 
L 511.781831 147.591937 
L 515.090131 154.692054 
L 518.398431 162.765049 
L 521.706732 166.27604 
L 525.015032 170.197811 
L 528.323333 170.452862 
L 531.631633 190.265858 
L 534.939933 151.006581 
L 538.248234 131.973973 
L 541.556534 127.060253 
L 544.864834 124.507906 
L 548.173135 128.849902 
L 551.481435 129.178948 
L 554.789736 126.448588 
L 558.098036 123.505611 
L 561.406336 119.673886 
L 564.714637 114.26019 
L 568.022937 111.181816 
L 571.331238 110.073347 
L 574.639538 111.695944 
L 577.947838 109.957292 
L 581.256139 92.327545 
L 584.564439 81.217676 
L 587.87274 116.675599 
L 591.18104 165.725481 
L 594.48934 190.39241 
L 597.797641 255.355556 
L 601.105941 174.699919 
L 604.414242 121.993086 
L 607.722542 164.992737 
L 611.030842 124.567498 
L 614.339143 90.35658 
L 617.647443 81.414235 
L 620.955744 78.613861 
L 624.264044 75.198327 
L 627.572344 74.430466 
L 630.880645 74.622749 
L 634.188945 75.323807 
L 637.497246 73.624584 
L 640.805546 69.687042 
L 644.113846 70.405757 
L 647.422147 72.580577 
L 650.730447 74.356323 
L 654.038748 70.195311 
L 657.347048 70.260228 
L 660.655348 75.377401 
L 663.963649 78.433421 
L 667.271949 80.564683 
L 670.58025 79.893814 
L 673.88855 77.602522 
L 677.19685 144.774513 
L 680.505151 316.341067 
L 683.813451 253.211167 
L 687.121751 237.492924 
L 690.430052 152.129787 
L 693.738352 108.061888 
L 697.046653 93.812314 
L 700.354953 82.000504 
L 703.663253 76.641981 
L 706.971554 82.521837 
L 710.279854 80.344037 
L 713.588155 77.154321 
L 716.896455 72.402153 
L 720.204755 72.479855 
L 723.513056 73.325731 
L 726.821356 73.35374 
L 730.129657 72.535644 
L 733.437957 72.641872 
L 736.746257 71.158593 
L 740.054558 70.447254 
L 743.362858 73.338006 
L 746.671159 79.619104 
L 749.979459 86.924063 
L 753.287759 131.481083 
L 756.59606 181.366038 
L 759.90436 118.131736 
L 763.212661 108.851659 
L 766.520961 90.128347 
L 769.829261 114.385017 
L 773.137562 90.651566 
L 776.445862 71.786704 
L 779.754163 67.365898 
L 783.062463 68.685274 
L 786.370763 67.048383 
L 789.679064 67.152264 
L 792.987364 66.274809 
L 796.295665 65.857315 
L 799.603965 65.685181 
L 802.912265 66.242616 
L 806.220566 63.785668 
L 809.528866 61.666603 
L 812.837167 60.935183 
L 816.145467 64.775515 
L 819.453767 65.574889 
L 822.762068 68.24196 
L 826.070368 76.151266 
L 829.378668 85.082414 
L 832.686969 141.05401 
L 835.995269 148.059421 
L 839.30357 156.151233 
L 842.61187 258.470784 
L 845.92017 155.629433 
L 845.92017 155.629433 
" clip-path="url(#p3afd86e2d3)" style="fill: none; stroke: #dc143c; stroke-width: 1.5; stroke-linecap: square"/>
   </g>
   <g id="line2d_25">
    <path d="M 577.947838 354.958125 
L 577.947838 22.318125 
" clip-path="url(#p3afd86e2d3)" style="fill: none; stroke-dasharray: 5.55,2.4; stroke-dashoffset: 0; stroke: #000000; stroke-width: 1.5"/>
   </g>
   <g id="patch_3">
    <path d="M 46.965625 354.958125 
L 46.965625 22.318125 
" style="fill: none; stroke: #000000; stroke-width: 0.8; stroke-linejoin: miter; stroke-linecap: square"/>
   </g>
   <g id="patch_4">
    <path d="M 883.965625 354.958125 
L 883.965625 22.318125 
" style="fill: none; stroke: #000000; stroke-width: 0.8; stroke-linejoin: miter; stroke-linecap: square"/>
   </g>
   <g id="patch_5">
    <path d="M 46.965625 354.958125 
L 883.965625 354.958125 
" style="fill: none; stroke: #000000; stroke-width: 0.8; stroke-linejoin: miter; stroke-linecap: square"/>
   </g>
   <g id="patch_6">
    <path d="M 46.965625 22.318125 
L 883.965625 22.318125 
" style="fill: none; stroke: #000000; stroke-width: 0.8; stroke-linejoin: miter; stroke-linecap: square"/>
   </g>
   <g id="text_14">
    <!-- Exercise 3.9: Multi-step Simulation (Open-Loop) -->
    <g transform="translate(322.282188 16.318125) scale(0.12 -0.12)">
     <defs>
      <path id="DejaVuSans-45" d="M 628 4666 
L 3578 4666 
L 3578 4134 
L 1259 4134 
L 1259 2753 
L 3481 2753 
L 3481 2222 
L 1259 2222 
L 1259 531 
L 3634 531 
L 3634 0 
L 628 0 
L 628 4666 
z
" transform="scale(0.015625)"/>
      <path id="DejaVuSans-78" d="M 3513 3500 
L 2247 1797 
L 3578 0 
L 2900 0 
L 1881 1375 
L 863 0 
L 184 0 
L 1544 1831 
L 300 3500 
L 978 3500 
L 1906 2253 
L 2834 3500 
L 3513 3500 
z
" transform="scale(0.015625)"/>
      <path id="DejaVuSans-63" d="M 3122 3366 
L 3122 2828 
Q 2878 2963 2633 3030 
Q 2388 3097 2138 3097 
Q 1578 3097 1268 2742 
Q 959 2388 959 1747 
Q 959 1106 1268 751 
Q 1578 397 2138 397 
Q 2388 397 2633 464 
Q 2878 531 3122 666 
L 3122 134 
Q 2881 22 2623 -34 
Q 2366 -91 2075 -91 
Q 1284 -91 818 406 
Q 353 903 353 1747 
Q 353 2603 823 3093 
Q 1294 3584 2113 3584 
Q 2378 3584 2631 3529 
Q 2884 3475 3122 3366 
z
" transform="scale(0.015625)"/>
      <path id="DejaVuSans-33" d="M 2597 2516 
Q 3050 2419 3304 2112 
Q 3559 1806 3559 1356 
Q 3559 666 3084 287 
Q 2609 -91 1734 -91 
Q 1441 -91 1130 -33 
Q 819 25 488 141 
L 488 750 
Q 750 597 1062 519 
Q 1375 441 1716 441 
Q 2309 441 2620 675 
Q 2931 909 2931 1356 
Q 2931 1769 2642 2001 
Q 2353 2234 1838 2234 
L 1294 2234 
L 1294 2753 
L 1863 2753 
Q 2328 2753 2575 2939 
Q 2822 3125 2822 3475 
Q 2822 3834 2567 4026 
Q 2313 4219 1838 4219 
Q 1578 4219 1281 4162 
Q 984 4106 628 3988 
L 628 4550 
Q 988 4650 1302 4700 
Q 1616 4750 1894 4750 
Q 2613 4750 3031 4423 
Q 3450 4097 3450 3541 
Q 3450 3153 3228 2886 
Q 3006 2619 2597 2516 
z
" transform="scale(0.015625)"/>
      <path id="DejaVuSans-2e" d="M 684 794 
L 1344 794 
L 1344 0 
L 684 0 
L 684 794 
z
" transform="scale(0.015625)"/>
      <path id="DejaVuSans-39" d="M 703 97 
L 703 672 
Q 941 559 1184 500 
Q 1428 441 1663 441 
Q 2288 441 2617 861 
Q 2947 1281 2994 2138 
Q 2813 1869 2534 1725 
Q 2256 1581 1919 1581 
Q 1219 1581 811 2004 
Q 403 2428 403 3163 
Q 403 3881 828 4315 
Q 1253 4750 1959 4750 
Q 2769 4750 3195 4129 
Q 3622 3509 3622 2328 
Q 3622 1225 3098 567 
Q 2575 -91 1691 -91 
Q 1453 -91 1209 -44 
Q 966 3 703 97 
z
M 1959 2075 
Q 2384 2075 2632 2365 
Q 2881 2656 2881 3163 
Q 2881 3666 2632 3958 
Q 2384 4250 1959 4250 
Q 1534 4250 1286 3958 
Q 1038 3666 1038 3163 
Q 1038 2656 1286 2365 
Q 1534 2075 1959 2075 
z
" transform="scale(0.015625)"/>
      <path id="DejaVuSans-3a" d="M 750 794 
L 1409 794 
L 1409 0 
L 750 0 
L 750 794 
z
M 750 3309 
L 1409 3309 
L 1409 2516 
L 750 2516 
L 750 3309 
z
" transform="scale(0.015625)"/>
      <path id="DejaVuSans-4d" d="M 628 4666 
L 1569 4666 
L 2759 1491 
L 3956 4666 
L 4897 4666 
L 4897 0 
L 4281 0 
L 4281 4097 
L 3078 897 
L 2444 897 
L 1241 4097 
L 1241 0 
L 628 0 
L 628 4666 
z
" transform="scale(0.015625)"/>
      <path id="DejaVuSans-6c" d="M 603 4863 
L 1178 4863 
L 1178 0 
L 603 0 
L 603 4863 
z
" transform="scale(0.015625)"/>
      <path id="DejaVuSans-2d" d="M 313 2009 
L 1997 2009 
L 1997 1497 
L 313 1497 
L 313 2009 
z
" transform="scale(0.015625)"/>
      <path id="DejaVuSans-70" d="M 1159 525 
L 1159 -1331 
L 581 -1331 
L 581 3500 
L 1159 3500 
L 1159 2969 
Q 1341 3281 1617 3432 
Q 1894 3584 2278 3584 
Q 2916 3584 3314 3078 
Q 3713 2572 3713 1747 
Q 3713 922 3314 415 
Q 2916 -91 2278 -91 
Q 1894 -91 1617 61 
Q 1341 213 1159 525 
z
M 3116 1747 
Q 3116 2381 2855 2742 
Q 2594 3103 2138 3103 
Q 1681 3103 1420 2742 
Q 1159 2381 1159 1747 
Q 1159 1113 1420 752 
Q 1681 391 2138 391 
Q 2594 391 2855 752 
Q 3116 1113 3116 1747 
z
" transform="scale(0.015625)"/>
      <path id="DejaVuSans-53" d="M 3425 4513 
L 3425 3897 
Q 3066 4069 2747 4153 
Q 2428 4238 2131 4238 
Q 1616 4238 1336 4038 
Q 1056 3838 1056 3469 
Q 1056 3159 1242 3001 
Q 1428 2844 1947 2747 
L 2328 2669 
Q 3034 2534 3370 2195 
Q 3706 1856 3706 1288 
Q 3706 609 3251 259 
Q 2797 -91 1919 -91 
Q 1588 -91 1214 -16 
Q 841 59 441 206 
L 441 856 
Q 825 641 1194 531 
Q 1563 422 1919 422 
Q 2459 422 2753 634 
Q 3047 847 3047 1241 
Q 3047 1584 2836 1778 
Q 2625 1972 2144 2069 
L 1759 2144 
Q 1053 2284 737 2584 
Q 422 2884 422 3419 
Q 422 4038 858 4394 
Q 1294 4750 2059 4750 
Q 2388 4750 2728 4690 
Q 3069 4631 3425 4513 
z
" transform="scale(0.015625)"/>
      <path id="DejaVuSans-4f" d="M 2522 4238 
Q 1834 4238 1429 3725 
Q 1025 3213 1025 2328 
Q 1025 1447 1429 934 
Q 1834 422 2522 422 
Q 3209 422 3611 934 
Q 4013 1447 4013 2328 
Q 4013 3213 3611 3725 
Q 3209 4238 2522 4238 
z
M 2522 4750 
Q 3503 4750 4090 4092 
Q 4678 3434 4678 2328 
Q 4678 1225 4090 567 
Q 3503 -91 2522 -91 
Q 1538 -91 948 565 
Q 359 1222 359 2328 
Q 359 3434 948 4092 
Q 1538 4750 2522 4750 
z
" transform="scale(0.015625)"/>
      <path id="DejaVuSans-4c" d="M 628 4666 
L 1259 4666 
L 1259 531 
L 3531 531 
L 3531 0 
L 628 0 
L 628 4666 
z
" transform="scale(0.015625)"/>
     </defs>
     <use xlink:href="#DejaVuSans-45"/>
     <use xlink:href="#DejaVuSans-78" transform="translate(63.183594 0)"/>
     <use xlink:href="#DejaVuSans-65" transform="translate(119.238281 0)"/>
     <use xlink:href="#DejaVuSans-72" transform="translate(180.761719 0)"/>
     <use xlink:href="#DejaVuSans-63" transform="translate(219.625 0)"/>
     <use xlink:href="#DejaVuSans-69" transform="translate(274.605469 0)"/>
     <use xlink:href="#DejaVuSans-73" transform="translate(302.388672 0)"/>
     <use xlink:href="#DejaVuSans-65" transform="translate(354.488281 0)"/>
     <use xlink:href="#DejaVuSans-20" transform="translate(416.011719 0)"/>
     <use xlink:href="#DejaVuSans-33" transform="translate(447.798828 0)"/>
     <use xlink:href="#DejaVuSans-2e" transform="translate(511.421875 0)"/>
     <use xlink:href="#DejaVuSans-39" transform="translate(543.208984 0)"/>
     <use xlink:href="#DejaVuSans-3a" transform="translate(606.832031 0)"/>
     <use xlink:href="#DejaVuSans-20" transform="translate(640.523438 0)"/>
     <use xlink:href="#DejaVuSans-4d" transform="translate(672.310547 0)"/>
     <use xlink:href="#DejaVuSans-75" transform="translate(758.589844 0)"/>
     <use xlink:href="#DejaVuSans-6c" transform="translate(821.96875 0)"/>
     <use xlink:href="#DejaVuSans-74" transform="translate(849.751953 0)"/>
     <use xlink:href="#DejaVuSans-69" transform="translate(888.960938 0)"/>
     <use xlink:href="#DejaVuSans-2d" transform="translate(916.744141 0)"/>
     <use xlink:href="#DejaVuSans-73" transform="translate(952.828125 0)"/>
     <use xlink:href="#DejaVuSans-74" transform="translate(1004.927734 0)"/>
     <use xlink:href="#DejaVuSans-65" transform="translate(1044.136719 0)"/>
     <use xlink:href="#DejaVuSans-70" transform="translate(1105.660156 0)"/>
     <use xlink:href="#DejaVuSans-20" transform="translate(1169.136719 0)"/>
     <use xlink:href="#DejaVuSans-53" transform="translate(1200.923828 0)"/>
     <use xlink:href="#DejaVuSans-69" transform="translate(1264.400391 0)"/>
     <use xlink:href="#DejaVuSans-6d" transform="translate(1292.183594 0)"/>
     <use xlink:href="#DejaVuSans-75" transform="translate(1389.595703 0)"/>
     <use xlink:href="#DejaVuSans-6c" transform="translate(1452.974609 0)"/>
     <use xlink:href="#DejaVuSans-61" transform="translate(1480.757812 0)"/>
     <use xlink:href="#DejaVuSans-74" transform="translate(1542.037109 0)"/>
     <use xlink:href="#DejaVuSans-69" transform="translate(1581.246094 0)"/>
     <use xlink:href="#DejaVuSans-6f" transform="translate(1609.029297 0)"/>
     <use xlink:href="#DejaVuSans-6e" transform="translate(1670.210938 0)"/>
     <use xlink:href="#DejaVuSans-20" transform="translate(1733.589844 0)"/>
     <use xlink:href="#DejaVuSans-28" transform="translate(1765.376953 0)"/>
     <use xlink:href="#DejaVuSans-4f" transform="translate(1804.390625 0)"/>
     <use xlink:href="#DejaVuSans-70" transform="translate(1883.101562 0)"/>
     <use xlink:href="#DejaVuSans-65" transform="translate(1946.578125 0)"/>
     <use xlink:href="#DejaVuSans-6e" transform="translate(2008.101562 0)"/>
     <use xlink:href="#DejaVuSans-2d" transform="translate(2071.480469 0)"/>
     <use xlink:href="#DejaVuSans-4c" transform="translate(2107.564453 0)"/>
     <use xlink:href="#DejaVuSans-6f" transform="translate(2161.527344 0)"/>
     <use xlink:href="#DejaVuSans-6f" transform="translate(2222.708984 0)"/>
     <use xlink:href="#DejaVuSans-70" transform="translate(2283.890625 0)"/>
     <use xlink:href="#DejaVuSans-29" transform="translate(2347.367188 0)"/>
    </g>
   </g>
   <g id="legend_1">
    <g id="patch_7">
     <path d="M 53.965625 74.3525 
L 207.126563 74.3525 
Q 209.126563 74.3525 209.126563 72.3525 
L 209.126563 29.318125 
Q 209.126563 27.318125 207.126563 27.318125 
L 53.965625 27.318125 
Q 51.965625 27.318125 51.965625 29.318125 
L 51.965625 72.3525 
Q 51.965625 74.3525 53.965625 74.3525 
z
" style="fill: #ffffff; opacity: 0.8; stroke: #cccccc; stroke-linejoin: miter"/>
    </g>
    <g id="line2d_26">
     <path d="M 55.965625 35.416562 
L 65.965625 35.416562 
L 75.965625 35.416562 
" style="fill: none; stroke: #808080; stroke-opacity: 0.4; stroke-width: 1.5; stroke-linecap: square"/>
    </g>
    <g id="text_15">
     <!-- Observed Ph -->
     <g transform="translate(83.965625 38.916562) scale(0.1 -0.1)">
      <defs>
       <path id="DejaVuSans-62" d="M 3116 1747 
Q 3116 2381 2855 2742 
Q 2594 3103 2138 3103 
Q 1681 3103 1420 2742 
Q 1159 2381 1159 1747 
Q 1159 1113 1420 752 
Q 1681 391 2138 391 
Q 2594 391 2855 752 
Q 3116 1113 3116 1747 
z
M 1159 2969 
Q 1341 3281 1617 3432 
Q 1894 3584 2278 3584 
Q 2916 3584 3314 3078 
Q 3713 2572 3713 1747 
Q 3713 922 3314 415 
Q 2916 -91 2278 -91 
Q 1894 -91 1617 61 
Q 1341 213 1159 525 
L 1159 0 
L 581 0 
L 581 4863 
L 1159 4863 
L 1159 2969 
z
" transform="scale(0.015625)"/>
       <path id="DejaVuSans-76" d="M 191 3500 
L 800 3500 
L 1894 563 
L 2988 3500 
L 3597 3500 
L 2284 0 
L 1503 0 
L 191 3500 
z
" transform="scale(0.015625)"/>
       <path id="DejaVuSans-64" d="M 2906 2969 
L 2906 4863 
L 3481 4863 
L 3481 0 
L 2906 0 
L 2906 525 
Q 2725 213 2448 61 
Q 2172 -91 1784 -91 
Q 1150 -91 751 415 
Q 353 922 353 1747 
Q 353 2572 751 3078 
Q 1150 3584 1784 3584 
Q 2172 3584 2448 3432 
Q 2725 3281 2906 2969 
z
M 947 1747 
Q 947 1113 1208 752 
Q 1469 391 1925 391 
Q 2381 391 2643 752 
Q 2906 1113 2906 1747 
Q 2906 2381 2643 2742 
Q 2381 3103 1925 3103 
Q 1469 3103 1208 2742 
Q 947 2381 947 1747 
z
" transform="scale(0.015625)"/>
       <path id="DejaVuSans-68" d="M 3513 2113 
L 3513 0 
L 2938 0 
L 2938 2094 
Q 2938 2591 2744 2837 
Q 2550 3084 2163 3084 
Q 1697 3084 1428 2787 
Q 1159 2491 1159 1978 
L 1159 0 
L 581 0 
L 581 4863 
L 1159 4863 
L 1159 2956 
Q 1366 3272 1645 3428 
Q 1925 3584 2291 3584 
Q 2894 3584 3203 3211 
Q 3513 2838 3513 2113 
z
" transform="scale(0.015625)"/>
      </defs>
      <use xlink:href="#DejaVuSans-4f"/>
      <use xlink:href="#DejaVuSans-62" transform="translate(78.710938 0)"/>
      <use xlink:href="#DejaVuSans-73" transform="translate(142.1875 0)"/>
      <use xlink:href="#DejaVuSans-65" transform="translate(194.287109 0)"/>
      <use xlink:href="#DejaVuSans-72" transform="translate(255.810547 0)"/>
      <use xlink:href="#DejaVuSans-76" transform="translate(296.923828 0)"/>
      <use xlink:href="#DejaVuSans-65" transform="translate(356.103516 0)"/>
      <use xlink:href="#DejaVuSans-64" transform="translate(417.626953 0)"/>
      <use xlink:href="#DejaVuSans-20" transform="translate(481.103516 0)"/>
      <use xlink:href="#DejaVuSans-50" transform="translate(512.890625 0)"/>
      <use xlink:href="#DejaVuSans-68" transform="translate(573.193359 0)"/>
     </g>
    </g>
    <g id="line2d_27">
     <path d="M 55.965625 50.094687 
L 65.965625 50.094687 
L 75.965625 50.094687 
" style="fill: none; stroke: #dc143c; stroke-width: 1.5; stroke-linecap: square"/>
    </g>
    <g id="text_16">
     <!-- Simulated Ph (Dynamic) -->
     <g transform="translate(83.965625 53.594687) scale(0.1 -0.1)">
      <defs>
       <path id="DejaVuSans-44" d="M 1259 4147 
L 1259 519 
L 2022 519 
Q 2988 519 3436 956 
Q 3884 1394 3884 2338 
Q 3884 3275 3436 3711 
Q 2988 4147 2022 4147 
L 1259 4147 
z
M 628 4666 
L 1925 4666 
Q 3281 4666 3915 4102 
Q 4550 3538 4550 2338 
Q 4550 1131 3912 565 
Q 3275 0 1925 0 
L 628 0 
L 628 4666 
z
" transform="scale(0.015625)"/>
       <path id="DejaVuSans-79" d="M 2059 -325 
Q 1816 -950 1584 -1140 
Q 1353 -1331 966 -1331 
L 506 -1331 
L 506 -850 
L 844 -850 
Q 1081 -850 1212 -737 
Q 1344 -625 1503 -206 
L 1606 56 
L 191 3500 
L 800 3500 
L 1894 763 
L 2988 3500 
L 3597 3500 
L 2059 -325 
z
" transform="scale(0.015625)"/>
      </defs>
      <use xlink:href="#DejaVuSans-53"/>
      <use xlink:href="#DejaVuSans-69" transform="translate(63.476562 0)"/>
      <use xlink:href="#DejaVuSans-6d" transform="translate(91.259766 0)"/>
      <use xlink:href="#DejaVuSans-75" transform="translate(188.671875 0)"/>
      <use xlink:href="#DejaVuSans-6c" transform="translate(252.050781 0)"/>
      <use xlink:href="#DejaVuSans-61" transform="translate(279.833984 0)"/>
      <use xlink:href="#DejaVuSans-74" transform="translate(341.113281 0)"/>
      <use xlink:href="#DejaVuSans-65" transform="translate(380.322266 0)"/>
      <use xlink:href="#DejaVuSans-64" transform="translate(441.845703 0)"/>
      <use xlink:href="#DejaVuSans-20" transform="translate(505.322266 0)"/>
      <use xlink:href="#DejaVuSans-50" transform="translate(537.109375 0)"/>
      <use xlink:href="#DejaVuSans-68" transform="translate(597.412109 0)"/>
      <use xlink:href="#DejaVuSans-20" transform="translate(660.791016 0)"/>
      <use xlink:href="#DejaVuSans-28" transform="translate(692.578125 0)"/>
      <use xlink:href="#DejaVuSans-44" transform="translate(731.591797 0)"/>
      <use xlink:href="#DejaVuSans-79" transform="translate(808.59375 0)"/>
      <use xlink:href="#DejaVuSans-6e" transform="translate(867.773438 0)"/>
      <use xlink:href="#DejaVuSans-61" transform="translate(931.152344 0)"/>
      <use xlink:href="#DejaVuSans-6d" transform="translate(992.431641 0)"/>
      <use xlink:href="#DejaVuSans-69" transform="translate(1089.84375 0)"/>
      <use xlink:href="#DejaVuSans-63" transform="translate(1117.626953 0)"/>
      <use xlink:href="#DejaVuSans-29" transform="translate(1172.607422 0)"/>
     </g>
    </g>
    <g id="line2d_28">
     <path d="M 55.965625 64.772812 
L 65.965625 64.772812 
L 75.965625 64.772812 
" style="fill: none; stroke-dasharray: 5.55,2.4; stroke-dashoffset: 0; stroke: #000000; stroke-width: 1.5"/>
    </g>
    <g id="text_17">
     <!-- Train/Test Split -->
     <g transform="translate(83.965625 68.272812) scale(0.1 -0.1)">
      <defs>
       <path id="DejaVuSans-2f" d="M 1625 4666 
L 2156 4666 
L 531 -594 
L 0 -594 
L 1625 4666 
z
" transform="scale(0.015625)"/>
      </defs>
      <use xlink:href="#DejaVuSans-54"/>
      <use xlink:href="#DejaVuSans-72" transform="translate(46.333984 0)"/>
      <use xlink:href="#DejaVuSans-61" transform="translate(87.447266 0)"/>
      <use xlink:href="#DejaVuSans-69" transform="translate(148.726562 0)"/>
      <use xlink:href="#DejaVuSans-6e" transform="translate(176.509766 0)"/>
      <use xlink:href="#DejaVuSans-2f" transform="translate(239.888672 0)"/>
      <use xlink:href="#DejaVuSans-54" transform="translate(273.580078 0)"/>
      <use xlink:href="#DejaVuSans-65" transform="translate(317.664062 0)"/>
      <use xlink:href="#DejaVuSans-73" transform="translate(379.1875 0)"/>
      <use xlink:href="#DejaVuSans-74" transform="translate(431.287109 0)"/>
      <use xlink:href="#DejaVuSans-20" transform="translate(470.496094 0)"/>
      <use xlink:href="#DejaVuSans-53" transform="translate(502.283203 0)"/>
      <use xlink:href="#DejaVuSans-70" transform="translate(565.759766 0)"/>
      <use xlink:href="#DejaVuSans-6c" transform="translate(629.236328 0)"/>
      <use xlink:href="#DejaVuSans-69" transform="translate(657.019531 0)"/>
      <use xlink:href="#DejaVuSans-74" transform="translate(684.802734 0)"/>
     </g>
    </g>
   </g>
  </g>
 </g>
 <defs>
  <clipPath id="p3afd86e2d3">
   <rect x="46.965625" y="22.318125" width="837" height="332.64"/>
  </clipPath>
 </defs>
</svg>
