<?xml version="1.0" encoding="utf-8" standalone="no"?>
<!DOCTYPE svg PUBLIC "-//W3C//DTD SVG 1.1//EN"
  "http://www.w3.org/Graphics/SVG/1.1/DTD/svg11.dtd">
<svg xmlns:xlink="http://www.w3.org/1999/xlink" width="891.165625pt" height="392.514375pt" viewBox="0 0 891.165625 392.514375" xmlns="http://www.w3.org/2000/svg" version="1.1">
 <metadata>
  <rdf:RDF xmlns:dc="http://purl.org/dc/elements/1.1/" xmlns:cc="http://creativecommons.org/ns#" xmlns:rdf="http://www.w3.org/1999/02/22-rdf-syntax-ns#">
   <cc:Work>
    <dc:type rdf:resource="http://purl.org/dc/dcmitype/StillImage"/>
    <dc:date>2026-04-06T11:32:26.442900</dc:date>
    <dc:format>image/svg+xml</dc:format>
    <dc:creator>
     <cc:Agent>
      <dc:title>Matplotlib v3.10.8, https://matplotlib.org/</dc:title>
     </cc:Agent>
    </dc:creator>
   </cc:Work>
  </rdf:RDF>
 </metadata>
 <defs>
  <style type="text/css">*{stroke-linejoin: round; stroke-linecap: butt}</style>
 </defs>
 <g id="figure_1">
  <g id="patch_1">
   <path d="M 0 392.514375 
L 891.165625 392.514375 
L 891.165625 0 
L 0 0 
z
" style="fill: #ffffff"/>
  </g>
  <g id="axes_1">
   <g id="patch_2">
    <path d="M 46.965625 354.958125 
L 883.965625 354.958125 
L 883.965625 22.318125 
L 46.965625 22.318125 
z
" style="fill: #ffffff"/>
   </g>
   <g id="FillBetweenPolyCollection_1">
    <defs>
     <path id="m08010767d5" d="M 85.01108 -226.932206 
L 85.01108 -168.383805 
L 88.31938 -190.167544 
L 91.62768 -181.893803 
L 94.935981 -174.018274 
L 98.244281 -171.006908 
L 101.552582 -169.758506 
L 104.860882 -168.777296 
L 108.169182 -169.596307 
L 111.477483 -165.530826 
L 114.785783 -158.775943 
L 118.094083 -156.041499 
L 121.402384 -169.566217 
L 124.710684 -158.808674 
L 128.018985 -85.429558 
L 131.327285 -113.675477 
L 134.635585 -132.886005 
L 137.943886 -189.875481 
L 141.252186 -200.59408 
L 144.560487 -204.838322 
L 147.868787 -208.067523 
L 151.177087 -210.761649 
L 154.485388 -211.754213 
L 157.793688 -213.455519 
L 161.101989 -215.375112 
L 164.410289 -215.805901 
L 167.718589 -219.368427 
L 171.02689 -215.82234 
L 174.33519 -218.784454 
L 177.643491 -226.077766 
L 180.951791 -229.198131 
L 184.260091 -228.755034 
L 187.568392 -231.098781 
L 190.876692 -223.42975 
L 194.184993 -206.343761 
L 197.493293 -217.431867 
L 200.801593 -222.980222 
L 204.109894 -191.507937 
L 207.418194 -115.450809 
L 210.726495 -143.49426 
L 214.034795 -168.286062 
L 217.343095 -203.530066 
L 220.651396 -208.255937 
L 223.959696 -212.565386 
L 227.267997 -215.167846 
L 230.576297 -216.136374 
L 233.884597 -216.215921 
L 237.192898 -216.872746 
L 240.501198 -217.103364 
L 243.809499 -220.75575 
L 247.117799 -221.77169 
L 250.426099 -222.224528 
L 253.7344 -221.01071 
L 257.0427 -220.842052 
L 260.351 -221.145277 
L 263.659301 -229.602123 
L 266.967601 -236.561468 
L 270.275902 -239.392663 
L 273.584202 -234.584249 
L 276.892502 -232.212015 
L 280.200803 -229.660435 
L 283.509103 -219.056435 
L 286.817404 -218.239502 
L 290.125704 -210.003444 
L 293.434004 -211.626403 
L 296.742305 -223.669676 
L 300.050605 -243.884283 
L 303.358906 -250.501567 
L 306.667206 -257.397348 
L 309.975506 -255.131639 
L 313.283807 -255.015114 
L 316.592107 -257.886791 
L 319.900408 -261.597975 
L 323.208708 -264.51213 
L 326.517008 -259.926309 
L 329.825309 -259.549934 
L 333.133609 -259.235313 
L 336.44191 -258.809468 
L 339.75021 -256.841772 
L 343.05851 -253.640983 
L 346.366811 -252.000174 
L 349.675111 -252.70872 
L 352.983412 -243.683118 
L 356.291712 -183.458564 
L 359.600012 -133.53855 
L 362.908313 -134.389516 
L 366.216613 -208.050547 
L 369.524914 -140.173025 
L 372.833214 -202.565119 
L 376.141514 -258.96682 
L 379.449815 -268.572463 
L 382.758115 -270.629325 
L 386.066416 -273.242592 
L 389.374716 -279.751846 
L 392.683016 -285.879818 
L 395.991317 -281.746907 
L 399.299617 -278.897638 
L 402.607917 -275.056821 
L 405.916218 -273.536526 
L 409.224518 -270.854572 
L 412.532819 -270.447439 
L 415.841119 -268.618812 
L 419.149419 -266.467171 
L 422.45772 -268.614423 
L 425.76602 -267.037923 
L 429.074321 -261.175452 
L 432.382621 -233.218789 
L 435.690921 -153.811364 
L 438.999222 -206.329922 
L 442.307522 -235.074661 
L 445.615823 -247.80321 
L 448.924123 -249.173281 
L 452.232423 -256.15675 
L 455.540724 -261.043373 
L 458.849024 -259.112301 
L 462.157325 -255.303216 
L 465.465625 -250.729197 
L 468.773925 -248.504838 
L 472.082226 -243.348091 
L 475.390526 -240.025494 
L 478.698827 -237.803005 
L 482.007127 -235.390913 
L 485.315427 -232.911153 
L 488.623728 -226.492502 
L 491.932028 -214.839109 
L 495.240329 -210.594118 
L 498.548629 -210.045841 
L 501.856929 -208.060013 
L 505.16523 -211.752528 
L 508.47353 -209.872813 
L 511.781831 -200.493522 
L 515.090131 -193.033573 
L 518.398431 -189.267825 
L 521.706732 -188.661996 
L 525.015032 -191.062852 
L 528.323333 -186.875577 
L 531.631633 -171.624252 
L 534.939933 -219.054865 
L 538.248234 -225.59112 
L 541.556534 -229.525071 
L 544.864834 -224.259038 
L 548.173135 -223.480604 
L 551.481435 -226.244144 
L 554.789736 -229.250366 
L 558.098036 -232.964952 
L 561.406336 -239.068582 
L 564.714637 -242.517137 
L 568.022937 -244.383595 
L 571.331238 -242.236437 
L 574.639538 -241.692107 
L 577.947838 -260.384665 
L 581.256139 -278.003188 
L 584.564439 -264.084376 
L 587.87274 -232.981685 
L 591.18104 -188.92214 
L 594.48934 -178.776199 
L 597.797641 -114.99246 
L 601.105941 -216.109026 
L 604.414242 -247.876498 
L 607.722542 -195.271326 
L 611.030842 -256.285739 
L 614.339143 -272.083024 
L 617.647443 -276.573371 
L 620.955744 -280.613824 
L 624.264044 -281.601382 
L 627.572344 -281.5554 
L 630.880645 -280.450103 
L 634.188945 -281.761758 
L 637.497246 -286.556019 
L 640.805546 -286.135036 
L 644.113846 -284.028934 
L 647.422147 -280.953997 
L 650.730447 -285.918244 
L 654.038748 -286.604452 
L 657.347048 -281.257562 
L 660.655348 -277.684562 
L 663.963649 -276.540448 
L 667.271949 -279.423955 
L 670.58025 -281.897272 
L 673.88855 -277.932476 
L 677.19685 -210.841192 
L 680.505151 -52.67625 
L 683.813451 -146.88982 
L 687.121751 -140.306931 
L 690.430052 -234.293417 
L 693.738352 -256.525274 
L 697.046653 -272.701347 
L 700.354953 -280.238217 
L 703.663253 -272.858948 
L 706.971554 -274.858028 
L 710.279854 -277.896873 
L 713.588155 -283.693483 
L 716.896455 -283.787843 
L 720.204755 -282.728059 
L 723.513056 -282.585203 
L 726.821356 -283.628349 
L 730.129657 -283.162982 
L 733.437957 -285.027997 
L 736.746257 -285.819348 
L 740.054558 -285.585322 
L 743.362858 -281.935291 
L 746.671159 -276.506266 
L 749.979459 -268.455788 
L 753.287759 -225.390589 
L 756.59606 -175.896669 
L 759.90436 -268.794601 
L 763.212661 -258.677171 
L 766.520961 -269.893061 
L 769.829261 -237.882519 
L 773.137562 -283.077078 
L 776.445862 -289.320902 
L 779.754163 -287.38783 
L 783.062463 -289.469358 
L 786.370763 -289.105926 
L 789.679064 -290.16864 
L 792.987364 -290.556745 
L 796.295665 -291.010704 
L 799.603965 -289.817698 
L 802.912265 -292.322254 
L 806.220566 -294.851716 
L 809.528866 -296.52785 
L 812.837167 -291.938898 
L 816.145467 -291.034338 
L 819.453767 -290.867578 
L 822.762068 -288.520012 
L 826.070368 -280.537071 
L 829.378668 -271.518656 
L 832.686969 -214.166362 
L 835.995269 -222.427364 
L 839.30357 -213.173338 
L 842.61187 -112.473445 
L 845.92017 -236.90929 
L 845.92017 -295.45769 
L 845.92017 -295.45769 
L 842.61187 -171.021845 
L 839.30357 -271.721738 
L 835.995269 -280.975765 
L 832.686969 -272.714762 
L 829.378668 -330.067056 
L 826.070368 -339.085471 
L 822.762068 -347.068412 
L 819.453767 -349.415978 
L 816.145467 -349.582738 
L 812.837167 -350.487298 
L 809.528866 -355.07625 
L 806.220566 -353.400116 
L 802.912265 -350.870654 
L 799.603965 -348.366098 
L 796.295665 -349.559104 
L 792.987364 -349.105145 
L 789.679064 -348.71704 
L 786.370763 -347.654326 
L 783.062463 -348.017758 
L 779.754163 -345.93623 
L 776.445862 -347.869302 
L 773.137562 -341.625478 
L 769.829261 -296.430919 
L 766.520961 -328.441461 
L 763.212661 -317.225572 
L 759.90436 -327.343001 
L 756.59606 -234.445069 
L 753.287759 -283.938989 
L 749.979459 -327.004189 
L 746.671159 -335.054666 
L 743.362858 -340.483691 
L 740.054558 -344.133722 
L 736.746257 -344.367748 
L 733.437957 -343.576397 
L 730.129657 -341.711382 
L 726.821356 -342.176749 
L 723.513056 -341.133604 
L 720.204755 -341.276459 
L 716.896455 -342.336243 
L 713.588155 -342.241883 
L 710.279854 -336.445273 
L 706.971554 -333.406428 
L 703.663253 -331.407348 
L 700.354953 -338.786617 
L 697.046653 -331.249747 
L 693.738352 -315.073675 
L 690.430052 -292.841818 
L 687.121751 -198.855331 
L 683.813451 -205.43822 
L 680.505151 -111.22465 
L 677.19685 -269.389592 
L 673.88855 -336.480876 
L 670.58025 -340.445672 
L 667.271949 -337.972355 
L 663.963649 -335.088848 
L 660.655348 -336.232962 
L 657.347048 -339.805962 
L 654.038748 -345.152852 
L 650.730447 -344.466644 
L 647.422147 -339.502397 
L 644.113846 -342.577334 
L 640.805546 -344.683436 
L 637.497246 -345.104419 
L 634.188945 -340.310158 
L 630.880645 -338.998503 
L 627.572344 -340.1038 
L 624.264044 -340.149782 
L 620.955744 -339.162225 
L 617.647443 -335.121771 
L 614.339143 -330.631424 
L 611.030842 -314.834139 
L 607.722542 -253.819726 
L 604.414242 -306.424898 
L 601.105941 -274.657427 
L 597.797641 -173.54086 
L 594.48934 -237.324599 
L 591.18104 -247.47054 
L 587.87274 -291.530085 
L 584.564439 -322.632776 
L 581.256139 -336.551588 
L 577.947838 -318.933065 
L 574.639538 -300.240507 
L 571.331238 -300.784837 
L 568.022937 -302.931995 
L 564.714637 -301.065537 
L 561.406336 -297.616982 
L 558.098036 -291.513353 
L 554.789736 -287.798766 
L 551.481435 -284.792544 
L 548.173135 -282.029004 
L 544.864834 -282.807438 
L 541.556534 -288.073471 
L 538.248234 -284.13952 
L 534.939933 -277.603265 
L 531.631633 -230.172652 
L 528.323333 -245.423977 
L 525.015032 -249.611253 
L 521.706732 -247.210396 
L 518.398431 -247.816225 
L 515.090131 -251.581974 
L 511.781831 -259.041922 
L 508.47353 -268.421213 
L 505.16523 -270.300928 
L 501.856929 -266.608414 
L 498.548629 -268.594241 
L 495.240329 -269.142518 
L 491.932028 -273.387509 
L 488.623728 -285.040902 
L 485.315427 -291.459553 
L 482.007127 -293.939313 
L 478.698827 -296.351405 
L 475.390526 -298.573894 
L 472.082226 -301.896491 
L 468.773925 -307.053238 
L 465.465625 -309.277597 
L 462.157325 -313.851616 
L 458.849024 -317.660701 
L 455.540724 -319.591773 
L 452.232423 -314.70515 
L 448.924123 -307.721681 
L 445.615823 -306.35161 
L 442.307522 -293.623062 
L 438.999222 -264.878322 
L 435.690921 -212.359764 
L 432.382621 -291.767189 
L 429.074321 -319.723852 
L 425.76602 -325.586323 
L 422.45772 -327.162823 
L 419.149419 -325.015571 
L 415.841119 -327.167213 
L 412.532819 -328.995839 
L 409.224518 -329.402972 
L 405.916218 -332.084926 
L 402.607917 -333.605221 
L 399.299617 -337.446038 
L 395.991317 -340.295307 
L 392.683016 -344.428218 
L 389.374716 -338.300246 
L 386.066416 -331.790992 
L 382.758115 -329.177725 
L 379.449815 -327.120863 
L 376.141514 -317.51522 
L 372.833214 -261.113519 
L 369.524914 -198.721426 
L 366.216613 -266.598947 
L 362.908313 -192.937916 
L 359.600012 -192.08695 
L 356.291712 -242.006964 
L 352.983412 -302.231518 
L 349.675111 -311.25712 
L 346.366811 -310.548574 
L 343.05851 -312.189383 
L 339.75021 -315.390172 
L 336.44191 -317.357868 
L 333.133609 -317.783714 
L 329.825309 -318.098334 
L 326.517008 -318.47471 
L 323.208708 -323.06053 
L 319.900408 -320.146375 
L 316.592107 -316.435191 
L 313.283807 -313.563514 
L 309.975506 -313.680039 
L 306.667206 -315.945748 
L 303.358906 -309.049967 
L 300.050605 -302.432683 
L 296.742305 -282.218076 
L 293.434004 -270.174803 
L 290.125704 -268.551844 
L 286.817404 -276.787903 
L 283.509103 -277.604835 
L 280.200803 -288.208835 
L 276.892502 -290.760415 
L 273.584202 -293.132649 
L 270.275902 -297.941063 
L 266.967601 -295.109868 
L 263.659301 -288.150524 
L 260.351 -279.693677 
L 257.0427 -279.390452 
L 253.7344 -279.55911 
L 250.426099 -280.772928 
L 247.117799 -280.32009 
L 243.809499 -279.30415 
L 240.501198 -275.651763 
L 237.192898 -275.421145 
L 233.884597 -274.76432 
L 230.576297 -274.684773 
L 227.267997 -273.716245 
L 223.959696 -271.113783 
L 220.651396 -266.804334 
L 217.343095 -262.078461 
L 214.034795 -226.834455 
L 210.726495 -202.042649 
L 207.418194 -173.999194 
L 204.109894 -250.056312 
L 200.801593 -281.528589 
L 197.493293 -275.980212 
L 194.184993 -264.892088 
L 190.876692 -281.978031 
L 187.568392 -289.64702 
L 184.260091 -287.303175 
L 180.951791 -287.746181 
L 177.643491 -284.625605 
L 174.33519 -277.33209 
L 171.02689 -274.369522 
L 167.718589 -277.91516 
L 164.410289 -274.351656 
L 161.101989 -273.919877 
L 157.793688 -271.998175 
L 154.485388 -270.294688 
L 151.177087 -269.297573 
L 147.868787 -266.598649 
L 144.560487 -263.35962 
L 141.252186 -259.104826 
L 137.943886 -248.364987 
L 134.635585 -191.352316 
L 131.327285 -172.095851 
L 128.018985 -143.798933 
L 124.710684 -217.078548 
L 121.402384 -227.723832 
L 118.094083 -213.982985 
L 114.785783 -216.469528 
L 111.477483 -222.752172 
L 108.169182 -226.265876 
L 104.860882 -224.401415 
L 101.552582 -224.130736 
L 98.244281 -222.99058 
L 94.935981 -223.015073 
L 91.62768 -224.915072 
L 88.31938 -224.670415 
L 85.01108 -226.932206 
z
" style="stroke: #dc143c; stroke-opacity: 0.1"/>
    </defs>
    <g clip-path="url(#pad9a13f115)">
     <use xlink:href="#m08010767d5" x="0" y="392.514375" style="fill: #dc143c; fill-opacity: 0.1; stroke: #dc143c; stroke-opacity: 0.1"/>
    </g>
   </g>
   <g id="matplotlib.axis_1">
    <g id="xtick_1">
     <g id="line2d_1">
      <path d="M 85.01108 354.958125 
L 85.01108 22.318125 
" clip-path="url(#pad9a13f115)" style="fill: none; stroke: #b0b0b0; stroke-opacity: 0.3; stroke-width: 0.8; stroke-linecap: square"/>
     </g>
     <g id="line2d_2">
      <defs>
       <path id="md14b76faf9" d="M 0 0 
L 0 3.5 
" style="stroke: #000000; stroke-width: 0.8"/>
      </defs>
      <g>
       <use xlink:href="#md14b76faf9" x="85.01108" y="354.958125" style="stroke: #000000; stroke-width: 0.8"/>
      </g>
     </g>
     <g id="text_1">
      <!-- 0 -->
      <g transform="translate(81.82983 369.556562) scale(0.1 -0.1)">
       <defs>
        <path id="DejaVuSans-30" d="M 2034 4250 
Q 1547 4250 1301 3770 
Q 1056 3291 1056 2328 
Q 1056 1369 1301 889 
Q 1547 409 2034 409 
Q 2525 409 2770 889 
Q 3016 1369 3016 2328 
Q 3016 3291 2770 3770 
Q 2525 4250 2034 4250 
z
M 2034 4750 
Q 2819 4750 3233 4129 
Q 3647 3509 3647 2328 
Q 3647 1150 3233 529 
Q 2819 -91 2034 -91 
Q 1250 -91 836 529 
Q 422 1150 422 2328 
Q 422 3509 836 4129 
Q 1250 4750 2034 4750 
z
" transform="scale(0.015625)"/>
       </defs>
       <use xlink:href="#DejaVuSans-30"/>
      </g>
     </g>
    </g>
    <g id="xtick_2">
     <g id="line2d_3">
      <path d="M 250.426099 354.958125 
L 250.426099 22.318125 
" clip-path="url(#pad9a13f115)" style="fill: none; stroke: #b0b0b0; stroke-opacity: 0.3; stroke-width: 0.8; stroke-linecap: square"/>
     </g>
     <g id="line2d_4">
      <g>
       <use xlink:href="#md14b76faf9" x="250.426099" y="354.958125" style="stroke: #000000; stroke-width: 0.8"/>
      </g>
     </g>
     <g id="text_2">
      <!-- 50 -->
      <g transform="translate(244.063599 369.556562) scale(0.1 -0.1)">
       <defs>
        <path id="DejaVuSans-35" d="M 691 4666 
L 3169 4666 
L 3169 4134 
L 1269 4134 
L 1269 2991 
Q 1406 3038 1543 3061 
Q 1681 3084 1819 3084 
Q 2600 3084 3056 2656 
Q 3513 2228 3513 1497 
Q 3513 744 3044 326 
Q 2575 -91 1722 -91 
Q 1428 -91 1123 -41 
Q 819 9 494 109 
L 494 744 
Q 775 591 1075 516 
Q 1375 441 1709 441 
Q 2250 441 2565 725 
Q 2881 1009 2881 1497 
Q 2881 1984 2565 2268 
Q 2250 2553 1709 2553 
Q 1456 2553 1204 2497 
Q 953 2441 691 2322 
L 691 4666 
z
" transform="scale(0.015625)"/>
       </defs>
       <use xlink:href="#DejaVuSans-35"/>
       <use xlink:href="#DejaVuSans-30" transform="translate(63.623047 0)"/>
      </g>
     </g>
    </g>
    <g id="xtick_3">
     <g id="line2d_5">
      <path d="M 415.841119 354.958125 
L 415.841119 22.318125 
" clip-path="url(#pad9a13f115)" style="fill: none; stroke: #b0b0b0; stroke-opacity: 0.3; stroke-width: 0.8; stroke-linecap: square"/>
     </g>
     <g id="line2d_6">
      <g>
       <use xlink:href="#md14b76faf9" x="415.841119" y="354.958125" style="stroke: #000000; stroke-width: 0.8"/>
      </g>
     </g>
     <g id="text_3">
      <!-- 100 -->
      <g transform="translate(406.297369 369.556562) scale(0.1 -0.1)">
       <defs>
        <path id="DejaVuSans-31" d="M 794 531 
L 1825 531 
L 1825 4091 
L 703 3866 
L 703 4441 
L 1819 4666 
L 2450 4666 
L 2450 531 
L 3481 531 
L 3481 0 
L 794 0 
L 794 531 
z
" transform="scale(0.015625)"/>
       </defs>
       <use xlink:href="#DejaVuSans-31"/>
       <use xlink:href="#DejaVuSans-30" transform="translate(63.623047 0)"/>
       <use xlink:href="#DejaVuSans-30" transform="translate(127.246094 0)"/>
      </g>
     </g>
    </g>
    <g id="xtick_4">
     <g id="line2d_7">
      <path d="M 581.256139 354.958125 
L 581.256139 22.318125 
" clip-path="url(#pad9a13f115)" style="fill: none; stroke: #b0b0b0; stroke-opacity: 0.3; stroke-width: 0.8; stroke-linecap: square"/>
     </g>
     <g id="line2d_8">
      <g>
       <use xlink:href="#md14b76faf9" x="581.256139" y="354.958125" style="stroke: #000000; stroke-width: 0.8"/>
      </g>
     </g>
     <g id="text_4">
      <!-- 150 -->
      <g transform="translate(571.712389 369.556562) scale(0.1 -0.1)">
       <use xlink:href="#DejaVuSans-31"/>
       <use xlink:href="#DejaVuSans-35" transform="translate(63.623047 0)"/>
       <use xlink:href="#DejaVuSans-30" transform="translate(127.246094 0)"/>
      </g>
     </g>
    </g>
    <g id="xtick_5">
     <g id="line2d_9">
      <path d="M 746.671159 354.958125 
L 746.671159 22.318125 
" clip-path="url(#pad9a13f115)" style="fill: none; stroke: #b0b0b0; stroke-opacity: 0.3; stroke-width: 0.8; stroke-linecap: square"/>
     </g>
     <g id="line2d_10">
      <g>
       <use xlink:href="#md14b76faf9" x="746.671159" y="354.958125" style="stroke: #000000; stroke-width: 0.8"/>
      </g>
     </g>
     <g id="text_5">
      <!-- 200 -->
      <g transform="translate(737.127409 369.556562) scale(0.1 -0.1)">
       <defs>
        <path id="DejaVuSans-32" d="M 1228 531 
L 3431 531 
L 3431 0 
L 469 0 
L 469 531 
Q 828 903 1448 1529 
Q 2069 2156 2228 2338 
Q 2531 2678 2651 2914 
Q 2772 3150 2772 3378 
Q 2772 3750 2511 3984 
Q 2250 4219 1831 4219 
Q 1534 4219 1204 4116 
Q 875 4013 500 3803 
L 500 4441 
Q 881 4594 1212 4672 
Q 1544 4750 1819 4750 
Q 2544 4750 2975 4387 
Q 3406 4025 3406 3419 
Q 3406 3131 3298 2873 
Q 3191 2616 2906 2266 
Q 2828 2175 2409 1742 
Q 1991 1309 1228 531 
z
" transform="scale(0.015625)"/>
       </defs>
       <use xlink:href="#DejaVuSans-32"/>
       <use xlink:href="#DejaVuSans-30" transform="translate(63.623047 0)"/>
       <use xlink:href="#DejaVuSans-30" transform="translate(127.246094 0)"/>
      </g>
     </g>
    </g>
    <g id="text_6">
     <!-- Time (Hours) -->
     <g transform="translate(433.092969 383.234687) scale(0.1 -0.1)">
      <defs>
       <path id="DejaVuSans-54" d="M -19 4666 
L 3928 4666 
L 3928 4134 
L 2272 4134 
L 2272 0 
L 1638 0 
L 1638 4134 
L -19 4134 
L -19 4666 
z
" transform="scale(0.015625)"/>
       <path id="DejaVuSans-69" d="M 603 3500 
L 1178 3500 
L 1178 0 
L 603 0 
L 603 3500 
z
M 603 4863 
L 1178 4863 
L 1178 4134 
L 603 4134 
L 603 4863 
z
" transform="scale(0.015625)"/>
       <path id="DejaVuSans-6d" d="M 3328 2828 
Q 3544 3216 3844 3400 
Q 4144 3584 4550 3584 
Q 5097 3584 5394 3201 
Q 5691 2819 5691 2113 
L 5691 0 
L 5113 0 
L 5113 2094 
Q 5113 2597 4934 2840 
Q 4756 3084 4391 3084 
Q 3944 3084 3684 2787 
Q 3425 2491 3425 1978 
L 3425 0 
L 2847 0 
L 2847 2094 
Q 2847 2600 2669 2842 
Q 2491 3084 2119 3084 
Q 1678 3084 1418 2786 
Q 1159 2488 1159 1978 
L 1159 0 
L 581 0 
L 581 3500 
L 1159 3500 
L 1159 2956 
Q 1356 3278 1631 3431 
Q 1906 3584 2284 3584 
Q 2666 3584 2933 3390 
Q 3200 3197 3328 2828 
z
" transform="scale(0.015625)"/>
       <path id="DejaVuSans-65" d="M 3597 1894 
L 3597 1613 
L 953 1613 
Q 991 1019 1311 708 
Q 1631 397 2203 397 
Q 2534 397 2845 478 
Q 3156 559 3463 722 
L 3463 178 
Q 3153 47 2828 -22 
Q 2503 -91 2169 -91 
Q 1331 -91 842 396 
Q 353 884 353 1716 
Q 353 2575 817 3079 
Q 1281 3584 2069 3584 
Q 2775 3584 3186 3129 
Q 3597 2675 3597 1894 
z
M 3022 2063 
Q 3016 2534 2758 2815 
Q 2500 3097 2075 3097 
Q 1594 3097 1305 2825 
Q 1016 2553 972 2059 
L 3022 2063 
z
" transform="scale(0.015625)"/>
       <path id="DejaVuSans-20" transform="scale(0.015625)"/>
       <path id="DejaVuSans-28" d="M 1984 4856 
Q 1566 4138 1362 3434 
Q 1159 2731 1159 2009 
Q 1159 1288 1364 580 
Q 1569 -128 1984 -844 
L 1484 -844 
Q 1016 -109 783 600 
Q 550 1309 550 2009 
Q 550 2706 781 3412 
Q 1013 4119 1484 4856 
L 1984 4856 
z
" transform="scale(0.015625)"/>
       <path id="DejaVuSans-48" d="M 628 4666 
L 1259 4666 
L 1259 2753 
L 3553 2753 
L 3553 4666 
L 4184 4666 
L 4184 0 
L 3553 0 
L 3553 2222 
L 1259 2222 
L 1259 0 
L 628 0 
L 628 4666 
z
" transform="scale(0.015625)"/>
       <path id="DejaVuSans-6f" d="M 1959 3097 
Q 1497 3097 1228 2736 
Q 959 2375 959 1747 
Q 959 1119 1226 758 
Q 1494 397 1959 397 
Q 2419 397 2687 759 
Q 2956 1122 2956 1747 
Q 2956 2369 2687 2733 
Q 2419 3097 1959 3097 
z
M 1959 3584 
Q 2709 3584 3137 3096 
Q 3566 2609 3566 1747 
Q 3566 888 3137 398 
Q 2709 -91 1959 -91 
Q 1206 -91 779 398 
Q 353 888 353 1747 
Q 353 2609 779 3096 
Q 1206 3584 1959 3584 
z
" transform="scale(0.015625)"/>
       <path id="DejaVuSans-75" d="M 544 1381 
L 544 3500 
L 1119 3500 
L 1119 1403 
Q 1119 906 1312 657 
Q 1506 409 1894 409 
Q 2359 409 2629 706 
Q 2900 1003 2900 1516 
L 2900 3500 
L 3475 3500 
L 3475 0 
L 2900 0 
L 2900 538 
Q 2691 219 2414 64 
Q 2138 -91 1772 -91 
Q 1169 -91 856 284 
Q 544 659 544 1381 
z
M 1991 3584 
L 1991 3584 
z
" transform="scale(0.015625)"/>
       <path id="DejaVuSans-72" d="M 2631 2963 
Q 2534 3019 2420 3045 
Q 2306 3072 2169 3072 
Q 1681 3072 1420 2755 
Q 1159 2438 1159 1844 
L 1159 0 
L 581 0 
L 581 3500 
L 1159 3500 
L 1159 2956 
Q 1341 3275 1631 3429 
Q 1922 3584 2338 3584 
Q 2397 3584 2469 3576 
Q 2541 3569 2628 3553 
L 2631 2963 
z
" transform="scale(0.015625)"/>
       <path id="DejaVuSans-73" d="M 2834 3397 
L 2834 2853 
Q 2591 2978 2328 3040 
Q 2066 3103 1784 3103 
Q 1356 3103 1142 2972 
Q 928 2841 928 2578 
Q 928 2378 1081 2264 
Q 1234 2150 1697 2047 
L 1894 2003 
Q 2506 1872 2764 1633 
Q 3022 1394 3022 966 
Q 3022 478 2636 193 
Q 2250 -91 1575 -91 
Q 1294 -91 989 -36 
Q 684 19 347 128 
L 347 722 
Q 666 556 975 473 
Q 1284 391 1588 391 
Q 1994 391 2212 530 
Q 2431 669 2431 922 
Q 2431 1156 2273 1281 
Q 2116 1406 1581 1522 
L 1381 1569 
Q 847 1681 609 1914 
Q 372 2147 372 2553 
Q 372 3047 722 3315 
Q 1072 3584 1716 3584 
Q 2034 3584 2315 3537 
Q 2597 3491 2834 3397 
z
" transform="scale(0.015625)"/>
       <path id="DejaVuSans-29" d="M 513 4856 
L 1013 4856 
Q 1481 4119 1714 3412 
Q 1947 2706 1947 2009 
Q 1947 1309 1714 600 
Q 1481 -109 1013 -844 
L 513 -844 
Q 928 -128 1133 580 
Q 1338 1288 1338 2009 
Q 1338 2731 1133 3434 
Q 928 4138 513 4856 
z
" transform="scale(0.015625)"/>
      </defs>
      <use xlink:href="#DejaVuSans-54"/>
      <use xlink:href="#DejaVuSans-69" transform="translate(57.958984 0)"/>
      <use xlink:href="#DejaVuSans-6d" transform="translate(85.742188 0)"/>
      <use xlink:href="#DejaVuSans-65" transform="translate(183.154297 0)"/>
      <use xlink:href="#DejaVuSans-20" transform="translate(244.677734 0)"/>
      <use xlink:href="#DejaVuSans-28" transform="translate(276.464844 0)"/>
      <use xlink:href="#DejaVuSans-48" transform="translate(315.478516 0)"/>
      <use xlink:href="#DejaVuSans-6f" transform="translate(390.673828 0)"/>
      <use xlink:href="#DejaVuSans-75" transform="translate(451.855469 0)"/>
      <use xlink:href="#DejaVuSans-72" transform="translate(515.234375 0)"/>
      <use xlink:href="#DejaVuSans-73" transform="translate(556.347656 0)"/>
      <use xlink:href="#DejaVuSans-29" transform="translate(608.447266 0)"/>
     </g>
    </g>
   </g>
   <g id="matplotlib.axis_2">
    <g id="ytick_1">
     <g id="line2d_11">
      <path d="M 46.965625 334.243045 
L 883.965625 334.243045 
" clip-path="url(#pad9a13f115)" style="fill: none; stroke: #b0b0b0; stroke-opacity: 0.3; stroke-width: 0.8; stroke-linecap: square"/>
     </g>
     <g id="line2d_12">
      <defs>
       <path id="mddc7dddc4d" d="M 0 0 
L -3.5 0 
" style="stroke: #000000; stroke-width: 0.8"/>
      </defs>
      <g>
       <use xlink:href="#mddc7dddc4d" x="46.965625" y="334.243045" style="stroke: #000000; stroke-width: 0.8"/>
      </g>
     </g>
     <g id="text_7">
      <!-- 0 -->
      <g transform="translate(33.603125 338.042264) scale(0.1 -0.1)">
       <use xlink:href="#DejaVuSans-30"/>
      </g>
     </g>
    </g>
    <g id="ytick_2">
     <g id="line2d_13">
      <path d="M 46.965625 279.879024 
L 883.965625 279.879024 
" clip-path="url(#pad9a13f115)" style="fill: none; stroke: #b0b0b0; stroke-opacity: 0.3; stroke-width: 0.8; stroke-linecap: square"/>
     </g>
     <g id="line2d_14">
      <g>
       <use xlink:href="#mddc7dddc4d" x="46.965625" y="279.879024" style="stroke: #000000; stroke-width: 0.8"/>
      </g>
     </g>
     <g id="text_8">
      <!-- 20 -->
      <g transform="translate(27.240625 283.678242) scale(0.1 -0.1)">
       <use xlink:href="#DejaVuSans-32"/>
       <use xlink:href="#DejaVuSans-30" transform="translate(63.623047 0)"/>
      </g>
     </g>
    </g>
    <g id="ytick_3">
     <g id="line2d_15">
      <path d="M 46.965625 225.515003 
L 883.965625 225.515003 
" clip-path="url(#pad9a13f115)" style="fill: none; stroke: #b0b0b0; stroke-opacity: 0.3; stroke-width: 0.8; stroke-linecap: square"/>
     </g>
     <g id="line2d_16">
      <g>
       <use xlink:href="#mddc7dddc4d" x="46.965625" y="225.515003" style="stroke: #000000; stroke-width: 0.8"/>
      </g>
     </g>
     <g id="text_9">
      <!-- 40 -->
      <g transform="translate(27.240625 229.314221) scale(0.1 -0.1)">
       <defs>
        <path id="DejaVuSans-34" d="M 2419 4116 
L 825 1625 
L 2419 1625 
L 2419 4116 
z
M 2253 4666 
L 3047 4666 
L 3047 1625 
L 3713 1625 
L 3713 1100 
L 3047 1100 
L 3047 0 
L 2419 0 
L 2419 1100 
L 313 1100 
L 313 1709 
L 2253 4666 
z
" transform="scale(0.015625)"/>
       </defs>
       <use xlink:href="#DejaVuSans-34"/>
       <use xlink:href="#DejaVuSans-30" transform="translate(63.623047 0)"/>
      </g>
     </g>
    </g>
    <g id="ytick_4">
     <g id="line2d_17">
      <path d="M 46.965625 171.150982 
L 883.965625 171.150982 
" clip-path="url(#pad9a13f115)" style="fill: none; stroke: #b0b0b0; stroke-opacity: 0.3; stroke-width: 0.8; stroke-linecap: square"/>
     </g>
     <g id="line2d_18">
      <g>
       <use xlink:href="#mddc7dddc4d" x="46.965625" y="171.150982" style="stroke: #000000; stroke-width: 0.8"/>
      </g>
     </g>
     <g id="text_10">
      <!-- 60 -->
      <g transform="translate(27.240625 174.9502) scale(0.1 -0.1)">
       <defs>
        <path id="DejaVuSans-36" d="M 2113 2584 
Q 1688 2584 1439 2293 
Q 1191 2003 1191 1497 
Q 1191 994 1439 701 
Q 1688 409 2113 409 
Q 2538 409 2786 701 
Q 3034 994 3034 1497 
Q 3034 2003 2786 2293 
Q 2538 2584 2113 2584 
z
M 3366 4563 
L 3366 3988 
Q 3128 4100 2886 4159 
Q 2644 4219 2406 4219 
Q 1781 4219 1451 3797 
Q 1122 3375 1075 2522 
Q 1259 2794 1537 2939 
Q 1816 3084 2150 3084 
Q 2853 3084 3261 2657 
Q 3669 2231 3669 1497 
Q 3669 778 3244 343 
Q 2819 -91 2113 -91 
Q 1303 -91 875 529 
Q 447 1150 447 2328 
Q 447 3434 972 4092 
Q 1497 4750 2381 4750 
Q 2619 4750 2861 4703 
Q 3103 4656 3366 4563 
z
" transform="scale(0.015625)"/>
       </defs>
       <use xlink:href="#DejaVuSans-36"/>
       <use xlink:href="#DejaVuSans-30" transform="translate(63.623047 0)"/>
      </g>
     </g>
    </g>
    <g id="ytick_5">
     <g id="line2d_19">
      <path d="M 46.965625 116.78696 
L 883.965625 116.78696 
" clip-path="url(#pad9a13f115)" style="fill: none; stroke: #b0b0b0; stroke-opacity: 0.3; stroke-width: 0.8; stroke-linecap: square"/>
     </g>
     <g id="line2d_20">
      <g>
       <use xlink:href="#mddc7dddc4d" x="46.965625" y="116.78696" style="stroke: #000000; stroke-width: 0.8"/>
      </g>
     </g>
     <g id="text_11">
      <!-- 80 -->
      <g transform="translate(27.240625 120.586179) scale(0.1 -0.1)">
       <defs>
        <path id="DejaVuSans-38" d="M 2034 2216 
Q 1584 2216 1326 1975 
Q 1069 1734 1069 1313 
Q 1069 891 1326 650 
Q 1584 409 2034 409 
Q 2484 409 2743 651 
Q 3003 894 3003 1313 
Q 3003 1734 2745 1975 
Q 2488 2216 2034 2216 
z
M 1403 2484 
Q 997 2584 770 2862 
Q 544 3141 544 3541 
Q 544 4100 942 4425 
Q 1341 4750 2034 4750 
Q 2731 4750 3128 4425 
Q 3525 4100 3525 3541 
Q 3525 3141 3298 2862 
Q 3072 2584 2669 2484 
Q 3125 2378 3379 2068 
Q 3634 1759 3634 1313 
Q 3634 634 3220 271 
Q 2806 -91 2034 -91 
Q 1263 -91 848 271 
Q 434 634 434 1313 
Q 434 1759 690 2068 
Q 947 2378 1403 2484 
z
M 1172 3481 
Q 1172 3119 1398 2916 
Q 1625 2713 2034 2713 
Q 2441 2713 2670 2916 
Q 2900 3119 2900 3481 
Q 2900 3844 2670 4047 
Q 2441 4250 2034 4250 
Q 1625 4250 1398 4047 
Q 1172 3844 1172 3481 
z
" transform="scale(0.015625)"/>
       </defs>
       <use xlink:href="#DejaVuSans-38"/>
       <use xlink:href="#DejaVuSans-30" transform="translate(63.623047 0)"/>
      </g>
     </g>
    </g>
    <g id="ytick_6">
     <g id="line2d_21">
      <path d="M 46.965625 62.422939 
L 883.965625 62.422939 
" clip-path="url(#pad9a13f115)" style="fill: none; stroke: #b0b0b0; stroke-opacity: 0.3; stroke-width: 0.8; stroke-linecap: square"/>
     </g>
     <g id="line2d_22">
      <g>
       <use xlink:href="#mddc7dddc4d" x="46.965625" y="62.422939" style="stroke: #000000; stroke-width: 0.8"/>
      </g>
     </g>
     <g id="text_12">
      <!-- 100 -->
      <g transform="translate(20.878125 66.222158) scale(0.1 -0.1)">
       <use xlink:href="#DejaVuSans-31"/>
       <use xlink:href="#DejaVuSans-30" transform="translate(63.623047 0)"/>
       <use xlink:href="#DejaVuSans-30" transform="translate(127.246094 0)"/>
      </g>
     </g>
    </g>
    <g id="text_13">
     <!-- Heating Power [W] -->
     <g transform="translate(14.798438 235.368594) rotate(-90) scale(0.1 -0.1)">
      <defs>
       <path id="DejaVuSans-61" d="M 2194 1759 
Q 1497 1759 1228 1600 
Q 959 1441 959 1056 
Q 959 750 1161 570 
Q 1363 391 1709 391 
Q 2188 391 2477 730 
Q 2766 1069 2766 1631 
L 2766 1759 
L 2194 1759 
z
M 3341 1997 
L 3341 0 
L 2766 0 
L 2766 531 
Q 2569 213 2275 61 
Q 1981 -91 1556 -91 
Q 1019 -91 701 211 
Q 384 513 384 1019 
Q 384 1609 779 1909 
Q 1175 2209 1959 2209 
L 2766 2209 
L 2766 2266 
Q 2766 2663 2505 2880 
Q 2244 3097 1772 3097 
Q 1472 3097 1187 3025 
Q 903 2953 641 2809 
L 641 3341 
Q 956 3463 1253 3523 
Q 1550 3584 1831 3584 
Q 2591 3584 2966 3190 
Q 3341 2797 3341 1997 
z
" transform="scale(0.015625)"/>
       <path id="DejaVuSans-74" d="M 1172 4494 
L 1172 3500 
L 2356 3500 
L 2356 3053 
L 1172 3053 
L 1172 1153 
Q 1172 725 1289 603 
Q 1406 481 1766 481 
L 2356 481 
L 2356 0 
L 1766 0 
Q 1100 0 847 248 
Q 594 497 594 1153 
L 594 3053 
L 172 3053 
L 172 3500 
L 594 3500 
L 594 4494 
L 1172 4494 
z
" transform="scale(0.015625)"/>
       <path id="DejaVuSans-6e" d="M 3513 2113 
L 3513 0 
L 2938 0 
L 2938 2094 
Q 2938 2591 2744 2837 
Q 2550 3084 2163 3084 
Q 1697 3084 1428 2787 
Q 1159 2491 1159 1978 
L 1159 0 
L 581 0 
L 581 3500 
L 1159 3500 
L 1159 2956 
Q 1366 3272 1645 3428 
Q 1925 3584 2291 3584 
Q 2894 3584 3203 3211 
Q 3513 2838 3513 2113 
z
" transform="scale(0.015625)"/>
       <path id="DejaVuSans-67" d="M 2906 1791 
Q 2906 2416 2648 2759 
Q 2391 3103 1925 3103 
Q 1463 3103 1205 2759 
Q 947 2416 947 1791 
Q 947 1169 1205 825 
Q 1463 481 1925 481 
Q 2391 481 2648 825 
Q 2906 1169 2906 1791 
z
M 3481 434 
Q 3481 -459 3084 -895 
Q 2688 -1331 1869 -1331 
Q 1566 -1331 1297 -1286 
Q 1028 -1241 775 -1147 
L 775 -588 
Q 1028 -725 1275 -790 
Q 1522 -856 1778 -856 
Q 2344 -856 2625 -561 
Q 2906 -266 2906 331 
L 2906 616 
Q 2728 306 2450 153 
Q 2172 0 1784 0 
Q 1141 0 747 490 
Q 353 981 353 1791 
Q 353 2603 747 3093 
Q 1141 3584 1784 3584 
Q 2172 3584 2450 3431 
Q 2728 3278 2906 2969 
L 2906 3500 
L 3481 3500 
L 3481 434 
z
" transform="scale(0.015625)"/>
       <path id="DejaVuSans-50" d="M 1259 4147 
L 1259 2394 
L 2053 2394 
Q 2494 2394 2734 2622 
Q 2975 2850 2975 3272 
Q 2975 3691 2734 3919 
Q 2494 4147 2053 4147 
L 1259 4147 
z
M 628 4666 
L 2053 4666 
Q 2838 4666 3239 4311 
Q 3641 3956 3641 3272 
Q 3641 2581 3239 2228 
Q 2838 1875 2053 1875 
L 1259 1875 
L 1259 0 
L 628 0 
L 628 4666 
z
" transform="scale(0.015625)"/>
       <path id="DejaVuSans-77" d="M 269 3500 
L 844 3500 
L 1563 769 
L 2278 3500 
L 2956 3500 
L 3675 769 
L 4391 3500 
L 4966 3500 
L 4050 0 
L 3372 0 
L 2619 2869 
L 1863 0 
L 1184 0 
L 269 3500 
z
" transform="scale(0.015625)"/>
       <path id="DejaVuSans-5b" d="M 550 4863 
L 1875 4863 
L 1875 4416 
L 1125 4416 
L 1125 -397 
L 1875 -397 
L 1875 -844 
L 550 -844 
L 550 4863 
z
" transform="scale(0.015625)"/>
       <path id="DejaVuSans-57" d="M 213 4666 
L 850 4666 
L 1831 722 
L 2809 4666 
L 3519 4666 
L 4500 722 
L 5478 4666 
L 6119 4666 
L 4947 0 
L 4153 0 
L 3169 4050 
L 2175 0 
L 1381 0 
L 213 4666 
z
" transform="scale(0.015625)"/>
       <path id="DejaVuSans-5d" d="M 1947 4863 
L 1947 -844 
L 622 -844 
L 622 -397 
L 1369 -397 
L 1369 4416 
L 622 4416 
L 622 4863 
L 1947 4863 
z
" transform="scale(0.015625)"/>
      </defs>
      <use xlink:href="#DejaVuSans-48"/>
      <use xlink:href="#DejaVuSans-65" transform="translate(75.195312 0)"/>
      <use xlink:href="#DejaVuSans-61" transform="translate(136.71875 0)"/>
      <use xlink:href="#DejaVuSans-74" transform="translate(197.998047 0)"/>
      <use xlink:href="#DejaVuSans-69" transform="translate(237.207031 0)"/>
      <use xlink:href="#DejaVuSans-6e" transform="translate(264.990234 0)"/>
      <use xlink:href="#DejaVuSans-67" transform="translate(328.369141 0)"/>
      <use xlink:href="#DejaVuSans-20" transform="translate(391.845703 0)"/>
      <use xlink:href="#DejaVuSans-50" transform="translate(423.632812 0)"/>
      <use xlink:href="#DejaVuSans-6f" transform="translate(480.310547 0)"/>
      <use xlink:href="#DejaVuSans-77" transform="translate(541.492188 0)"/>
      <use xlink:href="#DejaVuSans-65" transform="translate(623.279297 0)"/>
      <use xlink:href="#DejaVuSans-72" transform="translate(684.802734 0)"/>
      <use xlink:href="#DejaVuSans-20" transform="translate(725.916016 0)"/>
      <use xlink:href="#DejaVuSans-5b" transform="translate(757.703125 0)"/>
      <use xlink:href="#DejaVuSans-57" transform="translate(796.716797 0)"/>
      <use xlink:href="#DejaVuSans-5d" transform="translate(895.59375 0)"/>
     </g>
    </g>
   </g>
   <g id="line2d_23">
    <path d="M 85.01108 182.023786 
L 88.31938 187.460188 
L 91.62768 184.741987 
L 94.935981 187.460188 
L 101.552582 187.460188 
L 104.860882 190.178389 
L 108.169182 187.460188 
L 114.785783 192.89659 
L 118.094083 198.332992 
L 121.402384 198.332992 
L 124.710684 203.769394 
L 128.018985 288.033627 
L 131.327285 260.851616 
L 134.635585 263.569817 
L 137.943886 206.487595 
L 141.252186 190.178389 
L 144.560487 176.587384 
L 154.485388 152.123574 
L 161.101989 141.25077 
L 164.410289 141.25077 
L 167.718589 135.814368 
L 171.02689 138.532569 
L 177.643491 133.096167 
L 180.951791 135.814368 
L 187.568392 130.377966 
L 190.876692 130.377966 
L 194.184993 146.687172 
L 197.493293 138.532569 
L 200.801593 135.814368 
L 204.109894 141.25077 
L 207.418194 239.106008 
L 210.726495 233.669606 
L 214.034795 198.332992 
L 217.343095 165.714579 
L 220.651396 154.841775 
L 223.959696 152.123574 
L 227.267997 146.687172 
L 237.192898 138.532569 
L 240.501198 138.532569 
L 243.809499 135.814368 
L 250.426099 135.814368 
L 253.7344 133.096167 
L 257.0427 135.814368 
L 260.351 133.096167 
L 263.659301 135.814368 
L 266.967601 130.377966 
L 286.817404 130.377966 
L 290.125704 138.532569 
L 293.434004 138.532569 
L 300.050605 133.096167 
L 303.358906 127.659765 
L 306.667206 124.941564 
L 316.592107 108.632357 
L 319.900408 108.632357 
L 329.825309 100.477754 
L 333.133609 100.477754 
L 336.44191 97.759553 
L 343.05851 97.759553 
L 349.675111 103.195955 
L 352.983412 111.350558 
L 356.291712 165.714579 
L 359.600012 266.288018 
L 362.908313 274.442622 
L 366.216613 214.642198 
L 369.524914 247.260611 
L 372.833214 220.078601 
L 376.141514 152.123574 
L 379.449815 127.659765 
L 382.758115 116.78696 
L 386.066416 103.195955 
L 389.374716 95.041352 
L 392.683016 89.60495 
L 395.991317 81.450347 
L 399.299617 81.450347 
L 402.607917 78.732146 
L 405.916218 78.732146 
L 409.224518 81.450347 
L 412.532819 81.450347 
L 419.149419 86.886749 
L 422.45772 86.886749 
L 429.074321 92.323151 
L 432.382621 108.632357 
L 435.690921 217.360399 
L 438.999222 173.869183 
L 442.307522 135.814368 
L 445.615823 122.223363 
L 455.540724 105.914156 
L 462.157325 100.477754 
L 468.773925 100.477754 
L 485.315427 114.068759 
L 488.623728 119.505162 
L 491.932028 122.223363 
L 498.548629 133.096167 
L 508.47353 141.25077 
L 511.781831 149.405373 
L 515.090131 154.841775 
L 521.706732 160.278177 
L 525.015032 168.432781 
L 528.323333 179.305585 
L 531.631633 184.741987 
L 534.939933 160.278177 
L 538.248234 152.123574 
L 541.556534 146.687172 
L 544.864834 138.532569 
L 551.481435 133.096167 
L 554.789736 133.096167 
L 558.098036 130.377966 
L 561.406336 124.941564 
L 568.022937 119.505162 
L 571.331238 114.068759 
L 574.639538 114.068759 
L 577.947838 111.350558 
L 584.564439 100.477754 
L 587.87274 108.632357 
L 591.18104 157.559976 
L 594.48934 209.205796 
L 597.797641 282.597225 
L 601.105941 187.460188 
L 604.414242 138.532569 
L 607.722542 168.432781 
L 611.030842 146.687172 
L 614.339143 119.505162 
L 617.647443 105.914156 
L 627.572344 81.450347 
L 630.880645 78.732146 
L 634.188945 73.295744 
L 637.497246 73.295744 
L 640.805546 67.859342 
L 644.113846 70.577543 
L 654.038748 70.577543 
L 657.347048 73.295744 
L 660.655348 73.295744 
L 663.963649 76.013945 
L 667.271949 76.013945 
L 673.88855 81.450347 
L 677.19685 143.968971 
L 680.505151 296.18823 
L 683.813451 249.978812 
L 687.121751 236.387807 
L 690.430052 165.714579 
L 693.738352 135.814368 
L 697.046653 119.505162 
L 700.354953 108.632357 
L 703.663253 100.477754 
L 713.588155 84.168548 
L 720.204755 78.732146 
L 723.513056 78.732146 
L 726.821356 76.013945 
L 730.129657 76.013945 
L 733.437957 73.295744 
L 736.746257 76.013945 
L 740.054558 73.295744 
L 746.671159 78.732146 
L 749.979459 86.886749 
L 753.287759 124.941564 
L 756.59606 198.332992 
L 759.90436 116.78696 
L 763.212661 133.096167 
L 766.520961 111.350558 
L 769.829261 141.25077 
L 773.137562 100.477754 
L 776.445862 92.323151 
L 783.062463 81.450347 
L 786.370763 78.732146 
L 789.679064 78.732146 
L 792.987364 76.013945 
L 796.295665 76.013945 
L 799.603965 73.295744 
L 806.220566 73.295744 
L 809.528866 67.859342 
L 812.837167 70.577543 
L 816.145467 67.859342 
L 819.453767 70.577543 
L 822.762068 70.577543 
L 826.070368 78.732146 
L 829.378668 89.60495 
L 832.686969 127.659765 
L 835.995269 176.587384 
L 839.30357 162.996378 
L 842.61187 277.160823 
L 845.92017 176.587384 
L 845.92017 176.587384 
" clip-path="url(#pad9a13f115)" style="fill: none; stroke: #808080; stroke-opacity: 0.4; stroke-width: 1.5; stroke-linecap: square"/>
   </g>
   <g id="line2d_24">
    <path d="M 85.01108 194.85637 
L 88.31938 185.095396 
L 91.62768 189.109938 
L 94.935981 193.997701 
L 98.244281 195.515631 
L 101.552582 195.569754 
L 104.860882 195.92502 
L 108.169182 194.583284 
L 111.477483 198.372876 
L 114.785783 204.891639 
L 118.094083 207.502133 
L 121.402384 193.869351 
L 124.710684 204.570764 
L 128.018985 277.900129 
L 131.327285 249.628711 
L 134.635585 230.395214 
L 137.943886 173.394141 
L 141.252186 162.664922 
L 144.560487 158.415404 
L 147.868787 155.181289 
L 151.177087 152.484764 
L 154.485388 151.489925 
L 157.793688 149.787528 
L 161.101989 147.866881 
L 164.410289 147.435596 
L 167.718589 143.872581 
L 171.02689 147.418444 
L 174.33519 144.456103 
L 177.643491 137.162689 
L 180.951791 134.042219 
L 184.260091 134.485271 
L 187.568392 132.141475 
L 190.876692 139.810484 
L 194.184993 156.89645 
L 197.493293 145.808336 
L 200.801593 140.25997 
L 204.109894 171.73225 
L 207.418194 247.789374 
L 210.726495 219.745921 
L 214.034795 194.954117 
L 217.343095 159.710112 
L 220.651396 154.98424 
L 223.959696 150.67479 
L 227.267997 148.072329 
L 230.576297 147.103801 
L 233.884597 147.024255 
L 237.192898 146.367429 
L 240.501198 146.136812 
L 243.809499 142.484425 
L 247.117799 141.468485 
L 250.426099 141.015647 
L 253.7344 142.229465 
L 257.0427 142.398123 
L 260.351 142.094898 
L 263.659301 133.638052 
L 266.967601 126.678707 
L 270.275902 123.847512 
L 273.584202 128.655926 
L 276.892502 131.02816 
L 280.200803 133.57974 
L 283.509103 144.18374 
L 286.817404 145.000673 
L 290.125704 153.236731 
L 293.434004 151.613772 
L 296.742305 139.570499 
L 300.050605 119.355892 
L 303.358906 112.738608 
L 306.667206 105.842827 
L 309.975506 108.108536 
L 313.283807 108.225061 
L 316.592107 105.353384 
L 319.900408 101.6422 
L 323.208708 98.728045 
L 326.517008 103.313865 
L 336.44191 104.430707 
L 339.75021 106.398403 
L 343.05851 109.599192 
L 346.366811 111.240001 
L 349.675111 110.531455 
L 352.983412 119.557057 
L 356.291712 179.781611 
L 359.600012 229.701625 
L 362.908313 228.850659 
L 366.216613 155.189628 
L 369.524914 223.067149 
L 372.833214 160.675056 
L 376.141514 104.273355 
L 379.449815 94.667712 
L 382.758115 92.61085 
L 386.066416 89.997583 
L 389.374716 83.488329 
L 392.683016 77.360357 
L 395.991317 81.493268 
L 399.299617 84.342537 
L 402.607917 88.183354 
L 405.916218 89.703649 
L 409.224518 92.385603 
L 412.532819 92.792736 
L 415.841119 94.621363 
L 419.149419 96.773004 
L 422.45772 94.625752 
L 425.76602 96.202252 
L 429.074321 102.064723 
L 432.382621 130.021386 
L 435.690921 209.428811 
L 438.999222 156.910253 
L 442.307522 128.165514 
L 445.615823 115.436965 
L 448.924123 114.066894 
L 452.232423 107.083425 
L 455.540724 102.196802 
L 458.849024 104.127874 
L 462.157325 107.936959 
L 465.465625 112.510978 
L 468.773925 114.735337 
L 472.082226 119.892084 
L 475.390526 123.214681 
L 478.698827 125.43717 
L 485.315427 130.329022 
L 488.623728 136.747673 
L 491.932028 148.401066 
L 495.240329 152.646057 
L 498.548629 153.194334 
L 501.856929 155.180161 
L 505.16523 151.487647 
L 508.47353 153.367362 
L 511.781831 162.746653 
L 515.090131 170.206602 
L 518.398431 173.97235 
L 521.706732 174.578179 
L 525.015032 172.177323 
L 528.323333 176.364598 
L 531.631633 191.615923 
L 534.939933 144.18531 
L 538.248234 137.649055 
L 541.556534 133.715104 
L 544.864834 138.981137 
L 548.173135 139.759571 
L 551.481435 136.996031 
L 554.789736 133.989809 
L 558.098036 130.275223 
L 561.406336 124.171593 
L 564.714637 120.723038 
L 568.022937 118.85658 
L 571.331238 121.003738 
L 574.639538 121.548068 
L 577.947838 102.85551 
L 581.256139 85.236987 
L 584.564439 99.155799 
L 587.87274 130.25849 
L 591.18104 174.318035 
L 594.48934 184.463976 
L 597.797641 248.247715 
L 601.105941 147.131149 
L 604.414242 115.363677 
L 607.722542 167.968849 
L 611.030842 106.954436 
L 614.339143 91.157151 
L 617.647443 86.666804 
L 620.955744 82.62635 
L 624.264044 81.638793 
L 627.572344 81.684775 
L 630.880645 82.790072 
L 634.188945 81.478417 
L 637.497246 76.684156 
L 640.805546 77.105139 
L 644.113846 79.211241 
L 647.422147 82.286178 
L 650.730447 77.321931 
L 654.038748 76.635723 
L 657.347048 81.982613 
L 660.655348 85.555613 
L 663.963649 86.699727 
L 667.271949 83.81622 
L 670.58025 81.342903 
L 673.88855 85.307699 
L 677.19685 152.398983 
L 680.505151 310.563925 
L 683.813451 216.350355 
L 687.121751 222.933244 
L 690.430052 128.946757 
L 693.738352 106.7149 
L 697.046653 90.538828 
L 700.354953 83.001958 
L 703.663253 90.381227 
L 706.971554 88.382147 
L 710.279854 85.343302 
L 713.588155 79.546692 
L 716.896455 79.452332 
L 720.204755 80.512116 
L 723.513056 80.654972 
L 726.821356 79.611826 
L 730.129657 80.077193 
L 733.437957 78.212178 
L 736.746257 77.420827 
L 740.054558 77.654853 
L 743.362858 81.304884 
L 746.671159 86.733909 
L 749.979459 94.784387 
L 753.287759 137.849586 
L 756.59606 187.343506 
L 759.90436 94.445574 
L 763.212661 104.563004 
L 766.520961 93.347114 
L 769.829261 125.357656 
L 773.137562 80.163097 
L 776.445862 73.919273 
L 779.754163 75.852345 
L 783.062463 73.770817 
L 786.370763 74.134249 
L 789.679064 73.071535 
L 796.295665 72.229471 
L 799.603965 73.422477 
L 806.220566 68.388459 
L 809.528866 66.712325 
L 812.837167 71.301277 
L 816.145467 72.205837 
L 819.453767 72.372597 
L 822.762068 74.720163 
L 826.070368 82.703104 
L 829.378668 91.721519 
L 832.686969 149.073813 
L 835.995269 140.812811 
L 839.30357 150.066837 
L 842.61187 250.76673 
L 845.92017 126.330885 
L 845.92017 126.330885 
" clip-path="url(#pad9a13f115)" style="fill: none; stroke: #dc143c; stroke-width: 1.5; stroke-linecap: square"/>
   </g>
   <g id="line2d_25">
    <path d="M 577.947838 354.958125 
L 577.947838 22.318125 
" clip-path="url(#pad9a13f115)" style="fill: none; stroke-dasharray: 5.55,2.4; stroke-dashoffset: 0; stroke: #000000; stroke-width: 1.5"/>
   </g>
   <g id="patch_3">
    <path d="M 46.965625 354.958125 
L 46.965625 22.318125 
" style="fill: none; stroke: #000000; stroke-width: 0.8; stroke-linejoin: miter; stroke-linecap: square"/>
   </g>
   <g id="patch_4">
    <path d="M 883.965625 354.958125 
L 883.965625 22.318125 
" style="fill: none; stroke: #000000; stroke-width: 0.8; stroke-linejoin: miter; stroke-linecap: square"/>
   </g>
   <g id="patch_5">
    <path d="M 46.965625 354.958125 
L 883.965625 354.958125 
" style="fill: none; stroke: #000000; stroke-width: 0.8; stroke-linejoin: miter; stroke-linecap: square"/>
   </g>
   <g id="patch_6">
    <path d="M 46.965625 22.318125 
L 883.965625 22.318125 
" style="fill: none; stroke: #000000; stroke-width: 0.8; stroke-linejoin: miter; stroke-linecap: square"/>
   </g>
   <g id="text_14">
    <!-- Exercise 3.9: Multi-step Simulation (Open-Loop) -->
    <g transform="translate(322.282188 16.318125) scale(0.12 -0.12)">
     <defs>
      <path id="DejaVuSans-45" d="M 628 4666 
L 3578 4666 
L 3578 4134 
L 1259 4134 
L 1259 2753 
L 3481 2753 
L 3481 2222 
L 1259 2222 
L 1259 531 
L 3634 531 
L 3634 0 
L 628 0 
L 628 4666 
z
" transform="scale(0.015625)"/>
      <path id="DejaVuSans-78" d="M 3513 3500 
L 2247 1797 
L 3578 0 
L 2900 0 
L 1881 1375 
L 863 0 
L 184 0 
L 1544 1831 
L 300 3500 
L 978 3500 
L 1906 2253 
L 2834 3500 
L 3513 3500 
z
" transform="scale(0.015625)"/>
      <path id="DejaVuSans-63" d="M 3122 3366 
L 3122 2828 
Q 2878 2963 2633 3030 
Q 2388 3097 2138 3097 
Q 1578 3097 1268 2742 
Q 959 2388 959 1747 
Q 959 1106 1268 751 
Q 1578 397 2138 397 
Q 2388 397 2633 464 
Q 2878 531 3122 666 
L 3122 134 
Q 2881 22 2623 -34 
Q 2366 -91 2075 -91 
Q 1284 -91 818 406 
Q 353 903 353 1747 
Q 353 2603 823 3093 
Q 1294 3584 2113 3584 
Q 2378 3584 2631 3529 
Q 2884 3475 3122 3366 
z
" transform="scale(0.015625)"/>
      <path id="DejaVuSans-33" d="M 2597 2516 
Q 3050 2419 3304 2112 
Q 3559 1806 3559 1356 
Q 3559 666 3084 287 
Q 2609 -91 1734 -91 
Q 1441 -91 1130 -33 
Q 819 25 488 141 
L 488 750 
Q 750 597 1062 519 
Q 1375 441 1716 441 
Q 2309 441 2620 675 
Q 2931 909 2931 1356 
Q 2931 1769 2642 2001 
Q 2353 2234 1838 2234 
L 1294 2234 
L 1294 2753 
L 1863 2753 
Q 2328 2753 2575 2939 
Q 2822 3125 2822 3475 
Q 2822 3834 2567 4026 
Q 2313 4219 1838 4219 
Q 1578 4219 1281 4162 
Q 984 4106 628 3988 
L 628 4550 
Q 988 4650 1302 4700 
Q 1616 4750 1894 4750 
Q 2613 4750 3031 4423 
Q 3450 4097 3450 3541 
Q 3450 3153 3228 2886 
Q 3006 2619 2597 2516 
z
" transform="scale(0.015625)"/>
      <path id="DejaVuSans-2e" d="M 684 794 
L 1344 794 
L 1344 0 
L 684 0 
L 684 794 
z
" transform="scale(0.015625)"/>
      <path id="DejaVuSans-39" d="M 703 97 
L 703 672 
Q 941 559 1184 500 
Q 1428 441 1663 441 
Q 2288 441 2617 861 
Q 2947 1281 2994 2138 
Q 2813 1869 2534 1725 
Q 2256 1581 1919 1581 
Q 1219 1581 811 2004 
Q 403 2428 403 3163 
Q 403 3881 828 4315 
Q 1253 4750 1959 4750 
Q 2769 4750 3195 4129 
Q 3622 3509 3622 2328 
Q 3622 1225 3098 567 
Q 2575 -91 1691 -91 
Q 1453 -91 1209 -44 
Q 966 3 703 97 
z
M 1959 2075 
Q 2384 2075 2632 2365 
Q 2881 2656 2881 3163 
Q 2881 3666 2632 3958 
Q 2384 4250 1959 4250 
Q 1534 4250 1286 3958 
Q 1038 3666 1038 3163 
Q 1038 2656 1286 2365 
Q 1534 2075 1959 2075 
z
" transform="scale(0.015625)"/>
      <path id="DejaVuSans-3a" d="M 750 794 
L 1409 794 
L 1409 0 
L 750 0 
L 750 794 
z
M 750 3309 
L 1409 3309 
L 1409 2516 
L 750 2516 
L 750 3309 
z
" transform="scale(0.015625)"/>
      <path id="DejaVuSans-4d" d="M 628 4666 
L 1569 4666 
L 2759 1491 
L 3956 4666 
L 4897 4666 
L 4897 0 
L 4281 0 
L 4281 4097 
L 3078 897 
L 2444 897 
L 1241 4097 
L 1241 0 
L 628 0 
L 628 4666 
z
" transform="scale(0.015625)"/>
      <path id="DejaVuSans-6c" d="M 603 4863 
L 1178 4863 
L 1178 0 
L 603 0 
L 603 4863 
z
" transform="scale(0.015625)"/>
      <path id="DejaVuSans-2d" d="M 313 2009 
L 1997 2009 
L 1997 1497 
L 313 1497 
L 313 2009 
z
" transform="scale(0.015625)"/>
      <path id="DejaVuSans-70" d="M 1159 525 
L 1159 -1331 
L 581 -1331 
L 581 3500 
L 1159 3500 
L 1159 2969 
Q 1341 3281 1617 3432 
Q 1894 3584 2278 3584 
Q 2916 3584 3314 3078 
Q 3713 2572 3713 1747 
Q 3713 922 3314 415 
Q 2916 -91 2278 -91 
Q 1894 -91 1617 61 
Q 1341 213 1159 525 
z
M 3116 1747 
Q 3116 2381 2855 2742 
Q 2594 3103 2138 3103 
Q 1681 3103 1420 2742 
Q 1159 2381 1159 1747 
Q 1159 1113 1420 752 
Q 1681 391 2138 391 
Q 2594 391 2855 752 
Q 3116 1113 3116 1747 
z
" transform="scale(0.015625)"/>
      <path id="DejaVuSans-53" d="M 3425 4513 
L 3425 3897 
Q 3066 4069 2747 4153 
Q 2428 4238 2131 4238 
Q 1616 4238 1336 4038 
Q 1056 3838 1056 3469 
Q 1056 3159 1242 3001 
Q 1428 2844 1947 2747 
L 2328 2669 
Q 3034 2534 3370 2195 
Q 3706 1856 3706 1288 
Q 3706 609 3251 259 
Q 2797 -91 1919 -91 
Q 1588 -91 1214 -16 
Q 841 59 441 206 
L 441 856 
Q 825 641 1194 531 
Q 1563 422 1919 422 
Q 2459 422 2753 634 
Q 3047 847 3047 1241 
Q 3047 1584 2836 1778 
Q 2625 1972 2144 2069 
L 1759 2144 
Q 1053 2284 737 2584 
Q 422 2884 422 3419 
Q 422 4038 858 4394 
Q 1294 4750 2059 4750 
Q 2388 4750 2728 4690 
Q 3069 4631 3425 4513 
z
" transform="scale(0.015625)"/>
      <path id="DejaVuSans-4f" d="M 2522 4238 
Q 1834 4238 1429 3725 
Q 1025 3213 1025 2328 
Q 1025 1447 1429 934 
Q 1834 422 2522 422 
Q 3209 422 3611 934 
Q 4013 1447 4013 2328 
Q 4013 3213 3611 3725 
Q 3209 4238 2522 4238 
z
M 2522 4750 
Q 3503 4750 4090 4092 
Q 4678 3434 4678 2328 
Q 4678 1225 4090 567 
Q 3503 -91 2522 -91 
Q 1538 -91 948 565 
Q 359 1222 359 2328 
Q 359 3434 948 4092 
Q 1538 4750 2522 4750 
z
" transform="scale(0.015625)"/>
      <path id="DejaVuSans-4c" d="M 628 4666 
L 1259 4666 
L 1259 531 
L 3531 531 
L 3531 0 
L 628 0 
L 628 4666 
z
" transform="scale(0.015625)"/>
     </defs>
     <use xlink:href="#DejaVuSans-45"/>
     <use xlink:href="#DejaVuSans-78" transform="translate(63.183594 0)"/>
     <use xlink:href="#DejaVuSans-65" transform="translate(119.238281 0)"/>
     <use xlink:href="#DejaVuSans-72" transform="translate(180.761719 0)"/>
     <use xlink:href="#DejaVuSans-63" transform="translate(219.625 0)"/>
     <use xlink:href="#DejaVuSans-69" transform="translate(274.605469 0)"/>
     <use xlink:href="#DejaVuSans-73" transform="translate(302.388672 0)"/>
     <use xlink:href="#DejaVuSans-65" transform="translate(354.488281 0)"/>
     <use xlink:href="#DejaVuSans-20" transform="translate(416.011719 0)"/>
     <use xlink:href="#DejaVuSans-33" transform="translate(447.798828 0)"/>
     <use xlink:href="#DejaVuSans-2e" transform="translate(511.421875 0)"/>
     <use xlink:href="#DejaVuSans-39" transform="translate(543.208984 0)"/>
     <use xlink:href="#DejaVuSans-3a" transform="translate(606.832031 0)"/>
     <use xlink:href="#DejaVuSans-20" transform="translate(640.523438 0)"/>
     <use xlink:href="#DejaVuSans-4d" transform="translate(672.310547 0)"/>
     <use xlink:href="#DejaVuSans-75" transform="translate(758.589844 0)"/>
     <use xlink:href="#DejaVuSans-6c" transform="translate(821.96875 0)"/>
     <use xlink:href="#DejaVuSans-74" transform="translate(849.751953 0)"/>
     <use xlink:href="#DejaVuSans-69" transform="translate(888.960938 0)"/>
     <use xlink:href="#DejaVuSans-2d" transform="translate(916.744141 0)"/>
     <use xlink:href="#DejaVuSans-73" transform="translate(952.828125 0)"/>
     <use xlink:href="#DejaVuSans-74" transform="translate(1004.927734 0)"/>
     <use xlink:href="#DejaVuSans-65" transform="translate(1044.136719 0)"/>
     <use xlink:href="#DejaVuSans-70" transform="translate(1105.660156 0)"/>
     <use xlink:href="#DejaVuSans-20" transform="translate(1169.136719 0)"/>
     <use xlink:href="#DejaVuSans-53" transform="translate(1200.923828 0)"/>
     <use xlink:href="#DejaVuSans-69" transform="translate(1264.400391 0)"/>
     <use xlink:href="#DejaVuSans-6d" transform="translate(1292.183594 0)"/>
     <use xlink:href="#DejaVuSans-75" transform="translate(1389.595703 0)"/>
     <use xlink:href="#DejaVuSans-6c" transform="translate(1452.974609 0)"/>
     <use xlink:href="#DejaVuSans-61" transform="translate(1480.757812 0)"/>
     <use xlink:href="#DejaVuSans-74" transform="translate(1542.037109 0)"/>
     <use xlink:href="#DejaVuSans-69" transform="translate(1581.246094 0)"/>
     <use xlink:href="#DejaVuSans-6f" transform="translate(1609.029297 0)"/>
     <use xlink:href="#DejaVuSans-6e" transform="translate(1670.210938 0)"/>
     <use xlink:href="#DejaVuSans-20" transform="translate(1733.589844 0)"/>
     <use xlink:href="#DejaVuSans-28" transform="translate(1765.376953 0)"/>
     <use xlink:href="#DejaVuSans-4f" transform="translate(1804.390625 0)"/>
     <use xlink:href="#DejaVuSans-70" transform="translate(1883.101562 0)"/>
     <use xlink:href="#DejaVuSans-65" transform="translate(1946.578125 0)"/>
     <use xlink:href="#DejaVuSans-6e" transform="translate(2008.101562 0)"/>
     <use xlink:href="#DejaVuSans-2d" transform="translate(2071.480469 0)"/>
     <use xlink:href="#DejaVuSans-4c" transform="translate(2107.564453 0)"/>
     <use xlink:href="#DejaVuSans-6f" transform="translate(2161.527344 0)"/>
     <use xlink:href="#DejaVuSans-6f" transform="translate(2222.708984 0)"/>
     <use xlink:href="#DejaVuSans-70" transform="translate(2283.890625 0)"/>
     <use xlink:href="#DejaVuSans-29" transform="translate(2347.367188 0)"/>
    </g>
   </g>
   <g id="legend_1">
    <g id="patch_7">
     <path d="M 53.965625 74.3525 
L 207.126563 74.3525 
Q 209.126563 74.3525 209.126563 72.3525 
L 209.126563 29.318125 
Q 209.126563 27.318125 207.126563 27.318125 
L 53.965625 27.318125 
Q 51.965625 27.318125 51.965625 29.318125 
L 51.965625 72.3525 
Q 51.965625 74.3525 53.965625 74.3525 
z
" style="fill: #ffffff; opacity: 0.8; stroke: #cccccc; stroke-linejoin: miter"/>
    </g>
    <g id="line2d_26">
     <path d="M 55.965625 35.416562 
L 65.965625 35.416562 
L 75.965625 35.416562 
" style="fill: none; stroke: #808080; stroke-opacity: 0.4; stroke-width: 1.5; stroke-linecap: square"/>
    </g>
    <g id="text_15">
     <!-- Observed Ph -->
     <g transform="translate(83.965625 38.916562) scale(0.1 -0.1)">
      <defs>
       <path id="DejaVuSans-62" d="M 3116 1747 
Q 3116 2381 2855 2742 
Q 2594 3103 2138 3103 
Q 1681 3103 1420 2742 
Q 1159 2381 1159 1747 
Q 1159 1113 1420 752 
Q 1681 391 2138 391 
Q 2594 391 2855 752 
Q 3116 1113 3116 1747 
z
M 1159 2969 
Q 1341 3281 1617 3432 
Q 1894 3584 2278 3584 
Q 2916 3584 3314 3078 
Q 3713 2572 3713 1747 
Q 3713 922 3314 415 
Q 2916 -91 2278 -91 
Q 1894 -91 1617 61 
Q 1341 213 1159 525 
L 1159 0 
L 581 0 
L 581 4863 
L 1159 4863 
L 1159 2969 
z
" transform="scale(0.015625)"/>
       <path id="DejaVuSans-76" d="M 191 3500 
L 800 3500 
L 1894 563 
L 2988 3500 
L 3597 3500 
L 2284 0 
L 1503 0 
L 191 3500 
z
" transform="scale(0.015625)"/>
       <path id="DejaVuSans-64" d="M 2906 2969 
L 2906 4863 
L 3481 4863 
L 3481 0 
L 2906 0 
L 2906 525 
Q 2725 213 2448 61 
Q 2172 -91 1784 -91 
Q 1150 -91 751 415 
Q 353 922 353 1747 
Q 353 2572 751 3078 
Q 1150 3584 1784 3584 
Q 2172 3584 2448 3432 
Q 2725 3281 2906 2969 
z
M 947 1747 
Q 947 1113 1208 752 
Q 1469 391 1925 391 
Q 2381 391 2643 752 
Q 2906 1113 2906 1747 
Q 2906 2381 2643 2742 
Q 2381 3103 1925 3103 
Q 1469 3103 1208 2742 
Q 947 2381 947 1747 
z
" transform="scale(0.015625)"/>
       <path id="DejaVuSans-68" d="M 3513 2113 
L 3513 0 
L 2938 0 
L 2938 2094 
Q 2938 2591 2744 2837 
Q 2550 3084 2163 3084 
Q 1697 3084 1428 2787 
Q 1159 2491 1159 1978 
L 1159 0 
L 581 0 
L 581 4863 
L 1159 4863 
L 1159 2956 
Q 1366 3272 1645 3428 
Q 1925 3584 2291 3584 
Q 2894 3584 3203 3211 
Q 3513 2838 3513 2113 
z
" transform="scale(0.015625)"/>
      </defs>
      <use xlink:href="#DejaVuSans-4f"/>
      <use xlink:href="#DejaVuSans-62" transform="translate(78.710938 0)"/>
      <use xlink:href="#DejaVuSans-73" transform="translate(142.1875 0)"/>
      <use xlink:href="#DejaVuSans-65" transform="translate(194.287109 0)"/>
      <use xlink:href="#DejaVuSans-72" transform="translate(255.810547 0)"/>
      <use xlink:href="#DejaVuSans-76" transform="translate(296.923828 0)"/>
      <use xlink:href="#DejaVuSans-65" transform="translate(356.103516 0)"/>
      <use xlink:href="#DejaVuSans-64" transform="translate(417.626953 0)"/>
      <use xlink:href="#DejaVuSans-20" transform="translate(481.103516 0)"/>
      <use xlink:href="#DejaVuSans-50" transform="translate(512.890625 0)"/>
      <use xlink:href="#DejaVuSans-68" transform="translate(573.193359 0)"/>
     </g>
    </g>
    <g id="line2d_27">
     <path d="M 55.965625 50.094687 
L 65.965625 50.094687 
L 75.965625 50.094687 
" style="fill: none; stroke: #dc143c; stroke-width: 1.5; stroke-linecap: square"/>
    </g>
    <g id="text_16">
     <!-- Simulated Ph (Dynamic) -->
     <g transform="translate(83.965625 53.594687) scale(0.1 -0.1)">
      <defs>
       <path id="DejaVuSans-44" d="M 1259 4147 
L 1259 519 
L 2022 519 
Q 2988 519 3436 956 
Q 3884 1394 3884 2338 
Q 3884 3275 3436 3711 
Q 2988 4147 2022 4147 
L 1259 4147 
z
M 628 4666 
L 1925 4666 
Q 3281 4666 3915 4102 
Q 4550 3538 4550 2338 
Q 4550 1131 3912 565 
Q 3275 0 1925 0 
L 628 0 
L 628 4666 
z
" transform="scale(0.015625)"/>
       <path id="DejaVuSans-79" d="M 2059 -325 
Q 1816 -950 1584 -1140 
Q 1353 -1331 966 -1331 
L 506 -1331 
L 506 -850 
L 844 -850 
Q 1081 -850 1212 -737 
Q 1344 -625 1503 -206 
L 1606 56 
L 191 3500 
L 800 3500 
L 1894 763 
L 2988 3500 
L 3597 3500 
L 2059 -325 
z
" transform="scale(0.015625)"/>
      </defs>
      <use xlink:href="#DejaVuSans-53"/>
      <use xlink:href="#DejaVuSans-69" transform="translate(63.476562 0)"/>
      <use xlink:href="#DejaVuSans-6d" transform="translate(91.259766 0)"/>
      <use xlink:href="#DejaVuSans-75" transform="translate(188.671875 0)"/>
      <use xlink:href="#DejaVuSans-6c" transform="translate(252.050781 0)"/>
      <use xlink:href="#DejaVuSans-61" transform="translate(279.833984 0)"/>
      <use xlink:href="#DejaVuSans-74" transform="translate(341.113281 0)"/>
      <use xlink:href="#DejaVuSans-65" transform="translate(380.322266 0)"/>
      <use xlink:href="#DejaVuSans-64" transform="translate(441.845703 0)"/>
      <use xlink:href="#DejaVuSans-20" transform="translate(505.322266 0)"/>
      <use xlink:href="#DejaVuSans-50" transform="translate(537.109375 0)"/>
      <use xlink:href="#DejaVuSans-68" transform="translate(597.412109 0)"/>
      <use xlink:href="#DejaVuSans-20" transform="translate(660.791016 0)"/>
      <use xlink:href="#DejaVuSans-28" transform="translate(692.578125 0)"/>
      <use xlink:href="#DejaVuSans-44" transform="translate(731.591797 0)"/>
      <use xlink:href="#DejaVuSans-79" transform="translate(808.59375 0)"/>
      <use xlink:href="#DejaVuSans-6e" transform="translate(867.773438 0)"/>
      <use xlink:href="#DejaVuSans-61" transform="translate(931.152344 0)"/>
      <use xlink:href="#DejaVuSans-6d" transform="translate(992.431641 0)"/>
      <use xlink:href="#DejaVuSans-69" transform="translate(1089.84375 0)"/>
      <use xlink:href="#DejaVuSans-63" transform="translate(1117.626953 0)"/>
      <use xlink:href="#DejaVuSans-29" transform="translate(1172.607422 0)"/>
     </g>
    </g>
    <g id="line2d_28">
     <path d="M 55.965625 64.772812 
L 65.965625 64.772812 
L 75.965625 64.772812 
" style="fill: none; stroke-dasharray: 5.55,2.4; stroke-dashoffset: 0; stroke: #000000; stroke-width: 1.5"/>
    </g>
    <g id="text_17">
     <!-- Train/Test Split -->
     <g transform="translate(83.965625 68.272812) scale(0.1 -0.1)">
      <defs>
       <path id="DejaVuSans-2f" d="M 1625 4666 
L 2156 4666 
L 531 -594 
L 0 -594 
L 1625 4666 
z
" transform="scale(0.015625)"/>
      </defs>
      <use xlink:href="#DejaVuSans-54"/>
      <use xlink:href="#DejaVuSans-72" transform="translate(46.333984 0)"/>
      <use xlink:href="#DejaVuSans-61" transform="translate(87.447266 0)"/>
      <use xlink:href="#DejaVuSans-69" transform="translate(148.726562 0)"/>
      <use xlink:href="#DejaVuSans-6e" transform="translate(176.509766 0)"/>
      <use xlink:href="#DejaVuSans-2f" transform="translate(239.888672 0)"/>
      <use xlink:href="#DejaVuSans-54" transform="translate(273.580078 0)"/>
      <use xlink:href="#DejaVuSans-65" transform="translate(317.664062 0)"/>
      <use xlink:href="#DejaVuSans-73" transform="translate(379.1875 0)"/>
      <use xlink:href="#DejaVuSans-74" transform="translate(431.287109 0)"/>
      <use xlink:href="#DejaVuSans-20" transform="translate(470.496094 0)"/>
      <use xlink:href="#DejaVuSans-53" transform="translate(502.283203 0)"/>
      <use xlink:href="#DejaVuSans-70" transform="translate(565.759766 0)"/>
      <use xlink:href="#DejaVuSans-6c" transform="translate(629.236328 0)"/>
      <use xlink:href="#DejaVuSans-69" transform="translate(657.019531 0)"/>
      <use xlink:href="#DejaVuSans-74" transform="translate(684.802734 0)"/>
     </g>
    </g>
   </g>
  </g>
 </g>
 <defs>
  <clipPath id="pad9a13f115">
   <rect x="46.965625" y="22.318125" width="837" height="332.64"/>
  </clipPath>
 </defs>
</svg>
