<?xml version="1.0" encoding="utf-8" standalone="no"?>
<!DOCTYPE svg PUBLIC "-//W3C//DTD SVG 1.1//EN"
  "http://www.w3.org/Graphics/SVG/1.1/DTD/svg11.dtd">
<svg xmlns:xlink="http://www.w3.org/1999/xlink" width="720pt" height="288pt" viewBox="0 0 720 288" xmlns="http://www.w3.org/2000/svg" version="1.1">
 <metadata>
  <rdf:RDF xmlns:dc="http://purl.org/dc/elements/1.1/" xmlns:cc="http://creativecommons.org/ns#" xmlns:rdf="http://www.w3.org/1999/02/22-rdf-syntax-ns#">
   <cc:Work>
    <dc:type rdf:resource="http://purl.org/dc/dcmitype/StillImage"/>
    <dc:date>2026-02-27T10:31:04.636824</dc:date>
    <dc:format>image/svg+xml</dc:format>
    <dc:creator>
     <cc:Agent>
      <dc:title>Matplotlib v3.10.6, https://matplotlib.org/</dc:title>
     </cc:Agent>
    </dc:creator>
   </cc:Work>
  </rdf:RDF>
 </metadata>
 <defs>
  <style type="text/css">*{stroke-linejoin: round; stroke-linecap: butt}</style>
 </defs>
 <g id="figure_1">
  <g id="patch_1">
   <path d="M 0 288 
L 720 288 
L 720 0 
L 0 0 
z
" style="fill: #ffffff"/>
  </g>
  <g id="axes_1">
   <g id="patch_2">
    <path d="M 90 256.32 
L 648 256.32 
L 648 34.56 
L 90 34.56 
z
" style="fill: #ffffff"/>
   </g>
   <g id="matplotlib.axis_1">
    <g id="xtick_1">
     <g id="line2d_1">
      <path d="M 115.363636 256.32 
L 115.363636 34.56 
" clip-path="url(#p2ecb361d08)" style="fill: none; stroke: #b0b0b0; stroke-width: 0.8; stroke-linecap: square"/>
     </g>
     <g id="line2d_2">
      <defs>
       <path id="m52acbc60ce" d="M 0 0 
L 0 3.5 
" style="stroke: #000000; stroke-width: 0.8"/>
      </defs>
      <g>
       <use xlink:href="#m52acbc60ce" x="115.363636" y="256.32" style="stroke: #000000; stroke-width: 0.8"/>
      </g>
     </g>
     <g id="text_1">
      <!-- 2018 -->
      <g transform="translate(102.638636 270.918437) scale(0.1 -0.1)">
       <defs>
        <path id="DejaVuSans-32" d="M 1228 531 
L 3431 531 
L 3431 0 
L 469 0 
L 469 531 
Q 828 903 1448 1529 
Q 2069 2156 2228 2338 
Q 2531 2678 2651 2914 
Q 2772 3150 2772 3378 
Q 2772 3750 2511 3984 
Q 2250 4219 1831 4219 
Q 1534 4219 1204 4116 
Q 875 4013 500 3803 
L 500 4441 
Q 881 4594 1212 4672 
Q 1544 4750 1819 4750 
Q 2544 4750 2975 4387 
Q 3406 4025 3406 3419 
Q 3406 3131 3298 2873 
Q 3191 2616 2906 2266 
Q 2828 2175 2409 1742 
Q 1991 1309 1228 531 
z
" transform="scale(0.015625)"/>
        <path id="DejaVuSans-30" d="M 2034 4250 
Q 1547 4250 1301 3770 
Q 1056 3291 1056 2328 
Q 1056 1369 1301 889 
Q 1547 409 2034 409 
Q 2525 409 2770 889 
Q 3016 1369 3016 2328 
Q 3016 3291 2770 3770 
Q 2525 4250 2034 4250 
z
M 2034 4750 
Q 2819 4750 3233 4129 
Q 3647 3509 3647 2328 
Q 3647 1150 3233 529 
Q 2819 -91 2034 -91 
Q 1250 -91 836 529 
Q 422 1150 422 2328 
Q 422 3509 836 4129 
Q 1250 4750 2034 4750 
z
" transform="scale(0.015625)"/>
        <path id="DejaVuSans-31" d="M 794 531 
L 1825 531 
L 1825 4091 
L 703 3866 
L 703 4441 
L 1819 4666 
L 2450 4666 
L 2450 531 
L 3481 531 
L 3481 0 
L 794 0 
L 794 531 
z
" transform="scale(0.015625)"/>
        <path id="DejaVuSans-38" d="M 2034 2216 
Q 1584 2216 1326 1975 
Q 1069 1734 1069 1313 
Q 1069 891 1326 650 
Q 1584 409 2034 409 
Q 2484 409 2743 651 
Q 3003 894 3003 1313 
Q 3003 1734 2745 1975 
Q 2488 2216 2034 2216 
z
M 1403 2484 
Q 997 2584 770 2862 
Q 544 3141 544 3541 
Q 544 4100 942 4425 
Q 1341 4750 2034 4750 
Q 2731 4750 3128 4425 
Q 3525 4100 3525 3541 
Q 3525 3141 3298 2862 
Q 3072 2584 2669 2484 
Q 3125 2378 3379 2068 
Q 3634 1759 3634 1313 
Q 3634 634 3220 271 
Q 2806 -91 2034 -91 
Q 1263 -91 848 271 
Q 434 634 434 1313 
Q 434 1759 690 2068 
Q 947 2378 1403 2484 
z
M 1172 3481 
Q 1172 3119 1398 2916 
Q 1625 2713 2034 2713 
Q 2441 2713 2670 2916 
Q 2900 3119 2900 3481 
Q 2900 3844 2670 4047 
Q 2441 4250 2034 4250 
Q 1625 4250 1398 4047 
Q 1172 3844 1172 3481 
z
" transform="scale(0.015625)"/>
       </defs>
       <use xlink:href="#DejaVuSans-32"/>
       <use xlink:href="#DejaVuSans-30" transform="translate(63.623047 0)"/>
       <use xlink:href="#DejaVuSans-31" transform="translate(127.246094 0)"/>
       <use xlink:href="#DejaVuSans-38" transform="translate(190.869141 0)"/>
      </g>
     </g>
    </g>
    <g id="xtick_2">
     <g id="line2d_3">
      <path d="M 201.099872 256.32 
L 201.099872 34.56 
" clip-path="url(#p2ecb361d08)" style="fill: none; stroke: #b0b0b0; stroke-width: 0.8; stroke-linecap: square"/>
     </g>
     <g id="line2d_4">
      <g>
       <use xlink:href="#m52acbc60ce" x="201.099872" y="256.32" style="stroke: #000000; stroke-width: 0.8"/>
      </g>
     </g>
     <g id="text_2">
      <!-- 2019 -->
      <g transform="translate(188.374872 270.918437) scale(0.1 -0.1)">
       <defs>
        <path id="DejaVuSans-39" d="M 703 97 
L 703 672 
Q 941 559 1184 500 
Q 1428 441 1663 441 
Q 2288 441 2617 861 
Q 2947 1281 2994 2138 
Q 2813 1869 2534 1725 
Q 2256 1581 1919 1581 
Q 1219 1581 811 2004 
Q 403 2428 403 3163 
Q 403 3881 828 4315 
Q 1253 4750 1959 4750 
Q 2769 4750 3195 4129 
Q 3622 3509 3622 2328 
Q 3622 1225 3098 567 
Q 2575 -91 1691 -91 
Q 1453 -91 1209 -44 
Q 966 3 703 97 
z
M 1959 2075 
Q 2384 2075 2632 2365 
Q 2881 2656 2881 3163 
Q 2881 3666 2632 3958 
Q 2384 4250 1959 4250 
Q 1534 4250 1286 3958 
Q 1038 3666 1038 3163 
Q 1038 2656 1286 2365 
Q 1534 2075 1959 2075 
z
" transform="scale(0.015625)"/>
       </defs>
       <use xlink:href="#DejaVuSans-32"/>
       <use xlink:href="#DejaVuSans-30" transform="translate(63.623047 0)"/>
       <use xlink:href="#DejaVuSans-31" transform="translate(127.246094 0)"/>
       <use xlink:href="#DejaVuSans-39" transform="translate(190.869141 0)"/>
      </g>
     </g>
    </g>
    <g id="xtick_3">
     <g id="line2d_5">
      <path d="M 286.836108 256.32 
L 286.836108 34.56 
" clip-path="url(#p2ecb361d08)" style="fill: none; stroke: #b0b0b0; stroke-width: 0.8; stroke-linecap: square"/>
     </g>
     <g id="line2d_6">
      <g>
       <use xlink:href="#m52acbc60ce" x="286.836108" y="256.32" style="stroke: #000000; stroke-width: 0.8"/>
      </g>
     </g>
     <g id="text_3">
      <!-- 2020 -->
      <g transform="translate(274.111108 270.918437) scale(0.1 -0.1)">
       <use xlink:href="#DejaVuSans-32"/>
       <use xlink:href="#DejaVuSans-30" transform="translate(63.623047 0)"/>
       <use xlink:href="#DejaVuSans-32" transform="translate(127.246094 0)"/>
       <use xlink:href="#DejaVuSans-30" transform="translate(190.869141 0)"/>
      </g>
     </g>
    </g>
    <g id="xtick_4">
     <g id="line2d_7">
      <path d="M 372.572343 256.32 
L 372.572343 34.56 
" clip-path="url(#p2ecb361d08)" style="fill: none; stroke: #b0b0b0; stroke-width: 0.8; stroke-linecap: square"/>
     </g>
     <g id="line2d_8">
      <g>
       <use xlink:href="#m52acbc60ce" x="372.572343" y="256.32" style="stroke: #000000; stroke-width: 0.8"/>
      </g>
     </g>
     <g id="text_4">
      <!-- 2021 -->
      <g transform="translate(359.847343 270.918437) scale(0.1 -0.1)">
       <use xlink:href="#DejaVuSans-32"/>
       <use xlink:href="#DejaVuSans-30" transform="translate(63.623047 0)"/>
       <use xlink:href="#DejaVuSans-32" transform="translate(127.246094 0)"/>
       <use xlink:href="#DejaVuSans-31" transform="translate(190.869141 0)"/>
      </g>
     </g>
    </g>
    <g id="xtick_5">
     <g id="line2d_9">
      <path d="M 458.308579 256.32 
L 458.308579 34.56 
" clip-path="url(#p2ecb361d08)" style="fill: none; stroke: #b0b0b0; stroke-width: 0.8; stroke-linecap: square"/>
     </g>
     <g id="line2d_10">
      <g>
       <use xlink:href="#m52acbc60ce" x="458.308579" y="256.32" style="stroke: #000000; stroke-width: 0.8"/>
      </g>
     </g>
     <g id="text_5">
      <!-- 2022 -->
      <g transform="translate(445.583579 270.918437) scale(0.1 -0.1)">
       <use xlink:href="#DejaVuSans-32"/>
       <use xlink:href="#DejaVuSans-30" transform="translate(63.623047 0)"/>
       <use xlink:href="#DejaVuSans-32" transform="translate(127.246094 0)"/>
       <use xlink:href="#DejaVuSans-32" transform="translate(190.869141 0)"/>
      </g>
     </g>
    </g>
    <g id="xtick_6">
     <g id="line2d_11">
      <path d="M 544.044814 256.32 
L 544.044814 34.56 
" clip-path="url(#p2ecb361d08)" style="fill: none; stroke: #b0b0b0; stroke-width: 0.8; stroke-linecap: square"/>
     </g>
     <g id="line2d_12">
      <g>
       <use xlink:href="#m52acbc60ce" x="544.044814" y="256.32" style="stroke: #000000; stroke-width: 0.8"/>
      </g>
     </g>
     <g id="text_6">
      <!-- 2023 -->
      <g transform="translate(531.319814 270.918437) scale(0.1 -0.1)">
       <defs>
        <path id="DejaVuSans-33" d="M 2597 2516 
Q 3050 2419 3304 2112 
Q 3559 1806 3559 1356 
Q 3559 666 3084 287 
Q 2609 -91 1734 -91 
Q 1441 -91 1130 -33 
Q 819 25 488 141 
L 488 750 
Q 750 597 1062 519 
Q 1375 441 1716 441 
Q 2309 441 2620 675 
Q 2931 909 2931 1356 
Q 2931 1769 2642 2001 
Q 2353 2234 1838 2234 
L 1294 2234 
L 1294 2753 
L 1863 2753 
Q 2328 2753 2575 2939 
Q 2822 3125 2822 3475 
Q 2822 3834 2567 4026 
Q 2313 4219 1838 4219 
Q 1578 4219 1281 4162 
Q 984 4106 628 3988 
L 628 4550 
Q 988 4650 1302 4700 
Q 1616 4750 1894 4750 
Q 2613 4750 3031 4423 
Q 3450 4097 3450 3541 
Q 3450 3153 3228 2886 
Q 3006 2619 2597 2516 
z
" transform="scale(0.015625)"/>
       </defs>
       <use xlink:href="#DejaVuSans-32"/>
       <use xlink:href="#DejaVuSans-30" transform="translate(63.623047 0)"/>
       <use xlink:href="#DejaVuSans-32" transform="translate(127.246094 0)"/>
       <use xlink:href="#DejaVuSans-33" transform="translate(190.869141 0)"/>
      </g>
     </g>
    </g>
    <g id="xtick_7">
     <g id="line2d_13">
      <path d="M 629.78105 256.32 
L 629.78105 34.56 
" clip-path="url(#p2ecb361d08)" style="fill: none; stroke: #b0b0b0; stroke-width: 0.8; stroke-linecap: square"/>
     </g>
     <g id="line2d_14">
      <g>
       <use xlink:href="#m52acbc60ce" x="629.78105" y="256.32" style="stroke: #000000; stroke-width: 0.8"/>
      </g>
     </g>
     <g id="text_7">
      <!-- 2024 -->
      <g transform="translate(617.05605 270.918437) scale(0.1 -0.1)">
       <defs>
        <path id="DejaVuSans-34" d="M 2419 4116 
L 825 1625 
L 2419 1625 
L 2419 4116 
z
M 2253 4666 
L 3047 4666 
L 3047 1625 
L 3713 1625 
L 3713 1100 
L 3047 1100 
L 3047 0 
L 2419 0 
L 2419 1100 
L 313 1100 
L 313 1709 
L 2253 4666 
z
" transform="scale(0.015625)"/>
       </defs>
       <use xlink:href="#DejaVuSans-32"/>
       <use xlink:href="#DejaVuSans-30" transform="translate(63.623047 0)"/>
       <use xlink:href="#DejaVuSans-32" transform="translate(127.246094 0)"/>
       <use xlink:href="#DejaVuSans-34" transform="translate(190.869141 0)"/>
      </g>
     </g>
    </g>
    <g id="text_8">
     <!-- Time (Year) -->
     <g transform="translate(340.688281 284.596563) scale(0.1 -0.1)">
      <defs>
       <path id="DejaVuSans-54" d="M -19 4666 
L 3928 4666 
L 3928 4134 
L 2272 4134 
L 2272 0 
L 1638 0 
L 1638 4134 
L -19 4134 
L -19 4666 
z
" transform="scale(0.015625)"/>
       <path id="DejaVuSans-69" d="M 603 3500 
L 1178 3500 
L 1178 0 
L 603 0 
L 603 3500 
z
M 603 4863 
L 1178 4863 
L 1178 4134 
L 603 4134 
L 603 4863 
z
" transform="scale(0.015625)"/>
       <path id="DejaVuSans-6d" d="M 3328 2828 
Q 3544 3216 3844 3400 
Q 4144 3584 4550 3584 
Q 5097 3584 5394 3201 
Q 5691 2819 5691 2113 
L 5691 0 
L 5113 0 
L 5113 2094 
Q 5113 2597 4934 2840 
Q 4756 3084 4391 3084 
Q 3944 3084 3684 2787 
Q 3425 2491 3425 1978 
L 3425 0 
L 2847 0 
L 2847 2094 
Q 2847 2600 2669 2842 
Q 2491 3084 2119 3084 
Q 1678 3084 1418 2786 
Q 1159 2488 1159 1978 
L 1159 0 
L 581 0 
L 581 3500 
L 1159 3500 
L 1159 2956 
Q 1356 3278 1631 3431 
Q 1906 3584 2284 3584 
Q 2666 3584 2933 3390 
Q 3200 3197 3328 2828 
z
" transform="scale(0.015625)"/>
       <path id="DejaVuSans-65" d="M 3597 1894 
L 3597 1613 
L 953 1613 
Q 991 1019 1311 708 
Q 1631 397 2203 397 
Q 2534 397 2845 478 
Q 3156 559 3463 722 
L 3463 178 
Q 3153 47 2828 -22 
Q 2503 -91 2169 -91 
Q 1331 -91 842 396 
Q 353 884 353 1716 
Q 353 2575 817 3079 
Q 1281 3584 2069 3584 
Q 2775 3584 3186 3129 
Q 3597 2675 3597 1894 
z
M 3022 2063 
Q 3016 2534 2758 2815 
Q 2500 3097 2075 3097 
Q 1594 3097 1305 2825 
Q 1016 2553 972 2059 
L 3022 2063 
z
" transform="scale(0.015625)"/>
       <path id="DejaVuSans-20" transform="scale(0.015625)"/>
       <path id="DejaVuSans-28" d="M 1984 4856 
Q 1566 4138 1362 3434 
Q 1159 2731 1159 2009 
Q 1159 1288 1364 580 
Q 1569 -128 1984 -844 
L 1484 -844 
Q 1016 -109 783 600 
Q 550 1309 550 2009 
Q 550 2706 781 3412 
Q 1013 4119 1484 4856 
L 1984 4856 
z
" transform="scale(0.015625)"/>
       <path id="DejaVuSans-59" d="M -13 4666 
L 666 4666 
L 1959 2747 
L 3244 4666 
L 3922 4666 
L 2272 2222 
L 2272 0 
L 1638 0 
L 1638 2222 
L -13 4666 
z
" transform="scale(0.015625)"/>
       <path id="DejaVuSans-61" d="M 2194 1759 
Q 1497 1759 1228 1600 
Q 959 1441 959 1056 
Q 959 750 1161 570 
Q 1363 391 1709 391 
Q 2188 391 2477 730 
Q 2766 1069 2766 1631 
L 2766 1759 
L 2194 1759 
z
M 3341 1997 
L 3341 0 
L 2766 0 
L 2766 531 
Q 2569 213 2275 61 
Q 1981 -91 1556 -91 
Q 1019 -91 701 211 
Q 384 513 384 1019 
Q 384 1609 779 1909 
Q 1175 2209 1959 2209 
L 2766 2209 
L 2766 2266 
Q 2766 2663 2505 2880 
Q 2244 3097 1772 3097 
Q 1472 3097 1187 3025 
Q 903 2953 641 2809 
L 641 3341 
Q 956 3463 1253 3523 
Q 1550 3584 1831 3584 
Q 2591 3584 2966 3190 
Q 3341 2797 3341 1997 
z
" transform="scale(0.015625)"/>
       <path id="DejaVuSans-72" d="M 2631 2963 
Q 2534 3019 2420 3045 
Q 2306 3072 2169 3072 
Q 1681 3072 1420 2755 
Q 1159 2438 1159 1844 
L 1159 0 
L 581 0 
L 581 3500 
L 1159 3500 
L 1159 2956 
Q 1341 3275 1631 3429 
Q 1922 3584 2338 3584 
Q 2397 3584 2469 3576 
Q 2541 3569 2628 3553 
L 2631 2963 
z
" transform="scale(0.015625)"/>
       <path id="DejaVuSans-29" d="M 513 4856 
L 1013 4856 
Q 1481 4119 1714 3412 
Q 1947 2706 1947 2009 
Q 1947 1309 1714 600 
Q 1481 -109 1013 -844 
L 513 -844 
Q 928 -128 1133 580 
Q 1338 1288 1338 2009 
Q 1338 2731 1133 3434 
Q 928 4138 513 4856 
z
" transform="scale(0.015625)"/>
      </defs>
      <use xlink:href="#DejaVuSans-54"/>
      <use xlink:href="#DejaVuSans-69" transform="translate(57.958984 0)"/>
      <use xlink:href="#DejaVuSans-6d" transform="translate(85.742188 0)"/>
      <use xlink:href="#DejaVuSans-65" transform="translate(183.154297 0)"/>
      <use xlink:href="#DejaVuSans-20" transform="translate(244.677734 0)"/>
      <use xlink:href="#DejaVuSans-28" transform="translate(276.464844 0)"/>
      <use xlink:href="#DejaVuSans-59" transform="translate(315.478516 0)"/>
      <use xlink:href="#DejaVuSans-65" transform="translate(363.3125 0)"/>
      <use xlink:href="#DejaVuSans-61" transform="translate(424.835938 0)"/>
      <use xlink:href="#DejaVuSans-72" transform="translate(486.115234 0)"/>
      <use xlink:href="#DejaVuSans-29" transform="translate(527.228516 0)"/>
     </g>
    </g>
   </g>
   <g id="matplotlib.axis_2">
    <g id="ytick_1">
     <g id="line2d_15">
      <path d="M 90 246.353751 
L 648 246.353751 
" clip-path="url(#p2ecb361d08)" style="fill: none; stroke: #b0b0b0; stroke-width: 0.8; stroke-linecap: square"/>
     </g>
     <g id="line2d_16">
      <defs>
       <path id="mca97fdf3cb" d="M 0 0 
L -3.5 0 
" style="stroke: #000000; stroke-width: 0.8"/>
      </defs>
      <g>
       <use xlink:href="#mca97fdf3cb" x="90" y="246.353751" style="stroke: #000000; stroke-width: 0.8"/>
      </g>
     </g>
     <g id="text_9">
      <!-- 0.0 -->
      <g transform="translate(67.096875 250.152969) scale(0.1 -0.1)">
       <defs>
        <path id="DejaVuSans-2e" d="M 684 794 
L 1344 794 
L 1344 0 
L 684 0 
L 684 794 
z
" transform="scale(0.015625)"/>
       </defs>
       <use xlink:href="#DejaVuSans-30"/>
       <use xlink:href="#DejaVuSans-2e" transform="translate(63.623047 0)"/>
       <use xlink:href="#DejaVuSans-30" transform="translate(95.410156 0)"/>
      </g>
     </g>
    </g>
    <g id="ytick_2">
     <g id="line2d_17">
      <path d="M 90 206.011 
L 648 206.011 
" clip-path="url(#p2ecb361d08)" style="fill: none; stroke: #b0b0b0; stroke-width: 0.8; stroke-linecap: square"/>
     </g>
     <g id="line2d_18">
      <g>
       <use xlink:href="#mca97fdf3cb" x="90" y="206.011" style="stroke: #000000; stroke-width: 0.8"/>
      </g>
     </g>
     <g id="text_10">
      <!-- 0.2 -->
      <g transform="translate(67.096875 209.810219) scale(0.1 -0.1)">
       <use xlink:href="#DejaVuSans-30"/>
       <use xlink:href="#DejaVuSans-2e" transform="translate(63.623047 0)"/>
       <use xlink:href="#DejaVuSans-32" transform="translate(95.410156 0)"/>
      </g>
     </g>
    </g>
    <g id="ytick_3">
     <g id="line2d_19">
      <path d="M 90 165.66825 
L 648 165.66825 
" clip-path="url(#p2ecb361d08)" style="fill: none; stroke: #b0b0b0; stroke-width: 0.8; stroke-linecap: square"/>
     </g>
     <g id="line2d_20">
      <g>
       <use xlink:href="#mca97fdf3cb" x="90" y="165.66825" style="stroke: #000000; stroke-width: 0.8"/>
      </g>
     </g>
     <g id="text_11">
      <!-- 0.4 -->
      <g transform="translate(67.096875 169.467469) scale(0.1 -0.1)">
       <use xlink:href="#DejaVuSans-30"/>
       <use xlink:href="#DejaVuSans-2e" transform="translate(63.623047 0)"/>
       <use xlink:href="#DejaVuSans-34" transform="translate(95.410156 0)"/>
      </g>
     </g>
    </g>
    <g id="ytick_4">
     <g id="line2d_21">
      <path d="M 90 125.3255 
L 648 125.3255 
" clip-path="url(#p2ecb361d08)" style="fill: none; stroke: #b0b0b0; stroke-width: 0.8; stroke-linecap: square"/>
     </g>
     <g id="line2d_22">
      <g>
       <use xlink:href="#mca97fdf3cb" x="90" y="125.3255" style="stroke: #000000; stroke-width: 0.8"/>
      </g>
     </g>
     <g id="text_12">
      <!-- 0.6 -->
      <g transform="translate(67.096875 129.124719) scale(0.1 -0.1)">
       <defs>
        <path id="DejaVuSans-36" d="M 2113 2584 
Q 1688 2584 1439 2293 
Q 1191 2003 1191 1497 
Q 1191 994 1439 701 
Q 1688 409 2113 409 
Q 2538 409 2786 701 
Q 3034 994 3034 1497 
Q 3034 2003 2786 2293 
Q 2538 2584 2113 2584 
z
M 3366 4563 
L 3366 3988 
Q 3128 4100 2886 4159 
Q 2644 4219 2406 4219 
Q 1781 4219 1451 3797 
Q 1122 3375 1075 2522 
Q 1259 2794 1537 2939 
Q 1816 3084 2150 3084 
Q 2853 3084 3261 2657 
Q 3669 2231 3669 1497 
Q 3669 778 3244 343 
Q 2819 -91 2113 -91 
Q 1303 -91 875 529 
Q 447 1150 447 2328 
Q 447 3434 972 4092 
Q 1497 4750 2381 4750 
Q 2619 4750 2861 4703 
Q 3103 4656 3366 4563 
z
" transform="scale(0.015625)"/>
       </defs>
       <use xlink:href="#DejaVuSans-30"/>
       <use xlink:href="#DejaVuSans-2e" transform="translate(63.623047 0)"/>
       <use xlink:href="#DejaVuSans-36" transform="translate(95.410156 0)"/>
      </g>
     </g>
    </g>
    <g id="ytick_5">
     <g id="line2d_23">
      <path d="M 90 84.98275 
L 648 84.98275 
" clip-path="url(#p2ecb361d08)" style="fill: none; stroke: #b0b0b0; stroke-width: 0.8; stroke-linecap: square"/>
     </g>
     <g id="line2d_24">
      <g>
       <use xlink:href="#mca97fdf3cb" x="90" y="84.98275" style="stroke: #000000; stroke-width: 0.8"/>
      </g>
     </g>
     <g id="text_13">
      <!-- 0.8 -->
      <g transform="translate(67.096875 88.781969) scale(0.1 -0.1)">
       <use xlink:href="#DejaVuSans-30"/>
       <use xlink:href="#DejaVuSans-2e" transform="translate(63.623047 0)"/>
       <use xlink:href="#DejaVuSans-38" transform="translate(95.410156 0)"/>
      </g>
     </g>
    </g>
    <g id="ytick_6">
     <g id="line2d_25">
      <path d="M 90 44.64 
L 648 44.64 
" clip-path="url(#p2ecb361d08)" style="fill: none; stroke: #b0b0b0; stroke-width: 0.8; stroke-linecap: square"/>
     </g>
     <g id="line2d_26">
      <g>
       <use xlink:href="#mca97fdf3cb" x="90" y="44.64" style="stroke: #000000; stroke-width: 0.8"/>
      </g>
     </g>
     <g id="text_14">
      <!-- 1.0 -->
      <g transform="translate(67.096875 48.439219) scale(0.1 -0.1)">
       <use xlink:href="#DejaVuSans-31"/>
       <use xlink:href="#DejaVuSans-2e" transform="translate(63.623047 0)"/>
       <use xlink:href="#DejaVuSans-30" transform="translate(95.410156 0)"/>
      </g>
     </g>
    </g>
    <g id="text_15">
     <!-- Weight ($\lambda^{N-t}$) -->
     <g transform="translate(60.996875 180.44) rotate(-90) scale(0.1 -0.1)">
      <defs>
       <path id="DejaVuSans-57" d="M 213 4666 
L 850 4666 
L 1831 722 
L 2809 4666 
L 3519 4666 
L 4500 722 
L 5478 4666 
L 6119 4666 
L 4947 0 
L 4153 0 
L 3169 4050 
L 2175 0 
L 1381 0 
L 213 4666 
z
" transform="scale(0.015625)"/>
       <path id="DejaVuSans-67" d="M 2906 1791 
Q 2906 2416 2648 2759 
Q 2391 3103 1925 3103 
Q 1463 3103 1205 2759 
Q 947 2416 947 1791 
Q 947 1169 1205 825 
Q 1463 481 1925 481 
Q 2391 481 2648 825 
Q 2906 1169 2906 1791 
z
M 3481 434 
Q 3481 -459 3084 -895 
Q 2688 -1331 1869 -1331 
Q 1566 -1331 1297 -1286 
Q 1028 -1241 775 -1147 
L 775 -588 
Q 1028 -725 1275 -790 
Q 1522 -856 1778 -856 
Q 2344 -856 2625 -561 
Q 2906 -266 2906 331 
L 2906 616 
Q 2728 306 2450 153 
Q 2172 0 1784 0 
Q 1141 0 747 490 
Q 353 981 353 1791 
Q 353 2603 747 3093 
Q 1141 3584 1784 3584 
Q 2172 3584 2450 3431 
Q 2728 3278 2906 2969 
L 2906 3500 
L 3481 3500 
L 3481 434 
z
" transform="scale(0.015625)"/>
       <path id="DejaVuSans-68" d="M 3513 2113 
L 3513 0 
L 2938 0 
L 2938 2094 
Q 2938 2591 2744 2837 
Q 2550 3084 2163 3084 
Q 1697 3084 1428 2787 
Q 1159 2491 1159 1978 
L 1159 0 
L 581 0 
L 581 4863 
L 1159 4863 
L 1159 2956 
Q 1366 3272 1645 3428 
Q 1925 3584 2291 3584 
Q 2894 3584 3203 3211 
Q 3513 2838 3513 2113 
z
" transform="scale(0.015625)"/>
       <path id="DejaVuSans-74" d="M 1172 4494 
L 1172 3500 
L 2356 3500 
L 2356 3053 
L 1172 3053 
L 1172 1153 
Q 1172 725 1289 603 
Q 1406 481 1766 481 
L 2356 481 
L 2356 0 
L 1766 0 
Q 1100 0 847 248 
Q 594 497 594 1153 
L 594 3053 
L 172 3053 
L 172 3500 
L 594 3500 
L 594 4494 
L 1172 4494 
z
" transform="scale(0.015625)"/>
       <path id="DejaVuSans-Oblique-3bb" d="M 2350 4316 
L 3125 0 
L 2516 0 
L 2038 2588 
L 328 0 
L -281 0 
L 1903 3356 
L 1794 3975 
Q 1725 4369 1391 4369 
L 1091 4369 
L 1184 4863 
L 1550 4856 
Q 2253 4847 2350 4316 
z
" transform="scale(0.015625)"/>
       <path id="DejaVuSans-Oblique-4e" d="M 1081 4666 
L 1931 4666 
L 3219 666 
L 4000 4666 
L 4616 4666 
L 3706 0 
L 2853 0 
L 1569 4025 
L 788 0 
L 172 0 
L 1081 4666 
z
" transform="scale(0.015625)"/>
       <path id="DejaVuSans-2212" d="M 678 2272 
L 4684 2272 
L 4684 1741 
L 678 1741 
L 678 2272 
z
" transform="scale(0.015625)"/>
       <path id="DejaVuSans-Oblique-74" d="M 2706 3500 
L 2619 3053 
L 1472 3053 
L 1100 1153 
Q 1081 1047 1072 975 
Q 1063 903 1063 863 
Q 1063 663 1183 572 
Q 1303 481 1569 481 
L 2150 481 
L 2053 0 
L 1503 0 
Q 991 0 739 200 
Q 488 400 488 806 
Q 488 878 497 964 
Q 506 1050 525 1153 
L 897 3053 
L 409 3053 
L 500 3500 
L 978 3500 
L 1172 4494 
L 1747 4494 
L 1556 3500 
L 2706 3500 
z
" transform="scale(0.015625)"/>
      </defs>
      <use xlink:href="#DejaVuSans-57" transform="translate(0 0.684375)"/>
      <use xlink:href="#DejaVuSans-65" transform="translate(98.876953 0.684375)"/>
      <use xlink:href="#DejaVuSans-69" transform="translate(160.400391 0.684375)"/>
      <use xlink:href="#DejaVuSans-67" transform="translate(188.183594 0.684375)"/>
      <use xlink:href="#DejaVuSans-68" transform="translate(251.660156 0.684375)"/>
      <use xlink:href="#DejaVuSans-74" transform="translate(315.039062 0.684375)"/>
      <use xlink:href="#DejaVuSans-20" transform="translate(354.248047 0.684375)"/>
      <use xlink:href="#DejaVuSans-28" transform="translate(386.035156 0.684375)"/>
      <use xlink:href="#DejaVuSans-Oblique-3bb" transform="translate(425.048828 0.684375)"/>
      <use xlink:href="#DejaVuSans-Oblique-4e" transform="translate(491.676224 38.965625) scale(0.7)"/>
      <use xlink:href="#DejaVuSans-2212" transform="translate(557.677201 38.965625) scale(0.7)"/>
      <use xlink:href="#DejaVuSans-Oblique-74" transform="translate(629.96724 38.965625) scale(0.7)"/>
      <use xlink:href="#DejaVuSans-29" transform="translate(660.147904 0.684375)"/>
     </g>
    </g>
   </g>
   <g id="line2d_27">
    <path d="M 115.363636 246.24 
L 122.508323 246.227361 
L 129.653009 246.213318 
L 136.797695 246.197714 
L 143.942382 246.180377 
L 151.087068 246.161113 
L 158.231754 246.139709 
L 165.37644 246.115926 
L 172.521127 246.089501 
L 179.665813 246.06014 
L 186.810499 246.027517 
L 193.955186 245.991269 
L 201.099872 245.950993 
L 208.244558 245.906242 
L 215.389245 245.856519 
L 222.533931 245.801271 
L 229.678617 245.739885 
L 236.823303 245.671677 
L 243.96799 245.595891 
L 251.112676 245.511685 
L 258.257362 245.418122 
L 265.402049 245.314163 
L 272.546735 245.198654 
L 279.691421 245.070309 
L 286.836108 244.927705 
L 293.980794 244.769255 
L 301.12548 244.5932 
L 308.270166 244.397584 
L 315.414853 244.180232 
L 322.559539 243.93873 
L 329.704225 243.670394 
L 336.848912 243.372243 
L 343.993598 243.040965 
L 351.138284 242.672877 
L 358.282971 242.263891 
L 365.427657 241.809463 
L 372.572343 241.304542 
L 379.717029 240.743519 
L 386.861716 240.120159 
L 394.006402 239.427538 
L 401.151088 238.657959 
L 408.295775 237.802871 
L 415.440461 236.852773 
L 422.585147 235.797109 
L 429.729834 234.624149 
L 436.87452 233.32086 
L 444.019206 231.872761 
L 451.163892 230.263762 
L 458.308579 228.475986 
L 465.453265 226.489567 
L 472.597951 224.282436 
L 479.742638 221.830068 
L 486.887324 219.105214 
L 494.03201 216.077599 
L 501.176697 212.713582 
L 508.321383 208.975785 
L 515.466069 204.822678 
L 522.610755 200.208115 
L 529.755442 195.080822 
L 536.900128 189.38383 
L 544.044814 183.053838 
L 551.189501 176.020515 
L 558.334187 168.205711 
L 565.478873 159.522595 
L 572.62356 149.874689 
L 579.768246 139.154793 
L 586.912932 127.243798 
L 594.057618 114.009359 
L 601.202305 99.304426 
L 608.346991 82.965613 
L 615.491677 64.811375 
L 622.636364 44.64 
" clip-path="url(#p2ecb361d08)" style="fill: none; stroke: #0000ff; stroke-width: 1.5; stroke-linecap: square"/>
    <defs>
     <path id="m85e6f3039e" d="M 0 2 
C 0.530406 2 1.03916 1.789267 1.414214 1.414214 
C 1.789267 1.03916 2 0.530406 2 0 
C 2 -0.530406 1.789267 -1.03916 1.414214 -1.414214 
C 1.03916 -1.789267 0.530406 -2 0 -2 
C -0.530406 -2 -1.03916 -1.789267 -1.414214 -1.414214 
C -1.789267 -1.03916 -2 -0.530406 -2 0 
C -2 0.530406 -1.789267 1.03916 -1.414214 1.414214 
C -1.03916 1.789267 -0.530406 2 0 2 
z
" style="stroke: #0000ff"/>
    </defs>
    <g clip-path="url(#p2ecb361d08)">
     <use xlink:href="#m85e6f3039e" x="115.363636" y="246.24" style="fill: #0000ff; stroke: #0000ff"/>
     <use xlink:href="#m85e6f3039e" x="122.508323" y="246.227361" style="fill: #0000ff; stroke: #0000ff"/>
     <use xlink:href="#m85e6f3039e" x="129.653009" y="246.213318" style="fill: #0000ff; stroke: #0000ff"/>
     <use xlink:href="#m85e6f3039e" x="136.797695" y="246.197714" style="fill: #0000ff; stroke: #0000ff"/>
     <use xlink:href="#m85e6f3039e" x="143.942382" y="246.180377" style="fill: #0000ff; stroke: #0000ff"/>
     <use xlink:href="#m85e6f3039e" x="151.087068" y="246.161113" style="fill: #0000ff; stroke: #0000ff"/>
     <use xlink:href="#m85e6f3039e" x="158.231754" y="246.139709" style="fill: #0000ff; stroke: #0000ff"/>
     <use xlink:href="#m85e6f3039e" x="165.37644" y="246.115926" style="fill: #0000ff; stroke: #0000ff"/>
     <use xlink:href="#m85e6f3039e" x="172.521127" y="246.089501" style="fill: #0000ff; stroke: #0000ff"/>
     <use xlink:href="#m85e6f3039e" x="179.665813" y="246.06014" style="fill: #0000ff; stroke: #0000ff"/>
     <use xlink:href="#m85e6f3039e" x="186.810499" y="246.027517" style="fill: #0000ff; stroke: #0000ff"/>
     <use xlink:href="#m85e6f3039e" x="193.955186" y="245.991269" style="fill: #0000ff; stroke: #0000ff"/>
     <use xlink:href="#m85e6f3039e" x="201.099872" y="245.950993" style="fill: #0000ff; stroke: #0000ff"/>
     <use xlink:href="#m85e6f3039e" x="208.244558" y="245.906242" style="fill: #0000ff; stroke: #0000ff"/>
     <use xlink:href="#m85e6f3039e" x="215.389245" y="245.856519" style="fill: #0000ff; stroke: #0000ff"/>
     <use xlink:href="#m85e6f3039e" x="222.533931" y="245.801271" style="fill: #0000ff; stroke: #0000ff"/>
     <use xlink:href="#m85e6f3039e" x="229.678617" y="245.739885" style="fill: #0000ff; stroke: #0000ff"/>
     <use xlink:href="#m85e6f3039e" x="236.823303" y="245.671677" style="fill: #0000ff; stroke: #0000ff"/>
     <use xlink:href="#m85e6f3039e" x="243.96799" y="245.595891" style="fill: #0000ff; stroke: #0000ff"/>
     <use xlink:href="#m85e6f3039e" x="251.112676" y="245.511685" style="fill: #0000ff; stroke: #0000ff"/>
     <use xlink:href="#m85e6f3039e" x="258.257362" y="245.418122" style="fill: #0000ff; stroke: #0000ff"/>
     <use xlink:href="#m85e6f3039e" x="265.402049" y="245.314163" style="fill: #0000ff; stroke: #0000ff"/>
     <use xlink:href="#m85e6f3039e" x="272.546735" y="245.198654" style="fill: #0000ff; stroke: #0000ff"/>
     <use xlink:href="#m85e6f3039e" x="279.691421" y="245.070309" style="fill: #0000ff; stroke: #0000ff"/>
     <use xlink:href="#m85e6f3039e" x="286.836108" y="244.927705" style="fill: #0000ff; stroke: #0000ff"/>
     <use xlink:href="#m85e6f3039e" x="293.980794" y="244.769255" style="fill: #0000ff; stroke: #0000ff"/>
     <use xlink:href="#m85e6f3039e" x="301.12548" y="244.5932" style="fill: #0000ff; stroke: #0000ff"/>
     <use xlink:href="#m85e6f3039e" x="308.270166" y="244.397584" style="fill: #0000ff; stroke: #0000ff"/>
     <use xlink:href="#m85e6f3039e" x="315.414853" y="244.180232" style="fill: #0000ff; stroke: #0000ff"/>
     <use xlink:href="#m85e6f3039e" x="322.559539" y="243.93873" style="fill: #0000ff; stroke: #0000ff"/>
     <use xlink:href="#m85e6f3039e" x="329.704225" y="243.670394" style="fill: #0000ff; stroke: #0000ff"/>
     <use xlink:href="#m85e6f3039e" x="336.848912" y="243.372243" style="fill: #0000ff; stroke: #0000ff"/>
     <use xlink:href="#m85e6f3039e" x="343.993598" y="243.040965" style="fill: #0000ff; stroke: #0000ff"/>
     <use xlink:href="#m85e6f3039e" x="351.138284" y="242.672877" style="fill: #0000ff; stroke: #0000ff"/>
     <use xlink:href="#m85e6f3039e" x="358.282971" y="242.263891" style="fill: #0000ff; stroke: #0000ff"/>
     <use xlink:href="#m85e6f3039e" x="365.427657" y="241.809463" style="fill: #0000ff; stroke: #0000ff"/>
     <use xlink:href="#m85e6f3039e" x="372.572343" y="241.304542" style="fill: #0000ff; stroke: #0000ff"/>
     <use xlink:href="#m85e6f3039e" x="379.717029" y="240.743519" style="fill: #0000ff; stroke: #0000ff"/>
     <use xlink:href="#m85e6f3039e" x="386.861716" y="240.120159" style="fill: #0000ff; stroke: #0000ff"/>
     <use xlink:href="#m85e6f3039e" x="394.006402" y="239.427538" style="fill: #0000ff; stroke: #0000ff"/>
     <use xlink:href="#m85e6f3039e" x="401.151088" y="238.657959" style="fill: #0000ff; stroke: #0000ff"/>
     <use xlink:href="#m85e6f3039e" x="408.295775" y="237.802871" style="fill: #0000ff; stroke: #0000ff"/>
     <use xlink:href="#m85e6f3039e" x="415.440461" y="236.852773" style="fill: #0000ff; stroke: #0000ff"/>
     <use xlink:href="#m85e6f3039e" x="422.585147" y="235.797109" style="fill: #0000ff; stroke: #0000ff"/>
     <use xlink:href="#m85e6f3039e" x="429.729834" y="234.624149" style="fill: #0000ff; stroke: #0000ff"/>
     <use xlink:href="#m85e6f3039e" x="436.87452" y="233.32086" style="fill: #0000ff; stroke: #0000ff"/>
     <use xlink:href="#m85e6f3039e" x="444.019206" y="231.872761" style="fill: #0000ff; stroke: #0000ff"/>
     <use xlink:href="#m85e6f3039e" x="451.163892" y="230.263762" style="fill: #0000ff; stroke: #0000ff"/>
     <use xlink:href="#m85e6f3039e" x="458.308579" y="228.475986" style="fill: #0000ff; stroke: #0000ff"/>
     <use xlink:href="#m85e6f3039e" x="465.453265" y="226.489567" style="fill: #0000ff; stroke: #0000ff"/>
     <use xlink:href="#m85e6f3039e" x="472.597951" y="224.282436" style="fill: #0000ff; stroke: #0000ff"/>
     <use xlink:href="#m85e6f3039e" x="479.742638" y="221.830068" style="fill: #0000ff; stroke: #0000ff"/>
     <use xlink:href="#m85e6f3039e" x="486.887324" y="219.105214" style="fill: #0000ff; stroke: #0000ff"/>
     <use xlink:href="#m85e6f3039e" x="494.03201" y="216.077599" style="fill: #0000ff; stroke: #0000ff"/>
     <use xlink:href="#m85e6f3039e" x="501.176697" y="212.713582" style="fill: #0000ff; stroke: #0000ff"/>
     <use xlink:href="#m85e6f3039e" x="508.321383" y="208.975785" style="fill: #0000ff; stroke: #0000ff"/>
     <use xlink:href="#m85e6f3039e" x="515.466069" y="204.822678" style="fill: #0000ff; stroke: #0000ff"/>
     <use xlink:href="#m85e6f3039e" x="522.610755" y="200.208115" style="fill: #0000ff; stroke: #0000ff"/>
     <use xlink:href="#m85e6f3039e" x="529.755442" y="195.080822" style="fill: #0000ff; stroke: #0000ff"/>
     <use xlink:href="#m85e6f3039e" x="536.900128" y="189.38383" style="fill: #0000ff; stroke: #0000ff"/>
     <use xlink:href="#m85e6f3039e" x="544.044814" y="183.053838" style="fill: #0000ff; stroke: #0000ff"/>
     <use xlink:href="#m85e6f3039e" x="551.189501" y="176.020515" style="fill: #0000ff; stroke: #0000ff"/>
     <use xlink:href="#m85e6f3039e" x="558.334187" y="168.205711" style="fill: #0000ff; stroke: #0000ff"/>
     <use xlink:href="#m85e6f3039e" x="565.478873" y="159.522595" style="fill: #0000ff; stroke: #0000ff"/>
     <use xlink:href="#m85e6f3039e" x="572.62356" y="149.874689" style="fill: #0000ff; stroke: #0000ff"/>
     <use xlink:href="#m85e6f3039e" x="579.768246" y="139.154793" style="fill: #0000ff; stroke: #0000ff"/>
     <use xlink:href="#m85e6f3039e" x="586.912932" y="127.243798" style="fill: #0000ff; stroke: #0000ff"/>
     <use xlink:href="#m85e6f3039e" x="594.057618" y="114.009359" style="fill: #0000ff; stroke: #0000ff"/>
     <use xlink:href="#m85e6f3039e" x="601.202305" y="99.304426" style="fill: #0000ff; stroke: #0000ff"/>
     <use xlink:href="#m85e6f3039e" x="608.346991" y="82.965613" style="fill: #0000ff; stroke: #0000ff"/>
     <use xlink:href="#m85e6f3039e" x="615.491677" y="64.811375" style="fill: #0000ff; stroke: #0000ff"/>
     <use xlink:href="#m85e6f3039e" x="622.636364" y="44.64" style="fill: #0000ff; stroke: #0000ff"/>
    </g>
   </g>
   <g id="patch_3">
    <path d="M 90 256.32 
L 90 34.56 
" style="fill: none; stroke: #000000; stroke-width: 0.8; stroke-linejoin: miter; stroke-linecap: square"/>
   </g>
   <g id="patch_4">
    <path d="M 648 256.32 
L 648 34.56 
" style="fill: none; stroke: #000000; stroke-width: 0.8; stroke-linejoin: miter; stroke-linecap: square"/>
   </g>
   <g id="patch_5">
    <path d="M 90 256.32 
L 648 256.32 
" style="fill: none; stroke: #000000; stroke-width: 0.8; stroke-linejoin: miter; stroke-linecap: square"/>
   </g>
   <g id="patch_6">
    <path d="M 90 34.56 
L 648 34.56 
" style="fill: none; stroke: #000000; stroke-width: 0.8; stroke-linejoin: miter; stroke-linecap: square"/>
   </g>
   <g id="text_16">
    <!-- WLS Weights vs Time ($\lambda = 0.9$) -->
    <g transform="translate(277.2 28.56) scale(0.12 -0.12)">
     <defs>
      <path id="DejaVuSans-4c" d="M 628 4666 
L 1259 4666 
L 1259 531 
L 3531 531 
L 3531 0 
L 628 0 
L 628 4666 
z
" transform="scale(0.015625)"/>
      <path id="DejaVuSans-53" d="M 3425 4513 
L 3425 3897 
Q 3066 4069 2747 4153 
Q 2428 4238 2131 4238 
Q 1616 4238 1336 4038 
Q 1056 3838 1056 3469 
Q 1056 3159 1242 3001 
Q 1428 2844 1947 2747 
L 2328 2669 
Q 3034 2534 3370 2195 
Q 3706 1856 3706 1288 
Q 3706 609 3251 259 
Q 2797 -91 1919 -91 
Q 1588 -91 1214 -16 
Q 841 59 441 206 
L 441 856 
Q 825 641 1194 531 
Q 1563 422 1919 422 
Q 2459 422 2753 634 
Q 3047 847 3047 1241 
Q 3047 1584 2836 1778 
Q 2625 1972 2144 2069 
L 1759 2144 
Q 1053 2284 737 2584 
Q 422 2884 422 3419 
Q 422 4038 858 4394 
Q 1294 4750 2059 4750 
Q 2388 4750 2728 4690 
Q 3069 4631 3425 4513 
z
" transform="scale(0.015625)"/>
      <path id="DejaVuSans-73" d="M 2834 3397 
L 2834 2853 
Q 2591 2978 2328 3040 
Q 2066 3103 1784 3103 
Q 1356 3103 1142 2972 
Q 928 2841 928 2578 
Q 928 2378 1081 2264 
Q 1234 2150 1697 2047 
L 1894 2003 
Q 2506 1872 2764 1633 
Q 3022 1394 3022 966 
Q 3022 478 2636 193 
Q 2250 -91 1575 -91 
Q 1294 -91 989 -36 
Q 684 19 347 128 
L 347 722 
Q 666 556 975 473 
Q 1284 391 1588 391 
Q 1994 391 2212 530 
Q 2431 669 2431 922 
Q 2431 1156 2273 1281 
Q 2116 1406 1581 1522 
L 1381 1569 
Q 847 1681 609 1914 
Q 372 2147 372 2553 
Q 372 3047 722 3315 
Q 1072 3584 1716 3584 
Q 2034 3584 2315 3537 
Q 2597 3491 2834 3397 
z
" transform="scale(0.015625)"/>
      <path id="DejaVuSans-76" d="M 191 3500 
L 800 3500 
L 1894 563 
L 2988 3500 
L 3597 3500 
L 2284 0 
L 1503 0 
L 191 3500 
z
" transform="scale(0.015625)"/>
      <path id="DejaVuSans-3d" d="M 678 2906 
L 4684 2906 
L 4684 2381 
L 678 2381 
L 678 2906 
z
M 678 1631 
L 4684 1631 
L 4684 1100 
L 678 1100 
L 678 1631 
z
" transform="scale(0.015625)"/>
     </defs>
     <use xlink:href="#DejaVuSans-57" transform="translate(0 0.015625)"/>
     <use xlink:href="#DejaVuSans-4c" transform="translate(98.876953 0.015625)"/>
     <use xlink:href="#DejaVuSans-53" transform="translate(154.589844 0.015625)"/>
     <use xlink:href="#DejaVuSans-20" transform="translate(218.066406 0.015625)"/>
     <use xlink:href="#DejaVuSans-57" transform="translate(249.853516 0.015625)"/>
     <use xlink:href="#DejaVuSans-65" transform="translate(348.730469 0.015625)"/>
     <use xlink:href="#DejaVuSans-69" transform="translate(410.253906 0.015625)"/>
     <use xlink:href="#DejaVuSans-67" transform="translate(438.037109 0.015625)"/>
     <use xlink:href="#DejaVuSans-68" transform="translate(501.513672 0.015625)"/>
     <use xlink:href="#DejaVuSans-74" transform="translate(564.892578 0.015625)"/>
     <use xlink:href="#DejaVuSans-73" transform="translate(604.101562 0.015625)"/>
     <use xlink:href="#DejaVuSans-20" transform="translate(656.201172 0.015625)"/>
     <use xlink:href="#DejaVuSans-76" transform="translate(687.988281 0.015625)"/>
     <use xlink:href="#DejaVuSans-73" transform="translate(747.167969 0.015625)"/>
     <use xlink:href="#DejaVuSans-20" transform="translate(799.267578 0.015625)"/>
     <use xlink:href="#DejaVuSans-54" transform="translate(831.054688 0.015625)"/>
     <use xlink:href="#DejaVuSans-69" transform="translate(892.138672 0.015625)"/>
     <use xlink:href="#DejaVuSans-6d" transform="translate(919.921875 0.015625)"/>
     <use xlink:href="#DejaVuSans-65" transform="translate(1017.333984 0.015625)"/>
     <use xlink:href="#DejaVuSans-20" transform="translate(1078.857422 0.015625)"/>
     <use xlink:href="#DejaVuSans-28" transform="translate(1110.644531 0.015625)"/>
     <use xlink:href="#DejaVuSans-Oblique-3bb" transform="translate(1149.658203 0.015625)"/>
     <use xlink:href="#DejaVuSans-3d" transform="translate(1228.320312 0.015625)"/>
     <use xlink:href="#DejaVuSans-30" transform="translate(1331.591797 0.015625)"/>
     <use xlink:href="#DejaVuSans-2e" transform="translate(1395.214844 0.015625)"/>
     <use xlink:href="#DejaVuSans-39" transform="translate(1427.001953 0.015625)"/>
     <use xlink:href="#DejaVuSans-29" transform="translate(1490.625 0.015625)"/>
    </g>
   </g>
  </g>
 </g>
 <defs>
  <clipPath id="p2ecb361d08">
   <rect x="90" y="34.56" width="558" height="221.76"/>
  </clipPath>
 </defs>
</svg>
