<?xml version="1.0" encoding="utf-8" standalone="no"?>
<!DOCTYPE svg PUBLIC "-//W3C//DTD SVG 1.1//EN"
  "http://www.w3.org/Graphics/SVG/1.1/DTD/svg11.dtd">
<svg xmlns:xlink="http://www.w3.org/1999/xlink" width="864pt" height="432pt" viewBox="0 0 864 432" xmlns="http://www.w3.org/2000/svg" version="1.1">
 <metadata>
  <rdf:RDF xmlns:dc="http://purl.org/dc/elements/1.1/" xmlns:cc="http://creativecommons.org/ns#" xmlns:rdf="http://www.w3.org/1999/02/22-rdf-syntax-ns#">
   <cc:Work>
    <dc:type rdf:resource="http://purl.org/dc/dcmitype/StillImage"/>
    <dc:date>2026-02-27T11:51:38.264493</dc:date>
    <dc:format>image/svg+xml</dc:format>
    <dc:creator>
     <cc:Agent>
      <dc:title>Matplotlib v3.10.6, https://matplotlib.org/</dc:title>
     </cc:Agent>
    </dc:creator>
   </cc:Work>
  </rdf:RDF>
 </metadata>
 <defs>
  <style type="text/css">*{stroke-linejoin: round; stroke-linecap: butt}</style>
 </defs>
 <g id="figure_1">
  <g id="patch_1">
   <path d="M 0 432 
L 864 432 
L 864 0 
L 0 0 
z
" style="fill: #ffffff"/>
  </g>
  <g id="axes_1">
   <g id="patch_2">
    <path d="M 108 384.48 
L 777.6 384.48 
L 777.6 51.84 
L 108 51.84 
z
" style="fill: #ffffff"/>
   </g>
   <g id="matplotlib.axis_1">
    <g id="xtick_1">
     <g id="line2d_1">
      <path d="M 138.436364 384.48 
L 138.436364 51.84 
" clip-path="url(#pd90dc77f7d)" style="fill: none; stroke: #b0b0b0; stroke-width: 0.8; stroke-linecap: square"/>
     </g>
     <g id="line2d_2">
      <defs>
       <path id="maf678fa8ee" d="M 0 0 
L 0 3.5 
" style="stroke: #000000; stroke-width: 0.8"/>
      </defs>
      <g>
       <use xlink:href="#maf678fa8ee" x="138.436364" y="384.48" style="stroke: #000000; stroke-width: 0.8"/>
      </g>
     </g>
     <g id="text_1">
      <!-- 2018 -->
      <g transform="translate(125.711364 399.078438) scale(0.1 -0.1)">
       <defs>
        <path id="DejaVuSans-32" d="M 1228 531 
L 3431 531 
L 3431 0 
L 469 0 
L 469 531 
Q 828 903 1448 1529 
Q 2069 2156 2228 2338 
Q 2531 2678 2651 2914 
Q 2772 3150 2772 3378 
Q 2772 3750 2511 3984 
Q 2250 4219 1831 4219 
Q 1534 4219 1204 4116 
Q 875 4013 500 3803 
L 500 4441 
Q 881 4594 1212 4672 
Q 1544 4750 1819 4750 
Q 2544 4750 2975 4387 
Q 3406 4025 3406 3419 
Q 3406 3131 3298 2873 
Q 3191 2616 2906 2266 
Q 2828 2175 2409 1742 
Q 1991 1309 1228 531 
z
" transform="scale(0.015625)"/>
        <path id="DejaVuSans-30" d="M 2034 4250 
Q 1547 4250 1301 3770 
Q 1056 3291 1056 2328 
Q 1056 1369 1301 889 
Q 1547 409 2034 409 
Q 2525 409 2770 889 
Q 3016 1369 3016 2328 
Q 3016 3291 2770 3770 
Q 2525 4250 2034 4250 
z
M 2034 4750 
Q 2819 4750 3233 4129 
Q 3647 3509 3647 2328 
Q 3647 1150 3233 529 
Q 2819 -91 2034 -91 
Q 1250 -91 836 529 
Q 422 1150 422 2328 
Q 422 3509 836 4129 
Q 1250 4750 2034 4750 
z
" transform="scale(0.015625)"/>
        <path id="DejaVuSans-31" d="M 794 531 
L 1825 531 
L 1825 4091 
L 703 3866 
L 703 4441 
L 1819 4666 
L 2450 4666 
L 2450 531 
L 3481 531 
L 3481 0 
L 794 0 
L 794 531 
z
" transform="scale(0.015625)"/>
        <path id="DejaVuSans-38" d="M 2034 2216 
Q 1584 2216 1326 1975 
Q 1069 1734 1069 1313 
Q 1069 891 1326 650 
Q 1584 409 2034 409 
Q 2484 409 2743 651 
Q 3003 894 3003 1313 
Q 3003 1734 2745 1975 
Q 2488 2216 2034 2216 
z
M 1403 2484 
Q 997 2584 770 2862 
Q 544 3141 544 3541 
Q 544 4100 942 4425 
Q 1341 4750 2034 4750 
Q 2731 4750 3128 4425 
Q 3525 4100 3525 3541 
Q 3525 3141 3298 2862 
Q 3072 2584 2669 2484 
Q 3125 2378 3379 2068 
Q 3634 1759 3634 1313 
Q 3634 634 3220 271 
Q 2806 -91 2034 -91 
Q 1263 -91 848 271 
Q 434 634 434 1313 
Q 434 1759 690 2068 
Q 947 2378 1403 2484 
z
M 1172 3481 
Q 1172 3119 1398 2916 
Q 1625 2713 2034 2713 
Q 2441 2713 2670 2916 
Q 2900 3119 2900 3481 
Q 2900 3844 2670 4047 
Q 2441 4250 2034 4250 
Q 1625 4250 1398 4047 
Q 1172 3844 1172 3481 
z
" transform="scale(0.015625)"/>
       </defs>
       <use xlink:href="#DejaVuSans-32"/>
       <use xlink:href="#DejaVuSans-30" transform="translate(63.623047 0)"/>
       <use xlink:href="#DejaVuSans-31" transform="translate(127.246094 0)"/>
       <use xlink:href="#DejaVuSans-38" transform="translate(190.869141 0)"/>
      </g>
     </g>
    </g>
    <g id="xtick_2">
     <g id="line2d_3">
      <path d="M 226.445126 384.48 
L 226.445126 51.84 
" clip-path="url(#pd90dc77f7d)" style="fill: none; stroke: #b0b0b0; stroke-width: 0.8; stroke-linecap: square"/>
     </g>
     <g id="line2d_4">
      <g>
       <use xlink:href="#maf678fa8ee" x="226.445126" y="384.48" style="stroke: #000000; stroke-width: 0.8"/>
      </g>
     </g>
     <g id="text_2">
      <!-- 2019 -->
      <g transform="translate(213.720126 399.078438) scale(0.1 -0.1)">
       <defs>
        <path id="DejaVuSans-39" d="M 703 97 
L 703 672 
Q 941 559 1184 500 
Q 1428 441 1663 441 
Q 2288 441 2617 861 
Q 2947 1281 2994 2138 
Q 2813 1869 2534 1725 
Q 2256 1581 1919 1581 
Q 1219 1581 811 2004 
Q 403 2428 403 3163 
Q 403 3881 828 4315 
Q 1253 4750 1959 4750 
Q 2769 4750 3195 4129 
Q 3622 3509 3622 2328 
Q 3622 1225 3098 567 
Q 2575 -91 1691 -91 
Q 1453 -91 1209 -44 
Q 966 3 703 97 
z
M 1959 2075 
Q 2384 2075 2632 2365 
Q 2881 2656 2881 3163 
Q 2881 3666 2632 3958 
Q 2384 4250 1959 4250 
Q 1534 4250 1286 3958 
Q 1038 3666 1038 3163 
Q 1038 2656 1286 2365 
Q 1534 2075 1959 2075 
z
" transform="scale(0.015625)"/>
       </defs>
       <use xlink:href="#DejaVuSans-32"/>
       <use xlink:href="#DejaVuSans-30" transform="translate(63.623047 0)"/>
       <use xlink:href="#DejaVuSans-31" transform="translate(127.246094 0)"/>
       <use xlink:href="#DejaVuSans-39" transform="translate(190.869141 0)"/>
      </g>
     </g>
    </g>
    <g id="xtick_3">
     <g id="line2d_5">
      <path d="M 314.453888 384.48 
L 314.453888 51.84 
" clip-path="url(#pd90dc77f7d)" style="fill: none; stroke: #b0b0b0; stroke-width: 0.8; stroke-linecap: square"/>
     </g>
     <g id="line2d_6">
      <g>
       <use xlink:href="#maf678fa8ee" x="314.453888" y="384.48" style="stroke: #000000; stroke-width: 0.8"/>
      </g>
     </g>
     <g id="text_3">
      <!-- 2020 -->
      <g transform="translate(301.728888 399.078438) scale(0.1 -0.1)">
       <use xlink:href="#DejaVuSans-32"/>
       <use xlink:href="#DejaVuSans-30" transform="translate(63.623047 0)"/>
       <use xlink:href="#DejaVuSans-32" transform="translate(127.246094 0)"/>
       <use xlink:href="#DejaVuSans-30" transform="translate(190.869141 0)"/>
      </g>
     </g>
    </g>
    <g id="xtick_4">
     <g id="line2d_7">
      <path d="M 402.462651 384.48 
L 402.462651 51.84 
" clip-path="url(#pd90dc77f7d)" style="fill: none; stroke: #b0b0b0; stroke-width: 0.8; stroke-linecap: square"/>
     </g>
     <g id="line2d_8">
      <g>
       <use xlink:href="#maf678fa8ee" x="402.462651" y="384.48" style="stroke: #000000; stroke-width: 0.8"/>
      </g>
     </g>
     <g id="text_4">
      <!-- 2021 -->
      <g transform="translate(389.737651 399.078438) scale(0.1 -0.1)">
       <use xlink:href="#DejaVuSans-32"/>
       <use xlink:href="#DejaVuSans-30" transform="translate(63.623047 0)"/>
       <use xlink:href="#DejaVuSans-32" transform="translate(127.246094 0)"/>
       <use xlink:href="#DejaVuSans-31" transform="translate(190.869141 0)"/>
      </g>
     </g>
    </g>
    <g id="xtick_5">
     <g id="line2d_9">
      <path d="M 490.471413 384.48 
L 490.471413 51.84 
" clip-path="url(#pd90dc77f7d)" style="fill: none; stroke: #b0b0b0; stroke-width: 0.8; stroke-linecap: square"/>
     </g>
     <g id="line2d_10">
      <g>
       <use xlink:href="#maf678fa8ee" x="490.471413" y="384.48" style="stroke: #000000; stroke-width: 0.8"/>
      </g>
     </g>
     <g id="text_5">
      <!-- 2022 -->
      <g transform="translate(477.746413 399.078438) scale(0.1 -0.1)">
       <use xlink:href="#DejaVuSans-32"/>
       <use xlink:href="#DejaVuSans-30" transform="translate(63.623047 0)"/>
       <use xlink:href="#DejaVuSans-32" transform="translate(127.246094 0)"/>
       <use xlink:href="#DejaVuSans-32" transform="translate(190.869141 0)"/>
      </g>
     </g>
    </g>
    <g id="xtick_6">
     <g id="line2d_11">
      <path d="M 578.480175 384.48 
L 578.480175 51.84 
" clip-path="url(#pd90dc77f7d)" style="fill: none; stroke: #b0b0b0; stroke-width: 0.8; stroke-linecap: square"/>
     </g>
     <g id="line2d_12">
      <g>
       <use xlink:href="#maf678fa8ee" x="578.480175" y="384.48" style="stroke: #000000; stroke-width: 0.8"/>
      </g>
     </g>
     <g id="text_6">
      <!-- 2023 -->
      <g transform="translate(565.755175 399.078438) scale(0.1 -0.1)">
       <defs>
        <path id="DejaVuSans-33" d="M 2597 2516 
Q 3050 2419 3304 2112 
Q 3559 1806 3559 1356 
Q 3559 666 3084 287 
Q 2609 -91 1734 -91 
Q 1441 -91 1130 -33 
Q 819 25 488 141 
L 488 750 
Q 750 597 1062 519 
Q 1375 441 1716 441 
Q 2309 441 2620 675 
Q 2931 909 2931 1356 
Q 2931 1769 2642 2001 
Q 2353 2234 1838 2234 
L 1294 2234 
L 1294 2753 
L 1863 2753 
Q 2328 2753 2575 2939 
Q 2822 3125 2822 3475 
Q 2822 3834 2567 4026 
Q 2313 4219 1838 4219 
Q 1578 4219 1281 4162 
Q 984 4106 628 3988 
L 628 4550 
Q 988 4650 1302 4700 
Q 1616 4750 1894 4750 
Q 2613 4750 3031 4423 
Q 3450 4097 3450 3541 
Q 3450 3153 3228 2886 
Q 3006 2619 2597 2516 
z
" transform="scale(0.015625)"/>
       </defs>
       <use xlink:href="#DejaVuSans-32"/>
       <use xlink:href="#DejaVuSans-30" transform="translate(63.623047 0)"/>
       <use xlink:href="#DejaVuSans-32" transform="translate(127.246094 0)"/>
       <use xlink:href="#DejaVuSans-33" transform="translate(190.869141 0)"/>
      </g>
     </g>
    </g>
    <g id="xtick_7">
     <g id="line2d_13">
      <path d="M 666.488938 384.48 
L 666.488938 51.84 
" clip-path="url(#pd90dc77f7d)" style="fill: none; stroke: #b0b0b0; stroke-width: 0.8; stroke-linecap: square"/>
     </g>
     <g id="line2d_14">
      <g>
       <use xlink:href="#maf678fa8ee" x="666.488938" y="384.48" style="stroke: #000000; stroke-width: 0.8"/>
      </g>
     </g>
     <g id="text_7">
      <!-- 2024 -->
      <g transform="translate(653.763938 399.078438) scale(0.1 -0.1)">
       <defs>
        <path id="DejaVuSans-34" d="M 2419 4116 
L 825 1625 
L 2419 1625 
L 2419 4116 
z
M 2253 4666 
L 3047 4666 
L 3047 1625 
L 3713 1625 
L 3713 1100 
L 3047 1100 
L 3047 0 
L 2419 0 
L 2419 1100 
L 313 1100 
L 313 1709 
L 2253 4666 
z
" transform="scale(0.015625)"/>
       </defs>
       <use xlink:href="#DejaVuSans-32"/>
       <use xlink:href="#DejaVuSans-30" transform="translate(63.623047 0)"/>
       <use xlink:href="#DejaVuSans-32" transform="translate(127.246094 0)"/>
       <use xlink:href="#DejaVuSans-34" transform="translate(190.869141 0)"/>
      </g>
     </g>
    </g>
    <g id="xtick_8">
     <g id="line2d_15">
      <path d="M 754.4977 384.48 
L 754.4977 51.84 
" clip-path="url(#pd90dc77f7d)" style="fill: none; stroke: #b0b0b0; stroke-width: 0.8; stroke-linecap: square"/>
     </g>
     <g id="line2d_16">
      <g>
       <use xlink:href="#maf678fa8ee" x="754.4977" y="384.48" style="stroke: #000000; stroke-width: 0.8"/>
      </g>
     </g>
     <g id="text_8">
      <!-- 2025 -->
      <g transform="translate(741.7727 399.078438) scale(0.1 -0.1)">
       <defs>
        <path id="DejaVuSans-35" d="M 691 4666 
L 3169 4666 
L 3169 4134 
L 1269 4134 
L 1269 2991 
Q 1406 3038 1543 3061 
Q 1681 3084 1819 3084 
Q 2600 3084 3056 2656 
Q 3513 2228 3513 1497 
Q 3513 744 3044 326 
Q 2575 -91 1722 -91 
Q 1428 -91 1123 -41 
Q 819 9 494 109 
L 494 744 
Q 775 591 1075 516 
Q 1375 441 1709 441 
Q 2250 441 2565 725 
Q 2881 1009 2881 1497 
Q 2881 1984 2565 2268 
Q 2250 2553 1709 2553 
Q 1456 2553 1204 2497 
Q 953 2441 691 2322 
L 691 4666 
z
" transform="scale(0.015625)"/>
       </defs>
       <use xlink:href="#DejaVuSans-32"/>
       <use xlink:href="#DejaVuSans-30" transform="translate(63.623047 0)"/>
       <use xlink:href="#DejaVuSans-32" transform="translate(127.246094 0)"/>
       <use xlink:href="#DejaVuSans-35" transform="translate(190.869141 0)"/>
      </g>
     </g>
    </g>
    <g id="text_9">
     <!-- Time (Year) -->
     <g transform="translate(414.488281 412.756563) scale(0.1 -0.1)">
      <defs>
       <path id="DejaVuSans-54" d="M -19 4666 
L 3928 4666 
L 3928 4134 
L 2272 4134 
L 2272 0 
L 1638 0 
L 1638 4134 
L -19 4134 
L -19 4666 
z
" transform="scale(0.015625)"/>
       <path id="DejaVuSans-69" d="M 603 3500 
L 1178 3500 
L 1178 0 
L 603 0 
L 603 3500 
z
M 603 4863 
L 1178 4863 
L 1178 4134 
L 603 4134 
L 603 4863 
z
" transform="scale(0.015625)"/>
       <path id="DejaVuSans-6d" d="M 3328 2828 
Q 3544 3216 3844 3400 
Q 4144 3584 4550 3584 
Q 5097 3584 5394 3201 
Q 5691 2819 5691 2113 
L 5691 0 
L 5113 0 
L 5113 2094 
Q 5113 2597 4934 2840 
Q 4756 3084 4391 3084 
Q 3944 3084 3684 2787 
Q 3425 2491 3425 1978 
L 3425 0 
L 2847 0 
L 2847 2094 
Q 2847 2600 2669 2842 
Q 2491 3084 2119 3084 
Q 1678 3084 1418 2786 
Q 1159 2488 1159 1978 
L 1159 0 
L 581 0 
L 581 3500 
L 1159 3500 
L 1159 2956 
Q 1356 3278 1631 3431 
Q 1906 3584 2284 3584 
Q 2666 3584 2933 3390 
Q 3200 3197 3328 2828 
z
" transform="scale(0.015625)"/>
       <path id="DejaVuSans-65" d="M 3597 1894 
L 3597 1613 
L 953 1613 
Q 991 1019 1311 708 
Q 1631 397 2203 397 
Q 2534 397 2845 478 
Q 3156 559 3463 722 
L 3463 178 
Q 3153 47 2828 -22 
Q 2503 -91 2169 -91 
Q 1331 -91 842 396 
Q 353 884 353 1716 
Q 353 2575 817 3079 
Q 1281 3584 2069 3584 
Q 2775 3584 3186 3129 
Q 3597 2675 3597 1894 
z
M 3022 2063 
Q 3016 2534 2758 2815 
Q 2500 3097 2075 3097 
Q 1594 3097 1305 2825 
Q 1016 2553 972 2059 
L 3022 2063 
z
" transform="scale(0.015625)"/>
       <path id="DejaVuSans-20" transform="scale(0.015625)"/>
       <path id="DejaVuSans-28" d="M 1984 4856 
Q 1566 4138 1362 3434 
Q 1159 2731 1159 2009 
Q 1159 1288 1364 580 
Q 1569 -128 1984 -844 
L 1484 -844 
Q 1016 -109 783 600 
Q 550 1309 550 2009 
Q 550 2706 781 3412 
Q 1013 4119 1484 4856 
L 1984 4856 
z
" transform="scale(0.015625)"/>
       <path id="DejaVuSans-59" d="M -13 4666 
L 666 4666 
L 1959 2747 
L 3244 4666 
L 3922 4666 
L 2272 2222 
L 2272 0 
L 1638 0 
L 1638 2222 
L -13 4666 
z
" transform="scale(0.015625)"/>
       <path id="DejaVuSans-61" d="M 2194 1759 
Q 1497 1759 1228 1600 
Q 959 1441 959 1056 
Q 959 750 1161 570 
Q 1363 391 1709 391 
Q 2188 391 2477 730 
Q 2766 1069 2766 1631 
L 2766 1759 
L 2194 1759 
z
M 3341 1997 
L 3341 0 
L 2766 0 
L 2766 531 
Q 2569 213 2275 61 
Q 1981 -91 1556 -91 
Q 1019 -91 701 211 
Q 384 513 384 1019 
Q 384 1609 779 1909 
Q 1175 2209 1959 2209 
L 2766 2209 
L 2766 2266 
Q 2766 2663 2505 2880 
Q 2244 3097 1772 3097 
Q 1472 3097 1187 3025 
Q 903 2953 641 2809 
L 641 3341 
Q 956 3463 1253 3523 
Q 1550 3584 1831 3584 
Q 2591 3584 2966 3190 
Q 3341 2797 3341 1997 
z
" transform="scale(0.015625)"/>
       <path id="DejaVuSans-72" d="M 2631 2963 
Q 2534 3019 2420 3045 
Q 2306 3072 2169 3072 
Q 1681 3072 1420 2755 
Q 1159 2438 1159 1844 
L 1159 0 
L 581 0 
L 581 3500 
L 1159 3500 
L 1159 2956 
Q 1341 3275 1631 3429 
Q 1922 3584 2338 3584 
Q 2397 3584 2469 3576 
Q 2541 3569 2628 3553 
L 2631 2963 
z
" transform="scale(0.015625)"/>
       <path id="DejaVuSans-29" d="M 513 4856 
L 1013 4856 
Q 1481 4119 1714 3412 
Q 1947 2706 1947 2009 
Q 1947 1309 1714 600 
Q 1481 -109 1013 -844 
L 513 -844 
Q 928 -128 1133 580 
Q 1338 1288 1338 2009 
Q 1338 2731 1133 3434 
Q 928 4138 513 4856 
z
" transform="scale(0.015625)"/>
      </defs>
      <use xlink:href="#DejaVuSans-54"/>
      <use xlink:href="#DejaVuSans-69" transform="translate(57.958984 0)"/>
      <use xlink:href="#DejaVuSans-6d" transform="translate(85.742188 0)"/>
      <use xlink:href="#DejaVuSans-65" transform="translate(183.154297 0)"/>
      <use xlink:href="#DejaVuSans-20" transform="translate(244.677734 0)"/>
      <use xlink:href="#DejaVuSans-28" transform="translate(276.464844 0)"/>
      <use xlink:href="#DejaVuSans-59" transform="translate(315.478516 0)"/>
      <use xlink:href="#DejaVuSans-65" transform="translate(363.3125 0)"/>
      <use xlink:href="#DejaVuSans-61" transform="translate(424.835938 0)"/>
      <use xlink:href="#DejaVuSans-72" transform="translate(486.115234 0)"/>
      <use xlink:href="#DejaVuSans-29" transform="translate(527.228516 0)"/>
     </g>
    </g>
   </g>
   <g id="matplotlib.axis_2">
    <g id="ytick_1">
     <g id="line2d_17">
      <path d="M 108 322.987982 
L 777.6 322.987982 
" clip-path="url(#pd90dc77f7d)" style="fill: none; stroke: #b0b0b0; stroke-width: 0.8; stroke-linecap: square"/>
     </g>
     <g id="line2d_18">
      <defs>
       <path id="mf671a8ad0c" d="M 0 0 
L -3.5 0 
" style="stroke: #000000; stroke-width: 0.8"/>
      </defs>
      <g>
       <use xlink:href="#mf671a8ad0c" x="108" y="322.987982" style="stroke: #000000; stroke-width: 0.8"/>
      </g>
     </g>
     <g id="text_10">
      <!-- 3.0 -->
      <g transform="translate(85.096875 326.787201) scale(0.1 -0.1)">
       <defs>
        <path id="DejaVuSans-2e" d="M 684 794 
L 1344 794 
L 1344 0 
L 684 0 
L 684 794 
z
" transform="scale(0.015625)"/>
       </defs>
       <use xlink:href="#DejaVuSans-33"/>
       <use xlink:href="#DejaVuSans-2e" transform="translate(63.623047 0)"/>
       <use xlink:href="#DejaVuSans-30" transform="translate(95.410156 0)"/>
      </g>
     </g>
    </g>
    <g id="ytick_2">
     <g id="line2d_19">
      <path d="M 108 256.281971 
L 777.6 256.281971 
" clip-path="url(#pd90dc77f7d)" style="fill: none; stroke: #b0b0b0; stroke-width: 0.8; stroke-linecap: square"/>
     </g>
     <g id="line2d_20">
      <g>
       <use xlink:href="#mf671a8ad0c" x="108" y="256.281971" style="stroke: #000000; stroke-width: 0.8"/>
      </g>
     </g>
     <g id="text_11">
      <!-- 3.1 -->
      <g transform="translate(85.096875 260.08119) scale(0.1 -0.1)">
       <use xlink:href="#DejaVuSans-33"/>
       <use xlink:href="#DejaVuSans-2e" transform="translate(63.623047 0)"/>
       <use xlink:href="#DejaVuSans-31" transform="translate(95.410156 0)"/>
      </g>
     </g>
    </g>
    <g id="ytick_3">
     <g id="line2d_21">
      <path d="M 108 189.57596 
L 777.6 189.57596 
" clip-path="url(#pd90dc77f7d)" style="fill: none; stroke: #b0b0b0; stroke-width: 0.8; stroke-linecap: square"/>
     </g>
     <g id="line2d_22">
      <g>
       <use xlink:href="#mf671a8ad0c" x="108" y="189.57596" style="stroke: #000000; stroke-width: 0.8"/>
      </g>
     </g>
     <g id="text_12">
      <!-- 3.2 -->
      <g transform="translate(85.096875 193.375179) scale(0.1 -0.1)">
       <use xlink:href="#DejaVuSans-33"/>
       <use xlink:href="#DejaVuSans-2e" transform="translate(63.623047 0)"/>
       <use xlink:href="#DejaVuSans-32" transform="translate(95.410156 0)"/>
      </g>
     </g>
    </g>
    <g id="ytick_4">
     <g id="line2d_23">
      <path d="M 108 122.869949 
L 777.6 122.869949 
" clip-path="url(#pd90dc77f7d)" style="fill: none; stroke: #b0b0b0; stroke-width: 0.8; stroke-linecap: square"/>
     </g>
     <g id="line2d_24">
      <g>
       <use xlink:href="#mf671a8ad0c" x="108" y="122.869949" style="stroke: #000000; stroke-width: 0.8"/>
      </g>
     </g>
     <g id="text_13">
      <!-- 3.3 -->
      <g transform="translate(85.096875 126.669168) scale(0.1 -0.1)">
       <use xlink:href="#DejaVuSans-33"/>
       <use xlink:href="#DejaVuSans-2e" transform="translate(63.623047 0)"/>
       <use xlink:href="#DejaVuSans-33" transform="translate(95.410156 0)"/>
      </g>
     </g>
    </g>
    <g id="ytick_5">
     <g id="line2d_25">
      <path d="M 108 56.163938 
L 777.6 56.163938 
" clip-path="url(#pd90dc77f7d)" style="fill: none; stroke: #b0b0b0; stroke-width: 0.8; stroke-linecap: square"/>
     </g>
     <g id="line2d_26">
      <g>
       <use xlink:href="#mf671a8ad0c" x="108" y="56.163938" style="stroke: #000000; stroke-width: 0.8"/>
      </g>
     </g>
     <g id="text_14">
      <!-- 3.4 -->
      <g transform="translate(85.096875 59.963157) scale(0.1 -0.1)">
       <use xlink:href="#DejaVuSans-33"/>
       <use xlink:href="#DejaVuSans-2e" transform="translate(63.623047 0)"/>
       <use xlink:href="#DejaVuSans-34" transform="translate(95.410156 0)"/>
      </g>
     </g>
    </g>
    <g id="text_15">
     <!-- Total Vehicles (millions) -->
     <g transform="translate(79.017187 276.662344) rotate(-90) scale(0.1 -0.1)">
      <defs>
       <path id="DejaVuSans-6f" d="M 1959 3097 
Q 1497 3097 1228 2736 
Q 959 2375 959 1747 
Q 959 1119 1226 758 
Q 1494 397 1959 397 
Q 2419 397 2687 759 
Q 2956 1122 2956 1747 
Q 2956 2369 2687 2733 
Q 2419 3097 1959 3097 
z
M 1959 3584 
Q 2709 3584 3137 3096 
Q 3566 2609 3566 1747 
Q 3566 888 3137 398 
Q 2709 -91 1959 -91 
Q 1206 -91 779 398 
Q 353 888 353 1747 
Q 353 2609 779 3096 
Q 1206 3584 1959 3584 
z
" transform="scale(0.015625)"/>
       <path id="DejaVuSans-74" d="M 1172 4494 
L 1172 3500 
L 2356 3500 
L 2356 3053 
L 1172 3053 
L 1172 1153 
Q 1172 725 1289 603 
Q 1406 481 1766 481 
L 2356 481 
L 2356 0 
L 1766 0 
Q 1100 0 847 248 
Q 594 497 594 1153 
L 594 3053 
L 172 3053 
L 172 3500 
L 594 3500 
L 594 4494 
L 1172 4494 
z
" transform="scale(0.015625)"/>
       <path id="DejaVuSans-6c" d="M 603 4863 
L 1178 4863 
L 1178 0 
L 603 0 
L 603 4863 
z
" transform="scale(0.015625)"/>
       <path id="DejaVuSans-56" d="M 1831 0 
L 50 4666 
L 709 4666 
L 2188 738 
L 3669 4666 
L 4325 4666 
L 2547 0 
L 1831 0 
z
" transform="scale(0.015625)"/>
       <path id="DejaVuSans-68" d="M 3513 2113 
L 3513 0 
L 2938 0 
L 2938 2094 
Q 2938 2591 2744 2837 
Q 2550 3084 2163 3084 
Q 1697 3084 1428 2787 
Q 1159 2491 1159 1978 
L 1159 0 
L 581 0 
L 581 4863 
L 1159 4863 
L 1159 2956 
Q 1366 3272 1645 3428 
Q 1925 3584 2291 3584 
Q 2894 3584 3203 3211 
Q 3513 2838 3513 2113 
z
" transform="scale(0.015625)"/>
       <path id="DejaVuSans-63" d="M 3122 3366 
L 3122 2828 
Q 2878 2963 2633 3030 
Q 2388 3097 2138 3097 
Q 1578 3097 1268 2742 
Q 959 2388 959 1747 
Q 959 1106 1268 751 
Q 1578 397 2138 397 
Q 2388 397 2633 464 
Q 2878 531 3122 666 
L 3122 134 
Q 2881 22 2623 -34 
Q 2366 -91 2075 -91 
Q 1284 -91 818 406 
Q 353 903 353 1747 
Q 353 2603 823 3093 
Q 1294 3584 2113 3584 
Q 2378 3584 2631 3529 
Q 2884 3475 3122 3366 
z
" transform="scale(0.015625)"/>
       <path id="DejaVuSans-73" d="M 2834 3397 
L 2834 2853 
Q 2591 2978 2328 3040 
Q 2066 3103 1784 3103 
Q 1356 3103 1142 2972 
Q 928 2841 928 2578 
Q 928 2378 1081 2264 
Q 1234 2150 1697 2047 
L 1894 2003 
Q 2506 1872 2764 1633 
Q 3022 1394 3022 966 
Q 3022 478 2636 193 
Q 2250 -91 1575 -91 
Q 1294 -91 989 -36 
Q 684 19 347 128 
L 347 722 
Q 666 556 975 473 
Q 1284 391 1588 391 
Q 1994 391 2212 530 
Q 2431 669 2431 922 
Q 2431 1156 2273 1281 
Q 2116 1406 1581 1522 
L 1381 1569 
Q 847 1681 609 1914 
Q 372 2147 372 2553 
Q 372 3047 722 3315 
Q 1072 3584 1716 3584 
Q 2034 3584 2315 3537 
Q 2597 3491 2834 3397 
z
" transform="scale(0.015625)"/>
       <path id="DejaVuSans-6e" d="M 3513 2113 
L 3513 0 
L 2938 0 
L 2938 2094 
Q 2938 2591 2744 2837 
Q 2550 3084 2163 3084 
Q 1697 3084 1428 2787 
Q 1159 2491 1159 1978 
L 1159 0 
L 581 0 
L 581 3500 
L 1159 3500 
L 1159 2956 
Q 1366 3272 1645 3428 
Q 1925 3584 2291 3584 
Q 2894 3584 3203 3211 
Q 3513 2838 3513 2113 
z
" transform="scale(0.015625)"/>
      </defs>
      <use xlink:href="#DejaVuSans-54"/>
      <use xlink:href="#DejaVuSans-6f" transform="translate(44.083984 0)"/>
      <use xlink:href="#DejaVuSans-74" transform="translate(105.265625 0)"/>
      <use xlink:href="#DejaVuSans-61" transform="translate(144.474609 0)"/>
      <use xlink:href="#DejaVuSans-6c" transform="translate(205.753906 0)"/>
      <use xlink:href="#DejaVuSans-20" transform="translate(233.537109 0)"/>
      <use xlink:href="#DejaVuSans-56" transform="translate(265.324219 0)"/>
      <use xlink:href="#DejaVuSans-65" transform="translate(325.982422 0)"/>
      <use xlink:href="#DejaVuSans-68" transform="translate(387.505859 0)"/>
      <use xlink:href="#DejaVuSans-69" transform="translate(450.884766 0)"/>
      <use xlink:href="#DejaVuSans-63" transform="translate(478.667969 0)"/>
      <use xlink:href="#DejaVuSans-6c" transform="translate(533.648438 0)"/>
      <use xlink:href="#DejaVuSans-65" transform="translate(561.431641 0)"/>
      <use xlink:href="#DejaVuSans-73" transform="translate(622.955078 0)"/>
      <use xlink:href="#DejaVuSans-20" transform="translate(675.054688 0)"/>
      <use xlink:href="#DejaVuSans-28" transform="translate(706.841797 0)"/>
      <use xlink:href="#DejaVuSans-6d" transform="translate(745.855469 0)"/>
      <use xlink:href="#DejaVuSans-69" transform="translate(843.267578 0)"/>
      <use xlink:href="#DejaVuSans-6c" transform="translate(871.050781 0)"/>
      <use xlink:href="#DejaVuSans-6c" transform="translate(898.833984 0)"/>
      <use xlink:href="#DejaVuSans-69" transform="translate(926.617188 0)"/>
      <use xlink:href="#DejaVuSans-6f" transform="translate(954.400391 0)"/>
      <use xlink:href="#DejaVuSans-6e" transform="translate(1015.582031 0)"/>
      <use xlink:href="#DejaVuSans-73" transform="translate(1078.960938 0)"/>
      <use xlink:href="#DejaVuSans-29" transform="translate(1131.060547 0)"/>
     </g>
    </g>
   </g>
   <g id="line2d_27">
    <defs>
     <path id="m6f2541dbcb" d="M 0 1.5 
C 0.397805 1.5 0.77937 1.341951 1.06066 1.06066 
C 1.341951 0.77937 1.5 0.397805 1.5 0 
C 1.5 -0.397805 1.341951 -0.77937 1.06066 -1.06066 
C 0.77937 -1.341951 0.397805 -1.5 0 -1.5 
C -0.397805 -1.5 -0.77937 -1.341951 -1.06066 -1.06066 
C -1.341951 -0.77937 -1.5 -0.397805 -1.5 0 
C -1.5 0.397805 -1.341951 0.77937 -1.06066 1.06066 
C -0.77937 1.341951 -0.397805 1.5 0 1.5 
z
" style="stroke: #000000"/>
    </defs>
    <g clip-path="url(#pd90dc77f7d)">
     <use xlink:href="#m6f2541dbcb" x="138.436364" y="369.36" style="stroke: #000000"/>
     <use xlink:href="#m6f2541dbcb" x="145.770427" y="366.984599" style="stroke: #000000"/>
     <use xlink:href="#m6f2541dbcb" x="153.104491" y="362.063029" style="stroke: #000000"/>
     <use xlink:href="#m6f2541dbcb" x="160.438554" y="355.341732" style="stroke: #000000"/>
     <use xlink:href="#m6f2541dbcb" x="167.772618" y="347.60717" style="stroke: #000000"/>
     <use xlink:href="#m6f2541dbcb" x="175.106681" y="340.517655" style="stroke: #000000"/>
     <use xlink:href="#m6f2541dbcb" x="182.440745" y="338.933387" style="stroke: #000000"/>
     <use xlink:href="#m6f2541dbcb" x="189.774808" y="332.635673" style="stroke: #000000"/>
     <use xlink:href="#m6f2541dbcb" x="197.108872" y="334.188589" style="stroke: #000000"/>
     <use xlink:href="#m6f2541dbcb" x="204.442935" y="334.679545" style="stroke: #000000"/>
     <use xlink:href="#m6f2541dbcb" x="211.776999" y="333.307402" style="stroke: #000000"/>
     <use xlink:href="#m6f2541dbcb" x="219.111062" y="333.578896" style="stroke: #000000"/>
     <use xlink:href="#m6f2541dbcb" x="226.445126" y="330.704534" style="stroke: #000000"/>
     <use xlink:href="#m6f2541dbcb" x="233.779189" y="328.805414" style="stroke: #000000"/>
     <use xlink:href="#m6f2541dbcb" x="241.113253" y="321.097534" style="stroke: #000000"/>
     <use xlink:href="#m6f2541dbcb" x="248.447317" y="317.568119" style="stroke: #000000"/>
     <use xlink:href="#m6f2541dbcb" x="255.78138" y="311.942801" style="stroke: #000000"/>
     <use xlink:href="#m6f2541dbcb" x="263.115444" y="305.773162" style="stroke: #000000"/>
     <use xlink:href="#m6f2541dbcb" x="270.449507" y="304.712537" style="stroke: #000000"/>
     <use xlink:href="#m6f2541dbcb" x="277.783571" y="300.125831" style="stroke: #000000"/>
     <use xlink:href="#m6f2541dbcb" x="285.117634" y="300.65481" style="stroke: #000000"/>
     <use xlink:href="#m6f2541dbcb" x="292.451698" y="302.329131" style="stroke: #000000"/>
     <use xlink:href="#m6f2541dbcb" x="299.785761" y="301.562012" style="stroke: #000000"/>
     <use xlink:href="#m6f2541dbcb" x="307.119825" y="301.582023" style="stroke: #000000"/>
     <use xlink:href="#m6f2541dbcb" x="314.453888" y="298.831735" style="stroke: #000000"/>
     <use xlink:href="#m6f2541dbcb" x="321.787952" y="297.895182" style="stroke: #000000"/>
     <use xlink:href="#m6f2541dbcb" x="329.122015" y="298.837071" style="stroke: #000000"/>
     <use xlink:href="#m6f2541dbcb" x="336.456079" y="296.074775" style="stroke: #000000"/>
     <use xlink:href="#m6f2541dbcb" x="343.790142" y="290.595543" style="stroke: #000000"/>
     <use xlink:href="#m6f2541dbcb" x="351.124206" y="282.301318" style="stroke: #000000"/>
     <use xlink:href="#m6f2541dbcb" x="358.458269" y="274.648804" style="stroke: #000000"/>
     <use xlink:href="#m6f2541dbcb" x="365.792333" y="268.683286" style="stroke: #000000"/>
     <use xlink:href="#m6f2541dbcb" x="373.126396" y="265.982359" style="stroke: #000000"/>
     <use xlink:href="#m6f2541dbcb" x="380.46046" y="264.67759" style="stroke: #000000"/>
     <use xlink:href="#m6f2541dbcb" x="387.794524" y="261.819904" style="stroke: #000000"/>
     <use xlink:href="#m6f2541dbcb" x="395.128587" y="256.133884" style="stroke: #000000"/>
     <use xlink:href="#m6f2541dbcb" x="402.462651" y="230.155895" style="stroke: #000000"/>
     <use xlink:href="#m6f2541dbcb" x="409.796714" y="229.895075" style="stroke: #000000"/>
     <use xlink:href="#m6f2541dbcb" x="417.130778" y="219.983896" style="stroke: #000000"/>
     <use xlink:href="#m6f2541dbcb" x="424.464841" y="214.808176" style="stroke: #000000"/>
     <use xlink:href="#m6f2541dbcb" x="431.798905" y="207.476518" style="stroke: #000000"/>
     <use xlink:href="#m6f2541dbcb" x="439.132968" y="199.038875" style="stroke: #000000"/>
     <use xlink:href="#m6f2541dbcb" x="446.467032" y="195.25531" style="stroke: #000000"/>
     <use xlink:href="#m6f2541dbcb" x="453.801095" y="189.942843" style="stroke: #000000"/>
     <use xlink:href="#m6f2541dbcb" x="461.135159" y="189.016964" style="stroke: #000000"/>
     <use xlink:href="#m6f2541dbcb" x="468.469222" y="190.377767" style="stroke: #000000"/>
     <use xlink:href="#m6f2541dbcb" x="475.803286" y="190.333741" style="stroke: #000000"/>
     <use xlink:href="#m6f2541dbcb" x="483.137349" y="186.701598" style="stroke: #000000"/>
     <use xlink:href="#m6f2541dbcb" x="490.471413" y="187.766226" style="stroke: #000000"/>
     <use xlink:href="#m6f2541dbcb" x="497.805476" y="187.094497" style="stroke: #000000"/>
     <use xlink:href="#m6f2541dbcb" x="505.13954" y="183.224214" style="stroke: #000000"/>
     <use xlink:href="#m6f2541dbcb" x="512.473604" y="179.303902" style="stroke: #000000"/>
     <use xlink:href="#m6f2541dbcb" x="519.807667" y="176.621653" style="stroke: #000000"/>
     <use xlink:href="#m6f2541dbcb" x="527.141731" y="173.80199" style="stroke: #000000"/>
     <use xlink:href="#m6f2541dbcb" x="534.475794" y="174.328967" style="stroke: #000000"/>
     <use xlink:href="#m6f2541dbcb" x="541.809858" y="173.817332" style="stroke: #000000"/>
     <use xlink:href="#m6f2541dbcb" x="549.143921" y="177.316063" style="stroke: #000000"/>
     <use xlink:href="#m6f2541dbcb" x="556.477985" y="182.622526" style="stroke: #000000"/>
     <use xlink:href="#m6f2541dbcb" x="563.812048" y="184.667065" style="stroke: #000000"/>
     <use xlink:href="#m6f2541dbcb" x="571.146112" y="183.231552" style="stroke: #000000"/>
     <use xlink:href="#m6f2541dbcb" x="578.480175" y="185.781723" style="stroke: #000000"/>
     <use xlink:href="#m6f2541dbcb" x="585.814239" y="186.529497" style="stroke: #000000"/>
     <use xlink:href="#m6f2541dbcb" x="593.148302" y="182.353701" style="stroke: #000000"/>
     <use xlink:href="#m6f2541dbcb" x="600.482366" y="178.334663" style="stroke: #000000"/>
     <use xlink:href="#m6f2541dbcb" x="607.816429" y="175.392261" style="stroke: #000000"/>
     <use xlink:href="#m6f2541dbcb" x="615.150493" y="170.712835" style="stroke: #000000"/>
     <use xlink:href="#m6f2541dbcb" x="622.484556" y="171.109068" style="stroke: #000000"/>
     <use xlink:href="#m6f2541dbcb" x="629.81862" y="170.341282" style="stroke: #000000"/>
     <use xlink:href="#m6f2541dbcb" x="637.152683" y="171.840166" style="stroke: #000000"/>
     <use xlink:href="#m6f2541dbcb" x="644.486747" y="175.861872" style="stroke: #000000"/>
     <use xlink:href="#m6f2541dbcb" x="651.820811" y="174.954003" style="stroke: #000000"/>
     <use xlink:href="#m6f2541dbcb" x="659.154874" y="171.204458" style="stroke: #000000"/>
    </g>
   </g>
   <g id="line2d_28">
    <defs>
     <path id="m9997f79816" d="M 0 3 
C 0.795609 3 1.55874 2.683901 2.12132 2.12132 
C 2.683901 1.55874 3 0.795609 3 0 
C 3 -0.795609 2.683901 -1.55874 2.12132 -2.12132 
C 1.55874 -2.683901 0.795609 -3 0 -3 
C -0.795609 -3 -1.55874 -2.683901 -2.12132 -2.12132 
C -2.683901 -1.55874 -3 -0.795609 -3 0 
C -3 0.795609 -2.683901 1.55874 -2.12132 2.12132 
C -1.55874 2.683901 -0.795609 3 0 3 
z
" style="stroke: #000000"/>
    </defs>
    <g clip-path="url(#pd90dc77f7d)">
     <use xlink:href="#m9997f79816" x="666.488938" y="173.699263" style="fill-opacity: 0; stroke: #000000"/>
     <use xlink:href="#m9997f79816" x="673.823001" y="173.696595" style="fill-opacity: 0; stroke: #000000"/>
     <use xlink:href="#m9997f79816" x="681.157065" y="168.779027" style="fill-opacity: 0; stroke: #000000"/>
     <use xlink:href="#m9997f79816" x="688.491128" y="164.475156" style="fill-opacity: 0; stroke: #000000"/>
     <use xlink:href="#m9997f79816" x="695.825192" y="159.817742" style="fill-opacity: 0; stroke: #000000"/>
     <use xlink:href="#m9997f79816" x="703.159255" y="152.838959" style="fill-opacity: 0; stroke: #000000"/>
     <use xlink:href="#m9997f79816" x="710.493319" y="153.175157" style="fill-opacity: 0; stroke: #000000"/>
     <use xlink:href="#m9997f79816" x="717.827382" y="150.84645" style="fill-opacity: 0; stroke: #000000"/>
     <use xlink:href="#m9997f79816" x="725.161446" y="151.877058" style="fill-opacity: 0; stroke: #000000"/>
     <use xlink:href="#m9997f79816" x="732.495509" y="154.705393" style="fill-opacity: 0; stroke: #000000"/>
     <use xlink:href="#m9997f79816" x="739.829573" y="154.182418" style="fill-opacity: 0; stroke: #000000"/>
     <use xlink:href="#m9997f79816" x="747.163636" y="150.869798" style="fill-opacity: 0; stroke: #000000"/>
    </g>
   </g>
   <g id="line2d_29">
    <path d="M 666.488938 107.093335 
L 673.823001 103.44485 
L 681.157065 99.796365 
L 688.491128 96.14788 
L 695.825192 92.499395 
L 703.159255 88.85091 
L 710.493319 85.202425 
L 717.827382 81.55394 
L 725.161446 77.905455 
L 732.495509 74.25697 
L 739.829573 70.608485 
L 747.163636 66.96 
" clip-path="url(#pd90dc77f7d)" style="fill: none; stroke-dasharray: 5.55,2.4; stroke-dashoffset: 0; stroke: #ff0000; stroke-width: 1.5"/>
   </g>
   <g id="line2d_30">
    <path d="M 666.488938 138.511514 
L 673.823001 135.480116 
L 681.157065 132.448718 
L 688.491128 129.417321 
L 695.825192 126.385923 
L 703.159255 123.354526 
L 710.493319 120.323128 
L 717.827382 117.29173 
L 725.161446 114.260333 
L 732.495509 111.228935 
L 739.829573 108.197537 
L 747.163636 105.16614 
" clip-path="url(#pd90dc77f7d)" style="fill: none; stroke: #008000; stroke-width: 1.5; stroke-linecap: square"/>
   </g>
   <g id="patch_3">
    <path d="M 108 384.48 
L 108 51.84 
" style="fill: none; stroke: #000000; stroke-width: 0.8; stroke-linejoin: miter; stroke-linecap: square"/>
   </g>
   <g id="patch_4">
    <path d="M 777.6 384.48 
L 777.6 51.84 
" style="fill: none; stroke: #000000; stroke-width: 0.8; stroke-linejoin: miter; stroke-linecap: square"/>
   </g>
   <g id="patch_5">
    <path d="M 108 384.48 
L 777.6 384.48 
" style="fill: none; stroke: #000000; stroke-width: 0.8; stroke-linejoin: miter; stroke-linecap: square"/>
   </g>
   <g id="patch_6">
    <path d="M 108 51.84 
L 777.6 51.84 
" style="fill: none; stroke: #000000; stroke-width: 0.8; stroke-linejoin: miter; stroke-linecap: square"/>
   </g>
   <g id="text_16">
    <!-- Comparison of Global (OLS) and Local (WLS) Linear Trend Models -->
    <g transform="translate(247.422188 45.84) scale(0.12 -0.12)">
     <defs>
      <path id="DejaVuSans-43" d="M 4122 4306 
L 4122 3641 
Q 3803 3938 3442 4084 
Q 3081 4231 2675 4231 
Q 1875 4231 1450 3742 
Q 1025 3253 1025 2328 
Q 1025 1406 1450 917 
Q 1875 428 2675 428 
Q 3081 428 3442 575 
Q 3803 722 4122 1019 
L 4122 359 
Q 3791 134 3420 21 
Q 3050 -91 2638 -91 
Q 1578 -91 968 557 
Q 359 1206 359 2328 
Q 359 3453 968 4101 
Q 1578 4750 2638 4750 
Q 3056 4750 3426 4639 
Q 3797 4528 4122 4306 
z
" transform="scale(0.015625)"/>
      <path id="DejaVuSans-70" d="M 1159 525 
L 1159 -1331 
L 581 -1331 
L 581 3500 
L 1159 3500 
L 1159 2969 
Q 1341 3281 1617 3432 
Q 1894 3584 2278 3584 
Q 2916 3584 3314 3078 
Q 3713 2572 3713 1747 
Q 3713 922 3314 415 
Q 2916 -91 2278 -91 
Q 1894 -91 1617 61 
Q 1341 213 1159 525 
z
M 3116 1747 
Q 3116 2381 2855 2742 
Q 2594 3103 2138 3103 
Q 1681 3103 1420 2742 
Q 1159 2381 1159 1747 
Q 1159 1113 1420 752 
Q 1681 391 2138 391 
Q 2594 391 2855 752 
Q 3116 1113 3116 1747 
z
" transform="scale(0.015625)"/>
      <path id="DejaVuSans-66" d="M 2375 4863 
L 2375 4384 
L 1825 4384 
Q 1516 4384 1395 4259 
Q 1275 4134 1275 3809 
L 1275 3500 
L 2222 3500 
L 2222 3053 
L 1275 3053 
L 1275 0 
L 697 0 
L 697 3053 
L 147 3053 
L 147 3500 
L 697 3500 
L 697 3744 
Q 697 4328 969 4595 
Q 1241 4863 1831 4863 
L 2375 4863 
z
" transform="scale(0.015625)"/>
      <path id="DejaVuSans-47" d="M 3809 666 
L 3809 1919 
L 2778 1919 
L 2778 2438 
L 4434 2438 
L 4434 434 
Q 4069 175 3628 42 
Q 3188 -91 2688 -91 
Q 1594 -91 976 548 
Q 359 1188 359 2328 
Q 359 3472 976 4111 
Q 1594 4750 2688 4750 
Q 3144 4750 3555 4637 
Q 3966 4525 4313 4306 
L 4313 3634 
Q 3963 3931 3569 4081 
Q 3175 4231 2741 4231 
Q 1884 4231 1454 3753 
Q 1025 3275 1025 2328 
Q 1025 1384 1454 906 
Q 1884 428 2741 428 
Q 3075 428 3337 486 
Q 3600 544 3809 666 
z
" transform="scale(0.015625)"/>
      <path id="DejaVuSans-62" d="M 3116 1747 
Q 3116 2381 2855 2742 
Q 2594 3103 2138 3103 
Q 1681 3103 1420 2742 
Q 1159 2381 1159 1747 
Q 1159 1113 1420 752 
Q 1681 391 2138 391 
Q 2594 391 2855 752 
Q 3116 1113 3116 1747 
z
M 1159 2969 
Q 1341 3281 1617 3432 
Q 1894 3584 2278 3584 
Q 2916 3584 3314 3078 
Q 3713 2572 3713 1747 
Q 3713 922 3314 415 
Q 2916 -91 2278 -91 
Q 1894 -91 1617 61 
Q 1341 213 1159 525 
L 1159 0 
L 581 0 
L 581 4863 
L 1159 4863 
L 1159 2969 
z
" transform="scale(0.015625)"/>
      <path id="DejaVuSans-4f" d="M 2522 4238 
Q 1834 4238 1429 3725 
Q 1025 3213 1025 2328 
Q 1025 1447 1429 934 
Q 1834 422 2522 422 
Q 3209 422 3611 934 
Q 4013 1447 4013 2328 
Q 4013 3213 3611 3725 
Q 3209 4238 2522 4238 
z
M 2522 4750 
Q 3503 4750 4090 4092 
Q 4678 3434 4678 2328 
Q 4678 1225 4090 567 
Q 3503 -91 2522 -91 
Q 1538 -91 948 565 
Q 359 1222 359 2328 
Q 359 3434 948 4092 
Q 1538 4750 2522 4750 
z
" transform="scale(0.015625)"/>
      <path id="DejaVuSans-4c" d="M 628 4666 
L 1259 4666 
L 1259 531 
L 3531 531 
L 3531 0 
L 628 0 
L 628 4666 
z
" transform="scale(0.015625)"/>
      <path id="DejaVuSans-53" d="M 3425 4513 
L 3425 3897 
Q 3066 4069 2747 4153 
Q 2428 4238 2131 4238 
Q 1616 4238 1336 4038 
Q 1056 3838 1056 3469 
Q 1056 3159 1242 3001 
Q 1428 2844 1947 2747 
L 2328 2669 
Q 3034 2534 3370 2195 
Q 3706 1856 3706 1288 
Q 3706 609 3251 259 
Q 2797 -91 1919 -91 
Q 1588 -91 1214 -16 
Q 841 59 441 206 
L 441 856 
Q 825 641 1194 531 
Q 1563 422 1919 422 
Q 2459 422 2753 634 
Q 3047 847 3047 1241 
Q 3047 1584 2836 1778 
Q 2625 1972 2144 2069 
L 1759 2144 
Q 1053 2284 737 2584 
Q 422 2884 422 3419 
Q 422 4038 858 4394 
Q 1294 4750 2059 4750 
Q 2388 4750 2728 4690 
Q 3069 4631 3425 4513 
z
" transform="scale(0.015625)"/>
      <path id="DejaVuSans-64" d="M 2906 2969 
L 2906 4863 
L 3481 4863 
L 3481 0 
L 2906 0 
L 2906 525 
Q 2725 213 2448 61 
Q 2172 -91 1784 -91 
Q 1150 -91 751 415 
Q 353 922 353 1747 
Q 353 2572 751 3078 
Q 1150 3584 1784 3584 
Q 2172 3584 2448 3432 
Q 2725 3281 2906 2969 
z
M 947 1747 
Q 947 1113 1208 752 
Q 1469 391 1925 391 
Q 2381 391 2643 752 
Q 2906 1113 2906 1747 
Q 2906 2381 2643 2742 
Q 2381 3103 1925 3103 
Q 1469 3103 1208 2742 
Q 947 2381 947 1747 
z
" transform="scale(0.015625)"/>
      <path id="DejaVuSans-57" d="M 213 4666 
L 850 4666 
L 1831 722 
L 2809 4666 
L 3519 4666 
L 4500 722 
L 5478 4666 
L 6119 4666 
L 4947 0 
L 4153 0 
L 3169 4050 
L 2175 0 
L 1381 0 
L 213 4666 
z
" transform="scale(0.015625)"/>
      <path id="DejaVuSans-4d" d="M 628 4666 
L 1569 4666 
L 2759 1491 
L 3956 4666 
L 4897 4666 
L 4897 0 
L 4281 0 
L 4281 4097 
L 3078 897 
L 2444 897 
L 1241 4097 
L 1241 0 
L 628 0 
L 628 4666 
z
" transform="scale(0.015625)"/>
     </defs>
     <use xlink:href="#DejaVuSans-43"/>
     <use xlink:href="#DejaVuSans-6f" transform="translate(69.824219 0)"/>
     <use xlink:href="#DejaVuSans-6d" transform="translate(131.005859 0)"/>
     <use xlink:href="#DejaVuSans-70" transform="translate(228.417969 0)"/>
     <use xlink:href="#DejaVuSans-61" transform="translate(291.894531 0)"/>
     <use xlink:href="#DejaVuSans-72" transform="translate(353.173828 0)"/>
     <use xlink:href="#DejaVuSans-69" transform="translate(394.287109 0)"/>
     <use xlink:href="#DejaVuSans-73" transform="translate(422.070312 0)"/>
     <use xlink:href="#DejaVuSans-6f" transform="translate(474.169922 0)"/>
     <use xlink:href="#DejaVuSans-6e" transform="translate(535.351562 0)"/>
     <use xlink:href="#DejaVuSans-20" transform="translate(598.730469 0)"/>
     <use xlink:href="#DejaVuSans-6f" transform="translate(630.517578 0)"/>
     <use xlink:href="#DejaVuSans-66" transform="translate(691.699219 0)"/>
     <use xlink:href="#DejaVuSans-20" transform="translate(726.904297 0)"/>
     <use xlink:href="#DejaVuSans-47" transform="translate(758.691406 0)"/>
     <use xlink:href="#DejaVuSans-6c" transform="translate(836.181641 0)"/>
     <use xlink:href="#DejaVuSans-6f" transform="translate(863.964844 0)"/>
     <use xlink:href="#DejaVuSans-62" transform="translate(925.146484 0)"/>
     <use xlink:href="#DejaVuSans-61" transform="translate(988.623047 0)"/>
     <use xlink:href="#DejaVuSans-6c" transform="translate(1049.902344 0)"/>
     <use xlink:href="#DejaVuSans-20" transform="translate(1077.685547 0)"/>
     <use xlink:href="#DejaVuSans-28" transform="translate(1109.472656 0)"/>
     <use xlink:href="#DejaVuSans-4f" transform="translate(1148.486328 0)"/>
     <use xlink:href="#DejaVuSans-4c" transform="translate(1227.197266 0)"/>
     <use xlink:href="#DejaVuSans-53" transform="translate(1282.910156 0)"/>
     <use xlink:href="#DejaVuSans-29" transform="translate(1346.386719 0)"/>
     <use xlink:href="#DejaVuSans-20" transform="translate(1385.400391 0)"/>
     <use xlink:href="#DejaVuSans-61" transform="translate(1417.1875 0)"/>
     <use xlink:href="#DejaVuSans-6e" transform="translate(1478.466797 0)"/>
     <use xlink:href="#DejaVuSans-64" transform="translate(1541.845703 0)"/>
     <use xlink:href="#DejaVuSans-20" transform="translate(1605.322266 0)"/>
     <use xlink:href="#DejaVuSans-4c" transform="translate(1637.109375 0)"/>
     <use xlink:href="#DejaVuSans-6f" transform="translate(1691.072266 0)"/>
     <use xlink:href="#DejaVuSans-63" transform="translate(1752.253906 0)"/>
     <use xlink:href="#DejaVuSans-61" transform="translate(1807.234375 0)"/>
     <use xlink:href="#DejaVuSans-6c" transform="translate(1868.513672 0)"/>
     <use xlink:href="#DejaVuSans-20" transform="translate(1896.296875 0)"/>
     <use xlink:href="#DejaVuSans-28" transform="translate(1928.083984 0)"/>
     <use xlink:href="#DejaVuSans-57" transform="translate(1967.097656 0)"/>
     <use xlink:href="#DejaVuSans-4c" transform="translate(2065.974609 0)"/>
     <use xlink:href="#DejaVuSans-53" transform="translate(2121.6875 0)"/>
     <use xlink:href="#DejaVuSans-29" transform="translate(2185.164062 0)"/>
     <use xlink:href="#DejaVuSans-20" transform="translate(2224.177734 0)"/>
     <use xlink:href="#DejaVuSans-4c" transform="translate(2255.964844 0)"/>
     <use xlink:href="#DejaVuSans-69" transform="translate(2311.677734 0)"/>
     <use xlink:href="#DejaVuSans-6e" transform="translate(2339.460938 0)"/>
     <use xlink:href="#DejaVuSans-65" transform="translate(2402.839844 0)"/>
     <use xlink:href="#DejaVuSans-61" transform="translate(2464.363281 0)"/>
     <use xlink:href="#DejaVuSans-72" transform="translate(2525.642578 0)"/>
     <use xlink:href="#DejaVuSans-20" transform="translate(2566.755859 0)"/>
     <use xlink:href="#DejaVuSans-54" transform="translate(2598.542969 0)"/>
     <use xlink:href="#DejaVuSans-72" transform="translate(2644.876953 0)"/>
     <use xlink:href="#DejaVuSans-65" transform="translate(2683.740234 0)"/>
     <use xlink:href="#DejaVuSans-6e" transform="translate(2745.263672 0)"/>
     <use xlink:href="#DejaVuSans-64" transform="translate(2808.642578 0)"/>
     <use xlink:href="#DejaVuSans-20" transform="translate(2872.119141 0)"/>
     <use xlink:href="#DejaVuSans-4d" transform="translate(2903.90625 0)"/>
     <use xlink:href="#DejaVuSans-6f" transform="translate(2990.185547 0)"/>
     <use xlink:href="#DejaVuSans-64" transform="translate(3051.367188 0)"/>
     <use xlink:href="#DejaVuSans-65" transform="translate(3114.84375 0)"/>
     <use xlink:href="#DejaVuSans-6c" transform="translate(3176.367188 0)"/>
     <use xlink:href="#DejaVuSans-73" transform="translate(3204.150391 0)"/>
    </g>
   </g>
   <g id="legend_1">
    <g id="patch_7">
     <path d="M 115 118.5525 
L 298.8 118.5525 
Q 300.8 118.5525 300.8 116.5525 
L 300.8 58.84 
Q 300.8 56.84 298.8 56.84 
L 115 56.84 
Q 113 56.84 113 58.84 
L 113 116.5525 
Q 113 118.5525 115 118.5525 
z
" style="fill: #ffffff; opacity: 0.8; stroke: #cccccc; stroke-linejoin: miter"/>
    </g>
    <g id="line2d_31">
     <g>
      <use xlink:href="#m6f2541dbcb" x="127" y="64.938438" style="stroke: #000000"/>
     </g>
    </g>
    <g id="text_17">
     <!-- Training Data -->
     <g transform="translate(145 68.438438) scale(0.1 -0.1)">
      <defs>
       <path id="DejaVuSans-67" d="M 2906 1791 
Q 2906 2416 2648 2759 
Q 2391 3103 1925 3103 
Q 1463 3103 1205 2759 
Q 947 2416 947 1791 
Q 947 1169 1205 825 
Q 1463 481 1925 481 
Q 2391 481 2648 825 
Q 2906 1169 2906 1791 
z
M 3481 434 
Q 3481 -459 3084 -895 
Q 2688 -1331 1869 -1331 
Q 1566 -1331 1297 -1286 
Q 1028 -1241 775 -1147 
L 775 -588 
Q 1028 -725 1275 -790 
Q 1522 -856 1778 -856 
Q 2344 -856 2625 -561 
Q 2906 -266 2906 331 
L 2906 616 
Q 2728 306 2450 153 
Q 2172 0 1784 0 
Q 1141 0 747 490 
Q 353 981 353 1791 
Q 353 2603 747 3093 
Q 1141 3584 1784 3584 
Q 2172 3584 2450 3431 
Q 2728 3278 2906 2969 
L 2906 3500 
L 3481 3500 
L 3481 434 
z
" transform="scale(0.015625)"/>
       <path id="DejaVuSans-44" d="M 1259 4147 
L 1259 519 
L 2022 519 
Q 2988 519 3436 956 
Q 3884 1394 3884 2338 
Q 3884 3275 3436 3711 
Q 2988 4147 2022 4147 
L 1259 4147 
z
M 628 4666 
L 1925 4666 
Q 3281 4666 3915 4102 
Q 4550 3538 4550 2338 
Q 4550 1131 3912 565 
Q 3275 0 1925 0 
L 628 0 
L 628 4666 
z
" transform="scale(0.015625)"/>
      </defs>
      <use xlink:href="#DejaVuSans-54"/>
      <use xlink:href="#DejaVuSans-72" transform="translate(46.333984 0)"/>
      <use xlink:href="#DejaVuSans-61" transform="translate(87.447266 0)"/>
      <use xlink:href="#DejaVuSans-69" transform="translate(148.726562 0)"/>
      <use xlink:href="#DejaVuSans-6e" transform="translate(176.509766 0)"/>
      <use xlink:href="#DejaVuSans-69" transform="translate(239.888672 0)"/>
      <use xlink:href="#DejaVuSans-6e" transform="translate(267.671875 0)"/>
      <use xlink:href="#DejaVuSans-67" transform="translate(331.050781 0)"/>
      <use xlink:href="#DejaVuSans-20" transform="translate(394.527344 0)"/>
      <use xlink:href="#DejaVuSans-44" transform="translate(426.314453 0)"/>
      <use xlink:href="#DejaVuSans-61" transform="translate(503.316406 0)"/>
      <use xlink:href="#DejaVuSans-74" transform="translate(564.595703 0)"/>
      <use xlink:href="#DejaVuSans-61" transform="translate(603.804688 0)"/>
     </g>
    </g>
    <g id="line2d_32">
     <g>
      <use xlink:href="#m9997f79816" x="127" y="79.616563" style="fill-opacity: 0; stroke: #000000"/>
     </g>
    </g>
    <g id="text_18">
     <!-- Actual Test Data -->
     <g transform="translate(145 83.116563) scale(0.1 -0.1)">
      <defs>
       <path id="DejaVuSans-41" d="M 2188 4044 
L 1331 1722 
L 3047 1722 
L 2188 4044 
z
M 1831 4666 
L 2547 4666 
L 4325 0 
L 3669 0 
L 3244 1197 
L 1141 1197 
L 716 0 
L 50 0 
L 1831 4666 
z
" transform="scale(0.015625)"/>
       <path id="DejaVuSans-75" d="M 544 1381 
L 544 3500 
L 1119 3500 
L 1119 1403 
Q 1119 906 1312 657 
Q 1506 409 1894 409 
Q 2359 409 2629 706 
Q 2900 1003 2900 1516 
L 2900 3500 
L 3475 3500 
L 3475 0 
L 2900 0 
L 2900 538 
Q 2691 219 2414 64 
Q 2138 -91 1772 -91 
Q 1169 -91 856 284 
Q 544 659 544 1381 
z
M 1991 3584 
L 1991 3584 
z
" transform="scale(0.015625)"/>
      </defs>
      <use xlink:href="#DejaVuSans-41"/>
      <use xlink:href="#DejaVuSans-63" transform="translate(66.658203 0)"/>
      <use xlink:href="#DejaVuSans-74" transform="translate(121.638672 0)"/>
      <use xlink:href="#DejaVuSans-75" transform="translate(160.847656 0)"/>
      <use xlink:href="#DejaVuSans-61" transform="translate(224.226562 0)"/>
      <use xlink:href="#DejaVuSans-6c" transform="translate(285.505859 0)"/>
      <use xlink:href="#DejaVuSans-20" transform="translate(313.289062 0)"/>
      <use xlink:href="#DejaVuSans-54" transform="translate(345.076172 0)"/>
      <use xlink:href="#DejaVuSans-65" transform="translate(389.160156 0)"/>
      <use xlink:href="#DejaVuSans-73" transform="translate(450.683594 0)"/>
      <use xlink:href="#DejaVuSans-74" transform="translate(502.783203 0)"/>
      <use xlink:href="#DejaVuSans-20" transform="translate(541.992188 0)"/>
      <use xlink:href="#DejaVuSans-44" transform="translate(573.779297 0)"/>
      <use xlink:href="#DejaVuSans-61" transform="translate(650.78125 0)"/>
      <use xlink:href="#DejaVuSans-74" transform="translate(712.060547 0)"/>
      <use xlink:href="#DejaVuSans-61" transform="translate(751.269531 0)"/>
     </g>
    </g>
    <g id="line2d_33">
     <path d="M 117 94.294688 
L 127 94.294688 
L 137 94.294688 
" style="fill: none; stroke-dasharray: 5.55,2.4; stroke-dashoffset: 0; stroke: #ff0000; stroke-width: 1.5"/>
    </g>
    <g id="text_19">
     <!-- OLS Forecast (Global) -->
     <g transform="translate(145 97.794688) scale(0.1 -0.1)">
      <defs>
       <path id="DejaVuSans-46" d="M 628 4666 
L 3309 4666 
L 3309 4134 
L 1259 4134 
L 1259 2759 
L 3109 2759 
L 3109 2228 
L 1259 2228 
L 1259 0 
L 628 0 
L 628 4666 
z
" transform="scale(0.015625)"/>
      </defs>
      <use xlink:href="#DejaVuSans-4f"/>
      <use xlink:href="#DejaVuSans-4c" transform="translate(78.710938 0)"/>
      <use xlink:href="#DejaVuSans-53" transform="translate(134.423828 0)"/>
      <use xlink:href="#DejaVuSans-20" transform="translate(197.900391 0)"/>
      <use xlink:href="#DejaVuSans-46" transform="translate(229.6875 0)"/>
      <use xlink:href="#DejaVuSans-6f" transform="translate(283.582031 0)"/>
      <use xlink:href="#DejaVuSans-72" transform="translate(344.763672 0)"/>
      <use xlink:href="#DejaVuSans-65" transform="translate(383.626953 0)"/>
      <use xlink:href="#DejaVuSans-63" transform="translate(445.150391 0)"/>
      <use xlink:href="#DejaVuSans-61" transform="translate(500.130859 0)"/>
      <use xlink:href="#DejaVuSans-73" transform="translate(561.410156 0)"/>
      <use xlink:href="#DejaVuSans-74" transform="translate(613.509766 0)"/>
      <use xlink:href="#DejaVuSans-20" transform="translate(652.71875 0)"/>
      <use xlink:href="#DejaVuSans-28" transform="translate(684.505859 0)"/>
      <use xlink:href="#DejaVuSans-47" transform="translate(723.519531 0)"/>
      <use xlink:href="#DejaVuSans-6c" transform="translate(801.009766 0)"/>
      <use xlink:href="#DejaVuSans-6f" transform="translate(828.792969 0)"/>
      <use xlink:href="#DejaVuSans-62" transform="translate(889.974609 0)"/>
      <use xlink:href="#DejaVuSans-61" transform="translate(953.451172 0)"/>
      <use xlink:href="#DejaVuSans-6c" transform="translate(1014.730469 0)"/>
      <use xlink:href="#DejaVuSans-29" transform="translate(1042.513672 0)"/>
     </g>
    </g>
    <g id="line2d_34">
     <path d="M 117 108.972813 
L 127 108.972813 
L 137 108.972813 
" style="fill: none; stroke: #008000; stroke-width: 1.5; stroke-linecap: square"/>
    </g>
    <g id="text_20">
     <!-- WLS Forecast (Local, $\lambda=0.99$) -->
     <g transform="translate(145 112.472813) scale(0.1 -0.1)">
      <defs>
       <path id="DejaVuSans-2c" d="M 750 794 
L 1409 794 
L 1409 256 
L 897 -744 
L 494 -744 
L 750 256 
L 750 794 
z
" transform="scale(0.015625)"/>
       <path id="DejaVuSans-Oblique-3bb" d="M 2350 4316 
L 3125 0 
L 2516 0 
L 2038 2588 
L 328 0 
L -281 0 
L 1903 3356 
L 1794 3975 
Q 1725 4369 1391 4369 
L 1091 4369 
L 1184 4863 
L 1550 4856 
Q 2253 4847 2350 4316 
z
" transform="scale(0.015625)"/>
       <path id="DejaVuSans-3d" d="M 678 2906 
L 4684 2906 
L 4684 2381 
L 678 2381 
L 678 2906 
z
M 678 1631 
L 4684 1631 
L 4684 1100 
L 678 1100 
L 678 1631 
z
" transform="scale(0.015625)"/>
      </defs>
      <use xlink:href="#DejaVuSans-57" transform="translate(0 0.015625)"/>
      <use xlink:href="#DejaVuSans-4c" transform="translate(98.876953 0.015625)"/>
      <use xlink:href="#DejaVuSans-53" transform="translate(154.589844 0.015625)"/>
      <use xlink:href="#DejaVuSans-20" transform="translate(218.066406 0.015625)"/>
      <use xlink:href="#DejaVuSans-46" transform="translate(249.853516 0.015625)"/>
      <use xlink:href="#DejaVuSans-6f" transform="translate(307.373047 0.015625)"/>
      <use xlink:href="#DejaVuSans-72" transform="translate(368.554688 0.015625)"/>
      <use xlink:href="#DejaVuSans-65" transform="translate(409.667969 0.015625)"/>
      <use xlink:href="#DejaVuSans-63" transform="translate(471.191406 0.015625)"/>
      <use xlink:href="#DejaVuSans-61" transform="translate(526.171875 0.015625)"/>
      <use xlink:href="#DejaVuSans-73" transform="translate(587.451172 0.015625)"/>
      <use xlink:href="#DejaVuSans-74" transform="translate(639.550781 0.015625)"/>
      <use xlink:href="#DejaVuSans-20" transform="translate(678.759766 0.015625)"/>
      <use xlink:href="#DejaVuSans-28" transform="translate(710.546875 0.015625)"/>
      <use xlink:href="#DejaVuSans-4c" transform="translate(749.560547 0.015625)"/>
      <use xlink:href="#DejaVuSans-6f" transform="translate(805.273438 0.015625)"/>
      <use xlink:href="#DejaVuSans-63" transform="translate(866.455078 0.015625)"/>
      <use xlink:href="#DejaVuSans-61" transform="translate(921.435547 0.015625)"/>
      <use xlink:href="#DejaVuSans-6c" transform="translate(982.714844 0.015625)"/>
      <use xlink:href="#DejaVuSans-2c" transform="translate(1010.498047 0.015625)"/>
      <use xlink:href="#DejaVuSans-20" transform="translate(1042.285156 0.015625)"/>
      <use xlink:href="#DejaVuSans-Oblique-3bb" transform="translate(1074.072266 0.015625)"/>
      <use xlink:href="#DejaVuSans-3d" transform="translate(1152.734375 0.015625)"/>
      <use xlink:href="#DejaVuSans-30" transform="translate(1256.005859 0.015625)"/>
      <use xlink:href="#DejaVuSans-2e" transform="translate(1319.628906 0.015625)"/>
      <use xlink:href="#DejaVuSans-39" transform="translate(1351.416016 0.015625)"/>
      <use xlink:href="#DejaVuSans-39" transform="translate(1415.039062 0.015625)"/>
      <use xlink:href="#DejaVuSans-29" transform="translate(1478.662109 0.015625)"/>
     </g>
    </g>
   </g>
  </g>
 </g>
 <defs>
  <clipPath id="pd90dc77f7d">
   <rect x="108" y="51.84" width="669.6" height="332.64"/>
  </clipPath>
 </defs>
</svg>
