<?xml version="1.0" encoding="utf-8" standalone="no"?>
<!DOCTYPE svg PUBLIC "-//W3C//DTD SVG 1.1//EN"
  "http://www.w3.org/Graphics/SVG/1.1/DTD/svg11.dtd">
<svg xmlns:xlink="http://www.w3.org/1999/xlink" width="864pt" height="576pt" viewBox="0 0 864 576" xmlns="http://www.w3.org/2000/svg" version="1.1">
 <metadata>
  <rdf:RDF xmlns:dc="http://purl.org/dc/elements/1.1/" xmlns:cc="http://creativecommons.org/ns#" xmlns:rdf="http://www.w3.org/1999/02/22-rdf-syntax-ns#">
   <cc:Work>
    <dc:type rdf:resource="http://purl.org/dc/dcmitype/StillImage"/>
    <dc:date>2026-02-27T11:57:03.280701</dc:date>
    <dc:format>image/svg+xml</dc:format>
    <dc:creator>
     <cc:Agent>
      <dc:title>Matplotlib v3.10.6, https://matplotlib.org/</dc:title>
     </cc:Agent>
    </dc:creator>
   </cc:Work>
  </rdf:RDF>
 </metadata>
 <defs>
  <style type="text/css">*{stroke-linejoin: round; stroke-linecap: butt}</style>
 </defs>
 <g id="figure_1">
  <g id="patch_1">
   <path d="M 0 576 
L 864 576 
L 864 0 
L 0 0 
z
" style="fill: #ffffff"/>
  </g>
  <g id="axes_1">
   <g id="patch_2">
    <path d="M 53.192 265.27 
L 433.713609 265.27 
L 433.713609 28.32 
L 53.192 28.32 
z
" style="fill: #ffffff"/>
   </g>
   <g id="matplotlib.axis_1">
    <g id="xtick_1">
     <g id="line2d_1">
      <path d="M 70.488437 265.27 
L 70.488437 28.32 
" clip-path="url(#pb8962644b8)" style="fill: none; stroke-dasharray: 2.96,1.28; stroke-dashoffset: 0; stroke: #b0b0b0; stroke-opacity: 0.7; stroke-width: 0.8"/>
     </g>
     <g id="line2d_2">
      <defs>
       <path id="m74c7cb4b78" d="M 0 0 
L 0 3.5 
" style="stroke: #000000; stroke-width: 0.8"/>
      </defs>
      <g>
       <use xlink:href="#m74c7cb4b78" x="70.488437" y="265.27" style="stroke: #000000; stroke-width: 0.8"/>
      </g>
     </g>
    </g>
    <g id="xtick_2">
     <g id="line2d_3">
      <path d="M 128.955265 265.27 
L 128.955265 28.32 
" clip-path="url(#pb8962644b8)" style="fill: none; stroke-dasharray: 2.96,1.28; stroke-dashoffset: 0; stroke: #b0b0b0; stroke-opacity: 0.7; stroke-width: 0.8"/>
     </g>
     <g id="line2d_4">
      <g>
       <use xlink:href="#m74c7cb4b78" x="128.955265" y="265.27" style="stroke: #000000; stroke-width: 0.8"/>
      </g>
     </g>
    </g>
    <g id="xtick_3">
     <g id="line2d_5">
      <path d="M 187.422094 265.27 
L 187.422094 28.32 
" clip-path="url(#pb8962644b8)" style="fill: none; stroke-dasharray: 2.96,1.28; stroke-dashoffset: 0; stroke: #b0b0b0; stroke-opacity: 0.7; stroke-width: 0.8"/>
     </g>
     <g id="line2d_6">
      <g>
       <use xlink:href="#m74c7cb4b78" x="187.422094" y="265.27" style="stroke: #000000; stroke-width: 0.8"/>
      </g>
     </g>
    </g>
    <g id="xtick_4">
     <g id="line2d_7">
      <path d="M 245.888922 265.27 
L 245.888922 28.32 
" clip-path="url(#pb8962644b8)" style="fill: none; stroke-dasharray: 2.96,1.28; stroke-dashoffset: 0; stroke: #b0b0b0; stroke-opacity: 0.7; stroke-width: 0.8"/>
     </g>
     <g id="line2d_8">
      <g>
       <use xlink:href="#m74c7cb4b78" x="245.888922" y="265.27" style="stroke: #000000; stroke-width: 0.8"/>
      </g>
     </g>
    </g>
    <g id="xtick_5">
     <g id="line2d_9">
      <path d="M 304.355751 265.27 
L 304.355751 28.32 
" clip-path="url(#pb8962644b8)" style="fill: none; stroke-dasharray: 2.96,1.28; stroke-dashoffset: 0; stroke: #b0b0b0; stroke-opacity: 0.7; stroke-width: 0.8"/>
     </g>
     <g id="line2d_10">
      <g>
       <use xlink:href="#m74c7cb4b78" x="304.355751" y="265.27" style="stroke: #000000; stroke-width: 0.8"/>
      </g>
     </g>
    </g>
    <g id="xtick_6">
     <g id="line2d_11">
      <path d="M 362.82258 265.27 
L 362.82258 28.32 
" clip-path="url(#pb8962644b8)" style="fill: none; stroke-dasharray: 2.96,1.28; stroke-dashoffset: 0; stroke: #b0b0b0; stroke-opacity: 0.7; stroke-width: 0.8"/>
     </g>
     <g id="line2d_12">
      <g>
       <use xlink:href="#m74c7cb4b78" x="362.82258" y="265.27" style="stroke: #000000; stroke-width: 0.8"/>
      </g>
     </g>
    </g>
    <g id="xtick_7">
     <g id="line2d_13">
      <path d="M 421.289408 265.27 
L 421.289408 28.32 
" clip-path="url(#pb8962644b8)" style="fill: none; stroke-dasharray: 2.96,1.28; stroke-dashoffset: 0; stroke: #b0b0b0; stroke-opacity: 0.7; stroke-width: 0.8"/>
     </g>
     <g id="line2d_14">
      <g>
       <use xlink:href="#m74c7cb4b78" x="421.289408" y="265.27" style="stroke: #000000; stroke-width: 0.8"/>
      </g>
     </g>
    </g>
   </g>
   <g id="matplotlib.axis_2">
    <g id="ytick_1">
     <g id="line2d_15">
      <path d="M 53.192 250.230411 
L 433.713609 250.230411 
" clip-path="url(#pb8962644b8)" style="fill: none; stroke-dasharray: 2.96,1.28; stroke-dashoffset: 0; stroke: #b0b0b0; stroke-opacity: 0.7; stroke-width: 0.8"/>
     </g>
     <g id="line2d_16">
      <defs>
       <path id="m3bb1f06c3c" d="M 0 0 
L -3.5 0 
" style="stroke: #000000; stroke-width: 0.8"/>
      </defs>
      <g>
       <use xlink:href="#m3bb1f06c3c" x="53.192" y="250.230411" style="stroke: #000000; stroke-width: 0.8"/>
      </g>
     </g>
     <g id="text_1">
      <!-- 0.5 -->
      <g transform="translate(30.288875 254.02963) scale(0.1 -0.1)">
       <defs>
        <path id="DejaVuSans-30" d="M 2034 4250 
Q 1547 4250 1301 3770 
Q 1056 3291 1056 2328 
Q 1056 1369 1301 889 
Q 1547 409 2034 409 
Q 2525 409 2770 889 
Q 3016 1369 3016 2328 
Q 3016 3291 2770 3770 
Q 2525 4250 2034 4250 
z
M 2034 4750 
Q 2819 4750 3233 4129 
Q 3647 3509 3647 2328 
Q 3647 1150 3233 529 
Q 2819 -91 2034 -91 
Q 1250 -91 836 529 
Q 422 1150 422 2328 
Q 422 3509 836 4129 
Q 1250 4750 2034 4750 
z
" transform="scale(0.015625)"/>
        <path id="DejaVuSans-2e" d="M 684 794 
L 1344 794 
L 1344 0 
L 684 0 
L 684 794 
z
" transform="scale(0.015625)"/>
        <path id="DejaVuSans-35" d="M 691 4666 
L 3169 4666 
L 3169 4134 
L 1269 4134 
L 1269 2991 
Q 1406 3038 1543 3061 
Q 1681 3084 1819 3084 
Q 2600 3084 3056 2656 
Q 3513 2228 3513 1497 
Q 3513 744 3044 326 
Q 2575 -91 1722 -91 
Q 1428 -91 1123 -41 
Q 819 9 494 109 
L 494 744 
Q 775 591 1075 516 
Q 1375 441 1709 441 
Q 2250 441 2565 725 
Q 2881 1009 2881 1497 
Q 2881 1984 2565 2268 
Q 2250 2553 1709 2553 
Q 1456 2553 1204 2497 
Q 953 2441 691 2322 
L 691 4666 
z
" transform="scale(0.015625)"/>
       </defs>
       <use xlink:href="#DejaVuSans-30"/>
       <use xlink:href="#DejaVuSans-2e" transform="translate(63.623047 0)"/>
       <use xlink:href="#DejaVuSans-35" transform="translate(95.410156 0)"/>
      </g>
     </g>
    </g>
    <g id="ytick_2">
     <g id="line2d_17">
      <path d="M 53.192 208.00242 
L 433.713609 208.00242 
" clip-path="url(#pb8962644b8)" style="fill: none; stroke-dasharray: 2.96,1.28; stroke-dashoffset: 0; stroke: #b0b0b0; stroke-opacity: 0.7; stroke-width: 0.8"/>
     </g>
     <g id="line2d_18">
      <g>
       <use xlink:href="#m3bb1f06c3c" x="53.192" y="208.00242" style="stroke: #000000; stroke-width: 0.8"/>
      </g>
     </g>
     <g id="text_2">
      <!-- 0.6 -->
      <g transform="translate(30.288875 211.801638) scale(0.1 -0.1)">
       <defs>
        <path id="DejaVuSans-36" d="M 2113 2584 
Q 1688 2584 1439 2293 
Q 1191 2003 1191 1497 
Q 1191 994 1439 701 
Q 1688 409 2113 409 
Q 2538 409 2786 701 
Q 3034 994 3034 1497 
Q 3034 2003 2786 2293 
Q 2538 2584 2113 2584 
z
M 3366 4563 
L 3366 3988 
Q 3128 4100 2886 4159 
Q 2644 4219 2406 4219 
Q 1781 4219 1451 3797 
Q 1122 3375 1075 2522 
Q 1259 2794 1537 2939 
Q 1816 3084 2150 3084 
Q 2853 3084 3261 2657 
Q 3669 2231 3669 1497 
Q 3669 778 3244 343 
Q 2819 -91 2113 -91 
Q 1303 -91 875 529 
Q 447 1150 447 2328 
Q 447 3434 972 4092 
Q 1497 4750 2381 4750 
Q 2619 4750 2861 4703 
Q 3103 4656 3366 4563 
z
" transform="scale(0.015625)"/>
       </defs>
       <use xlink:href="#DejaVuSans-30"/>
       <use xlink:href="#DejaVuSans-2e" transform="translate(63.623047 0)"/>
       <use xlink:href="#DejaVuSans-36" transform="translate(95.410156 0)"/>
      </g>
     </g>
    </g>
    <g id="ytick_3">
     <g id="line2d_19">
      <path d="M 53.192 165.774428 
L 433.713609 165.774428 
" clip-path="url(#pb8962644b8)" style="fill: none; stroke-dasharray: 2.96,1.28; stroke-dashoffset: 0; stroke: #b0b0b0; stroke-opacity: 0.7; stroke-width: 0.8"/>
     </g>
     <g id="line2d_20">
      <g>
       <use xlink:href="#m3bb1f06c3c" x="53.192" y="165.774428" style="stroke: #000000; stroke-width: 0.8"/>
      </g>
     </g>
     <g id="text_3">
      <!-- 0.7 -->
      <g transform="translate(30.288875 169.573647) scale(0.1 -0.1)">
       <defs>
        <path id="DejaVuSans-37" d="M 525 4666 
L 3525 4666 
L 3525 4397 
L 1831 0 
L 1172 0 
L 2766 4134 
L 525 4134 
L 525 4666 
z
" transform="scale(0.015625)"/>
       </defs>
       <use xlink:href="#DejaVuSans-30"/>
       <use xlink:href="#DejaVuSans-2e" transform="translate(63.623047 0)"/>
       <use xlink:href="#DejaVuSans-37" transform="translate(95.410156 0)"/>
      </g>
     </g>
    </g>
    <g id="ytick_4">
     <g id="line2d_21">
      <path d="M 53.192 123.546437 
L 433.713609 123.546437 
" clip-path="url(#pb8962644b8)" style="fill: none; stroke-dasharray: 2.96,1.28; stroke-dashoffset: 0; stroke: #b0b0b0; stroke-opacity: 0.7; stroke-width: 0.8"/>
     </g>
     <g id="line2d_22">
      <g>
       <use xlink:href="#m3bb1f06c3c" x="53.192" y="123.546437" style="stroke: #000000; stroke-width: 0.8"/>
      </g>
     </g>
     <g id="text_4">
      <!-- 0.8 -->
      <g transform="translate(30.288875 127.345656) scale(0.1 -0.1)">
       <defs>
        <path id="DejaVuSans-38" d="M 2034 2216 
Q 1584 2216 1326 1975 
Q 1069 1734 1069 1313 
Q 1069 891 1326 650 
Q 1584 409 2034 409 
Q 2484 409 2743 651 
Q 3003 894 3003 1313 
Q 3003 1734 2745 1975 
Q 2488 2216 2034 2216 
z
M 1403 2484 
Q 997 2584 770 2862 
Q 544 3141 544 3541 
Q 544 4100 942 4425 
Q 1341 4750 2034 4750 
Q 2731 4750 3128 4425 
Q 3525 4100 3525 3541 
Q 3525 3141 3298 2862 
Q 3072 2584 2669 2484 
Q 3125 2378 3379 2068 
Q 3634 1759 3634 1313 
Q 3634 634 3220 271 
Q 2806 -91 2034 -91 
Q 1263 -91 848 271 
Q 434 634 434 1313 
Q 434 1759 690 2068 
Q 947 2378 1403 2484 
z
M 1172 3481 
Q 1172 3119 1398 2916 
Q 1625 2713 2034 2713 
Q 2441 2713 2670 2916 
Q 2900 3119 2900 3481 
Q 2900 3844 2670 4047 
Q 2441 4250 2034 4250 
Q 1625 4250 1398 4047 
Q 1172 3844 1172 3481 
z
" transform="scale(0.015625)"/>
       </defs>
       <use xlink:href="#DejaVuSans-30"/>
       <use xlink:href="#DejaVuSans-2e" transform="translate(63.623047 0)"/>
       <use xlink:href="#DejaVuSans-38" transform="translate(95.410156 0)"/>
      </g>
     </g>
    </g>
    <g id="ytick_5">
     <g id="line2d_23">
      <path d="M 53.192 81.318446 
L 433.713609 81.318446 
" clip-path="url(#pb8962644b8)" style="fill: none; stroke-dasharray: 2.96,1.28; stroke-dashoffset: 0; stroke: #b0b0b0; stroke-opacity: 0.7; stroke-width: 0.8"/>
     </g>
     <g id="line2d_24">
      <g>
       <use xlink:href="#m3bb1f06c3c" x="53.192" y="81.318446" style="stroke: #000000; stroke-width: 0.8"/>
      </g>
     </g>
     <g id="text_5">
      <!-- 0.9 -->
      <g transform="translate(30.288875 85.117665) scale(0.1 -0.1)">
       <defs>
        <path id="DejaVuSans-39" d="M 703 97 
L 703 672 
Q 941 559 1184 500 
Q 1428 441 1663 441 
Q 2288 441 2617 861 
Q 2947 1281 2994 2138 
Q 2813 1869 2534 1725 
Q 2256 1581 1919 1581 
Q 1219 1581 811 2004 
Q 403 2428 403 3163 
Q 403 3881 828 4315 
Q 1253 4750 1959 4750 
Q 2769 4750 3195 4129 
Q 3622 3509 3622 2328 
Q 3622 1225 3098 567 
Q 2575 -91 1691 -91 
Q 1453 -91 1209 -44 
Q 966 3 703 97 
z
M 1959 2075 
Q 2384 2075 2632 2365 
Q 2881 2656 2881 3163 
Q 2881 3666 2632 3958 
Q 2384 4250 1959 4250 
Q 1534 4250 1286 3958 
Q 1038 3666 1038 3163 
Q 1038 2656 1286 2365 
Q 1534 2075 1959 2075 
z
" transform="scale(0.015625)"/>
       </defs>
       <use xlink:href="#DejaVuSans-30"/>
       <use xlink:href="#DejaVuSans-2e" transform="translate(63.623047 0)"/>
       <use xlink:href="#DejaVuSans-39" transform="translate(95.410156 0)"/>
      </g>
     </g>
    </g>
    <g id="ytick_6">
     <g id="line2d_25">
      <path d="M 53.192 39.090455 
L 433.713609 39.090455 
" clip-path="url(#pb8962644b8)" style="fill: none; stroke-dasharray: 2.96,1.28; stroke-dashoffset: 0; stroke: #b0b0b0; stroke-opacity: 0.7; stroke-width: 0.8"/>
     </g>
     <g id="line2d_26">
      <g>
       <use xlink:href="#m3bb1f06c3c" x="53.192" y="39.090455" style="stroke: #000000; stroke-width: 0.8"/>
      </g>
     </g>
     <g id="text_6">
      <!-- 1.0 -->
      <g transform="translate(30.288875 42.889673) scale(0.1 -0.1)">
       <defs>
        <path id="DejaVuSans-31" d="M 794 531 
L 1825 531 
L 1825 4091 
L 703 3866 
L 703 4441 
L 1819 4666 
L 2450 4666 
L 2450 531 
L 3481 531 
L 3481 0 
L 794 0 
L 794 531 
z
" transform="scale(0.015625)"/>
       </defs>
       <use xlink:href="#DejaVuSans-31"/>
       <use xlink:href="#DejaVuSans-2e" transform="translate(63.623047 0)"/>
       <use xlink:href="#DejaVuSans-30" transform="translate(95.410156 0)"/>
      </g>
     </g>
    </g>
    <g id="text_7">
     <!-- Weight ($\lambda^{N-t}$) -->
     <g transform="translate(24.188875 181.795) rotate(-90) scale(0.1 -0.1)">
      <defs>
       <path id="DejaVuSans-57" d="M 213 4666 
L 850 4666 
L 1831 722 
L 2809 4666 
L 3519 4666 
L 4500 722 
L 5478 4666 
L 6119 4666 
L 4947 0 
L 4153 0 
L 3169 4050 
L 2175 0 
L 1381 0 
L 213 4666 
z
" transform="scale(0.015625)"/>
       <path id="DejaVuSans-65" d="M 3597 1894 
L 3597 1613 
L 953 1613 
Q 991 1019 1311 708 
Q 1631 397 2203 397 
Q 2534 397 2845 478 
Q 3156 559 3463 722 
L 3463 178 
Q 3153 47 2828 -22 
Q 2503 -91 2169 -91 
Q 1331 -91 842 396 
Q 353 884 353 1716 
Q 353 2575 817 3079 
Q 1281 3584 2069 3584 
Q 2775 3584 3186 3129 
Q 3597 2675 3597 1894 
z
M 3022 2063 
Q 3016 2534 2758 2815 
Q 2500 3097 2075 3097 
Q 1594 3097 1305 2825 
Q 1016 2553 972 2059 
L 3022 2063 
z
" transform="scale(0.015625)"/>
       <path id="DejaVuSans-69" d="M 603 3500 
L 1178 3500 
L 1178 0 
L 603 0 
L 603 3500 
z
M 603 4863 
L 1178 4863 
L 1178 4134 
L 603 4134 
L 603 4863 
z
" transform="scale(0.015625)"/>
       <path id="DejaVuSans-67" d="M 2906 1791 
Q 2906 2416 2648 2759 
Q 2391 3103 1925 3103 
Q 1463 3103 1205 2759 
Q 947 2416 947 1791 
Q 947 1169 1205 825 
Q 1463 481 1925 481 
Q 2391 481 2648 825 
Q 2906 1169 2906 1791 
z
M 3481 434 
Q 3481 -459 3084 -895 
Q 2688 -1331 1869 -1331 
Q 1566 -1331 1297 -1286 
Q 1028 -1241 775 -1147 
L 775 -588 
Q 1028 -725 1275 -790 
Q 1522 -856 1778 -856 
Q 2344 -856 2625 -561 
Q 2906 -266 2906 331 
L 2906 616 
Q 2728 306 2450 153 
Q 2172 0 1784 0 
Q 1141 0 747 490 
Q 353 981 353 1791 
Q 353 2603 747 3093 
Q 1141 3584 1784 3584 
Q 2172 3584 2450 3431 
Q 2728 3278 2906 2969 
L 2906 3500 
L 3481 3500 
L 3481 434 
z
" transform="scale(0.015625)"/>
       <path id="DejaVuSans-68" d="M 3513 2113 
L 3513 0 
L 2938 0 
L 2938 2094 
Q 2938 2591 2744 2837 
Q 2550 3084 2163 3084 
Q 1697 3084 1428 2787 
Q 1159 2491 1159 1978 
L 1159 0 
L 581 0 
L 581 4863 
L 1159 4863 
L 1159 2956 
Q 1366 3272 1645 3428 
Q 1925 3584 2291 3584 
Q 2894 3584 3203 3211 
Q 3513 2838 3513 2113 
z
" transform="scale(0.015625)"/>
       <path id="DejaVuSans-74" d="M 1172 4494 
L 1172 3500 
L 2356 3500 
L 2356 3053 
L 1172 3053 
L 1172 1153 
Q 1172 725 1289 603 
Q 1406 481 1766 481 
L 2356 481 
L 2356 0 
L 1766 0 
Q 1100 0 847 248 
Q 594 497 594 1153 
L 594 3053 
L 172 3053 
L 172 3500 
L 594 3500 
L 594 4494 
L 1172 4494 
z
" transform="scale(0.015625)"/>
       <path id="DejaVuSans-20" transform="scale(0.015625)"/>
       <path id="DejaVuSans-28" d="M 1984 4856 
Q 1566 4138 1362 3434 
Q 1159 2731 1159 2009 
Q 1159 1288 1364 580 
Q 1569 -128 1984 -844 
L 1484 -844 
Q 1016 -109 783 600 
Q 550 1309 550 2009 
Q 550 2706 781 3412 
Q 1013 4119 1484 4856 
L 1984 4856 
z
" transform="scale(0.015625)"/>
       <path id="DejaVuSans-Oblique-3bb" d="M 2350 4316 
L 3125 0 
L 2516 0 
L 2038 2588 
L 328 0 
L -281 0 
L 1903 3356 
L 1794 3975 
Q 1725 4369 1391 4369 
L 1091 4369 
L 1184 4863 
L 1550 4856 
Q 2253 4847 2350 4316 
z
" transform="scale(0.015625)"/>
       <path id="DejaVuSans-Oblique-4e" d="M 1081 4666 
L 1931 4666 
L 3219 666 
L 4000 4666 
L 4616 4666 
L 3706 0 
L 2853 0 
L 1569 4025 
L 788 0 
L 172 0 
L 1081 4666 
z
" transform="scale(0.015625)"/>
       <path id="DejaVuSans-2212" d="M 678 2272 
L 4684 2272 
L 4684 1741 
L 678 1741 
L 678 2272 
z
" transform="scale(0.015625)"/>
       <path id="DejaVuSans-Oblique-74" d="M 2706 3500 
L 2619 3053 
L 1472 3053 
L 1100 1153 
Q 1081 1047 1072 975 
Q 1063 903 1063 863 
Q 1063 663 1183 572 
Q 1303 481 1569 481 
L 2150 481 
L 2053 0 
L 1503 0 
Q 991 0 739 200 
Q 488 400 488 806 
Q 488 878 497 964 
Q 506 1050 525 1153 
L 897 3053 
L 409 3053 
L 500 3500 
L 978 3500 
L 1172 4494 
L 1747 4494 
L 1556 3500 
L 2706 3500 
z
" transform="scale(0.015625)"/>
       <path id="DejaVuSans-29" d="M 513 4856 
L 1013 4856 
Q 1481 4119 1714 3412 
Q 1947 2706 1947 2009 
Q 1947 1309 1714 600 
Q 1481 -109 1013 -844 
L 513 -844 
Q 928 -128 1133 580 
Q 1338 1288 1338 2009 
Q 1338 2731 1133 3434 
Q 928 4138 513 4856 
z
" transform="scale(0.015625)"/>
      </defs>
      <use xlink:href="#DejaVuSans-57" transform="translate(0 0.684375)"/>
      <use xlink:href="#DejaVuSans-65" transform="translate(98.876953 0.684375)"/>
      <use xlink:href="#DejaVuSans-69" transform="translate(160.400391 0.684375)"/>
      <use xlink:href="#DejaVuSans-67" transform="translate(188.183594 0.684375)"/>
      <use xlink:href="#DejaVuSans-68" transform="translate(251.660156 0.684375)"/>
      <use xlink:href="#DejaVuSans-74" transform="translate(315.039062 0.684375)"/>
      <use xlink:href="#DejaVuSans-20" transform="translate(354.248047 0.684375)"/>
      <use xlink:href="#DejaVuSans-28" transform="translate(386.035156 0.684375)"/>
      <use xlink:href="#DejaVuSans-Oblique-3bb" transform="translate(425.048828 0.684375)"/>
      <use xlink:href="#DejaVuSans-Oblique-4e" transform="translate(491.676224 38.965625) scale(0.7)"/>
      <use xlink:href="#DejaVuSans-2212" transform="translate(557.677201 38.965625) scale(0.7)"/>
      <use xlink:href="#DejaVuSans-Oblique-74" transform="translate(629.96724 38.965625) scale(0.7)"/>
      <use xlink:href="#DejaVuSans-29" transform="translate(660.147904 0.684375)"/>
     </g>
    </g>
   </g>
   <g id="line2d_27">
    <path d="M 70.488437 254.499545 
L 75.360672 252.409941 
L 80.232908 250.29923 
L 85.105144 248.167198 
L 89.97738 246.013631 
L 94.849615 243.83831 
L 99.721851 241.641017 
L 104.594087 239.421528 
L 109.466322 237.179621 
L 114.338558 234.915068 
L 119.210794 232.627641 
L 124.08303 230.317108 
L 128.955265 227.983237 
L 133.827501 225.625791 
L 138.699737 223.244533 
L 143.571972 220.839221 
L 148.444208 218.409614 
L 153.316444 215.955465 
L 158.18868 213.476526 
L 163.060915 210.972548 
L 167.933151 208.443277 
L 172.805387 205.888458 
L 177.677622 203.307833 
L 182.549858 200.70114 
L 187.422094 198.068118 
L 192.29433 195.408499 
L 197.166565 192.722016 
L 202.038801 190.008396 
L 206.911037 187.267366 
L 211.783272 184.498649 
L 216.655508 181.701965 
L 221.527744 178.877031 
L 226.39998 176.023563 
L 231.272215 173.141272 
L 236.144451 170.229867 
L 241.016687 167.289054 
L 245.888922 164.318536 
L 250.761158 161.318012 
L 255.633394 158.287181 
L 260.50563 155.225734 
L 265.377865 152.133364 
L 270.250101 149.009758 
L 275.122337 145.8546 
L 279.994572 142.667572 
L 284.866808 139.448352 
L 289.739044 136.196615 
L 294.61128 132.912031 
L 299.483515 129.594271 
L 304.355751 126.242997 
L 309.227987 122.857872 
L 314.100222 119.438554 
L 318.972458 115.984697 
L 323.844694 112.495953 
L 328.71693 108.971969 
L 333.589165 105.412389 
L 338.461401 101.816854 
L 343.333637 98.185 
L 348.205872 94.516461 
L 353.078108 90.810866 
L 357.950344 87.067841 
L 362.82258 83.287007 
L 367.694815 79.467984 
L 372.567051 75.610384 
L 377.439287 71.713818 
L 382.311522 67.777893 
L 387.183758 63.802212 
L 392.055994 59.786372 
L 396.928229 55.729968 
L 401.800465 51.63259 
L 406.672701 47.493825 
L 411.544937 43.313254 
L 416.417172 39.090455 
" clip-path="url(#pb8962644b8)" style="fill: none; stroke: #0000ff; stroke-width: 1.5; stroke-linecap: square"/>
   </g>
   <g id="patch_3">
    <path d="M 53.192 265.27 
L 53.192 28.32 
" style="fill: none; stroke: #000000; stroke-width: 0.8; stroke-linejoin: miter; stroke-linecap: square"/>
   </g>
   <g id="patch_4">
    <path d="M 433.713609 265.27 
L 433.713609 28.32 
" style="fill: none; stroke: #000000; stroke-width: 0.8; stroke-linejoin: miter; stroke-linecap: square"/>
   </g>
   <g id="patch_5">
    <path d="M 53.192 265.27 
L 433.713609 265.27 
" style="fill: none; stroke: #000000; stroke-width: 0.8; stroke-linejoin: miter; stroke-linecap: square"/>
   </g>
   <g id="patch_6">
    <path d="M 53.192 28.32 
L 433.713609 28.32 
" style="fill: none; stroke: #000000; stroke-width: 0.8; stroke-linejoin: miter; stroke-linecap: square"/>
   </g>
   <g id="text_8">
    <!-- Weights for $\lambda = 0.99$ -->
    <g transform="translate(182.672805 22.32) scale(0.12 -0.12)">
     <defs>
      <path id="DejaVuSans-73" d="M 2834 3397 
L 2834 2853 
Q 2591 2978 2328 3040 
Q 2066 3103 1784 3103 
Q 1356 3103 1142 2972 
Q 928 2841 928 2578 
Q 928 2378 1081 2264 
Q 1234 2150 1697 2047 
L 1894 2003 
Q 2506 1872 2764 1633 
Q 3022 1394 3022 966 
Q 3022 478 2636 193 
Q 2250 -91 1575 -91 
Q 1294 -91 989 -36 
Q 684 19 347 128 
L 347 722 
Q 666 556 975 473 
Q 1284 391 1588 391 
Q 1994 391 2212 530 
Q 2431 669 2431 922 
Q 2431 1156 2273 1281 
Q 2116 1406 1581 1522 
L 1381 1569 
Q 847 1681 609 1914 
Q 372 2147 372 2553 
Q 372 3047 722 3315 
Q 1072 3584 1716 3584 
Q 2034 3584 2315 3537 
Q 2597 3491 2834 3397 
z
" transform="scale(0.015625)"/>
      <path id="DejaVuSans-66" d="M 2375 4863 
L 2375 4384 
L 1825 4384 
Q 1516 4384 1395 4259 
Q 1275 4134 1275 3809 
L 1275 3500 
L 2222 3500 
L 2222 3053 
L 1275 3053 
L 1275 0 
L 697 0 
L 697 3053 
L 147 3053 
L 147 3500 
L 697 3500 
L 697 3744 
Q 697 4328 969 4595 
Q 1241 4863 1831 4863 
L 2375 4863 
z
" transform="scale(0.015625)"/>
      <path id="DejaVuSans-6f" d="M 1959 3097 
Q 1497 3097 1228 2736 
Q 959 2375 959 1747 
Q 959 1119 1226 758 
Q 1494 397 1959 397 
Q 2419 397 2687 759 
Q 2956 1122 2956 1747 
Q 2956 2369 2687 2733 
Q 2419 3097 1959 3097 
z
M 1959 3584 
Q 2709 3584 3137 3096 
Q 3566 2609 3566 1747 
Q 3566 888 3137 398 
Q 2709 -91 1959 -91 
Q 1206 -91 779 398 
Q 353 888 353 1747 
Q 353 2609 779 3096 
Q 1206 3584 1959 3584 
z
" transform="scale(0.015625)"/>
      <path id="DejaVuSans-72" d="M 2631 2963 
Q 2534 3019 2420 3045 
Q 2306 3072 2169 3072 
Q 1681 3072 1420 2755 
Q 1159 2438 1159 1844 
L 1159 0 
L 581 0 
L 581 3500 
L 1159 3500 
L 1159 2956 
Q 1341 3275 1631 3429 
Q 1922 3584 2338 3584 
Q 2397 3584 2469 3576 
Q 2541 3569 2628 3553 
L 2631 2963 
z
" transform="scale(0.015625)"/>
      <path id="DejaVuSans-3d" d="M 678 2906 
L 4684 2906 
L 4684 2381 
L 678 2381 
L 678 2906 
z
M 678 1631 
L 4684 1631 
L 4684 1100 
L 678 1100 
L 678 1631 
z
" transform="scale(0.015625)"/>
     </defs>
     <use xlink:href="#DejaVuSans-57" transform="translate(0 0.015625)"/>
     <use xlink:href="#DejaVuSans-65" transform="translate(98.876953 0.015625)"/>
     <use xlink:href="#DejaVuSans-69" transform="translate(160.400391 0.015625)"/>
     <use xlink:href="#DejaVuSans-67" transform="translate(188.183594 0.015625)"/>
     <use xlink:href="#DejaVuSans-68" transform="translate(251.660156 0.015625)"/>
     <use xlink:href="#DejaVuSans-74" transform="translate(315.039062 0.015625)"/>
     <use xlink:href="#DejaVuSans-73" transform="translate(354.248047 0.015625)"/>
     <use xlink:href="#DejaVuSans-20" transform="translate(406.347656 0.015625)"/>
     <use xlink:href="#DejaVuSans-66" transform="translate(438.134766 0.015625)"/>
     <use xlink:href="#DejaVuSans-6f" transform="translate(473.339844 0.015625)"/>
     <use xlink:href="#DejaVuSans-72" transform="translate(534.521484 0.015625)"/>
     <use xlink:href="#DejaVuSans-20" transform="translate(575.634766 0.015625)"/>
     <use xlink:href="#DejaVuSans-Oblique-3bb" transform="translate(607.421875 0.015625)"/>
     <use xlink:href="#DejaVuSans-3d" transform="translate(686.083984 0.015625)"/>
     <use xlink:href="#DejaVuSans-30" transform="translate(789.355469 0.015625)"/>
     <use xlink:href="#DejaVuSans-2e" transform="translate(852.978516 0.015625)"/>
     <use xlink:href="#DejaVuSans-39" transform="translate(884.765625 0.015625)"/>
     <use xlink:href="#DejaVuSans-39" transform="translate(948.388672 0.015625)"/>
    </g>
   </g>
  </g>
  <g id="axes_2">
   <g id="patch_7">
    <path d="M 470.016 265.27 
L 850.537609 265.27 
L 850.537609 28.32 
L 470.016 28.32 
z
" style="fill: #ffffff"/>
   </g>
   <g id="matplotlib.axis_3">
    <g id="xtick_8">
     <g id="line2d_28">
      <path d="M 487.312437 265.27 
L 487.312437 28.32 
" clip-path="url(#pc760ae840e)" style="fill: none; stroke-dasharray: 2.96,1.28; stroke-dashoffset: 0; stroke: #b0b0b0; stroke-opacity: 0.7; stroke-width: 0.8"/>
     </g>
     <g id="line2d_29">
      <g>
       <use xlink:href="#m74c7cb4b78" x="487.312437" y="265.27" style="stroke: #000000; stroke-width: 0.8"/>
      </g>
     </g>
    </g>
    <g id="xtick_9">
     <g id="line2d_30">
      <path d="M 545.779265 265.27 
L 545.779265 28.32 
" clip-path="url(#pc760ae840e)" style="fill: none; stroke-dasharray: 2.96,1.28; stroke-dashoffset: 0; stroke: #b0b0b0; stroke-opacity: 0.7; stroke-width: 0.8"/>
     </g>
     <g id="line2d_31">
      <g>
       <use xlink:href="#m74c7cb4b78" x="545.779265" y="265.27" style="stroke: #000000; stroke-width: 0.8"/>
      </g>
     </g>
    </g>
    <g id="xtick_10">
     <g id="line2d_32">
      <path d="M 604.246094 265.27 
L 604.246094 28.32 
" clip-path="url(#pc760ae840e)" style="fill: none; stroke-dasharray: 2.96,1.28; stroke-dashoffset: 0; stroke: #b0b0b0; stroke-opacity: 0.7; stroke-width: 0.8"/>
     </g>
     <g id="line2d_33">
      <g>
       <use xlink:href="#m74c7cb4b78" x="604.246094" y="265.27" style="stroke: #000000; stroke-width: 0.8"/>
      </g>
     </g>
    </g>
    <g id="xtick_11">
     <g id="line2d_34">
      <path d="M 662.712922 265.27 
L 662.712922 28.32 
" clip-path="url(#pc760ae840e)" style="fill: none; stroke-dasharray: 2.96,1.28; stroke-dashoffset: 0; stroke: #b0b0b0; stroke-opacity: 0.7; stroke-width: 0.8"/>
     </g>
     <g id="line2d_35">
      <g>
       <use xlink:href="#m74c7cb4b78" x="662.712922" y="265.27" style="stroke: #000000; stroke-width: 0.8"/>
      </g>
     </g>
    </g>
    <g id="xtick_12">
     <g id="line2d_36">
      <path d="M 721.179751 265.27 
L 721.179751 28.32 
" clip-path="url(#pc760ae840e)" style="fill: none; stroke-dasharray: 2.96,1.28; stroke-dashoffset: 0; stroke: #b0b0b0; stroke-opacity: 0.7; stroke-width: 0.8"/>
     </g>
     <g id="line2d_37">
      <g>
       <use xlink:href="#m74c7cb4b78" x="721.179751" y="265.27" style="stroke: #000000; stroke-width: 0.8"/>
      </g>
     </g>
    </g>
    <g id="xtick_13">
     <g id="line2d_38">
      <path d="M 779.64658 265.27 
L 779.64658 28.32 
" clip-path="url(#pc760ae840e)" style="fill: none; stroke-dasharray: 2.96,1.28; stroke-dashoffset: 0; stroke: #b0b0b0; stroke-opacity: 0.7; stroke-width: 0.8"/>
     </g>
     <g id="line2d_39">
      <g>
       <use xlink:href="#m74c7cb4b78" x="779.64658" y="265.27" style="stroke: #000000; stroke-width: 0.8"/>
      </g>
     </g>
    </g>
    <g id="xtick_14">
     <g id="line2d_40">
      <path d="M 838.113408 265.27 
L 838.113408 28.32 
" clip-path="url(#pc760ae840e)" style="fill: none; stroke-dasharray: 2.96,1.28; stroke-dashoffset: 0; stroke: #b0b0b0; stroke-opacity: 0.7; stroke-width: 0.8"/>
     </g>
     <g id="line2d_41">
      <g>
       <use xlink:href="#m74c7cb4b78" x="838.113408" y="265.27" style="stroke: #000000; stroke-width: 0.8"/>
      </g>
     </g>
    </g>
   </g>
   <g id="matplotlib.axis_4">
    <g id="ytick_7">
     <g id="line2d_42">
      <path d="M 470.016 254.499574 
L 850.537609 254.499574 
" clip-path="url(#pc760ae840e)" style="fill: none; stroke-dasharray: 2.96,1.28; stroke-dashoffset: 0; stroke: #b0b0b0; stroke-opacity: 0.7; stroke-width: 0.8"/>
     </g>
     <g id="line2d_43">
      <g>
       <use xlink:href="#m3bb1f06c3c" x="470.016" y="254.499574" style="stroke: #000000; stroke-width: 0.8"/>
      </g>
     </g>
     <g id="text_9">
      <!-- 0.0 -->
      <g transform="translate(447.112875 258.298793) scale(0.1 -0.1)">
       <use xlink:href="#DejaVuSans-30"/>
       <use xlink:href="#DejaVuSans-2e" transform="translate(63.623047 0)"/>
       <use xlink:href="#DejaVuSans-30" transform="translate(95.410156 0)"/>
      </g>
     </g>
    </g>
    <g id="ytick_8">
     <g id="line2d_44">
      <path d="M 470.016 211.41775 
L 850.537609 211.41775 
" clip-path="url(#pc760ae840e)" style="fill: none; stroke-dasharray: 2.96,1.28; stroke-dashoffset: 0; stroke: #b0b0b0; stroke-opacity: 0.7; stroke-width: 0.8"/>
     </g>
     <g id="line2d_45">
      <g>
       <use xlink:href="#m3bb1f06c3c" x="470.016" y="211.41775" style="stroke: #000000; stroke-width: 0.8"/>
      </g>
     </g>
     <g id="text_10">
      <!-- 0.2 -->
      <g transform="translate(447.112875 215.216969) scale(0.1 -0.1)">
       <defs>
        <path id="DejaVuSans-32" d="M 1228 531 
L 3431 531 
L 3431 0 
L 469 0 
L 469 531 
Q 828 903 1448 1529 
Q 2069 2156 2228 2338 
Q 2531 2678 2651 2914 
Q 2772 3150 2772 3378 
Q 2772 3750 2511 3984 
Q 2250 4219 1831 4219 
Q 1534 4219 1204 4116 
Q 875 4013 500 3803 
L 500 4441 
Q 881 4594 1212 4672 
Q 1544 4750 1819 4750 
Q 2544 4750 2975 4387 
Q 3406 4025 3406 3419 
Q 3406 3131 3298 2873 
Q 3191 2616 2906 2266 
Q 2828 2175 2409 1742 
Q 1991 1309 1228 531 
z
" transform="scale(0.015625)"/>
       </defs>
       <use xlink:href="#DejaVuSans-30"/>
       <use xlink:href="#DejaVuSans-2e" transform="translate(63.623047 0)"/>
       <use xlink:href="#DejaVuSans-32" transform="translate(95.410156 0)"/>
      </g>
     </g>
    </g>
    <g id="ytick_9">
     <g id="line2d_46">
      <path d="M 470.016 168.335926 
L 850.537609 168.335926 
" clip-path="url(#pc760ae840e)" style="fill: none; stroke-dasharray: 2.96,1.28; stroke-dashoffset: 0; stroke: #b0b0b0; stroke-opacity: 0.7; stroke-width: 0.8"/>
     </g>
     <g id="line2d_47">
      <g>
       <use xlink:href="#m3bb1f06c3c" x="470.016" y="168.335926" style="stroke: #000000; stroke-width: 0.8"/>
      </g>
     </g>
     <g id="text_11">
      <!-- 0.4 -->
      <g transform="translate(447.112875 172.135145) scale(0.1 -0.1)">
       <defs>
        <path id="DejaVuSans-34" d="M 2419 4116 
L 825 1625 
L 2419 1625 
L 2419 4116 
z
M 2253 4666 
L 3047 4666 
L 3047 1625 
L 3713 1625 
L 3713 1100 
L 3047 1100 
L 3047 0 
L 2419 0 
L 2419 1100 
L 313 1100 
L 313 1709 
L 2253 4666 
z
" transform="scale(0.015625)"/>
       </defs>
       <use xlink:href="#DejaVuSans-30"/>
       <use xlink:href="#DejaVuSans-2e" transform="translate(63.623047 0)"/>
       <use xlink:href="#DejaVuSans-34" transform="translate(95.410156 0)"/>
      </g>
     </g>
    </g>
    <g id="ytick_10">
     <g id="line2d_48">
      <path d="M 470.016 125.254102 
L 850.537609 125.254102 
" clip-path="url(#pc760ae840e)" style="fill: none; stroke-dasharray: 2.96,1.28; stroke-dashoffset: 0; stroke: #b0b0b0; stroke-opacity: 0.7; stroke-width: 0.8"/>
     </g>
     <g id="line2d_49">
      <g>
       <use xlink:href="#m3bb1f06c3c" x="470.016" y="125.254102" style="stroke: #000000; stroke-width: 0.8"/>
      </g>
     </g>
     <g id="text_12">
      <!-- 0.6 -->
      <g transform="translate(447.112875 129.053321) scale(0.1 -0.1)">
       <use xlink:href="#DejaVuSans-30"/>
       <use xlink:href="#DejaVuSans-2e" transform="translate(63.623047 0)"/>
       <use xlink:href="#DejaVuSans-36" transform="translate(95.410156 0)"/>
      </g>
     </g>
    </g>
    <g id="ytick_11">
     <g id="line2d_50">
      <path d="M 470.016 82.172278 
L 850.537609 82.172278 
" clip-path="url(#pc760ae840e)" style="fill: none; stroke-dasharray: 2.96,1.28; stroke-dashoffset: 0; stroke: #b0b0b0; stroke-opacity: 0.7; stroke-width: 0.8"/>
     </g>
     <g id="line2d_51">
      <g>
       <use xlink:href="#m3bb1f06c3c" x="470.016" y="82.172278" style="stroke: #000000; stroke-width: 0.8"/>
      </g>
     </g>
     <g id="text_13">
      <!-- 0.8 -->
      <g transform="translate(447.112875 85.971497) scale(0.1 -0.1)">
       <use xlink:href="#DejaVuSans-30"/>
       <use xlink:href="#DejaVuSans-2e" transform="translate(63.623047 0)"/>
       <use xlink:href="#DejaVuSans-38" transform="translate(95.410156 0)"/>
      </g>
     </g>
    </g>
    <g id="ytick_12">
     <g id="line2d_52">
      <path d="M 470.016 39.090455 
L 850.537609 39.090455 
" clip-path="url(#pc760ae840e)" style="fill: none; stroke-dasharray: 2.96,1.28; stroke-dashoffset: 0; stroke: #b0b0b0; stroke-opacity: 0.7; stroke-width: 0.8"/>
     </g>
     <g id="line2d_53">
      <g>
       <use xlink:href="#m3bb1f06c3c" x="470.016" y="39.090455" style="stroke: #000000; stroke-width: 0.8"/>
      </g>
     </g>
     <g id="text_14">
      <!-- 1.0 -->
      <g transform="translate(447.112875 42.889673) scale(0.1 -0.1)">
       <use xlink:href="#DejaVuSans-31"/>
       <use xlink:href="#DejaVuSans-2e" transform="translate(63.623047 0)"/>
       <use xlink:href="#DejaVuSans-30" transform="translate(95.410156 0)"/>
      </g>
     </g>
    </g>
   </g>
   <g id="line2d_54">
    <path d="M 487.312437 254.499545 
L 492.184672 254.499538 
L 497.056908 254.49953 
L 501.929144 254.499518 
L 506.80138 254.499505 
L 511.673615 254.499487 
L 516.545851 254.499466 
L 521.418087 254.499439 
L 526.290322 254.499405 
L 531.162558 254.499363 
L 536.034794 254.49931 
L 540.90703 254.499244 
L 545.779265 254.499161 
L 550.651501 254.499058 
L 555.523737 254.498929 
L 560.395972 254.498768 
L 565.268208 254.498566 
L 570.140444 254.498315 
L 575.01268 254.498 
L 579.884915 254.497606 
L 584.757151 254.497114 
L 589.629387 254.496499 
L 594.501622 254.495731 
L 599.373858 254.49477 
L 604.246094 254.493569 
L 609.11833 254.492068 
L 613.990565 254.490191 
L 618.862801 254.487846 
L 623.735037 254.484914 
L 628.607272 254.481249 
L 633.479508 254.476668 
L 638.351744 254.470941 
L 643.22398 254.463783 
L 648.096215 254.454835 
L 652.968451 254.44365 
L 657.840687 254.42967 
L 662.712922 254.412193 
L 667.585158 254.390348 
L 672.457394 254.363042 
L 677.32963 254.328909 
L 682.201865 254.286243 
L 687.074101 254.23291 
L 691.946337 254.166244 
L 696.818572 254.082912 
L 701.690808 253.978747 
L 706.563044 253.84854 
L 711.43528 253.685781 
L 716.307515 253.482333 
L 721.179751 253.228023 
L 726.051987 252.910135 
L 730.924222 252.512775 
L 735.796458 252.016076 
L 740.668694 251.395201 
L 745.54093 250.619108 
L 750.413165 249.648992 
L 755.285401 248.436346 
L 760.157637 246.920539 
L 765.029872 245.025781 
L 769.902108 242.657332 
L 774.774344 239.696772 
L 779.64658 235.996071 
L 784.518815 231.370196 
L 789.391051 225.587851 
L 794.263287 218.359921 
L 799.135522 209.325007 
L 804.007758 198.031366 
L 808.879994 183.914314 
L 813.752229 166.267999 
L 818.624465 144.210105 
L 823.496701 116.637737 
L 828.368937 82.172278 
L 833.241172 39.090455 
" clip-path="url(#pc760ae840e)" style="fill: none; stroke: #0000ff; stroke-width: 1.5; stroke-linecap: square"/>
   </g>
   <g id="patch_8">
    <path d="M 470.016 265.27 
L 470.016 28.32 
" style="fill: none; stroke: #000000; stroke-width: 0.8; stroke-linejoin: miter; stroke-linecap: square"/>
   </g>
   <g id="patch_9">
    <path d="M 850.537609 265.27 
L 850.537609 28.32 
" style="fill: none; stroke: #000000; stroke-width: 0.8; stroke-linejoin: miter; stroke-linecap: square"/>
   </g>
   <g id="patch_10">
    <path d="M 470.016 265.27 
L 850.537609 265.27 
" style="fill: none; stroke: #000000; stroke-width: 0.8; stroke-linejoin: miter; stroke-linecap: square"/>
   </g>
   <g id="patch_11">
    <path d="M 470.016 28.32 
L 850.537609 28.32 
" style="fill: none; stroke: #000000; stroke-width: 0.8; stroke-linejoin: miter; stroke-linecap: square"/>
   </g>
   <g id="text_15">
    <!-- Weights for $\lambda = 0.8$ -->
    <g transform="translate(603.516805 22.32) scale(0.12 -0.12)">
     <use xlink:href="#DejaVuSans-57" transform="translate(0 0.015625)"/>
     <use xlink:href="#DejaVuSans-65" transform="translate(98.876953 0.015625)"/>
     <use xlink:href="#DejaVuSans-69" transform="translate(160.400391 0.015625)"/>
     <use xlink:href="#DejaVuSans-67" transform="translate(188.183594 0.015625)"/>
     <use xlink:href="#DejaVuSans-68" transform="translate(251.660156 0.015625)"/>
     <use xlink:href="#DejaVuSans-74" transform="translate(315.039062 0.015625)"/>
     <use xlink:href="#DejaVuSans-73" transform="translate(354.248047 0.015625)"/>
     <use xlink:href="#DejaVuSans-20" transform="translate(406.347656 0.015625)"/>
     <use xlink:href="#DejaVuSans-66" transform="translate(438.134766 0.015625)"/>
     <use xlink:href="#DejaVuSans-6f" transform="translate(473.339844 0.015625)"/>
     <use xlink:href="#DejaVuSans-72" transform="translate(534.521484 0.015625)"/>
     <use xlink:href="#DejaVuSans-20" transform="translate(575.634766 0.015625)"/>
     <use xlink:href="#DejaVuSans-Oblique-3bb" transform="translate(607.421875 0.015625)"/>
     <use xlink:href="#DejaVuSans-3d" transform="translate(686.083984 0.015625)"/>
     <use xlink:href="#DejaVuSans-30" transform="translate(789.355469 0.015625)"/>
     <use xlink:href="#DejaVuSans-2e" transform="translate(852.978516 0.015625)"/>
     <use xlink:href="#DejaVuSans-38" transform="translate(882.140625 0.015625)"/>
    </g>
   </g>
  </g>
  <g id="axes_3">
   <g id="patch_12">
    <path d="M 53.192 534.04 
L 433.713609 534.04 
L 433.713609 297.09 
L 53.192 297.09 
z
" style="fill: #ffffff"/>
   </g>
   <g id="matplotlib.axis_5">
    <g id="xtick_15">
     <g id="line2d_55">
      <path d="M 70.488437 534.04 
L 70.488437 297.09 
" clip-path="url(#p6123c4da26)" style="fill: none; stroke-dasharray: 2.96,1.28; stroke-dashoffset: 0; stroke: #b0b0b0; stroke-opacity: 0.7; stroke-width: 0.8"/>
     </g>
     <g id="line2d_56">
      <g>
       <use xlink:href="#m74c7cb4b78" x="70.488437" y="534.04" style="stroke: #000000; stroke-width: 0.8"/>
      </g>
     </g>
     <g id="text_16">
      <!-- 2018 -->
      <g transform="translate(57.763437 548.638438) scale(0.1 -0.1)">
       <use xlink:href="#DejaVuSans-32"/>
       <use xlink:href="#DejaVuSans-30" transform="translate(63.623047 0)"/>
       <use xlink:href="#DejaVuSans-31" transform="translate(127.246094 0)"/>
       <use xlink:href="#DejaVuSans-38" transform="translate(190.869141 0)"/>
      </g>
     </g>
    </g>
    <g id="xtick_16">
     <g id="line2d_57">
      <path d="M 128.955265 534.04 
L 128.955265 297.09 
" clip-path="url(#p6123c4da26)" style="fill: none; stroke-dasharray: 2.96,1.28; stroke-dashoffset: 0; stroke: #b0b0b0; stroke-opacity: 0.7; stroke-width: 0.8"/>
     </g>
     <g id="line2d_58">
      <g>
       <use xlink:href="#m74c7cb4b78" x="128.955265" y="534.04" style="stroke: #000000; stroke-width: 0.8"/>
      </g>
     </g>
     <g id="text_17">
      <!-- 2019 -->
      <g transform="translate(116.230265 548.638438) scale(0.1 -0.1)">
       <use xlink:href="#DejaVuSans-32"/>
       <use xlink:href="#DejaVuSans-30" transform="translate(63.623047 0)"/>
       <use xlink:href="#DejaVuSans-31" transform="translate(127.246094 0)"/>
       <use xlink:href="#DejaVuSans-39" transform="translate(190.869141 0)"/>
      </g>
     </g>
    </g>
    <g id="xtick_17">
     <g id="line2d_59">
      <path d="M 187.422094 534.04 
L 187.422094 297.09 
" clip-path="url(#p6123c4da26)" style="fill: none; stroke-dasharray: 2.96,1.28; stroke-dashoffset: 0; stroke: #b0b0b0; stroke-opacity: 0.7; stroke-width: 0.8"/>
     </g>
     <g id="line2d_60">
      <g>
       <use xlink:href="#m74c7cb4b78" x="187.422094" y="534.04" style="stroke: #000000; stroke-width: 0.8"/>
      </g>
     </g>
     <g id="text_18">
      <!-- 2020 -->
      <g transform="translate(174.697094 548.638438) scale(0.1 -0.1)">
       <use xlink:href="#DejaVuSans-32"/>
       <use xlink:href="#DejaVuSans-30" transform="translate(63.623047 0)"/>
       <use xlink:href="#DejaVuSans-32" transform="translate(127.246094 0)"/>
       <use xlink:href="#DejaVuSans-30" transform="translate(190.869141 0)"/>
      </g>
     </g>
    </g>
    <g id="xtick_18">
     <g id="line2d_61">
      <path d="M 245.888922 534.04 
L 245.888922 297.09 
" clip-path="url(#p6123c4da26)" style="fill: none; stroke-dasharray: 2.96,1.28; stroke-dashoffset: 0; stroke: #b0b0b0; stroke-opacity: 0.7; stroke-width: 0.8"/>
     </g>
     <g id="line2d_62">
      <g>
       <use xlink:href="#m74c7cb4b78" x="245.888922" y="534.04" style="stroke: #000000; stroke-width: 0.8"/>
      </g>
     </g>
     <g id="text_19">
      <!-- 2021 -->
      <g transform="translate(233.163922 548.638438) scale(0.1 -0.1)">
       <use xlink:href="#DejaVuSans-32"/>
       <use xlink:href="#DejaVuSans-30" transform="translate(63.623047 0)"/>
       <use xlink:href="#DejaVuSans-32" transform="translate(127.246094 0)"/>
       <use xlink:href="#DejaVuSans-31" transform="translate(190.869141 0)"/>
      </g>
     </g>
    </g>
    <g id="xtick_19">
     <g id="line2d_63">
      <path d="M 304.355751 534.04 
L 304.355751 297.09 
" clip-path="url(#p6123c4da26)" style="fill: none; stroke-dasharray: 2.96,1.28; stroke-dashoffset: 0; stroke: #b0b0b0; stroke-opacity: 0.7; stroke-width: 0.8"/>
     </g>
     <g id="line2d_64">
      <g>
       <use xlink:href="#m74c7cb4b78" x="304.355751" y="534.04" style="stroke: #000000; stroke-width: 0.8"/>
      </g>
     </g>
     <g id="text_20">
      <!-- 2022 -->
      <g transform="translate(291.630751 548.638438) scale(0.1 -0.1)">
       <use xlink:href="#DejaVuSans-32"/>
       <use xlink:href="#DejaVuSans-30" transform="translate(63.623047 0)"/>
       <use xlink:href="#DejaVuSans-32" transform="translate(127.246094 0)"/>
       <use xlink:href="#DejaVuSans-32" transform="translate(190.869141 0)"/>
      </g>
     </g>
    </g>
    <g id="xtick_20">
     <g id="line2d_65">
      <path d="M 362.82258 534.04 
L 362.82258 297.09 
" clip-path="url(#p6123c4da26)" style="fill: none; stroke-dasharray: 2.96,1.28; stroke-dashoffset: 0; stroke: #b0b0b0; stroke-opacity: 0.7; stroke-width: 0.8"/>
     </g>
     <g id="line2d_66">
      <g>
       <use xlink:href="#m74c7cb4b78" x="362.82258" y="534.04" style="stroke: #000000; stroke-width: 0.8"/>
      </g>
     </g>
     <g id="text_21">
      <!-- 2023 -->
      <g transform="translate(350.09758 548.638438) scale(0.1 -0.1)">
       <defs>
        <path id="DejaVuSans-33" d="M 2597 2516 
Q 3050 2419 3304 2112 
Q 3559 1806 3559 1356 
Q 3559 666 3084 287 
Q 2609 -91 1734 -91 
Q 1441 -91 1130 -33 
Q 819 25 488 141 
L 488 750 
Q 750 597 1062 519 
Q 1375 441 1716 441 
Q 2309 441 2620 675 
Q 2931 909 2931 1356 
Q 2931 1769 2642 2001 
Q 2353 2234 1838 2234 
L 1294 2234 
L 1294 2753 
L 1863 2753 
Q 2328 2753 2575 2939 
Q 2822 3125 2822 3475 
Q 2822 3834 2567 4026 
Q 2313 4219 1838 4219 
Q 1578 4219 1281 4162 
Q 984 4106 628 3988 
L 628 4550 
Q 988 4650 1302 4700 
Q 1616 4750 1894 4750 
Q 2613 4750 3031 4423 
Q 3450 4097 3450 3541 
Q 3450 3153 3228 2886 
Q 3006 2619 2597 2516 
z
" transform="scale(0.015625)"/>
       </defs>
       <use xlink:href="#DejaVuSans-32"/>
       <use xlink:href="#DejaVuSans-30" transform="translate(63.623047 0)"/>
       <use xlink:href="#DejaVuSans-32" transform="translate(127.246094 0)"/>
       <use xlink:href="#DejaVuSans-33" transform="translate(190.869141 0)"/>
      </g>
     </g>
    </g>
    <g id="xtick_21">
     <g id="line2d_67">
      <path d="M 421.289408 534.04 
L 421.289408 297.09 
" clip-path="url(#p6123c4da26)" style="fill: none; stroke-dasharray: 2.96,1.28; stroke-dashoffset: 0; stroke: #b0b0b0; stroke-opacity: 0.7; stroke-width: 0.8"/>
     </g>
     <g id="line2d_68">
      <g>
       <use xlink:href="#m74c7cb4b78" x="421.289408" y="534.04" style="stroke: #000000; stroke-width: 0.8"/>
      </g>
     </g>
     <g id="text_22">
      <!-- 2024 -->
      <g transform="translate(408.564408 548.638438) scale(0.1 -0.1)">
       <use xlink:href="#DejaVuSans-32"/>
       <use xlink:href="#DejaVuSans-30" transform="translate(63.623047 0)"/>
       <use xlink:href="#DejaVuSans-32" transform="translate(127.246094 0)"/>
       <use xlink:href="#DejaVuSans-34" transform="translate(190.869141 0)"/>
      </g>
     </g>
    </g>
    <g id="text_23">
     <!-- Time (Year) -->
     <g transform="translate(215.141086 562.316563) scale(0.1 -0.1)">
      <defs>
       <path id="DejaVuSans-54" d="M -19 4666 
L 3928 4666 
L 3928 4134 
L 2272 4134 
L 2272 0 
L 1638 0 
L 1638 4134 
L -19 4134 
L -19 4666 
z
" transform="scale(0.015625)"/>
       <path id="DejaVuSans-6d" d="M 3328 2828 
Q 3544 3216 3844 3400 
Q 4144 3584 4550 3584 
Q 5097 3584 5394 3201 
Q 5691 2819 5691 2113 
L 5691 0 
L 5113 0 
L 5113 2094 
Q 5113 2597 4934 2840 
Q 4756 3084 4391 3084 
Q 3944 3084 3684 2787 
Q 3425 2491 3425 1978 
L 3425 0 
L 2847 0 
L 2847 2094 
Q 2847 2600 2669 2842 
Q 2491 3084 2119 3084 
Q 1678 3084 1418 2786 
Q 1159 2488 1159 1978 
L 1159 0 
L 581 0 
L 581 3500 
L 1159 3500 
L 1159 2956 
Q 1356 3278 1631 3431 
Q 1906 3584 2284 3584 
Q 2666 3584 2933 3390 
Q 3200 3197 3328 2828 
z
" transform="scale(0.015625)"/>
       <path id="DejaVuSans-59" d="M -13 4666 
L 666 4666 
L 1959 2747 
L 3244 4666 
L 3922 4666 
L 2272 2222 
L 2272 0 
L 1638 0 
L 1638 2222 
L -13 4666 
z
" transform="scale(0.015625)"/>
       <path id="DejaVuSans-61" d="M 2194 1759 
Q 1497 1759 1228 1600 
Q 959 1441 959 1056 
Q 959 750 1161 570 
Q 1363 391 1709 391 
Q 2188 391 2477 730 
Q 2766 1069 2766 1631 
L 2766 1759 
L 2194 1759 
z
M 3341 1997 
L 3341 0 
L 2766 0 
L 2766 531 
Q 2569 213 2275 61 
Q 1981 -91 1556 -91 
Q 1019 -91 701 211 
Q 384 513 384 1019 
Q 384 1609 779 1909 
Q 1175 2209 1959 2209 
L 2766 2209 
L 2766 2266 
Q 2766 2663 2505 2880 
Q 2244 3097 1772 3097 
Q 1472 3097 1187 3025 
Q 903 2953 641 2809 
L 641 3341 
Q 956 3463 1253 3523 
Q 1550 3584 1831 3584 
Q 2591 3584 2966 3190 
Q 3341 2797 3341 1997 
z
" transform="scale(0.015625)"/>
      </defs>
      <use xlink:href="#DejaVuSans-54"/>
      <use xlink:href="#DejaVuSans-69" transform="translate(57.958984 0)"/>
      <use xlink:href="#DejaVuSans-6d" transform="translate(85.742188 0)"/>
      <use xlink:href="#DejaVuSans-65" transform="translate(183.154297 0)"/>
      <use xlink:href="#DejaVuSans-20" transform="translate(244.677734 0)"/>
      <use xlink:href="#DejaVuSans-28" transform="translate(276.464844 0)"/>
      <use xlink:href="#DejaVuSans-59" transform="translate(315.478516 0)"/>
      <use xlink:href="#DejaVuSans-65" transform="translate(363.3125 0)"/>
      <use xlink:href="#DejaVuSans-61" transform="translate(424.835938 0)"/>
      <use xlink:href="#DejaVuSans-72" transform="translate(486.115234 0)"/>
      <use xlink:href="#DejaVuSans-29" transform="translate(527.228516 0)"/>
     </g>
    </g>
   </g>
   <g id="matplotlib.axis_6">
    <g id="ytick_13">
     <g id="line2d_69">
      <path d="M 53.192 523.269545 
L 433.713609 523.269545 
" clip-path="url(#p6123c4da26)" style="fill: none; stroke-dasharray: 2.96,1.28; stroke-dashoffset: 0; stroke: #b0b0b0; stroke-opacity: 0.7; stroke-width: 0.8"/>
     </g>
     <g id="line2d_70">
      <g>
       <use xlink:href="#m3bb1f06c3c" x="53.192" y="523.269545" style="stroke: #000000; stroke-width: 0.8"/>
      </g>
     </g>
     <g id="text_24">
      <!-- 0.0 -->
      <g transform="translate(30.288875 527.068764) scale(0.1 -0.1)">
       <use xlink:href="#DejaVuSans-30"/>
       <use xlink:href="#DejaVuSans-2e" transform="translate(63.623047 0)"/>
       <use xlink:href="#DejaVuSans-30" transform="translate(95.410156 0)"/>
      </g>
     </g>
    </g>
    <g id="ytick_14">
     <g id="line2d_71">
      <path d="M 53.192 480.187727 
L 433.713609 480.187727 
" clip-path="url(#p6123c4da26)" style="fill: none; stroke-dasharray: 2.96,1.28; stroke-dashoffset: 0; stroke: #b0b0b0; stroke-opacity: 0.7; stroke-width: 0.8"/>
     </g>
     <g id="line2d_72">
      <g>
       <use xlink:href="#m3bb1f06c3c" x="53.192" y="480.187727" style="stroke: #000000; stroke-width: 0.8"/>
      </g>
     </g>
     <g id="text_25">
      <!-- 0.2 -->
      <g transform="translate(30.288875 483.986946) scale(0.1 -0.1)">
       <use xlink:href="#DejaVuSans-30"/>
       <use xlink:href="#DejaVuSans-2e" transform="translate(63.623047 0)"/>
       <use xlink:href="#DejaVuSans-32" transform="translate(95.410156 0)"/>
      </g>
     </g>
    </g>
    <g id="ytick_15">
     <g id="line2d_73">
      <path d="M 53.192 437.105909 
L 433.713609 437.105909 
" clip-path="url(#p6123c4da26)" style="fill: none; stroke-dasharray: 2.96,1.28; stroke-dashoffset: 0; stroke: #b0b0b0; stroke-opacity: 0.7; stroke-width: 0.8"/>
     </g>
     <g id="line2d_74">
      <g>
       <use xlink:href="#m3bb1f06c3c" x="53.192" y="437.105909" style="stroke: #000000; stroke-width: 0.8"/>
      </g>
     </g>
     <g id="text_26">
      <!-- 0.4 -->
      <g transform="translate(30.288875 440.905128) scale(0.1 -0.1)">
       <use xlink:href="#DejaVuSans-30"/>
       <use xlink:href="#DejaVuSans-2e" transform="translate(63.623047 0)"/>
       <use xlink:href="#DejaVuSans-34" transform="translate(95.410156 0)"/>
      </g>
     </g>
    </g>
    <g id="ytick_16">
     <g id="line2d_75">
      <path d="M 53.192 394.024091 
L 433.713609 394.024091 
" clip-path="url(#p6123c4da26)" style="fill: none; stroke-dasharray: 2.96,1.28; stroke-dashoffset: 0; stroke: #b0b0b0; stroke-opacity: 0.7; stroke-width: 0.8"/>
     </g>
     <g id="line2d_76">
      <g>
       <use xlink:href="#m3bb1f06c3c" x="53.192" y="394.024091" style="stroke: #000000; stroke-width: 0.8"/>
      </g>
     </g>
     <g id="text_27">
      <!-- 0.6 -->
      <g transform="translate(30.288875 397.82331) scale(0.1 -0.1)">
       <use xlink:href="#DejaVuSans-30"/>
       <use xlink:href="#DejaVuSans-2e" transform="translate(63.623047 0)"/>
       <use xlink:href="#DejaVuSans-36" transform="translate(95.410156 0)"/>
      </g>
     </g>
    </g>
    <g id="ytick_17">
     <g id="line2d_77">
      <path d="M 53.192 350.942273 
L 433.713609 350.942273 
" clip-path="url(#p6123c4da26)" style="fill: none; stroke-dasharray: 2.96,1.28; stroke-dashoffset: 0; stroke: #b0b0b0; stroke-opacity: 0.7; stroke-width: 0.8"/>
     </g>
     <g id="line2d_78">
      <g>
       <use xlink:href="#m3bb1f06c3c" x="53.192" y="350.942273" style="stroke: #000000; stroke-width: 0.8"/>
      </g>
     </g>
     <g id="text_28">
      <!-- 0.8 -->
      <g transform="translate(30.288875 354.741491) scale(0.1 -0.1)">
       <use xlink:href="#DejaVuSans-30"/>
       <use xlink:href="#DejaVuSans-2e" transform="translate(63.623047 0)"/>
       <use xlink:href="#DejaVuSans-38" transform="translate(95.410156 0)"/>
      </g>
     </g>
    </g>
    <g id="ytick_18">
     <g id="line2d_79">
      <path d="M 53.192 307.860455 
L 433.713609 307.860455 
" clip-path="url(#p6123c4da26)" style="fill: none; stroke-dasharray: 2.96,1.28; stroke-dashoffset: 0; stroke: #b0b0b0; stroke-opacity: 0.7; stroke-width: 0.8"/>
     </g>
     <g id="line2d_80">
      <g>
       <use xlink:href="#m3bb1f06c3c" x="53.192" y="307.860455" style="stroke: #000000; stroke-width: 0.8"/>
      </g>
     </g>
     <g id="text_29">
      <!-- 1.0 -->
      <g transform="translate(30.288875 311.659673) scale(0.1 -0.1)">
       <use xlink:href="#DejaVuSans-31"/>
       <use xlink:href="#DejaVuSans-2e" transform="translate(63.623047 0)"/>
       <use xlink:href="#DejaVuSans-30" transform="translate(95.410156 0)"/>
      </g>
     </g>
    </g>
    <g id="text_30">
     <!-- Weight ($\lambda^{N-t}$) -->
     <g transform="translate(24.188875 450.565) rotate(-90) scale(0.1 -0.1)">
      <use xlink:href="#DejaVuSans-57" transform="translate(0 0.684375)"/>
      <use xlink:href="#DejaVuSans-65" transform="translate(98.876953 0.684375)"/>
      <use xlink:href="#DejaVuSans-69" transform="translate(160.400391 0.684375)"/>
      <use xlink:href="#DejaVuSans-67" transform="translate(188.183594 0.684375)"/>
      <use xlink:href="#DejaVuSans-68" transform="translate(251.660156 0.684375)"/>
      <use xlink:href="#DejaVuSans-74" transform="translate(315.039062 0.684375)"/>
      <use xlink:href="#DejaVuSans-20" transform="translate(354.248047 0.684375)"/>
      <use xlink:href="#DejaVuSans-28" transform="translate(386.035156 0.684375)"/>
      <use xlink:href="#DejaVuSans-Oblique-3bb" transform="translate(425.048828 0.684375)"/>
      <use xlink:href="#DejaVuSans-Oblique-4e" transform="translate(491.676224 38.965625) scale(0.7)"/>
      <use xlink:href="#DejaVuSans-2212" transform="translate(557.677201 38.965625) scale(0.7)"/>
      <use xlink:href="#DejaVuSans-Oblique-74" transform="translate(629.96724 38.965625) scale(0.7)"/>
      <use xlink:href="#DejaVuSans-29" transform="translate(660.147904 0.684375)"/>
     </g>
    </g>
   </g>
   <g id="line2d_81">
    <path d="M 70.488437 523.269545 
L 75.360672 523.269545 
L 80.232908 523.269545 
L 85.105144 523.269545 
L 89.97738 523.269545 
L 94.849615 523.269545 
L 99.721851 523.269545 
L 104.594087 523.269545 
L 109.466322 523.269545 
L 114.338558 523.269545 
L 119.210794 523.269545 
L 124.08303 523.269545 
L 128.955265 523.269545 
L 133.827501 523.269545 
L 138.699737 523.269545 
L 143.571972 523.269545 
L 148.444208 523.269545 
L 153.316444 523.269545 
L 158.18868 523.269544 
L 163.060915 523.269544 
L 167.933151 523.269543 
L 172.805387 523.269542 
L 177.677622 523.26954 
L 182.549858 523.269538 
L 187.422094 523.269534 
L 192.29433 523.269529 
L 197.166565 523.269522 
L 202.038801 523.269513 
L 206.911037 523.269498 
L 211.783272 523.269478 
L 216.655508 523.269449 
L 221.527744 523.269408 
L 226.39998 523.26935 
L 231.272215 523.269266 
L 236.144451 523.269146 
L 241.016687 523.268974 
L 245.888922 523.268729 
L 250.761158 523.26838 
L 255.633394 523.26788 
L 260.50563 523.267166 
L 265.377865 523.266147 
L 270.250101 523.26469 
L 275.122337 523.262609 
L 279.994572 523.259637 
L 284.866808 523.25539 
L 289.739044 523.249324 
L 294.61128 523.240658 
L 299.483515 523.228277 
L 304.355751 523.210591 
L 309.227987 523.185324 
L 314.100222 523.14923 
L 318.972458 523.097666 
L 323.844694 523.024003 
L 328.71693 522.91877 
L 333.589165 522.768438 
L 338.461401 522.553678 
L 343.333637 522.246878 
L 348.205872 521.808591 
L 353.078108 521.182468 
L 357.950344 520.288006 
L 362.82258 519.010204 
L 367.694815 517.184772 
L 372.567051 514.577012 
L 377.439287 510.85164 
L 382.311522 505.529681 
L 387.183758 497.926881 
L 392.055994 487.06574 
L 396.928229 471.549823 
L 401.800465 449.384227 
L 406.672701 417.719091 
L 411.544937 372.483182 
L 416.417172 307.860455 
" clip-path="url(#p6123c4da26)" style="fill: none; stroke: #0000ff; stroke-width: 1.5; stroke-linecap: square"/>
   </g>
   <g id="patch_13">
    <path d="M 53.192 534.04 
L 53.192 297.09 
" style="fill: none; stroke: #000000; stroke-width: 0.8; stroke-linejoin: miter; stroke-linecap: square"/>
   </g>
   <g id="patch_14">
    <path d="M 433.713609 534.04 
L 433.713609 297.09 
" style="fill: none; stroke: #000000; stroke-width: 0.8; stroke-linejoin: miter; stroke-linecap: square"/>
   </g>
   <g id="patch_15">
    <path d="M 53.192 534.04 
L 433.713609 534.04 
" style="fill: none; stroke: #000000; stroke-width: 0.8; stroke-linejoin: miter; stroke-linecap: square"/>
   </g>
   <g id="patch_16">
    <path d="M 53.192 297.09 
L 433.713609 297.09 
" style="fill: none; stroke: #000000; stroke-width: 0.8; stroke-linejoin: miter; stroke-linecap: square"/>
   </g>
   <g id="text_31">
    <!-- Weights for $\lambda = 0.7$ -->
    <g transform="translate(186.992805 291.09) scale(0.12 -0.12)">
     <use xlink:href="#DejaVuSans-57" transform="translate(0 0.015625)"/>
     <use xlink:href="#DejaVuSans-65" transform="translate(98.876953 0.015625)"/>
     <use xlink:href="#DejaVuSans-69" transform="translate(160.400391 0.015625)"/>
     <use xlink:href="#DejaVuSans-67" transform="translate(188.183594 0.015625)"/>
     <use xlink:href="#DejaVuSans-68" transform="translate(251.660156 0.015625)"/>
     <use xlink:href="#DejaVuSans-74" transform="translate(315.039062 0.015625)"/>
     <use xlink:href="#DejaVuSans-73" transform="translate(354.248047 0.015625)"/>
     <use xlink:href="#DejaVuSans-20" transform="translate(406.347656 0.015625)"/>
     <use xlink:href="#DejaVuSans-66" transform="translate(438.134766 0.015625)"/>
     <use xlink:href="#DejaVuSans-6f" transform="translate(473.339844 0.015625)"/>
     <use xlink:href="#DejaVuSans-72" transform="translate(534.521484 0.015625)"/>
     <use xlink:href="#DejaVuSans-20" transform="translate(575.634766 0.015625)"/>
     <use xlink:href="#DejaVuSans-Oblique-3bb" transform="translate(607.421875 0.015625)"/>
     <use xlink:href="#DejaVuSans-3d" transform="translate(686.083984 0.015625)"/>
     <use xlink:href="#DejaVuSans-30" transform="translate(789.355469 0.015625)"/>
     <use xlink:href="#DejaVuSans-2e" transform="translate(852.978516 0.015625)"/>
     <use xlink:href="#DejaVuSans-37" transform="translate(877.015625 0.015625)"/>
    </g>
   </g>
  </g>
  <g id="axes_4">
   <g id="patch_17">
    <path d="M 470.016 534.04 
L 850.537609 534.04 
L 850.537609 297.09 
L 470.016 297.09 
z
" style="fill: #ffffff"/>
   </g>
   <g id="matplotlib.axis_7">
    <g id="xtick_22">
     <g id="line2d_82">
      <path d="M 487.312437 534.04 
L 487.312437 297.09 
" clip-path="url(#p1e5baae129)" style="fill: none; stroke-dasharray: 2.96,1.28; stroke-dashoffset: 0; stroke: #b0b0b0; stroke-opacity: 0.7; stroke-width: 0.8"/>
     </g>
     <g id="line2d_83">
      <g>
       <use xlink:href="#m74c7cb4b78" x="487.312437" y="534.04" style="stroke: #000000; stroke-width: 0.8"/>
      </g>
     </g>
     <g id="text_32">
      <!-- 2018 -->
      <g transform="translate(474.587437 548.638438) scale(0.1 -0.1)">
       <use xlink:href="#DejaVuSans-32"/>
       <use xlink:href="#DejaVuSans-30" transform="translate(63.623047 0)"/>
       <use xlink:href="#DejaVuSans-31" transform="translate(127.246094 0)"/>
       <use xlink:href="#DejaVuSans-38" transform="translate(190.869141 0)"/>
      </g>
     </g>
    </g>
    <g id="xtick_23">
     <g id="line2d_84">
      <path d="M 545.779265 534.04 
L 545.779265 297.09 
" clip-path="url(#p1e5baae129)" style="fill: none; stroke-dasharray: 2.96,1.28; stroke-dashoffset: 0; stroke: #b0b0b0; stroke-opacity: 0.7; stroke-width: 0.8"/>
     </g>
     <g id="line2d_85">
      <g>
       <use xlink:href="#m74c7cb4b78" x="545.779265" y="534.04" style="stroke: #000000; stroke-width: 0.8"/>
      </g>
     </g>
     <g id="text_33">
      <!-- 2019 -->
      <g transform="translate(533.054265 548.638438) scale(0.1 -0.1)">
       <use xlink:href="#DejaVuSans-32"/>
       <use xlink:href="#DejaVuSans-30" transform="translate(63.623047 0)"/>
       <use xlink:href="#DejaVuSans-31" transform="translate(127.246094 0)"/>
       <use xlink:href="#DejaVuSans-39" transform="translate(190.869141 0)"/>
      </g>
     </g>
    </g>
    <g id="xtick_24">
     <g id="line2d_86">
      <path d="M 604.246094 534.04 
L 604.246094 297.09 
" clip-path="url(#p1e5baae129)" style="fill: none; stroke-dasharray: 2.96,1.28; stroke-dashoffset: 0; stroke: #b0b0b0; stroke-opacity: 0.7; stroke-width: 0.8"/>
     </g>
     <g id="line2d_87">
      <g>
       <use xlink:href="#m74c7cb4b78" x="604.246094" y="534.04" style="stroke: #000000; stroke-width: 0.8"/>
      </g>
     </g>
     <g id="text_34">
      <!-- 2020 -->
      <g transform="translate(591.521094 548.638438) scale(0.1 -0.1)">
       <use xlink:href="#DejaVuSans-32"/>
       <use xlink:href="#DejaVuSans-30" transform="translate(63.623047 0)"/>
       <use xlink:href="#DejaVuSans-32" transform="translate(127.246094 0)"/>
       <use xlink:href="#DejaVuSans-30" transform="translate(190.869141 0)"/>
      </g>
     </g>
    </g>
    <g id="xtick_25">
     <g id="line2d_88">
      <path d="M 662.712922 534.04 
L 662.712922 297.09 
" clip-path="url(#p1e5baae129)" style="fill: none; stroke-dasharray: 2.96,1.28; stroke-dashoffset: 0; stroke: #b0b0b0; stroke-opacity: 0.7; stroke-width: 0.8"/>
     </g>
     <g id="line2d_89">
      <g>
       <use xlink:href="#m74c7cb4b78" x="662.712922" y="534.04" style="stroke: #000000; stroke-width: 0.8"/>
      </g>
     </g>
     <g id="text_35">
      <!-- 2021 -->
      <g transform="translate(649.987922 548.638438) scale(0.1 -0.1)">
       <use xlink:href="#DejaVuSans-32"/>
       <use xlink:href="#DejaVuSans-30" transform="translate(63.623047 0)"/>
       <use xlink:href="#DejaVuSans-32" transform="translate(127.246094 0)"/>
       <use xlink:href="#DejaVuSans-31" transform="translate(190.869141 0)"/>
      </g>
     </g>
    </g>
    <g id="xtick_26">
     <g id="line2d_90">
      <path d="M 721.179751 534.04 
L 721.179751 297.09 
" clip-path="url(#p1e5baae129)" style="fill: none; stroke-dasharray: 2.96,1.28; stroke-dashoffset: 0; stroke: #b0b0b0; stroke-opacity: 0.7; stroke-width: 0.8"/>
     </g>
     <g id="line2d_91">
      <g>
       <use xlink:href="#m74c7cb4b78" x="721.179751" y="534.04" style="stroke: #000000; stroke-width: 0.8"/>
      </g>
     </g>
     <g id="text_36">
      <!-- 2022 -->
      <g transform="translate(708.454751 548.638438) scale(0.1 -0.1)">
       <use xlink:href="#DejaVuSans-32"/>
       <use xlink:href="#DejaVuSans-30" transform="translate(63.623047 0)"/>
       <use xlink:href="#DejaVuSans-32" transform="translate(127.246094 0)"/>
       <use xlink:href="#DejaVuSans-32" transform="translate(190.869141 0)"/>
      </g>
     </g>
    </g>
    <g id="xtick_27">
     <g id="line2d_92">
      <path d="M 779.64658 534.04 
L 779.64658 297.09 
" clip-path="url(#p1e5baae129)" style="fill: none; stroke-dasharray: 2.96,1.28; stroke-dashoffset: 0; stroke: #b0b0b0; stroke-opacity: 0.7; stroke-width: 0.8"/>
     </g>
     <g id="line2d_93">
      <g>
       <use xlink:href="#m74c7cb4b78" x="779.64658" y="534.04" style="stroke: #000000; stroke-width: 0.8"/>
      </g>
     </g>
     <g id="text_37">
      <!-- 2023 -->
      <g transform="translate(766.92158 548.638438) scale(0.1 -0.1)">
       <use xlink:href="#DejaVuSans-32"/>
       <use xlink:href="#DejaVuSans-30" transform="translate(63.623047 0)"/>
       <use xlink:href="#DejaVuSans-32" transform="translate(127.246094 0)"/>
       <use xlink:href="#DejaVuSans-33" transform="translate(190.869141 0)"/>
      </g>
     </g>
    </g>
    <g id="xtick_28">
     <g id="line2d_94">
      <path d="M 838.113408 534.04 
L 838.113408 297.09 
" clip-path="url(#p1e5baae129)" style="fill: none; stroke-dasharray: 2.96,1.28; stroke-dashoffset: 0; stroke: #b0b0b0; stroke-opacity: 0.7; stroke-width: 0.8"/>
     </g>
     <g id="line2d_95">
      <g>
       <use xlink:href="#m74c7cb4b78" x="838.113408" y="534.04" style="stroke: #000000; stroke-width: 0.8"/>
      </g>
     </g>
     <g id="text_38">
      <!-- 2024 -->
      <g transform="translate(825.388408 548.638438) scale(0.1 -0.1)">
       <use xlink:href="#DejaVuSans-32"/>
       <use xlink:href="#DejaVuSans-30" transform="translate(63.623047 0)"/>
       <use xlink:href="#DejaVuSans-32" transform="translate(127.246094 0)"/>
       <use xlink:href="#DejaVuSans-34" transform="translate(190.869141 0)"/>
      </g>
     </g>
    </g>
    <g id="text_39">
     <!-- Time (Year) -->
     <g transform="translate(631.965086 562.316563) scale(0.1 -0.1)">
      <use xlink:href="#DejaVuSans-54"/>
      <use xlink:href="#DejaVuSans-69" transform="translate(57.958984 0)"/>
      <use xlink:href="#DejaVuSans-6d" transform="translate(85.742188 0)"/>
      <use xlink:href="#DejaVuSans-65" transform="translate(183.154297 0)"/>
      <use xlink:href="#DejaVuSans-20" transform="translate(244.677734 0)"/>
      <use xlink:href="#DejaVuSans-28" transform="translate(276.464844 0)"/>
      <use xlink:href="#DejaVuSans-59" transform="translate(315.478516 0)"/>
      <use xlink:href="#DejaVuSans-65" transform="translate(363.3125 0)"/>
      <use xlink:href="#DejaVuSans-61" transform="translate(424.835938 0)"/>
      <use xlink:href="#DejaVuSans-72" transform="translate(486.115234 0)"/>
      <use xlink:href="#DejaVuSans-29" transform="translate(527.228516 0)"/>
     </g>
    </g>
   </g>
   <g id="matplotlib.axis_8">
    <g id="ytick_19">
     <g id="line2d_96">
      <path d="M 470.016 523.269545 
L 850.537609 523.269545 
" clip-path="url(#p1e5baae129)" style="fill: none; stroke-dasharray: 2.96,1.28; stroke-dashoffset: 0; stroke: #b0b0b0; stroke-opacity: 0.7; stroke-width: 0.8"/>
     </g>
     <g id="line2d_97">
      <g>
       <use xlink:href="#m3bb1f06c3c" x="470.016" y="523.269545" style="stroke: #000000; stroke-width: 0.8"/>
      </g>
     </g>
     <g id="text_40">
      <!-- 0.0 -->
      <g transform="translate(447.112875 527.068764) scale(0.1 -0.1)">
       <use xlink:href="#DejaVuSans-30"/>
       <use xlink:href="#DejaVuSans-2e" transform="translate(63.623047 0)"/>
       <use xlink:href="#DejaVuSans-30" transform="translate(95.410156 0)"/>
      </g>
     </g>
    </g>
    <g id="ytick_20">
     <g id="line2d_98">
      <path d="M 470.016 480.187727 
L 850.537609 480.187727 
" clip-path="url(#p1e5baae129)" style="fill: none; stroke-dasharray: 2.96,1.28; stroke-dashoffset: 0; stroke: #b0b0b0; stroke-opacity: 0.7; stroke-width: 0.8"/>
     </g>
     <g id="line2d_99">
      <g>
       <use xlink:href="#m3bb1f06c3c" x="470.016" y="480.187727" style="stroke: #000000; stroke-width: 0.8"/>
      </g>
     </g>
     <g id="text_41">
      <!-- 0.2 -->
      <g transform="translate(447.112875 483.986946) scale(0.1 -0.1)">
       <use xlink:href="#DejaVuSans-30"/>
       <use xlink:href="#DejaVuSans-2e" transform="translate(63.623047 0)"/>
       <use xlink:href="#DejaVuSans-32" transform="translate(95.410156 0)"/>
      </g>
     </g>
    </g>
    <g id="ytick_21">
     <g id="line2d_100">
      <path d="M 470.016 437.105909 
L 850.537609 437.105909 
" clip-path="url(#p1e5baae129)" style="fill: none; stroke-dasharray: 2.96,1.28; stroke-dashoffset: 0; stroke: #b0b0b0; stroke-opacity: 0.7; stroke-width: 0.8"/>
     </g>
     <g id="line2d_101">
      <g>
       <use xlink:href="#m3bb1f06c3c" x="470.016" y="437.105909" style="stroke: #000000; stroke-width: 0.8"/>
      </g>
     </g>
     <g id="text_42">
      <!-- 0.4 -->
      <g transform="translate(447.112875 440.905128) scale(0.1 -0.1)">
       <use xlink:href="#DejaVuSans-30"/>
       <use xlink:href="#DejaVuSans-2e" transform="translate(63.623047 0)"/>
       <use xlink:href="#DejaVuSans-34" transform="translate(95.410156 0)"/>
      </g>
     </g>
    </g>
    <g id="ytick_22">
     <g id="line2d_102">
      <path d="M 470.016 394.024091 
L 850.537609 394.024091 
" clip-path="url(#p1e5baae129)" style="fill: none; stroke-dasharray: 2.96,1.28; stroke-dashoffset: 0; stroke: #b0b0b0; stroke-opacity: 0.7; stroke-width: 0.8"/>
     </g>
     <g id="line2d_103">
      <g>
       <use xlink:href="#m3bb1f06c3c" x="470.016" y="394.024091" style="stroke: #000000; stroke-width: 0.8"/>
      </g>
     </g>
     <g id="text_43">
      <!-- 0.6 -->
      <g transform="translate(447.112875 397.82331) scale(0.1 -0.1)">
       <use xlink:href="#DejaVuSans-30"/>
       <use xlink:href="#DejaVuSans-2e" transform="translate(63.623047 0)"/>
       <use xlink:href="#DejaVuSans-36" transform="translate(95.410156 0)"/>
      </g>
     </g>
    </g>
    <g id="ytick_23">
     <g id="line2d_104">
      <path d="M 470.016 350.942273 
L 850.537609 350.942273 
" clip-path="url(#p1e5baae129)" style="fill: none; stroke-dasharray: 2.96,1.28; stroke-dashoffset: 0; stroke: #b0b0b0; stroke-opacity: 0.7; stroke-width: 0.8"/>
     </g>
     <g id="line2d_105">
      <g>
       <use xlink:href="#m3bb1f06c3c" x="470.016" y="350.942273" style="stroke: #000000; stroke-width: 0.8"/>
      </g>
     </g>
     <g id="text_44">
      <!-- 0.8 -->
      <g transform="translate(447.112875 354.741491) scale(0.1 -0.1)">
       <use xlink:href="#DejaVuSans-30"/>
       <use xlink:href="#DejaVuSans-2e" transform="translate(63.623047 0)"/>
       <use xlink:href="#DejaVuSans-38" transform="translate(95.410156 0)"/>
      </g>
     </g>
    </g>
    <g id="ytick_24">
     <g id="line2d_106">
      <path d="M 470.016 307.860455 
L 850.537609 307.860455 
" clip-path="url(#p1e5baae129)" style="fill: none; stroke-dasharray: 2.96,1.28; stroke-dashoffset: 0; stroke: #b0b0b0; stroke-opacity: 0.7; stroke-width: 0.8"/>
     </g>
     <g id="line2d_107">
      <g>
       <use xlink:href="#m3bb1f06c3c" x="470.016" y="307.860455" style="stroke: #000000; stroke-width: 0.8"/>
      </g>
     </g>
     <g id="text_45">
      <!-- 1.0 -->
      <g transform="translate(447.112875 311.659673) scale(0.1 -0.1)">
       <use xlink:href="#DejaVuSans-31"/>
       <use xlink:href="#DejaVuSans-2e" transform="translate(63.623047 0)"/>
       <use xlink:href="#DejaVuSans-30" transform="translate(95.410156 0)"/>
      </g>
     </g>
    </g>
   </g>
   <g id="line2d_108">
    <path d="M 487.312437 523.269545 
L 492.184672 523.269545 
L 497.056908 523.269545 
L 501.929144 523.269545 
L 506.80138 523.269545 
L 511.673615 523.269545 
L 516.545851 523.269545 
L 521.418087 523.269545 
L 526.290322 523.269545 
L 531.162558 523.269545 
L 536.034794 523.269545 
L 540.90703 523.269545 
L 545.779265 523.269545 
L 550.651501 523.269545 
L 555.523737 523.269545 
L 560.395972 523.269545 
L 565.268208 523.269545 
L 570.140444 523.269545 
L 575.01268 523.269545 
L 579.884915 523.269545 
L 584.757151 523.269545 
L 589.629387 523.269545 
L 594.501622 523.269545 
L 599.373858 523.269545 
L 604.246094 523.269545 
L 609.11833 523.269545 
L 613.990565 523.269545 
L 618.862801 523.269545 
L 623.735037 523.269545 
L 628.607272 523.269545 
L 633.479508 523.269545 
L 638.351744 523.269545 
L 643.22398 523.269545 
L 648.096215 523.269545 
L 652.968451 523.269544 
L 657.840687 523.269543 
L 662.712922 523.269542 
L 667.585158 523.269539 
L 672.457394 523.269535 
L 677.32963 523.269528 
L 682.201865 523.269517 
L 687.074101 523.269498 
L 691.946337 523.269466 
L 696.818572 523.269413 
L 701.690808 523.269325 
L 706.563044 523.269178 
L 711.43528 523.268933 
L 716.307515 523.268525 
L 721.179751 523.267844 
L 726.051987 523.26671 
L 730.924222 523.26482 
L 735.796458 523.26167 
L 740.668694 523.256419 
L 745.54093 523.247669 
L 750.413165 523.233084 
L 755.285401 523.208776 
L 760.157637 523.168263 
L 765.029872 523.100742 
L 769.902108 522.988206 
L 774.774344 522.800647 
L 779.64658 522.488048 
L 784.518815 521.967049 
L 789.391051 521.098718 
L 794.263287 519.6515 
L 799.135522 517.23947 
L 804.007758 513.219419 
L 808.879994 506.519335 
L 813.752229 495.352527 
L 818.624465 476.741182 
L 823.496701 445.722273 
L 828.368937 394.024091 
L 833.241172 307.860455 
" clip-path="url(#p1e5baae129)" style="fill: none; stroke: #0000ff; stroke-width: 1.5; stroke-linecap: square"/>
   </g>
   <g id="patch_18">
    <path d="M 470.016 534.04 
L 470.016 297.09 
" style="fill: none; stroke: #000000; stroke-width: 0.8; stroke-linejoin: miter; stroke-linecap: square"/>
   </g>
   <g id="patch_19">
    <path d="M 850.537609 534.04 
L 850.537609 297.09 
" style="fill: none; stroke: #000000; stroke-width: 0.8; stroke-linejoin: miter; stroke-linecap: square"/>
   </g>
   <g id="patch_20">
    <path d="M 470.016 534.04 
L 850.537609 534.04 
" style="fill: none; stroke: #000000; stroke-width: 0.8; stroke-linejoin: miter; stroke-linecap: square"/>
   </g>
   <g id="patch_21">
    <path d="M 470.016 297.09 
L 850.537609 297.09 
" style="fill: none; stroke: #000000; stroke-width: 0.8; stroke-linejoin: miter; stroke-linecap: square"/>
   </g>
   <g id="text_46">
    <!-- Weights for $\lambda = 0.6$ -->
    <g transform="translate(603.336805 291.09) scale(0.12 -0.12)">
     <use xlink:href="#DejaVuSans-57" transform="translate(0 0.015625)"/>
     <use xlink:href="#DejaVuSans-65" transform="translate(98.876953 0.015625)"/>
     <use xlink:href="#DejaVuSans-69" transform="translate(160.400391 0.015625)"/>
     <use xlink:href="#DejaVuSans-67" transform="translate(188.183594 0.015625)"/>
     <use xlink:href="#DejaVuSans-68" transform="translate(251.660156 0.015625)"/>
     <use xlink:href="#DejaVuSans-74" transform="translate(315.039062 0.015625)"/>
     <use xlink:href="#DejaVuSans-73" transform="translate(354.248047 0.015625)"/>
     <use xlink:href="#DejaVuSans-20" transform="translate(406.347656 0.015625)"/>
     <use xlink:href="#DejaVuSans-66" transform="translate(438.134766 0.015625)"/>
     <use xlink:href="#DejaVuSans-6f" transform="translate(473.339844 0.015625)"/>
     <use xlink:href="#DejaVuSans-72" transform="translate(534.521484 0.015625)"/>
     <use xlink:href="#DejaVuSans-20" transform="translate(575.634766 0.015625)"/>
     <use xlink:href="#DejaVuSans-Oblique-3bb" transform="translate(607.421875 0.015625)"/>
     <use xlink:href="#DejaVuSans-3d" transform="translate(686.083984 0.015625)"/>
     <use xlink:href="#DejaVuSans-30" transform="translate(789.355469 0.015625)"/>
     <use xlink:href="#DejaVuSans-2e" transform="translate(852.978516 0.015625)"/>
     <use xlink:href="#DejaVuSans-36" transform="translate(884.765625 0.015625)"/>
    </g>
   </g>
  </g>
 </g>
 <defs>
  <clipPath id="pb8962644b8">
   <rect x="53.192" y="28.32" width="380.521609" height="236.95"/>
  </clipPath>
  <clipPath id="pc760ae840e">
   <rect x="470.016" y="28.32" width="380.521609" height="236.95"/>
  </clipPath>
  <clipPath id="p6123c4da26">
   <rect x="53.192" y="297.09" width="380.521609" height="236.95"/>
  </clipPath>
  <clipPath id="p1e5baae129">
   <rect x="470.016" y="297.09" width="380.521609" height="236.95"/>
  </clipPath>
 </defs>
</svg>
